<?xml version="1.0" encoding="iso-8859-1"?>
<!-- Generator: Adobe Illustrator 17.0.0, SVG Export Plug-In . SVG Version: 6.00 Build 0)  -->
<!DOCTYPE svg PUBLIC "-//W3C//DTD SVG 1.1//EN" "http://www.w3.org/Graphics/SVG/1.1/DTD/svg11.dtd">
<svg version="1.1" xmlns="http://www.w3.org/2000/svg" xmlns:xlink="http://www.w3.org/1999/xlink" x="0px" y="0px" width="80px"
	 height="120px" viewBox="0 0 80 120" style="enable-background:new 0 0 80 120;" xml:space="preserve">
<g id="Coils_x5F_Cooling_x5F_2Way_x5F_Bottom_x5F_2">
	<g>
		<path style="fill:#5898AE;" d="M28.054,117.67c0,1.287-1.803,2.33-4.027,2.33S20,118.957,20,117.67V48.59h8.051v69.08H28.054z"/>
		<g>
			<path style="fill:#84B9D6;" d="M22.045,48.602h3.965l0.002,71.088c0,0-0.966,0.31-1.985,0.31c-1.018,0-1.982-0.31-1.982-0.31
				L22.045,48.602z"/>
		</g>
	</g>
	<g>
		<path style="fill:#327589;" d="M48.054,117.67c0,1.287-1.803,2.33-4.027,2.33S40,118.957,40,117.67V48.59h8.051v69.08H48.054z"/>
		<g>
			<path style="fill:#5898AE;" d="M42.045,48.602h3.965l0.002,71.088c0,0-0.966,0.31-1.985,0.31s-1.982-0.309-1.982-0.309
				L42.045,48.602z"/>
		</g>
	</g>
	<g>
		<g>
			<polygon style="fill:#E7E9EA;" points="0,70.04 80,70.061 80,20.061 0,20.04 			"/>
			<g>
				<polyline style="fill:#E7E9EA;" points="80,20 0,20 0,0 80,0 				"/>
				<polygon style="fill:#6A7276;" points="80,21.583 0,21.576 0,19.953 80,19.953 				"/>
				<g>
					<polyline style="fill:#DDDFE1;" points="80,88.494 0,88.494 0,68.494 80,68.494 					"/>
					<rect y="88.433" style="fill:#6A7276;" width="80" height="1.567"/>
				</g>
			</g>
		</g>
		<line style="fill:none;stroke:#ABAAA9;stroke-width:0.6;stroke-miterlimit:10;" x1="0" y1="68.422" x2="80" y2="68.422"/>
	</g>
	<g>
		<line style="fill:none;stroke:#FFFFFF;stroke-width:0.2;stroke-miterlimit:10;" x1="37.218" y1="21" x2="39.515" y2="22.513"/>
		<polygon style="fill:#CDCEC6;" points="58,87.874 56.089,87.874 54.764,87.302 42.034,87.302 40.89,87.874 38.726,87.874 
			38.726,22.733 58,22.733 		"/>
		<polygon style="fill:#AEAFA7;" points="11.957,21.22 11.957,69.779 38.725,87.874 38.725,22.733 36.352,21.22 		"/>
		<polygon style="fill:#B4B5B0;" points="36.352,21.22 38.726,22.733 40.799,22.733 42.004,23.26 54.833,23.275 56.158,22.734 
			58,22.733 55.686,21.22 		"/>
		<line style="fill:none;stroke:#FFFFFF;stroke-width:0.2;stroke-miterlimit:10;" x1="36.352" y1="21.22" x2="38.648" y2="22.733"/>
		<polyline style="fill:none;stroke:#999999;stroke-width:0.25;stroke-miterlimit:10;" points="38.33,21.22 42.004,23.26 
			42.004,86.88 		"/>
		<polyline style="fill:none;stroke:#DCDBDB;stroke-width:0.25;stroke-miterlimit:10;" points="53.824,21.22 56.158,22.734 
			56.158,87.437 		"/>
		<polyline style="fill:none;stroke:#999999;stroke-width:0.25;stroke-miterlimit:10;" points="51.731,21.22 54.833,23.275 
			54.833,86.91 		"/>
		<polyline style="fill:none;stroke:#DCDBDB;stroke-width:0.25;stroke-miterlimit:10;" points="38.074,21.22 40.799,22.733 
			40.799,87.512 		"/>
		<polygon style="fill:none;stroke:#F7F8F9;stroke-width:0.2;stroke-miterlimit:10;" points="57.845,87.874 55.934,87.874 
			54.609,87.302 41.878,87.302 40.734,87.874 38.648,87.874 38.648,22.733 40.799,22.733 42.004,23.26 54.833,23.275 56.158,22.733 
			57.845,22.733 		"/>
		<g>
			<path style="fill:#9B9A9A;" d="M43.716,64.673c-0.009-0.96,0.762-1.746,1.722-1.756l0,0c0.96-0.009,1.746,0.762,1.756,1.722
				l0.067,6.955c0.009,0.96-0.762,1.746-1.722,1.756l0,0c-0.96,0.009-1.746-0.762-1.756-1.722L43.716,64.673z"/>
			<path style="fill:#9B9A9A;" d="M43.75,50.58c0-0.96,0.779-1.739,1.739-1.739l0,0c0.96,0,1.739,0.779,1.739,1.739v6.955
				c0,0.96-0.779,1.739-1.739,1.739l0,0c-0.96,0-1.739-0.779-1.739-1.739V50.58z"/>
			<path style="fill:#9B9A9A;" d="M43.75,36.504c0-0.96,0.779-1.739,1.739-1.739l0,0c0.96,0,1.739,0.779,1.739,1.739v6.955
				c0,0.96-0.779,1.739-1.739,1.739l0,0c-0.96,0-1.739-0.779-1.739-1.739V36.504z"/>
			<path style="fill:#9B9A9A;" d="M49.532,71.695c0-0.96,0.779-1.739,1.739-1.739l0,0c0.96,0,1.739,0.779,1.739,1.739v6.955
				c0,0.96-0.779,1.739-1.739,1.739l0,0c-0.96,0-1.739-0.779-1.739-1.739V71.695z"/>
			<path style="fill:#9B9A9A;" d="M49.532,57.618c0-0.96,0.779-1.739,1.739-1.739l0,0c0.96,0,1.739,0.779,1.739,1.739v6.955
				c0,0.96-0.779,1.739-1.739,1.739l0,0c-0.96,0-1.739-0.779-1.739-1.739V57.618z"/>
			<path style="fill:#9B9A9A;" d="M49.532,43.542c0-0.96,0.779-1.739,1.739-1.739l0,0c0.96,0,1.739,0.779,1.739,1.739v6.955
				c0,0.96-0.779,1.739-1.739,1.739l0,0c-0.96,0-1.739-0.779-1.739-1.739V43.542z"/>
			<path style="fill:#9B9A9A;" d="M49.532,29.465c0-0.96,0.779-1.739,1.739-1.739l0,0c0.96,0,1.739,0.779,1.739,1.739v6.955
				c0,0.96-0.779,1.739-1.739,1.739l0,0c-0.96,0-1.739-0.779-1.739-1.739V29.465z"/>
		</g>
		<polygon style="fill:#B5B4AE;" points="32.838,21.22 36.984,24.058 36.984,82.641 13.697,67.064 13.697,21.22 		"/>
		<g>
			<linearGradient id="SVGID_1_" gradientUnits="userSpaceOnUse" x1="43.7163" y1="68.1167" x2="47.261" y2="68.1167">
				<stop  offset="0.2766" style="stop-color:#828386"/>
				<stop  offset="0.5584" style="stop-color:#ADAFB2"/>
				<stop  offset="0.835" style="stop-color:#828386"/>
			</linearGradient>
			<path style="fill:url(#SVGID_1_);" d="M43.716,64.656c-0.009-0.96,0.762-1.746,1.722-1.756l0,0
				c0.96-0.009,1.746,0.762,1.756,1.722l0.067,6.955c0.009,0.96-0.762,1.746-1.722,1.756l0,0c-0.96,0.009-1.746-0.762-1.756-1.722
				L43.716,64.656z"/>
			<linearGradient id="SVGID_2_" gradientUnits="userSpaceOnUse" x1="43.7498" y1="54.0403" x2="47.2275" y2="54.0403">
				<stop  offset="0.2766" style="stop-color:#828386"/>
				<stop  offset="0.5584" style="stop-color:#ADAFB2"/>
				<stop  offset="0.835" style="stop-color:#828386"/>
			</linearGradient>
			<path style="fill:url(#SVGID_2_);" d="M43.75,50.563c0-0.96,0.779-1.739,1.739-1.739l0,0c0.96,0,1.739,0.779,1.739,1.739v6.955
				c0,0.96-0.779,1.739-1.739,1.739l0,0c-0.96,0-1.739-0.779-1.739-1.739V50.563z"/>
			<linearGradient id="SVGID_3_" gradientUnits="userSpaceOnUse" x1="43.7498" y1="39.9638" x2="47.2275" y2="39.9638">
				<stop  offset="0.2766" style="stop-color:#828386"/>
				<stop  offset="0.5584" style="stop-color:#ADAFB2"/>
				<stop  offset="0.835" style="stop-color:#828386"/>
			</linearGradient>
			<path style="fill:url(#SVGID_3_);" d="M43.75,36.486c0-0.96,0.779-1.739,1.739-1.739l0,0c0.96,0,1.739,0.779,1.739,1.739v6.955
				c0,0.96-0.779,1.739-1.739,1.739l0,0c-0.96,0-1.739-0.779-1.739-1.739V36.486z"/>
			<linearGradient id="SVGID_4_" gradientUnits="userSpaceOnUse" x1="49.532" y1="75.155" x2="53.0097" y2="75.155">
				<stop  offset="0.2766" style="stop-color:#828386"/>
				<stop  offset="0.5584" style="stop-color:#ADAFB2"/>
				<stop  offset="0.835" style="stop-color:#828386"/>
			</linearGradient>
			<path style="fill:url(#SVGID_4_);" d="M49.532,71.677c0-0.96,0.779-1.739,1.739-1.739l0,0c0.96,0,1.739,0.779,1.739,1.739v6.955
				c0,0.96-0.779,1.739-1.739,1.739l0,0c-0.96,0-1.739-0.779-1.739-1.739V71.677z"/>
			<linearGradient id="SVGID_5_" gradientUnits="userSpaceOnUse" x1="49.532" y1="61.0785" x2="53.0097" y2="61.0785">
				<stop  offset="0.2766" style="stop-color:#828386"/>
				<stop  offset="0.5584" style="stop-color:#ADAFB2"/>
				<stop  offset="0.835" style="stop-color:#828386"/>
			</linearGradient>
			<path style="fill:url(#SVGID_5_);" d="M49.532,57.601c0-0.96,0.779-1.739,1.739-1.739l0,0c0.96,0,1.739,0.779,1.739,1.739v6.955
				c0,0.96-0.779,1.739-1.739,1.739l0,0c-0.96,0-1.739-0.779-1.739-1.739V57.601z"/>
			<linearGradient id="SVGID_6_" gradientUnits="userSpaceOnUse" x1="49.532" y1="47.0021" x2="53.0097" y2="47.0021">
				<stop  offset="0.2766" style="stop-color:#828386"/>
				<stop  offset="0.5584" style="stop-color:#ADAFB2"/>
				<stop  offset="0.835" style="stop-color:#828386"/>
			</linearGradient>
			<path style="fill:url(#SVGID_6_);" d="M49.532,43.524c0-0.96,0.779-1.739,1.739-1.739l0,0c0.96,0,1.739,0.779,1.739,1.739v6.955
				c0,0.96-0.779,1.739-1.739,1.739l0,0c-0.96,0-1.739-0.779-1.739-1.739V43.524z"/>
			<linearGradient id="SVGID_7_" gradientUnits="userSpaceOnUse" x1="49.532" y1="32.9256" x2="53.0097" y2="32.9256">
				<stop  offset="0.2766" style="stop-color:#828386"/>
				<stop  offset="0.5584" style="stop-color:#ADAFB2"/>
				<stop  offset="0.835" style="stop-color:#828386"/>
			</linearGradient>
			<path style="fill:url(#SVGID_7_);" d="M49.532,29.448c0-0.96,0.779-1.739,1.739-1.739l0,0c0.96,0,1.739,0.779,1.739,1.739v6.955
				c0,0.96-0.779,1.739-1.739,1.739l0,0c-0.96,0-1.739-0.779-1.739-1.739V29.448z"/>
		</g>
		<g>
			<path style="fill:#AEADA8;stroke:#666766;stroke-width:0.25;stroke-miterlimit:10;" d="M43.716,64.656
				c-0.009-0.96,0.762-1.746,1.722-1.756l0,0c0.96-0.009,1.746,0.762,1.756,1.722l0.067,6.955c0.009,0.96-0.762,1.746-1.722,1.756
				l0,0c-0.96,0.009-1.746-0.762-1.756-1.722L43.716,64.656z"/>
			<path style="fill:#AEADA8;stroke:#666766;stroke-width:0.25;stroke-miterlimit:10;" d="M43.75,50.563
				c0-0.96,0.779-1.739,1.739-1.739l0,0c0.96,0,1.739,0.779,1.739,1.739v6.955c0,0.96-0.779,1.739-1.739,1.739l0,0
				c-0.96,0-1.739-0.779-1.739-1.739V50.563z"/>
			<path style="fill:#AEADA8;stroke:#666766;stroke-width:0.25;stroke-miterlimit:10;" d="M43.75,36.486
				c0-0.96,0.779-1.739,1.739-1.739l0,0c0.96,0,1.739,0.779,1.739,1.739v6.955c0,0.96-0.779,1.739-1.739,1.739l0,0
				c-0.96,0-1.739-0.779-1.739-1.739V36.486z"/>
			<path style="fill:#AEADA8;stroke:#666766;stroke-width:0.25;stroke-miterlimit:10;" d="M49.532,71.677
				c0-0.96,0.779-1.739,1.739-1.739l0,0c0.96,0,1.739,0.779,1.739,1.739v6.955c0,0.96-0.779,1.739-1.739,1.739l0,0
				c-0.96,0-1.739-0.779-1.739-1.739V71.677z"/>
			<path style="fill:#AEADA8;stroke:#666766;stroke-width:0.25;stroke-miterlimit:10;" d="M49.532,57.601
				c0-0.96,0.779-1.739,1.739-1.739l0,0c0.96,0,1.739,0.779,1.739,1.739v6.955c0,0.96-0.779,1.739-1.739,1.739l0,0
				c-0.96,0-1.739-0.779-1.739-1.739V57.601z"/>
			<path style="fill:#AEADA8;stroke:#666766;stroke-width:0.25;stroke-miterlimit:10;" d="M49.532,43.524
				c0-0.96,0.779-1.739,1.739-1.739l0,0c0.96,0,1.739,0.779,1.739,1.739v6.955c0,0.96-0.779,1.739-1.739,1.739l0,0
				c-0.96,0-1.739-0.779-1.739-1.739V43.524z"/>
			<path style="fill:#AEADA8;stroke:#666766;stroke-width:0.25;stroke-miterlimit:10;" d="M49.532,29.448
				c0-0.96,0.779-1.739,1.739-1.739l0,0c0.96,0,1.739,0.779,1.739,1.739v6.955c0,0.96-0.779,1.739-1.739,1.739l0,0
				c-0.96,0-1.739-0.779-1.739-1.739V29.448z"/>
		</g>
		<path style="fill:none;stroke:#4F4C4B;stroke-width:2;stroke-miterlimit:10;" d="M55.685,21.22c0,0,0.521,0.341,1.157,0.757
			c0.636,0.416,1.157,1.657,1.157,2.757v61.141c0,1.1-0.43,2-0.955,2c-0.526,0-1.254-0.129-1.618-0.286
			c-0.364-0.157-1.563-0.286-2.663-0.286h-8.73c-1.1,0-2.257,0.129-2.572,0.286c-0.315,0.157-1.059,0.286-1.654,0.286
			c-0.595,0-1.828-0.504-2.739-1.12L13.614,70.899c-0.911-0.616-1.657-2.02-1.657-3.12V21.22"/>
		<polygon style="fill:#84B9D6;" points="36.984,82.401 13.697,66.841 13.697,52.334 36.984,67.895 		"/>
		<polygon style="fill:#84B9D6;" points="36.984,67.895 13.697,52.334 13.697,37.827 36.984,53.388 		"/>
		<g>
			<polygon style="fill:#5898AE;" points="36.984,79.398 13.697,63.82 13.697,60.577 36.984,76.155 			"/>
			<g>
				<polygon style="fill:#5898AE;" points="36.984,72.911 13.697,57.334 13.697,54.091 36.984,69.668 				"/>
			</g>
			<polygon style="fill:#5898AE;" points="36.985,66.425 13.697,50.847 13.697,47.604 36.985,63.182 			"/>
			<polygon style="fill:#5898AE;" points="36.985,59.938 13.698,44.361 13.698,41.118 36.985,56.695 			"/>
			<g>
				<polygon style="fill:#A3A19F;" points="36.985,53.452 13.698,37.875 13.698,34.631 36.985,50.209 				"/>
			</g>
			<polygon style="fill:#A3A19F;" points="36.985,46.965 13.698,31.388 13.698,28.145 36.985,43.722 			"/>
			<polygon style="fill:#A3A19F;" points="36.985,40.479 13.698,24.902 13.698,21.658 36.985,37.236 			"/>
			<g>
				<polygon style="fill:#A3A19F;" points="36.985,33.992 17.891,21.22 22.739,21.219 36.985,30.749 				"/>
			</g>
			<polygon style="fill:#A3A19F;" points="36.985,27.506 27.587,21.219 32.436,21.219 36.985,24.263 			"/>
		</g>
		<polyline style="fill:none;stroke:#000000;stroke-width:0.4;stroke-miterlimit:10;" points="13.697,21.22 13.697,67.064 
			36.984,82.641 36.984,24.058 32.838,21.22 		"/>
	</g>
</g>
<g id="Layer_1">
</g>
</svg>
