<?xml version="1.0" encoding="iso-8859-1"?>
<!-- Generator: Adobe Illustrator 17.0.0, SVG Export Plug-In . SVG Version: 6.00 Build 0)  -->
<!DOCTYPE svg PUBLIC "-//W3C//DTD SVG 1.1//EN" "http://www.w3.org/Graphics/SVG/1.1/DTD/svg11.dtd">
<svg version="1.1" xmlns="http://www.w3.org/2000/svg" xmlns:xlink="http://www.w3.org/1999/xlink" x="0px" y="0px"
	 width="103.199px" height="119.376px" viewBox="0 0 103.199 119.376" style="enable-background:new 0 0 103.199 119.376;"
	 xml:space="preserve">
<g id="misc_x5F_uh_x5F_On">
	<g>
		
			<ellipse transform="matrix(0.9948 -0.102 0.102 0.9948 -4.4706 9.7909)" style="fill:#CDCEC6;" cx="93.477" cy="48.598" rx="9.465" ry="23.661"/>
		<g>
			<path style="fill:#8F3F4D;" d="M72.944,117.046c0,1.287-1.803,2.33-4.027,2.33c-2.224,0-4.027-1.043-4.027-2.33v-69.08h8.051
				v69.08H72.944z"/>
			<g>
				<path style="fill:#C4515F;" d="M66.935,47.978H70.9l0.002,71.088c0,0-0.966,0.31-1.985,0.31s-1.982-0.309-1.982-0.309
					L66.935,47.978z"/>
			</g>
		</g>
		<g>
			<path style="fill:#B22B32;" d="M52.944,117.046c0,1.287-1.803,2.33-4.027,2.33s-4.027-1.043-4.027-2.33v-75.08h8.051v75.08
				H52.944z"/>
			<g>
				<path style="fill:#F16479;" d="M46.935,41.978H50.9l0.002,77.088c0,0-0.966,0.309-1.985,0.309c-1.018,0-1.982-0.309-1.982-0.309
					L46.935,41.978z"/>
			</g>
		</g>
		<rect x="0" y="0" style="fill:#B4B5B0;" width="68.257" height="69"/>
		<polygon style="fill:#B4B5B0;" points="99.169,20.672 30.912,20.672 0,0 68.257,0 		"/>
		
			<rect x="30.912" y="20.672" style="fill:#CDCEC6;stroke:#EDEDE8;stroke-width:0.5;stroke-miterlimit:10;" width="68.257" height="69"/>
		
			<line style="fill:none;stroke:#EDEDE8;stroke-width:0.25;stroke-miterlimit:10;" x1="30.787" y1="20.672" x2="99.169" y2="20.672"/>
		<g>
			<polygon style="fill:#AEAFA7;" points="30.912,89.672 0,69 0,0 30.912,20.672 			"/>
			
				<line style="fill:none;stroke:#EDEDE8;stroke-width:0.25;stroke-miterlimit:10;" x1="0.482" y1="0.322" x2="30.912" y2="20.672"/>
			
				<line style="fill:none;stroke:#EDEDE8;stroke-width:0.25;stroke-miterlimit:10;" x1="30.912" y1="88.735" x2="30.912" y2="20.672"/>
		</g>
		<polyline style="fill:none;stroke:#EDEDE8;stroke-width:0.25;stroke-miterlimit:10;" points="98.015,21.204 98.015,88.735 
			31.465,88.735 		"/>
		<polyline style="fill:none;stroke:#7A7A6F;stroke-width:0.5;stroke-miterlimit:10;" points="31.465,89.001 31.465,21.204 
			97.849,21.204 		"/>
		<polygon style="fill:#B4B5B0;" points="97.726,88.422 31.766,88.422 31.765,69.251 66.814,69.251 		"/>
		
			<ellipse transform="matrix(0.9948 -0.102 0.102 0.9948 -4.5213 8.799)" style="fill:#AEAFA7;stroke:#878980;stroke-width:0.5;stroke-miterlimit:10;" cx="83.755" cy="48.598" rx="9.465" ry="23.661"/>
		<g>
			<g>
				<path style="fill:#CDCEC6;stroke:#212121;stroke-width:0.25;stroke-miterlimit:10;" d="M85.38,32.049
					c0.339,0.592,0.717,3.234,0.37,5.729c-0.331,2.385-1.432,3.743-1.961,4.657c-0.833,1.438-0.207,3.605-0.207,3.605l-2.955,1.377
					c0,0,0.663-2.42-0.316-4.038c-0.396-0.654-1.631-2.007-1.921-3.082c-0.663-2.46-0.515-4.186-0.545-4.756
					c-0.068-1.284,0.291-2.634,0.676-3.108c0.392-0.482,1.176-1.171,3.122-1.41C84.737,30.641,85.04,31.457,85.38,32.049z"/>
				<path style="fill:#CDCEC6;stroke:#212121;stroke-width:0.25;stroke-miterlimit:10;" d="M82.544,54.101
					c0,0-0.816,1.528-1.004,3.707c-0.201,2.32-0.939,8.625-2.132,10.078c-0.315,0.383-1.568-3.338-1.863-4.837
					c-0.487-2.47-0.005-4.881,0.351-6.144c0.628-2.231,1.312-2.582,1.974-3.153c0.643-0.554,0.56-1.572,0.56-1.572L82.544,54.101z"
					/>
				<path style="fill:#CDCEC6;stroke:#212121;stroke-width:0.25;stroke-miterlimit:10;" d="M81.192,46.376l-0.666,6.178
					c0,0-0.836-1.357-1.829-1.141c-1.203,0.263-1.388,1.486-3.084,1.504c-1.317,0.013-2.142-1.01-2.204-1.607
					c-0.082-0.782,0.262-3.038,0.718-4.55c0.54-1.791,1.716-4.936,2.289-5.192c0.573-0.256,2.195-0.357,2.925,1.349
					c0.168,0.392,0.259,1.94,0.452,2.658C80.092,46.693,81.192,46.376,81.192,46.376z"/>
				<path style="fill:#CDCEC6;stroke:#212121;stroke-width:0.25;stroke-miterlimit:10;" d="M85.133,31.988
					c0.339,0.592,0.717,3.234,0.37,5.729c-0.331,2.385-1.432,3.743-1.961,4.657c-0.833,1.438-0.207,3.605-0.207,3.605l-2.955,1.377
					c0,0,0.663-2.42-0.316-4.038c-0.396-0.654-1.631-2.007-1.921-3.082c-0.663-2.46-0.515-4.186-0.546-4.756
					c-0.068-1.284,0.291-2.634,0.676-3.108c0.392-0.482,1.176-1.171,3.122-1.41C84.49,30.581,84.793,31.397,85.133,31.988z"/>
				<path style="fill:#CDCEC6;stroke:#212121;stroke-width:0.25;stroke-miterlimit:10;" d="M82.297,54.041
					c0,0-0.816,1.528-1.004,3.707c-0.201,2.32-0.939,8.625-2.132,10.078c-0.315,0.383-1.568-3.338-1.863-4.837
					c-0.487-2.47-0.005-4.881,0.351-6.144c0.628-2.231,1.312-2.582,1.974-3.153c0.643-0.554,0.56-1.572,0.56-1.572L82.297,54.041z"
					/>
				<path style="fill:#CDCEC6;stroke:#212121;stroke-width:0.25;stroke-miterlimit:10;" d="M80.945,46.316l-0.666,6.178
					c0,0-0.836-1.357-1.829-1.141c-1.203,0.263-1.388,1.486-3.084,1.504c-1.317,0.013-2.142-1.01-2.204-1.607
					c-0.082-0.782,0.262-3.038,0.718-4.55c0.54-1.791,1.716-4.936,2.289-5.192c0.573-0.256,2.195-0.357,2.925,1.349
					c0.168,0.392,0.259,1.94,0.452,2.658C79.845,46.632,80.945,46.316,80.945,46.316z"/>
				<path style="fill:#B7B7AE;stroke:#212121;stroke-width:0.25;stroke-miterlimit:10;" d="M82.152,45.597l7.07,0.035
					c1.1,0.014,1.944,2.008,1.885,4.454c-0.058,2.445-0.997,4.416-2.097,4.401l-7.07-0.035"/>
				<path style="fill:#B7B7AE;stroke:#212121;stroke-width:0.25;stroke-miterlimit:10;" d="M82.152,45.597
					c1.1,0.014,1.944,2.008,1.885,4.454c-0.058,2.445-0.997,4.416-2.097,4.401s-1.944-2.008-1.885-4.454
					C80.114,47.553,81.052,45.583,82.152,45.597z"/>
				<path style="fill:#CDCEC6;stroke:#212121;stroke-width:0.25;stroke-miterlimit:10;" d="M91.901,48.9
					c-0.312,0.912-0.543,1.603-1.706,2.022c-2.145,0.774-2.961-1.161-3.906-1.12c-0.814,0.035-1.708,1.897-1.708,1.897
					s0.315-1.977-0.053-3.633c-0.401-1.805-1.266-2.462-1.266-2.462s0.081,0.369,1.123-0.92c0.715-0.884,0.153-3.674,1.063-5.336
					c0.531-0.969,1.594-2.084,2.22-2.685c0.681-0.655,1.902-0.928,2.372-0.306c0.602,0.797,1.077,2.068,1.409,3.902
					C92.174,44.258,92.213,47.988,91.901,48.9z"/>
				<path style="fill:#CDCEC6;stroke:#212121;stroke-width:0.25;stroke-miterlimit:10;" d="M91.654,48.839
					c-0.312,0.912-0.543,1.603-1.706,2.022c-2.145,0.774-2.961-1.161-3.906-1.12c-0.814,0.035-1.708,1.897-1.708,1.897
					s0.315-1.977-0.053-3.633c-0.401-1.805-1.266-2.462-1.266-2.462s0.081,0.369,1.123-0.92c0.715-0.884,0.153-3.674,1.063-5.336
					c0.531-0.969,1.594-2.084,2.22-2.685c0.681-0.655,1.902-0.928,2.372-0.306c0.602,0.797,1.077,2.068,1.409,3.902
					C91.927,44.198,91.966,47.928,91.654,48.839z"/>
				<path style="fill:#CDCEC6;stroke:#212121;stroke-width:0.25;stroke-miterlimit:10;" d="M84.523,51.48
					c0,0,0.285,1.048,1.239,1.554c0.522,0.277,1.613,1.003,2.208,2.014c0.679,1.152,1.739,3.46,2.023,4.052
					c0.312,0.652,0.222,1.9,0.048,3.101c-0.192,1.318-1.38,5.214-2.539,5.017c-0.777-0.132-2.117-2.18-3.07-5.681
					c-0.42-1.543-0.388-3.196-0.71-4.473c-0.408-1.62-1.36-2.618-1.36-2.618s0.983-0.041,1.457-0.892
					C84.294,52.705,84.523,51.48,84.523,51.48z"/>
				<path style="fill:#CDCEC6;stroke:#212121;stroke-width:0.25;stroke-miterlimit:10;" d="M84.276,51.42
					c0,0,0.285,1.048,1.239,1.554c0.522,0.277,1.613,1.003,2.208,2.014c0.679,1.152,1.739,3.46,2.023,4.052
					c0.312,0.652,0.222,1.9,0.048,3.101c-0.192,1.318-1.38,5.214-2.539,5.017c-0.777-0.132-2.117-2.18-3.07-5.681
					c-0.42-1.543-0.388-3.196-0.71-4.473c-0.408-1.62-1.36-2.618-1.36-2.618s0.983-0.041,1.457-0.892
					C84.047,52.644,84.276,51.42,84.276,51.42z"/>
			</g>
			<path style="fill:#B7B7AE;stroke:#212121;stroke-width:0.15;stroke-miterlimit:10;" d="M82.107,47.501
				c0.627,0.008,1.108,1.145,1.074,2.538c-0.033,1.393-0.568,2.516-1.195,2.508s-1.108-1.145-1.074-2.538
				C80.945,48.616,81.48,47.493,82.107,47.501z"/>
		</g>
		<g>
			<polygon style="fill:#C7C8BD;" points="28.015,84.709 1.979,67.049 1.976,4.597 2.514,4.96 2.641,66.311 28.015,83.501 			"/>
		</g>
		<g>
			<path style="fill:#878983;" d="M2.103,4.703l25.954,17.526v62.272L2.103,66.975V4.703 M1.603,3.762V67.24l26.954,18.202V21.964
				L1.603,3.762L1.603,3.762z"/>
		</g>
		<g>
			<g>
				<polygon style="fill:#CDCEC6;" points="28.015,83.314 2.663,66.237 2.568,5.029 27.92,22.106 				"/>
			</g>
			<g>
				<g>
					<g>
						<g>
							<g>
								<polygon style="fill:#E2E2DC;" points="27.907,22.819 2.555,5.742 2.568,5.029 27.92,22.106 								"/>
							</g>
							<g>
								<polygon style="fill:#E2E2DC;" points="27.907,24.007 2.555,6.93 2.568,6.217 27.92,23.294 								"/>
							</g>
						</g>
						<g>
							<g>
								<polygon style="fill:#E2E2DC;" points="27.907,25.194 2.555,8.117 2.568,7.404 27.92,24.481 								"/>
							</g>
							<g>
								<polygon style="fill:#E2E2DC;" points="27.907,26.382 2.555,9.305 2.568,8.592 27.92,25.669 								"/>
							</g>
						</g>
					</g>
					<g>
						<g>
							<g>
								<polygon style="fill:#E2E2DC;" points="27.907,27.569 2.555,10.492 2.568,9.779 27.92,26.856 								"/>
							</g>
							<g>
								<polygon style="fill:#E2E2DC;" points="27.907,28.757 2.555,11.68 2.568,10.967 27.92,28.044 								"/>
							</g>
						</g>
						<g>
							<g>
								<polygon style="fill:#E2E2DC;" points="27.907,29.944 2.555,12.867 2.568,12.154 27.92,29.231 								"/>
							</g>
							<g>
								<polygon style="fill:#E2E2DC;" points="27.907,31.132 2.555,14.055 2.568,13.342 27.92,30.419 								"/>
							</g>
						</g>
					</g>
				</g>
				<g>
					<g>
						<g>
							<g>
								<polygon style="fill:#E2E2DC;" points="27.907,32.308 2.555,15.231 2.568,14.518 27.92,31.595 								"/>
							</g>
							<g>
								<polygon style="fill:#E2E2DC;" points="27.907,33.495 2.555,16.418 2.568,15.705 27.92,32.782 								"/>
							</g>
						</g>
						<g>
							<g>
								<polygon style="fill:#E2E2DC;" points="27.907,34.683 2.555,17.606 2.568,16.893 27.92,33.97 								"/>
							</g>
							<g>
								<polygon style="fill:#E2E2DC;" points="27.907,35.87 2.555,18.793 2.568,18.08 27.92,35.157 								"/>
							</g>
						</g>
					</g>
					<g>
						<g>
							<g>
								<polygon style="fill:#E2E2DC;" points="27.907,37.058 2.555,19.981 2.568,19.268 27.92,36.345 								"/>
							</g>
							<g>
								<polygon style="fill:#E2E2DC;" points="27.907,38.245 2.555,21.168 2.568,20.455 27.92,37.532 								"/>
							</g>
						</g>
						<g>
							<g>
								<polygon style="fill:#E2E2DC;" points="27.907,39.433 2.555,22.356 2.568,21.643 27.92,38.72 								"/>
							</g>
							<g>
								<polygon style="fill:#E2E2DC;" points="27.907,40.62 2.555,23.543 2.568,22.83 27.92,39.907 								"/>
							</g>
						</g>
					</g>
				</g>
			</g>
			<g>
				<g>
					<g>
						<g>
							<g>
								<polygon style="fill:#E2E2DC;" points="27.961,41.796 2.609,24.719 2.622,24.007 27.974,41.083 								"/>
							</g>
							<g>
								<polygon style="fill:#E2E2DC;" points="27.961,42.984 2.609,25.907 2.622,25.194 27.974,42.271 								"/>
							</g>
						</g>
						<g>
							<g>
								<polygon style="fill:#E2E2DC;" points="27.961,44.171 2.609,27.094 2.622,26.382 27.974,43.458 								"/>
							</g>
							<g>
								<polygon style="fill:#E2E2DC;" points="27.961,45.359 2.609,28.282 2.622,27.569 27.974,44.646 								"/>
							</g>
						</g>
					</g>
					<g>
						<g>
							<g>
								<polygon style="fill:#E2E2DC;" points="27.961,46.546 2.609,29.469 2.622,28.757 27.974,45.833 								"/>
							</g>
							<g>
								<polygon style="fill:#E2E2DC;" points="27.961,47.734 2.609,30.657 2.622,29.944 27.974,47.021 								"/>
							</g>
						</g>
						<g>
							<g>
								<polygon style="fill:#E2E2DC;" points="27.961,48.921 2.609,31.844 2.622,31.132 27.974,48.208 								"/>
							</g>
							<g>
								<polygon style="fill:#E2E2DC;" points="27.961,50.109 2.609,33.032 2.622,32.319 27.974,49.396 								"/>
							</g>
						</g>
					</g>
				</g>
				<g>
					<g>
						<g>
							<g>
								<polygon style="fill:#E2E2DC;" points="27.961,51.285 2.609,34.208 2.622,33.495 27.974,50.572 								"/>
							</g>
							<g>
								<polygon style="fill:#E2E2DC;" points="27.961,52.472 2.609,35.396 2.622,34.683 27.974,51.76 								"/>
							</g>
						</g>
						<g>
							<g>
								<polygon style="fill:#E2E2DC;" points="27.961,53.66 2.609,36.583 2.622,35.87 27.974,52.947 								"/>
							</g>
							<g>
								<polygon style="fill:#E2E2DC;" points="27.961,54.847 2.609,37.771 2.622,37.058 27.974,54.135 								"/>
							</g>
						</g>
					</g>
					<g>
						<g>
							<g>
								<polygon style="fill:#E2E2DC;" points="27.961,56.035 2.609,38.958 2.622,38.245 27.974,55.322 								"/>
							</g>
							<g>
								<polygon style="fill:#E2E2DC;" points="27.961,57.222 2.609,40.146 2.622,39.433 27.974,56.51 								"/>
							</g>
						</g>
						<g>
							<g>
								<polygon style="fill:#E2E2DC;" points="27.961,58.41 2.609,41.333 2.622,40.62 27.974,57.697 								"/>
							</g>
							<g>
								<polygon style="fill:#E2E2DC;" points="27.961,59.597 2.609,42.521 2.622,41.808 27.974,58.885 								"/>
							</g>
						</g>
					</g>
				</g>
			</g>
			<g>
				<g>
					<g>
						<g>
							<g>
								<polygon style="fill:#E2E2DC;" points="27.961,60.767 2.609,43.69 2.622,42.977 27.974,60.054 								"/>
							</g>
							<g>
								<polygon style="fill:#E2E2DC;" points="27.961,61.954 2.609,44.878 2.622,44.165 27.974,61.242 								"/>
							</g>
						</g>
						<g>
							<g>
								<polygon style="fill:#E2E2DC;" points="27.961,63.142 2.609,46.065 2.622,45.352 27.974,62.429 								"/>
							</g>
							<g>
								<polygon style="fill:#E2E2DC;" points="27.961,64.329 2.609,47.253 2.622,46.54 27.974,63.617 								"/>
							</g>
						</g>
					</g>
					<g>
						<g>
							<g>
								<polygon style="fill:#E2E2DC;" points="27.961,65.517 2.609,48.44 2.622,47.727 27.974,64.804 								"/>
							</g>
							<g>
								<polygon style="fill:#E2E2DC;" points="27.961,66.704 2.609,49.628 2.622,48.915 27.974,65.992 								"/>
							</g>
						</g>
						<g>
							<g>
								<polygon style="fill:#E2E2DC;" points="27.961,67.892 2.609,50.815 2.622,50.102 27.974,67.179 								"/>
							</g>
							<g>
								<polygon style="fill:#E2E2DC;" points="27.961,69.079 2.609,52.003 2.622,51.29 27.974,68.367 								"/>
							</g>
						</g>
					</g>
				</g>
				<g>
					<g>
						<g>
							<g>
								<polygon style="fill:#E2E2DC;" points="27.961,70.256 2.609,53.179 2.622,52.466 27.974,69.543 								"/>
							</g>
							<g>
								<polygon style="fill:#E2E2DC;" points="27.961,71.443 2.609,54.366 2.622,53.653 27.974,70.73 								"/>
							</g>
						</g>
						<g>
							<g>
								<polygon style="fill:#E2E2DC;" points="27.961,72.631 2.609,55.554 2.622,54.841 27.974,71.918 								"/>
							</g>
							<g>
								<polygon style="fill:#E2E2DC;" points="27.961,73.818 2.609,56.741 2.622,56.028 27.974,73.105 								"/>
							</g>
						</g>
					</g>
					<g>
						<g>
							<g>
								<polygon style="fill:#E2E2DC;" points="27.961,75.006 2.609,57.929 2.622,57.216 27.974,74.293 								"/>
							</g>
							<g>
								<polygon style="fill:#E2E2DC;" points="27.961,76.193 2.609,59.116 2.622,58.403 27.974,75.48 								"/>
							</g>
						</g>
						<g>
							<g>
								<polygon style="fill:#E2E2DC;" points="27.961,77.381 2.609,60.304 2.622,59.591 27.974,76.668 								"/>
							</g>
							<g>
								<polygon style="fill:#E2E2DC;" points="27.961,78.568 2.609,61.491 2.622,60.778 27.974,77.855 								"/>
							</g>
						</g>
					</g>
				</g>
			</g>
			<g>
				<g>
					<g>
						<g>
							<g>
								<polygon style="fill:#E2E2DC;" points="27.961,79.744 2.609,62.667 2.622,61.954 27.974,79.031 								"/>
							</g>
							<g>
								<polygon style="fill:#E2E2DC;" points="27.961,80.932 2.609,63.855 2.622,63.142 27.974,80.219 								"/>
							</g>
						</g>
						<g>
							<g>
								<polygon style="fill:#E2E2DC;" points="27.961,82.119 2.609,65.042 2.622,64.329 27.974,81.406 								"/>
							</g>
							<g>
								<polygon style="fill:#E2E2DC;" points="27.961,83.307 2.609,66.23 2.622,65.517 27.974,82.594 								"/>
							</g>
						</g>
					</g>
				</g>
			</g>
		</g>
		<g>
			<g>
				
					<line style="fill:none;stroke:#FFFFFF;stroke-width:0.2;stroke-miterlimit:10;" x1="60.485" y1="21.588" x2="62.449" y2="22.882"/>
				<polygon style="fill:#CDCEC6;" points="80.934,88.243 79.023,88.243 77.698,87.67 64.967,87.67 63.823,88.243 61.659,88.243 
					61.659,23.102 80.934,23.102 				"/>
				<polygon style="fill:#AEAFA7;" points="34.89,21.588 34.89,70.148 61.658,88.243 61.658,23.102 59.286,21.588 				"/>
				<polygon style="fill:#B4B5B0;" points="59.286,21.588 61.659,23.102 63.733,23.102 64.937,23.628 77.767,23.644 79.092,23.103 
					80.934,23.102 78.62,21.588 				"/>
				
					<line style="fill:none;stroke:#FFFFFF;stroke-width:0.2;stroke-miterlimit:10;" x1="59.286" y1="21.588" x2="61.582" y2="23.102"/>
				<polyline style="fill:none;stroke:#999999;stroke-width:0.25;stroke-miterlimit:10;" points="61.263,21.588 64.937,23.628 
					64.937,87.249 				"/>
				<polyline style="fill:none;stroke:#DCDBDB;stroke-width:0.25;stroke-miterlimit:10;" points="76.758,21.588 79.092,23.103 
					79.092,87.806 				"/>
				<polyline style="fill:none;stroke:#999999;stroke-width:0.25;stroke-miterlimit:10;" points="74.665,21.588 77.767,23.644 
					77.767,87.279 				"/>
				<polyline style="fill:none;stroke:#DCDBDB;stroke-width:0.25;stroke-miterlimit:10;" points="61.007,21.588 63.733,23.102 
					63.733,87.881 				"/>
				<polygon style="fill:none;stroke:#F7F8F9;stroke-width:0.2;stroke-miterlimit:10;" points="80.778,88.243 78.867,88.243 
					77.542,87.67 64.812,87.67 63.668,88.243 61.582,88.243 61.582,23.102 63.733,23.102 64.937,23.628 77.767,23.644 
					79.091,23.102 80.778,23.102 				"/>
				<g>
					<path style="fill:#9B9A9A;" d="M66.65,65.042c-0.009-0.96,0.762-1.746,1.722-1.756l0,0c0.96-0.009,1.746,0.762,1.756,1.722
						l0.067,6.955c0.009,0.96-0.762,1.746-1.722,1.756l0,0c-0.96,0.009-1.746-0.762-1.756-1.722L66.65,65.042z"/>
					<path style="fill:#9B9A9A;" d="M66.683,50.949c0-0.96,0.779-1.739,1.739-1.739l0,0c0.96,0,1.739,0.779,1.739,1.739v6.955
						c0,0.96-0.779,1.739-1.739,1.739l0,0c-0.96,0-1.739-0.779-1.739-1.739V50.949z"/>
					<path style="fill:#9B9A9A;" d="M66.683,36.872c0-0.96,0.779-1.739,1.739-1.739l0,0c0.96,0,1.739,0.779,1.739,1.739v6.955
						c0,0.96-0.779,1.739-1.739,1.739l0,0c-0.96,0-1.739-0.779-1.739-1.739V36.872z"/>
					<path style="fill:#9B9A9A;" d="M72.465,72.063c0-0.96,0.779-1.739,1.739-1.739l0,0c0.96,0,1.739,0.779,1.739,1.739v6.955
						c0,0.96-0.779,1.739-1.739,1.739l0,0c-0.96,0-1.739-0.779-1.739-1.739V72.063z"/>
					<path style="fill:#9B9A9A;" d="M72.465,57.987c0-0.96,0.779-1.739,1.739-1.739l0,0c0.96,0,1.739,0.779,1.739,1.739v6.955
						c0,0.96-0.779,1.739-1.739,1.739l0,0c-0.96,0-1.739-0.779-1.739-1.739V57.987z"/>
					<path style="fill:#9B9A9A;" d="M72.465,43.911c0-0.96,0.779-1.739,1.739-1.739l0,0c0.96,0,1.739,0.779,1.739,1.739v6.955
						c0,0.96-0.779,1.739-1.739,1.739l0,0c-0.96,0-1.739-0.779-1.739-1.739V43.911z"/>
					<path style="fill:#9B9A9A;" d="M72.465,29.834c0-0.96,0.779-1.739,1.739-1.739l0,0c0.96,0,1.739,0.779,1.739,1.739v6.955
						c0,0.96-0.779,1.739-1.739,1.739l0,0c-0.96,0-1.739-0.779-1.739-1.739V29.834z"/>
				</g>
				<polygon style="fill:#B22B32;" points="55.772,21.588 59.918,24.427 59.918,83.01 36.631,67.433 36.631,21.588 				"/>
				<g>
					<linearGradient id="SVGID_1_" gradientUnits="userSpaceOnUse" x1="66.6498" y1="68.4855" x2="70.1946" y2="68.4855">
						<stop  offset="0.2766" style="stop-color:#828386"/>
						<stop  offset="0.5584" style="stop-color:#ADAFB2"/>
						<stop  offset="0.835" style="stop-color:#828386"/>
					</linearGradient>
					<path style="fill:url(#SVGID_1_);" d="M66.65,65.025c-0.009-0.96,0.762-1.746,1.722-1.756l0,0
						c0.96-0.009,1.746,0.762,1.756,1.722l0.067,6.955c0.009,0.96-0.762,1.746-1.722,1.756l0,0c-0.96,0.009-1.746-0.762-1.756-1.722
						L66.65,65.025z"/>
					<linearGradient id="SVGID_2_" gradientUnits="userSpaceOnUse" x1="66.6833" y1="54.409" x2="70.1611" y2="54.409">
						<stop  offset="0.2766" style="stop-color:#828386"/>
						<stop  offset="0.5584" style="stop-color:#ADAFB2"/>
						<stop  offset="0.835" style="stop-color:#828386"/>
					</linearGradient>
					<path style="fill:url(#SVGID_2_);" d="M66.683,50.931c0-0.96,0.779-1.739,1.739-1.739l0,0c0.96,0,1.739,0.779,1.739,1.739
						v6.955c0,0.96-0.779,1.739-1.739,1.739l0,0c-0.96,0-1.739-0.779-1.739-1.739V50.931z"/>
					<linearGradient id="SVGID_3_" gradientUnits="userSpaceOnUse" x1="66.6833" y1="40.3326" x2="70.1611" y2="40.3326">
						<stop  offset="0.2766" style="stop-color:#828386"/>
						<stop  offset="0.5584" style="stop-color:#ADAFB2"/>
						<stop  offset="0.835" style="stop-color:#828386"/>
					</linearGradient>
					<path style="fill:url(#SVGID_3_);" d="M66.683,36.855c0-0.96,0.779-1.739,1.739-1.739l0,0c0.96,0,1.739,0.779,1.739,1.739
						v6.955c0,0.96-0.779,1.739-1.739,1.739l0,0c-0.96,0-1.739-0.779-1.739-1.739V36.855z"/>
					<linearGradient id="SVGID_4_" gradientUnits="userSpaceOnUse" x1="72.4656" y1="75.5237" x2="75.9433" y2="75.5237">
						<stop  offset="0.2766" style="stop-color:#828386"/>
						<stop  offset="0.5584" style="stop-color:#ADAFB2"/>
						<stop  offset="0.835" style="stop-color:#828386"/>
					</linearGradient>
					<path style="fill:url(#SVGID_4_);" d="M72.466,72.046c0-0.96,0.779-1.739,1.739-1.739l0,0c0.96,0,1.739,0.779,1.739,1.739
						v6.955c0,0.96-0.779,1.739-1.739,1.739l0,0c-0.96,0-1.739-0.779-1.739-1.739V72.046z"/>
					<linearGradient id="SVGID_5_" gradientUnits="userSpaceOnUse" x1="72.4656" y1="61.4473" x2="75.9433" y2="61.4473">
						<stop  offset="0.2766" style="stop-color:#828386"/>
						<stop  offset="0.5584" style="stop-color:#ADAFB2"/>
						<stop  offset="0.835" style="stop-color:#828386"/>
					</linearGradient>
					<path style="fill:url(#SVGID_5_);" d="M72.466,57.97c0-0.96,0.779-1.739,1.739-1.739l0,0c0.96,0,1.739,0.779,1.739,1.739v6.955
						c0,0.96-0.779,1.739-1.739,1.739l0,0c-0.96,0-1.739-0.779-1.739-1.739V57.97z"/>
					<linearGradient id="SVGID_6_" gradientUnits="userSpaceOnUse" x1="72.4656" y1="47.3708" x2="75.9433" y2="47.3708">
						<stop  offset="0.2766" style="stop-color:#828386"/>
						<stop  offset="0.5584" style="stop-color:#ADAFB2"/>
						<stop  offset="0.835" style="stop-color:#828386"/>
					</linearGradient>
					<path style="fill:url(#SVGID_6_);" d="M72.466,43.893c0-0.96,0.779-1.739,1.739-1.739l0,0c0.96,0,1.739,0.779,1.739,1.739
						v6.955c0,0.96-0.779,1.739-1.739,1.739l0,0c-0.96,0-1.739-0.779-1.739-1.739V43.893z"/>
					<linearGradient id="SVGID_7_" gradientUnits="userSpaceOnUse" x1="72.4656" y1="33.2944" x2="75.9433" y2="33.2944">
						<stop  offset="0.2766" style="stop-color:#828386"/>
						<stop  offset="0.5584" style="stop-color:#ADAFB2"/>
						<stop  offset="0.835" style="stop-color:#828386"/>
					</linearGradient>
					<path style="fill:url(#SVGID_7_);" d="M72.466,29.817c0-0.96,0.779-1.739,1.739-1.739l0,0c0.96,0,1.739,0.779,1.739,1.739
						v6.955c0,0.96-0.779,1.739-1.739,1.739l0,0c-0.96,0-1.739-0.779-1.739-1.739V29.817z"/>
				</g>
				<g>
					<path style="fill:#AEADA8;stroke:#666766;stroke-width:0.25;stroke-miterlimit:10;" d="M66.65,65.025
						c-0.009-0.96,0.762-1.746,1.722-1.756l0,0c0.96-0.009,1.746,0.762,1.756,1.722l0.067,6.955c0.009,0.96-0.762,1.746-1.722,1.756
						l0,0c-0.96,0.009-1.746-0.762-1.756-1.722L66.65,65.025z"/>
					<path style="fill:#AEADA8;stroke:#666766;stroke-width:0.25;stroke-miterlimit:10;" d="M66.683,50.931
						c0-0.96,0.779-1.739,1.739-1.739l0,0c0.96,0,1.739,0.779,1.739,1.739v6.955c0,0.96-0.779,1.739-1.739,1.739l0,0
						c-0.96,0-1.739-0.779-1.739-1.739V50.931z"/>
					<path style="fill:#AEADA8;stroke:#666766;stroke-width:0.25;stroke-miterlimit:10;" d="M66.683,36.855
						c0-0.96,0.779-1.739,1.739-1.739l0,0c0.96,0,1.739,0.779,1.739,1.739v6.955c0,0.96-0.779,1.739-1.739,1.739l0,0
						c-0.96,0-1.739-0.779-1.739-1.739V36.855z"/>
					<path style="fill:#AEADA8;stroke:#666766;stroke-width:0.25;stroke-miterlimit:10;" d="M72.466,72.046
						c0-0.96,0.779-1.739,1.739-1.739l0,0c0.96,0,1.739,0.779,1.739,1.739v6.955c0,0.96-0.779,1.739-1.739,1.739l0,0
						c-0.96,0-1.739-0.779-1.739-1.739V72.046z"/>
					<path style="fill:#AEADA8;stroke:#666766;stroke-width:0.25;stroke-miterlimit:10;" d="M72.466,57.97
						c0-0.96,0.779-1.739,1.739-1.739l0,0c0.96,0,1.739,0.779,1.739,1.739v6.955c0,0.96-0.779,1.739-1.739,1.739l0,0
						c-0.96,0-1.739-0.779-1.739-1.739V57.97z"/>
					<path style="fill:#AEADA8;stroke:#666766;stroke-width:0.25;stroke-miterlimit:10;" d="M72.466,43.893
						c0-0.96,0.779-1.739,1.739-1.739l0,0c0.96,0,1.739,0.779,1.739,1.739v6.955c0,0.96-0.779,1.739-1.739,1.739l0,0
						c-0.96,0-1.739-0.779-1.739-1.739V43.893z"/>
					<path style="fill:#AEADA8;stroke:#666766;stroke-width:0.25;stroke-miterlimit:10;" d="M72.466,29.817
						c0-0.96,0.779-1.739,1.739-1.739l0,0c0.96,0,1.739,0.779,1.739,1.739v6.955c0,0.96-0.779,1.739-1.739,1.739l0,0
						c-0.96,0-1.739-0.779-1.739-1.739V29.817z"/>
				</g>
				<g>
					<polygon style="fill:#F16479;" points="59.918,79.767 36.631,64.189 36.631,60.946 59.918,76.523 					"/>
					<g>
						<polygon style="fill:#F16479;" points="59.918,73.28 36.631,57.703 36.631,54.46 59.918,70.037 						"/>
					</g>
					<polygon style="fill:#F16479;" points="59.918,66.794 36.631,51.216 36.631,47.973 59.918,63.55 					"/>
					<polygon style="fill:#F16479;" points="59.918,60.307 36.631,44.73 36.631,41.487 59.918,57.064 					"/>
					<g>
						<polygon style="fill:#F16479;" points="59.918,53.821 36.631,38.243 36.631,35 59.918,50.577 						"/>
					</g>
					<polygon style="fill:#F16479;" points="59.918,47.334 36.631,31.757 36.631,28.514 59.919,44.091 					"/>
					<polygon style="fill:#F16479;" points="59.919,40.848 36.631,25.27 36.632,22.027 59.919,37.604 					"/>
					<g>
						<polygon style="fill:#F16479;" points="59.919,34.361 40.824,21.588 45.673,21.588 59.919,31.118 						"/>
					</g>
					<polygon style="fill:#F16479;" points="59.919,27.875 50.521,21.588 55.369,21.588 59.919,24.631 					"/>
				</g>
				<polyline style="fill:none;stroke:#000000;stroke-width:0.4;stroke-miterlimit:10;" points="36.631,21.588 36.631,67.433 
					59.918,83.01 59.918,24.427 55.772,21.588 				"/>
				<path style="fill:none;stroke:#4F4C4B;stroke-width:2;stroke-miterlimit:10;" d="M78.619,21.588c0,0,0.521,0.341,1.157,0.757
					c0.636,0.416,1.157,1.657,1.157,2.757v61.141c0,1.1-0.43,2-0.955,2c-0.526,0-1.254-0.129-1.618-0.286s-1.563-0.286-2.663-0.286
					h-8.73c-1.1,0-2.257,0.129-2.572,0.286c-0.315,0.157-1.059,0.286-1.654,0.286c-0.595,0-1.828-0.504-2.739-1.12L36.547,71.268
					c-0.911-0.616-1.657-2.02-1.657-3.12v-46.56"/>
			</g>
		</g>
	</g>
</g>
<g id="Layer_1">
</g>
</svg>
