<?xml version="1.0" encoding="iso-8859-1"?>
<!-- Generator: Adobe Illustrator 17.0.0, SVG Export Plug-In . SVG Version: 6.00 Build 0)  -->
<!DOCTYPE svg PUBLIC "-//W3C//DTD SVG 1.1//EN" "http://www.w3.org/Graphics/SVG/1.1/DTD/svg11.dtd">
<svg version="1.1" xmlns="http://www.w3.org/2000/svg" xmlns:xlink="http://www.w3.org/1999/xlink" x="0px" y="0px" width="80px"
	 height="90px" viewBox="0 0 80 90" style="enable-background:new 0 0 80 90;" xml:space="preserve">
<g id="Damper_x5F_Horz_x5F_Parallel_x5F_0">
	<g>
		<g>
			<g>
				<polygon style="fill:#E7E9EA;" points="0,70.04 80,70.061 80,20.061 0,20.04 				"/>
				<g>
					<polyline style="fill:#E7E9EA;" points="80,20 0,20 0,0 80,0 					"/>
					<polygon style="fill:#6A7276;" points="80,21.583 0,21.576 0,19.953 80,19.953 					"/>
					<g>
						<polyline style="fill:#DDDFE1;" points="80,88.494 0,88.494 0,68.494 80,68.494 						"/>
						<rect y="88.433" style="fill:#6A7276;" width="80" height="1.567"/>
					</g>
				</g>
			</g>
			<line style="fill:none;stroke:#ABAAA9;stroke-width:0.6;stroke-miterlimit:10;" x1="0" y1="68.422" x2="80" y2="68.422"/>
		</g>
		<g>
			
				<line style="fill:none;stroke:#FFFFFF;stroke-width:0.2;stroke-miterlimit:10;" x1="45.595" y1="21.697" x2="47.558" y2="22.991"/>
			<polyline style="fill:#CDCEC6;" points="60,84.417 60,88.352 58.089,88.352 56.609,87.779 49.922,87.779 48.933,88.352 
				46.769,88.352 46.769,84.435 			"/>
			<polyline style="fill:#CDCEC6;" points="46.769,25.697 46.769,23.211 59.845,23.211 59.845,25.683 			"/>
			<polygon style="fill:#AEAFA7;" points="20,21.697 20,70.257 46.768,88.352 46.769,84.435 50.047,83.312 56.833,83.312 60,84.417 
				35.049,67.646 35.049,21.697 40.882,21.697 46.769,25.697 46.768,23.211 44.395,21.697 			"/>
			<polygon style="fill:#B4B5B0;" points="44.395,21.697 46.769,23.211 48.842,23.211 50.047,23.738 56.833,23.753 58.158,23.212 
				60,23.211 57.686,21.697 			"/>
			
				<line style="fill:none;stroke:#FFFFFF;stroke-width:0.2;stroke-miterlimit:10;" x1="44.395" y1="21.697" x2="46.692" y2="23.211"/>
			
				<line style="fill:none;stroke:#999999;stroke-width:0.25;stroke-miterlimit:10;" x1="50.047" y1="84.312" x2="50.047" y2="87.674"/>
			<polyline style="fill:none;stroke:#999999;stroke-width:0.25;stroke-miterlimit:10;" points="46.373,21.697 50.047,23.738 
				50.047,25.453 			"/>
			
				<line style="fill:none;stroke:#DCDBDB;stroke-width:0.25;stroke-miterlimit:10;" x1="58.158" y1="84.312" x2="58.158" y2="88.231"/>
			<polyline style="fill:none;stroke:#DCDBDB;stroke-width:0.25;stroke-miterlimit:10;" points="55.824,21.697 58.158,23.212 
				58.158,25.646 			"/>
			
				<line style="fill:none;stroke:#999999;stroke-width:0.25;stroke-miterlimit:10;" x1="56.833" y1="84.312" x2="56.833" y2="87.704"/>
			<polyline style="fill:none;stroke:#999999;stroke-width:0.25;stroke-miterlimit:10;" points="53.731,21.697 56.833,23.753 
				56.833,25.531 			"/>
			
				<line style="fill:none;stroke:#DCDBDB;stroke-width:0.25;stroke-miterlimit:10;" x1="48.842" y1="84.312" x2="48.842" y2="88.306"/>
			<polyline style="fill:none;stroke:#DCDBDB;stroke-width:0.25;stroke-miterlimit:10;" points="46.117,21.697 48.842,23.211 
				48.842,25.687 			"/>
			<polyline style="fill:none;stroke:#F7F8F9;stroke-width:0.2;stroke-miterlimit:10;" points="59.845,84.313 59.845,88.352 
				57.934,88.352 56.609,87.779 49.922,87.779 48.778,88.352 46.692,88.352 46.692,84.435 			"/>
			<polyline style="fill:none;stroke:#F7F8F9;stroke-width:0.2;stroke-miterlimit:10;" points="46.692,25.688 46.692,23.211 
				48.843,23.211 50.047,23.738 56.833,23.753 58.158,23.211 59.845,23.211 59.845,25.683 			"/>
			<polygon style="fill:#9F9E9B;" points="40.882,21.697 35.049,21.697 35.049,67.646 45.028,83.119 21.74,67.542 21.74,21.697 			
				"/>
			<path style="fill:none;stroke:#000000;stroke-width:0.4;stroke-miterlimit:10;" d="M45.028,83.119"/>
			<path style="fill:none;stroke:#000000;stroke-width:0.4;stroke-miterlimit:10;" d="M21.74,21.697"/>
			<polygon style="fill:#8E8D8B;" points="60,84.417 58.158,84.419 56.778,84.308 49.984,84.312 48.842,84.432 46.769,84.435 
				22.193,67.513 35.049,67.646 			"/>
			
				<line style="fill:none;stroke:#969289;stroke-width:0.2;stroke-miterlimit:10;" x1="22.005" y1="67.497" x2="28.791" y2="67.513"/>
			<polyline style="fill:none;stroke:#514D47;stroke-width:0.4;stroke-miterlimit:10;" points="59.845,25.687 58.234,25.687 
				56.833,25.453 50.047,25.453 48.842,25.687 46.692,25.687 40.882,21.697 			"/>
			<polyline style="fill:none;stroke:#E2DED7;stroke-width:0.4;stroke-miterlimit:10;" points="21.74,21.697 21.74,67.542 
				46.692,84.312 48.842,84.312 50.031,84.187 56.818,84.187 58.158,84.312 59.845,84.312 			"/>
			<path style="fill:none;stroke:#4F4C4B;stroke-width:2;stroke-miterlimit:10;" d="M60,84.417v2.151c0,1.1-0.43,2-0.955,2
				c-0.526,0-1.254-0.129-1.618-0.286c-0.364-0.157-1.563-0.286-2.663-0.286h-3.73c-1.1,0-2.257,0.129-2.572,0.286
				c-0.315,0.157-1.059,0.286-1.654,0.286c-0.595,0-1.828-0.504-2.739-1.12L20.615,71.593c-0.911-0.616-1.657-2.02-1.657-3.12
				V21.583"/>
			<path style="fill:none;stroke:#4F4C4B;stroke-width:2;stroke-miterlimit:10;" d="M57.686,21.481c0,0,0.521,0.341,1.157,0.757
				C59.479,22.654,60,23.895,60,24.995v0.688"/>
		</g>
		<g>
			<g>
				<polygon style="fill:#8E8D8B;" points="53.861,70.02 53.861,83.348 52.861,83.348 27.79,66.44 27.79,53.186 28.997,53.186 				
					"/>
				<polygon style="fill:#EFECEA;stroke:#111111;stroke-width:0.125;stroke-linejoin:round;stroke-miterlimit:10;" points="
					52.861,70.095 52.861,83.348 27.79,66.44 27.79,53.186 				"/>
				
					<line style="fill:#EFECEA;stroke:#111111;stroke-width:0.125;stroke-miterlimit:10;" x1="52.861" y1="70.04" x2="53.861" y2="70.02"/>
				<g>
					<path style="fill:#101010;" d="M28.998,53.186L53.861,70.02v13.329h-1L27.791,66.44V53.186H28.998 M29.09,52.886h-0.092h-1.207
						h-0.3v0.3V66.44v0.16l0.132,0.089l25.071,16.909l0.076,0.051h0.092h1h0.3v-0.3V70.02V69.86l-0.132-0.089L29.166,52.937
						L29.09,52.886L29.09,52.886z"/>
				</g>
			</g>
			<g>
				<polygon style="fill:#8E8D8B;" points="53.861,55.52 53.861,68.848 52.861,68.848 27.79,51.94 27.79,38.686 28.997,38.686 				
					"/>
				<polygon style="fill:#EFECEA;stroke:#111111;stroke-width:0.125;stroke-linejoin:round;stroke-miterlimit:10;" points="
					52.861,55.595 52.861,68.848 27.79,51.94 27.79,38.686 				"/>
				
					<line style="fill:#EFECEA;stroke:#111111;stroke-width:0.125;stroke-miterlimit:10;" x1="52.861" y1="55.54" x2="53.861" y2="55.52"/>
				<g>
					<path style="fill:#101010;" d="M28.998,38.686L53.861,55.52v13.329h-1L27.791,51.94V38.686H28.998 M29.09,38.386h-0.092h-1.207
						h-0.3v0.3V51.94v0.16l0.132,0.089l25.071,16.909l0.076,0.051h0.092h1h0.3v-0.3V55.52V55.36l-0.132-0.089L29.166,38.437
						L29.09,38.386L29.09,38.386z"/>
				</g>
			</g>
			<g>
				<polygon style="fill:#8E8D8B;" points="53.861,40.957 53.861,54.286 52.861,54.286 27.79,37.377 27.79,24.123 28.997,24.123 
									"/>
				<polygon style="fill:#EFECEA;stroke:#111111;stroke-width:0.125;stroke-linejoin:round;stroke-miterlimit:10;" points="
					52.861,41.032 52.861,54.286 27.79,37.377 27.79,24.123 				"/>
				
					<line style="fill:#EFECEA;stroke:#111111;stroke-width:0.125;stroke-miterlimit:10;" x1="52.861" y1="40.977" x2="53.861" y2="40.957"/>
				<g>
					<path style="fill:#101010;" d="M28.998,24.123l24.864,16.834v13.329h-1L27.791,37.377V24.123H28.998 M29.09,23.823h-0.092
						h-1.207h-0.3v0.3v13.254v0.16l0.132,0.089l25.071,16.909l0.076,0.051h0.092h1h0.3v-0.3V40.957v-0.159l-0.132-0.089
						L29.166,23.875L29.09,23.823L29.09,23.823z"/>
				</g>
			</g>
			<g>
				<polygon style="fill:#8E8D8B;" points="53.861,26.332 53.861,39.661 52.861,39.661 27.79,22.752 27.79,21.625 40.882,21.697 
					46.692,25.688 48.842,25.687 50.047,25.453 52.568,25.457 				"/>
				<polygon style="fill:#EFECEA;stroke:#111111;stroke-width:0.125;stroke-linejoin:round;stroke-miterlimit:10;" points="
					52.861,26.407 52.861,39.661 27.79,22.752 27.79,21.625 40.882,21.697 46.769,25.697 48.842,25.687 50.047,25.453 
					51.451,25.456 				"/>
				
					<line style="fill:#EFECEA;stroke:#111111;stroke-width:0.125;stroke-miterlimit:10;" x1="52.861" y1="26.352" x2="53.861" y2="26.332"/>
				
					<polyline style="fill:none;stroke:#101010;stroke-width:0.3;stroke-linecap:round;stroke-linejoin:round;stroke-miterlimit:10;" points="
					52.568,25.457 53.861,26.332 53.861,39.661 52.861,39.661 27.79,22.752 27.79,21.625 				"/>
			</g>
		</g>
	</g>
</g>
<g id="Layer_1">
</g>
</svg>
