<?xml version="1.0" encoding="iso-8859-1"?>
<!-- Generator: Adobe Illustrator 17.0.0, SVG Export Plug-In . SVG Version: 6.00 Build 0)  -->
<!DOCTYPE svg PUBLIC "-//W3C//DTD SVG 1.1//EN" "http://www.w3.org/Graphics/SVG/1.1/DTD/svg11.dtd">
<svg version="1.1" xmlns="http://www.w3.org/2000/svg" xmlns:xlink="http://www.w3.org/1999/xlink" x="0px" y="0px" width="80px"
	 height="90px" viewBox="0 0 80 90" style="enable-background:new 0 0 80 90;" xml:space="preserve">
<g id="Damper_x5F_Horz_x5F_Parallel_x5F_1">
	<g>
		<g>
			<g>
				<polygon style="fill:#E7E9EA;" points="0,70.04 80,70.061 80,20.061 0,20.04 				"/>
				<g>
					<polyline style="fill:#E7E9EA;" points="80,20 0,20 0,0 80,0 					"/>
					<polygon style="fill:#6A7276;" points="80,21.583 0,21.576 0,19.953 80,19.953 					"/>
					<g>
						<polyline style="fill:#DDDFE1;" points="80,88.494 0,88.494 0,68.494 80,68.494 						"/>
						<rect y="88.433" style="fill:#6A7276;" width="80" height="1.567"/>
					</g>
				</g>
			</g>
			<line style="fill:none;stroke:#ABAAA9;stroke-width:0.6;stroke-miterlimit:10;" x1="0" y1="68.422" x2="80" y2="68.422"/>
		</g>
		<g>
			
				<line style="fill:none;stroke:#FFFFFF;stroke-width:0.2;stroke-miterlimit:10;" x1="45.595" y1="21.698" x2="47.558" y2="22.991"/>
			<polyline style="fill:#CDCEC6;" points="60,84.417 60,88.352 58.089,88.352 56.608,87.78 49.922,87.78 48.933,88.352 
				46.769,88.352 46.769,84.435 			"/>
			<polyline style="fill:#CDCEC6;" points="46.769,25.697 46.769,23.211 59.845,23.211 59.845,25.683 			"/>
			<polygon style="fill:#AEAFA7;" points="20,21.698 20,70.257 46.768,88.352 46.769,84.435 50.047,83.313 56.833,83.313 60,84.417 
				35.049,67.646 35.049,21.698 40.882,21.698 46.769,25.697 46.768,23.211 44.395,21.698 			"/>
			<polygon style="fill:#B4B5B0;" points="44.395,21.698 46.769,23.211 48.842,23.211 50.047,23.738 56.833,23.753 58.158,23.212 
				60,23.211 57.686,21.698 			"/>
			
				<line style="fill:none;stroke:#FFFFFF;stroke-width:0.2;stroke-miterlimit:10;" x1="44.395" y1="21.698" x2="46.692" y2="23.211"/>
			
				<line style="fill:none;stroke:#999999;stroke-width:0.25;stroke-miterlimit:10;" x1="50.047" y1="84.313" x2="50.047" y2="87.674"/>
			<polyline style="fill:none;stroke:#999999;stroke-width:0.25;stroke-miterlimit:10;" points="46.373,21.698 50.047,23.738 
				50.047,25.453 			"/>
			
				<line style="fill:none;stroke:#DCDBDB;stroke-width:0.25;stroke-miterlimit:10;" x1="58.158" y1="84.313" x2="58.158" y2="88.231"/>
			<polyline style="fill:none;stroke:#DCDBDB;stroke-width:0.25;stroke-miterlimit:10;" points="55.824,21.698 58.158,23.212 
				58.158,25.646 			"/>
			
				<line style="fill:none;stroke:#999999;stroke-width:0.25;stroke-miterlimit:10;" x1="56.833" y1="84.313" x2="56.833" y2="87.704"/>
			<polyline style="fill:none;stroke:#999999;stroke-width:0.25;stroke-miterlimit:10;" points="53.731,21.698 56.833,23.753 
				56.833,25.531 			"/>
			
				<line style="fill:none;stroke:#DCDBDB;stroke-width:0.25;stroke-miterlimit:10;" x1="48.842" y1="84.313" x2="48.842" y2="88.307"/>
			<polyline style="fill:none;stroke:#DCDBDB;stroke-width:0.25;stroke-miterlimit:10;" points="46.117,21.698 48.842,23.211 
				48.842,25.688 			"/>
			<polyline style="fill:none;stroke:#F7F8F9;stroke-width:0.2;stroke-miterlimit:10;" points="59.845,84.313 59.845,88.352 
				57.934,88.352 56.608,87.78 49.922,87.78 48.778,88.352 46.692,88.352 46.692,84.435 			"/>
			<polyline style="fill:none;stroke:#F7F8F9;stroke-width:0.2;stroke-miterlimit:10;" points="46.692,25.688 46.692,23.211 
				48.843,23.211 50.047,23.738 56.833,23.753 58.158,23.211 59.845,23.211 59.845,25.683 			"/>
			<polygon style="fill:#9F9E9B;" points="40.882,21.698 35.049,21.698 35.049,67.646 45.028,83.119 21.74,67.542 21.74,21.698 			
				"/>
			<path style="fill:none;stroke:#000000;stroke-width:0.4;stroke-miterlimit:10;" d="M45.028,83.119"/>
			<path style="fill:none;stroke:#000000;stroke-width:0.4;stroke-miterlimit:10;" d="M21.74,21.698"/>
			<polygon style="fill:#8E8D8B;" points="60,84.417 58.158,84.419 56.778,84.308 49.984,84.313 48.842,84.432 46.769,84.435 
				22.193,67.513 35.049,67.646 			"/>
			
				<line style="fill:none;stroke:#969289;stroke-width:0.2;stroke-miterlimit:10;" x1="22.005" y1="67.497" x2="28.791" y2="67.513"/>
			<polyline style="fill:none;stroke:#514D47;stroke-width:0.4;stroke-miterlimit:10;" points="59.845,25.688 58.234,25.688 
				56.833,25.453 50.047,25.453 48.842,25.688 46.692,25.688 40.882,21.698 			"/>
			<polyline style="fill:none;stroke:#E2DED7;stroke-width:0.4;stroke-miterlimit:10;" points="21.74,21.698 21.74,67.542 
				46.692,84.313 48.842,84.313 50.031,84.188 56.818,84.188 58.158,84.313 59.845,84.313 			"/>
			<path style="fill:none;stroke:#4F4C4B;stroke-width:2;stroke-miterlimit:10;" d="M60,84.417v2.151c0,1.1-0.43,2-0.955,2
				c-0.526,0-1.254-0.129-1.618-0.286c-0.364-0.157-1.563-0.286-2.663-0.286h-3.73c-1.1,0-2.257,0.129-2.572,0.286
				c-0.315,0.157-1.059,0.286-1.654,0.286c-0.595,0-1.828-0.504-2.739-1.12L20.615,71.593c-0.911-0.616-1.657-2.02-1.657-3.12
				V21.583"/>
			<path style="fill:none;stroke:#4F4C4B;stroke-width:2;stroke-miterlimit:10;" d="M57.686,21.481c0,0,0.521,0.341,1.157,0.757
				C59.479,22.654,60,23.895,60,24.995v0.688"/>
		</g>
		<g>
			<polygon style="fill:#8E8D8B;" points="54.703,70.668 49.831,82.94 48.831,82.96 24.255,66.038 28.632,53.779 29.632,53.759 			
				"/>
			<polygon style="fill:#EFECEA;stroke:#111111;stroke-width:0.125;stroke-miterlimit:10;" points="53.703,70.688 48.831,82.96 
				24.255,66.038 28.632,53.779 			"/>
			<g>
				<path style="fill:#101010;" d="M29.632,53.759l25.071,16.909L49.832,82.94l-1,0.02L24.255,66.038l4.377-12.259L29.632,53.759
					 M29.721,53.457l-0.095,0.002l-1,0.02l-0.207,0.004l-0.07,0.195l-4.377,12.259l-0.078,0.217l0.19,0.131l24.576,16.922
					l0.08,0.055l0.097-0.002l1-0.02l0.199-0.004l0.073-0.185l4.871-12.272l0.089-0.224l-0.2-0.135L29.8,53.51L29.721,53.457
					L29.721,53.457z"/>
			</g>
			
				<line style="fill:#EFECEA;stroke:#111111;stroke-width:0.125;stroke-miterlimit:10;" x1="53.703" y1="70.688" x2="54.703" y2="70.668"/>
		</g>
		<g>
			<polygon style="fill:#8E8D8B;" points="54.703,56.098 49.831,68.37 48.831,68.39 24.255,51.468 28.632,39.209 29.632,39.189 			
				"/>
			<polygon style="fill:#EFECEA;stroke:#111111;stroke-width:0.125;stroke-miterlimit:10;" points="53.703,56.118 48.831,68.39 
				24.255,51.468 28.632,39.209 			"/>
			<g>
				<path style="fill:#101010;" d="M29.632,39.189l25.071,16.909L49.832,68.37l-1,0.02L24.255,51.468l4.377-12.258L29.632,39.189
					 M29.721,38.887l-0.095,0.002l-1,0.02l-0.207,0.004l-0.07,0.195l-4.377,12.258l-0.078,0.217l0.19,0.131l24.576,16.922
					l0.08,0.055l0.097-0.002l1-0.02l0.199-0.004l0.073-0.185l4.871-12.272l0.089-0.224l-0.2-0.135L29.8,38.94L29.721,38.887
					L29.721,38.887z"/>
			</g>
			
				<line style="fill:#EFECEA;stroke:#111111;stroke-width:0.125;stroke-miterlimit:10;" x1="53.703" y1="56.118" x2="54.703" y2="56.098"/>
		</g>
		<g>
			<polygon style="fill:#8E8D8B;" points="54.703,41.432 49.831,53.704 48.831,53.724 24.255,36.802 28.632,24.544 29.632,24.523 
							"/>
			<polygon style="fill:#EFECEA;stroke:#111111;stroke-width:0.125;stroke-miterlimit:10;" points="53.703,41.452 48.831,53.724 
				24.255,36.802 28.632,24.544 			"/>
			<g>
				<path style="fill:#101010;" d="M29.632,24.523l25.071,16.909l-4.871,12.272l-1,0.02L24.255,36.802l4.377-12.259L29.632,24.523
					 M29.721,24.222l-0.095,0.002l-1,0.02l-0.207,0.004l-0.07,0.195l-4.377,12.259l-0.078,0.217l0.19,0.131l24.576,16.922
					l0.08,0.055l0.097-0.002l1-0.02L50.037,54l0.073-0.185l4.871-12.272l0.089-0.224l-0.2-0.135L29.8,24.275L29.721,24.222
					L29.721,24.222z"/>
			</g>
			
				<line style="fill:#EFECEA;stroke:#111111;stroke-width:0.125;stroke-miterlimit:10;" x1="53.703" y1="41.452" x2="54.703" y2="41.432"/>
		</g>
		<g>
			<polygon style="fill:#8E8D8B;" points="54.703,26.832 49.831,39.104 48.831,39.124 24.255,22.202 24.435,21.697 36.583,21.698 
				40.882,21.698 46.769,25.697 48.842,25.688 50.047,25.453 52.662,25.455 			"/>
			<polygon style="fill:#EFECEA;stroke:#111111;stroke-width:0.125;stroke-miterlimit:10;" points="53.703,26.852 48.831,39.124 
				24.255,22.202 24.435,21.698 33.583,21.698 40.882,21.698 46.769,25.697 48.842,25.688 50.047,25.453 51.667,25.454 			"/>
			<g>
				<path style="fill:#101010;" d="M40.882,21.698l5.887,3.999l2.073-0.009l1.205-0.234l2.615,0.002l2.041,1.377l-4.871,12.272
					l-1,0.02L24.255,22.202l0.18-0.504L40.882,21.698 M40.974,21.398h-0.092l-16.447,0h-0.211l-0.071,0.199l-0.18,0.504
					l-0.078,0.217l0.19,0.131l24.576,16.922l0.08,0.055l0.097-0.002l1-0.02l0.199-0.004l0.073-0.185l4.871-12.272l0.089-0.224
					l-0.2-0.135l-2.041-1.377l-0.076-0.051l-0.092,0l-2.615-0.002l-0.029,0l-0.029,0.006l-1.177,0.229l-1.952,0.009l-5.811-3.947
					L40.974,21.398L40.974,21.398z"/>
			</g>
			
				<line style="fill:#EFECEA;stroke:#111111;stroke-width:0.125;stroke-miterlimit:10;" x1="53.703" y1="26.852" x2="54.703" y2="26.832"/>
		</g>
	</g>
</g>
<g id="Layer_1">
</g>
</svg>
