<?xml version="1.0" encoding="iso-8859-1"?>
<!-- Generator: Adobe Illustrator 17.0.0, SVG Export Plug-In . SVG Version: 6.00 Build 0)  -->
<!DOCTYPE svg PUBLIC "-//W3C//DTD SVG 1.1//EN" "http://www.w3.org/Graphics/SVG/1.1/DTD/svg11.dtd">
<svg version="1.1" xmlns="http://www.w3.org/2000/svg" xmlns:xlink="http://www.w3.org/1999/xlink" x="0px" y="0px" width="80px"
	 height="90px" viewBox="0 0 80 90" style="enable-background:new 0 0 80 90;" xml:space="preserve">
<g id="Damper_x5F_Horz_x5F_Parallel_x5F_4">
	<g>
		<g>
			<g>
				<polygon style="fill:#E7E9EA;" points="0,70.04 80,70.061 80,20.061 0,20.04 				"/>
				<g>
					<polyline style="fill:#E7E9EA;" points="80,20 0,20 0,0 80,0 					"/>
					<polygon style="fill:#6A7276;" points="80,21.583 0,21.576 0,19.953 80,19.953 					"/>
					<g>
						<polyline style="fill:#DDDFE1;" points="80,88.494 0,88.494 0,68.494 80,68.494 						"/>
						<rect y="88.433" style="fill:#6A7276;" width="80" height="1.567"/>
					</g>
				</g>
			</g>
			<line style="fill:none;stroke:#ABAAA9;stroke-width:0.6;stroke-miterlimit:10;" x1="0" y1="68.422" x2="80" y2="68.422"/>
		</g>
		<g>
			
				<line style="fill:none;stroke:#FFFFFF;stroke-width:0.2;stroke-miterlimit:10;" x1="45.595" y1="21.698" x2="47.558" y2="22.991"/>
			<polyline style="fill:#CDCEC6;" points="60,84.417 60,88.352 58.089,88.352 56.608,87.78 49.922,87.78 48.933,88.352 
				46.769,88.352 46.769,84.435 			"/>
			<polyline style="fill:#CDCEC6;" points="46.769,25.697 46.769,23.211 59.845,23.211 59.845,25.683 			"/>
			<polygon style="fill:#AEAFA7;" points="20,21.698 20,70.257 46.768,88.352 46.769,84.435 50.047,83.313 56.833,83.313 60,84.417 
				35.049,67.646 35.049,21.698 40.882,21.698 46.769,25.697 46.768,23.211 44.395,21.698 			"/>
			<polygon style="fill:#B4B5B0;" points="44.395,21.698 46.769,23.211 48.842,23.211 50.047,23.738 56.833,23.753 58.158,23.212 
				60,23.211 57.686,21.698 			"/>
			
				<line style="fill:none;stroke:#FFFFFF;stroke-width:0.2;stroke-miterlimit:10;" x1="44.395" y1="21.698" x2="46.692" y2="23.211"/>
			
				<line style="fill:none;stroke:#999999;stroke-width:0.25;stroke-miterlimit:10;" x1="50.047" y1="84.313" x2="50.047" y2="87.674"/>
			<polyline style="fill:none;stroke:#999999;stroke-width:0.25;stroke-miterlimit:10;" points="46.373,21.698 50.047,23.738 
				50.047,25.453 			"/>
			
				<line style="fill:none;stroke:#DCDBDB;stroke-width:0.25;stroke-miterlimit:10;" x1="58.158" y1="84.313" x2="58.158" y2="88.231"/>
			<polyline style="fill:none;stroke:#DCDBDB;stroke-width:0.25;stroke-miterlimit:10;" points="55.824,21.698 58.158,23.212 
				58.158,25.646 			"/>
			
				<line style="fill:none;stroke:#999999;stroke-width:0.25;stroke-miterlimit:10;" x1="56.833" y1="84.313" x2="56.833" y2="87.704"/>
			<polyline style="fill:none;stroke:#999999;stroke-width:0.25;stroke-miterlimit:10;" points="53.731,21.698 56.833,23.753 
				56.833,25.531 			"/>
			
				<line style="fill:none;stroke:#DCDBDB;stroke-width:0.25;stroke-miterlimit:10;" x1="48.842" y1="84.313" x2="48.842" y2="88.307"/>
			<polyline style="fill:none;stroke:#DCDBDB;stroke-width:0.25;stroke-miterlimit:10;" points="46.117,21.698 48.842,23.211 
				48.842,25.688 			"/>
			<polyline style="fill:none;stroke:#F7F8F9;stroke-width:0.2;stroke-miterlimit:10;" points="59.845,84.313 59.845,88.352 
				57.934,88.352 56.608,87.78 49.922,87.78 48.778,88.352 46.692,88.352 46.692,84.435 			"/>
			<polyline style="fill:none;stroke:#F7F8F9;stroke-width:0.2;stroke-miterlimit:10;" points="46.692,25.688 46.692,23.211 
				48.843,23.211 50.047,23.738 56.833,23.753 58.158,23.211 59.845,23.211 59.845,25.683 			"/>
			<polygon style="fill:#9F9E9B;" points="40.882,21.698 35.049,21.698 35.049,67.646 45.028,83.119 21.74,67.542 21.74,21.698 			
				"/>
			<path style="fill:none;stroke:#000000;stroke-width:0.4;stroke-miterlimit:10;" d="M45.028,83.119"/>
			<path style="fill:none;stroke:#000000;stroke-width:0.4;stroke-miterlimit:10;" d="M21.74,21.698"/>
			<polygon style="fill:#8E8D8B;" points="60,84.417 58.158,84.419 56.778,84.308 49.984,84.313 48.842,84.432 46.769,84.435 
				22.193,67.513 35.049,67.646 			"/>
			
				<line style="fill:none;stroke:#969289;stroke-width:0.2;stroke-miterlimit:10;" x1="22.005" y1="67.497" x2="28.791" y2="67.513"/>
			<polyline style="fill:none;stroke:#514D47;stroke-width:0.4;stroke-miterlimit:10;" points="59.845,25.688 58.234,25.688 
				56.833,25.453 50.047,25.453 48.842,25.688 46.692,25.688 40.882,21.698 			"/>
			<polyline style="fill:none;stroke:#E2DED7;stroke-width:0.4;stroke-miterlimit:10;" points="21.74,21.698 21.74,67.542 
				46.692,84.313 48.842,84.313 50.031,84.188 56.818,84.188 58.158,84.313 59.845,84.313 			"/>
			<path style="fill:none;stroke:#4F4C4B;stroke-width:2;stroke-miterlimit:10;" d="M60,84.417v2.151c0,1.1-0.43,2-0.955,2
				c-0.526,0-1.254-0.129-1.618-0.286c-0.364-0.157-1.563-0.286-2.663-0.286h-3.73c-1.1,0-2.257,0.129-2.572,0.286
				c-0.315,0.157-1.059,0.286-1.654,0.286c-0.595,0-1.828-0.504-2.739-1.12L20.615,71.593c-0.911-0.616-1.657-2.02-1.657-3.12
				V21.583"/>
			<path style="fill:none;stroke:#4F4C4B;stroke-width:2;stroke-miterlimit:10;" d="M57.686,21.481c0,0,0.521,0.341,1.157,0.757
				C59.479,22.654,60,23.895,60,24.995v0.688"/>
		</g>
		<g>
			<polygon style="fill:#8E8D8B;" points="54.863,27.087 41.632,27.087 33.632,21.579 40.882,21.698 45.813,26.156 53.125,25.938 
				53.611,25.49 54.863,26.335 			"/>
			<polygon style="fill:#EFECEA;stroke:#111111;stroke-width:0.125;stroke-linejoin:round;stroke-miterlimit:10;" points="
				54.863,26.335 41.632,26.335 34.721,21.576 41.031,21.698 46.692,25.531 48.842,25.531 50.094,25.281 53.563,25.344 			"/>
			<g>
				<path style="fill:#101010;" d="M33.632,21.579l7.399,0.119l5.342,3.948l2.469,0.042l1.205-0.234l3.564,0.037l1.252,0.844v0.753
					H41.632L33.632,21.579 M32.644,21.263l0.818,0.563l8,5.509l0.077,0.053h0.093h13.231h0.3v-0.3v-0.753v-0.16l-0.132-0.089
					l-1.252-0.844l-0.075-0.05l-0.09-0.001l-3.564-0.037l-0.031,0l-0.03,0.006l-1.174,0.228l-2.342-0.04l-5.265-3.891l-0.077-0.057
					l-0.096-0.002l-7.399-0.119L32.644,21.263L32.644,21.263z"/>
			</g>
			
				<line style="fill:#EFECEA;stroke:#111111;stroke-width:0.125;stroke-miterlimit:10;" x1="41.632" y1="26.335" x2="41.632" y2="27.087"/>
		</g>
		<g>
			<polygon style="fill:#8E8D8B;" points="54.863,41.664 41.632,41.664 17.056,24.742 17.056,23.989 29.792,24.003 54.863,40.912 
							"/>
			<polygon style="fill:#EFECEA;stroke:#111111;stroke-width:0.125;stroke-linejoin:round;stroke-miterlimit:10;" points="
				54.863,40.912 41.632,40.912 17.056,23.989 29.792,24.003 			"/>
			<g>
				<path style="fill:#101010;" d="M17.056,23.989l12.736,0.013l25.071,16.909v0.753H41.632L17.056,24.742V23.989 M16.756,23.689
					v0.3v0.753V24.9l0.13,0.089l24.576,16.922l0.077,0.053h0.093h13.231h0.3v-0.3v-0.753v-0.16l-0.132-0.089L29.96,23.754
					l-0.076-0.051l-0.092,0l-12.736-0.013L16.756,23.689L16.756,23.689z"/>
			</g>
			
				<line style="fill:#EFECEA;stroke:#111111;stroke-width:0.125;stroke-miterlimit:10;" x1="41.632" y1="40.912" x2="41.632" y2="41.664"/>
		</g>
		<g>
			<polygon style="fill:#8E8D8B;" points="54.863,56.186 41.632,56.186 17.056,39.264 17.056,38.511 29.792,38.525 54.863,55.434 
							"/>
			<polygon style="fill:#EFECEA;stroke:#111111;stroke-width:0.125;stroke-linejoin:round;stroke-miterlimit:10;" points="
				54.863,55.434 41.632,55.434 17.056,38.511 29.792,38.525 			"/>
			<g>
				<path style="fill:#101010;" d="M17.056,38.511l12.736,0.013l25.071,16.909v0.753H41.632L17.056,39.264V38.511 M16.756,38.211
					v0.3v0.753v0.158l0.13,0.089l24.576,16.922l0.077,0.053h0.093h13.231h0.3v-0.3v-0.753v-0.16l-0.132-0.089L29.96,38.276
					l-0.076-0.051l-0.092,0l-12.736-0.013L16.756,38.211L16.756,38.211z"/>
			</g>
			
				<line style="fill:#EFECEA;stroke:#111111;stroke-width:0.125;stroke-miterlimit:10;" x1="41.632" y1="55.434" x2="41.632" y2="56.186"/>
		</g>
		<g>
			<polygon style="fill:#8E8D8B;" points="54.863,70.842 41.632,70.842 17.056,53.92 17.056,53.167 29.792,53.18 54.863,70.089 			
				"/>
			<polygon style="fill:#EFECEA;stroke:#111111;stroke-width:0.125;stroke-linejoin:round;stroke-miterlimit:10;" points="
				54.863,70.089 41.632,70.089 17.056,53.167 29.792,53.18 			"/>
			<g>
				<path style="fill:#101010;" d="M17.056,53.167l12.736,0.013l25.071,16.909v0.753H41.632L17.056,53.92V53.167 M16.756,52.866v0.3
					v0.753v0.158l0.13,0.089l24.576,16.922l0.077,0.053h0.093h13.231h0.3v-0.3v-0.753v-0.16l-0.132-0.089L29.96,52.931l-0.076-0.051
					l-0.092,0l-12.736-0.013L16.756,52.866L16.756,52.866z"/>
			</g>
			
				<line style="fill:#EFECEA;stroke:#111111;stroke-width:0.125;stroke-miterlimit:10;" x1="41.632" y1="70.089" x2="41.632" y2="70.842"/>
		</g>
	</g>
</g>
<g id="Layer_1">
</g>
</svg>
