<?xml version="1.0" encoding="iso-8859-1"?>
<!-- Generator: Adobe Illustrator 17.0.0, SVG Export Plug-In . SVG Version: 6.00 Build 0)  -->
<!DOCTYPE svg PUBLIC "-//W3C//DTD SVG 1.1//EN" "http://www.w3.org/Graphics/SVG/1.1/DTD/svg11.dtd">
<svg version="1.1" xmlns="http://www.w3.org/2000/svg" xmlns:xlink="http://www.w3.org/1999/xlink" x="0px" y="0px" width="80px"
	 height="90px" viewBox="0 0 80 90" style="enable-background:new 0 0 80 90;" xml:space="preserve">
<g id="Damper_x5F_Horz_x5F_Parallel_x5F_3">
	<g>
		<g>
			<g>
				<polygon style="fill:#E7E9EA;" points="0,70.04 80,70.061 80,20.061 0,20.04 				"/>
				<g>
					<polyline style="fill:#E7E9EA;" points="80,20 0,20 0,0 80,0 					"/>
					<polygon style="fill:#6A7276;" points="80,21.583 0,21.576 0,19.953 80,19.953 					"/>
					<g>
						<polyline style="fill:#DDDFE1;" points="80,88.494 0,88.494 0,68.494 80,68.494 						"/>
						<rect y="88.433" style="fill:#6A7276;" width="80" height="1.567"/>
					</g>
				</g>
			</g>
			<line style="fill:none;stroke:#ABAAA9;stroke-width:0.6;stroke-miterlimit:10;" x1="0" y1="68.422" x2="80" y2="68.422"/>
		</g>
		<g>
			
				<line style="fill:none;stroke:#FFFFFF;stroke-width:0.2;stroke-miterlimit:10;" x1="45.595" y1="21.698" x2="47.558" y2="22.991"/>
			<polyline style="fill:#CDCEC6;" points="60,84.417 60,88.352 58.089,88.352 56.608,87.78 49.922,87.78 48.933,88.352 
				46.769,88.352 46.769,84.435 			"/>
			<polyline style="fill:#CDCEC6;" points="46.769,25.697 46.769,23.211 59.845,23.211 59.845,25.683 			"/>
			<polygon style="fill:#AEAFA7;" points="20,21.698 20,70.257 46.768,88.352 46.769,84.435 50.047,83.313 56.833,83.313 60,84.417 
				35.049,67.646 35.049,21.698 40.882,21.698 46.769,25.697 46.768,23.211 44.395,21.698 			"/>
			<polygon style="fill:#B4B5B0;" points="44.395,21.698 46.769,23.211 48.842,23.211 50.047,23.738 56.833,23.753 58.158,23.212 
				60,23.211 57.686,21.698 			"/>
			
				<line style="fill:none;stroke:#FFFFFF;stroke-width:0.2;stroke-miterlimit:10;" x1="44.395" y1="21.698" x2="46.692" y2="23.211"/>
			
				<line style="fill:none;stroke:#999999;stroke-width:0.25;stroke-miterlimit:10;" x1="50.047" y1="84.313" x2="50.047" y2="87.674"/>
			<polyline style="fill:none;stroke:#999999;stroke-width:0.25;stroke-miterlimit:10;" points="46.373,21.698 50.047,23.738 
				50.047,25.453 			"/>
			
				<line style="fill:none;stroke:#DCDBDB;stroke-width:0.25;stroke-miterlimit:10;" x1="58.158" y1="84.313" x2="58.158" y2="88.231"/>
			<polyline style="fill:none;stroke:#DCDBDB;stroke-width:0.25;stroke-miterlimit:10;" points="55.824,21.698 58.158,23.212 
				58.158,25.646 			"/>
			
				<line style="fill:none;stroke:#999999;stroke-width:0.25;stroke-miterlimit:10;" x1="56.833" y1="84.313" x2="56.833" y2="87.704"/>
			<polyline style="fill:none;stroke:#999999;stroke-width:0.25;stroke-miterlimit:10;" points="53.731,21.698 56.833,23.753 
				56.833,25.531 			"/>
			
				<line style="fill:none;stroke:#DCDBDB;stroke-width:0.25;stroke-miterlimit:10;" x1="48.842" y1="84.313" x2="48.842" y2="88.307"/>
			<polyline style="fill:none;stroke:#DCDBDB;stroke-width:0.25;stroke-miterlimit:10;" points="46.117,21.698 48.842,23.211 
				48.842,25.688 			"/>
			<polyline style="fill:none;stroke:#F7F8F9;stroke-width:0.2;stroke-miterlimit:10;" points="59.845,84.313 59.845,88.352 
				57.934,88.352 56.608,87.78 49.922,87.78 48.778,88.352 46.692,88.352 46.692,84.435 			"/>
			<polyline style="fill:none;stroke:#F7F8F9;stroke-width:0.2;stroke-miterlimit:10;" points="46.692,25.688 46.692,23.211 
				48.843,23.211 50.047,23.738 56.833,23.753 58.158,23.211 59.845,23.211 59.845,25.683 			"/>
			<polygon style="fill:#9F9E9B;" points="40.882,21.698 35.049,21.698 35.049,67.646 45.028,83.119 21.74,67.542 21.74,21.698 			
				"/>
			<path style="fill:none;stroke:#000000;stroke-width:0.4;stroke-miterlimit:10;" d="M45.028,83.119"/>
			<path style="fill:none;stroke:#000000;stroke-width:0.4;stroke-miterlimit:10;" d="M21.74,21.698"/>
			<polygon style="fill:#8E8D8B;" points="60,84.417 58.158,84.419 56.778,84.308 49.984,84.313 48.842,84.432 46.769,84.435 
				22.193,67.513 35.049,67.646 			"/>
			
				<line style="fill:none;stroke:#969289;stroke-width:0.2;stroke-miterlimit:10;" x1="22.005" y1="67.497" x2="28.791" y2="67.513"/>
			<polyline style="fill:none;stroke:#514D47;stroke-width:0.4;stroke-miterlimit:10;" points="59.845,25.688 58.234,25.688 
				56.833,25.453 50.047,25.453 48.842,25.688 46.692,25.688 40.882,21.698 			"/>
			<polyline style="fill:none;stroke:#E2DED7;stroke-width:0.4;stroke-miterlimit:10;" points="21.74,21.698 21.74,67.542 
				46.692,84.313 48.842,84.313 50.031,84.188 56.818,84.188 58.158,84.313 59.845,84.313 			"/>
			<path style="fill:none;stroke:#4F4C4B;stroke-width:2;stroke-miterlimit:10;" d="M60,84.417v2.151c0,1.1-0.43,2-0.955,2
				c-0.526,0-1.254-0.129-1.618-0.286c-0.364-0.157-1.563-0.286-2.663-0.286h-3.73c-1.1,0-2.257,0.129-2.572,0.286
				c-0.315,0.157-1.059,0.286-1.654,0.286c-0.595,0-1.828-0.504-2.739-1.12L20.615,71.593c-0.911-0.616-1.657-2.02-1.657-3.12
				V21.583"/>
			<path style="fill:none;stroke:#4F4C4B;stroke-width:2;stroke-miterlimit:10;" d="M57.686,21.481c0,0,0.521,0.341,1.157,0.757
				C59.479,22.654,60,23.895,60,24.995v0.688"/>
		</g>
		<g>
			<polygon style="fill:#8E8D8B;" points="54.495,71.119 42.437,76.662 17.86,59.739 17.715,58.739 29.279,53.211 54.35,70.119 			
				"/>
			<polygon style="fill:#EFECEA;stroke:#111111;stroke-width:0.125;stroke-linejoin:round;stroke-miterlimit:10;" points="
				54.35,70.119 42.291,75.662 17.715,58.739 29.279,53.211 			"/>
			<g>
				<path style="fill:#101010;" d="M29.279,53.136L54.35,70.044l0.146,1l-12.059,5.542L17.86,59.664l-0.146-1L29.279,53.136
					 M29.304,52.791l-0.155,0.074l-11.564,5.529l-0.199,0.095l0.032,0.219l0.146,1l0.019,0.13l0.108,0.074l24.576,16.922l0.14,0.097
					l0.155-0.071l12.059-5.542l0.204-0.094l-0.032-0.222l-0.146-1l-0.019-0.131l-0.11-0.074L29.447,52.887L29.304,52.791
					L29.304,52.791z"/>
			</g>
			
				<line style="fill:#EFECEA;stroke:#111111;stroke-width:0.125;stroke-miterlimit:10;" x1="42.291" y1="75.662" x2="42.437" y2="76.662"/>
		</g>
		<g>
			<polygon style="fill:#8E8D8B;" points="54.86,56.629 42.801,62.172 18.225,45.25 18.079,44.25 29.643,38.721 54.714,55.629 			
				"/>
			<polygon style="fill:#EFECEA;stroke:#111111;stroke-width:0.125;stroke-linejoin:round;stroke-miterlimit:10;" points="
				54.714,55.629 42.655,61.172 18.079,44.25 29.643,38.721 			"/>
			<g>
				<path style="fill:#101010;" d="M29.643,38.646l25.071,16.909l0.146,1l-12.059,5.542L18.225,45.174l-0.146-1L29.643,38.646
					 M29.668,38.301l-0.155,0.074l-11.564,5.529l-0.199,0.095l0.032,0.219l0.146,1l0.019,0.13l0.108,0.074l24.576,16.922l0.14,0.097
					l0.155-0.071l12.059-5.542l0.204-0.094l-0.032-0.222l-0.146-1l-0.019-0.131l-0.11-0.074L29.811,38.397L29.668,38.301
					L29.668,38.301z"/>
			</g>
			
				<line style="fill:#EFECEA;stroke:#111111;stroke-width:0.125;stroke-miterlimit:10;" x1="42.655" y1="61.172" x2="42.801" y2="62.172"/>
		</g>
		<g>
			<polygon style="fill:#8E8D8B;" points="54.423,41.974 42.364,47.516 17.788,30.594 17.642,29.594 29.206,24.065 54.277,40.974 
							"/>
			<polygon style="fill:#EFECEA;stroke:#111111;stroke-width:0.125;stroke-linejoin:round;stroke-miterlimit:10;" points="
				54.277,40.974 42.218,46.516 17.642,29.594 29.206,24.065 			"/>
			<g>
				<path style="fill:#101010;" d="M29.206,23.99l25.071,16.909l0.146,1l-12.059,5.542L17.788,30.519l-0.146-1L29.206,23.99
					 M29.231,23.646l-0.155,0.074l-11.564,5.529l-0.199,0.095l0.032,0.219l0.146,1l0.019,0.13l0.108,0.074l24.576,16.922l0.14,0.097
					l0.155-0.071l12.059-5.542l0.204-0.094l-0.032-0.222l-0.146-1l-0.019-0.131l-0.11-0.074L29.374,23.742L29.231,23.646
					L29.231,23.646z"/>
			</g>
			
				<line style="fill:#EFECEA;stroke:#111111;stroke-width:0.125;stroke-miterlimit:10;" x1="42.218" y1="46.516" x2="42.364" y2="47.516"/>
		</g>
		<g>
			<polygon style="fill:#8E8D8B;" points="54.495,27.377 42.437,32.919 34.719,27.53 25.813,21.583 38.813,21.698 40.882,21.698 
				46.769,25.697 48.842,25.688 50.363,25.453 53.055,25.504 54.35,26.377 			"/>
			<polygon style="fill:#EFECEA;stroke:#111111;stroke-width:0.125;stroke-linejoin:round;stroke-miterlimit:10;" points="
				54.35,26.377 42.291,31.919 27.269,21.576 41.031,21.656 46.769,25.531 48.842,25.688 50.047,25.453 53.055,25.504 			"/>
			<g>
				<path style="fill:#101010;" d="M26.07,21.575l14.812,0.123l5.887,3.834l2.073,0.156l1.205-0.234l3.042-0.001l1.26,0.85l0.146,1
					l-12.059,5.542L26.07,21.575 M25.093,21.266l0.806,0.555l16.367,11.27l0.14,0.097l0.155-0.071l12.059-5.542l0.204-0.094
					l-0.032-0.222l-0.146-1l-0.019-0.131l-0.11-0.074l-1.26-0.85l-0.076-0.051l-0.092,0l-3.042,0.001h-0.029l-0.028,0.005
					l-1.165,0.227l-1.956-0.147l-5.823-3.792l-0.074-0.048l-0.088-0.001l-14.812-0.123L25.093,21.266L25.093,21.266z"/>
			</g>
			
				<line style="fill:#EFECEA;stroke:#111111;stroke-width:0.125;stroke-miterlimit:10;" x1="42.291" y1="31.919" x2="42.437" y2="32.919"/>
		</g>
	</g>
</g>
<g id="Layer_1">
</g>
</svg>
