<?xml version="1.0" encoding="iso-8859-1"?>
<!-- Generator: Adobe Illustrator 17.0.0, SVG Export Plug-In . SVG Version: 6.00 Build 0)  -->
<!DOCTYPE svg PUBLIC "-//W3C//DTD SVG 1.1//EN" "http://www.w3.org/Graphics/SVG/1.1/DTD/svg11.dtd">
<svg version="1.1" xmlns="http://www.w3.org/2000/svg" xmlns:xlink="http://www.w3.org/1999/xlink" x="0px" y="0px" width="152px"
	 height="32px" viewBox="0 0 152 32" style="enable-background:new 0 0 152 32;" xml:space="preserve">
<g id="MISC_x5F_UI_x5F_BUTTON_x5F_SLENDER_x5F_Black">
	<g>
		<g>
			<path style="fill:#4C4444;" d="M151,28c0,1.65-1.35,3-3,3H4c-1.65,0-3-1.35-3-3V4c0-1.65,1.35-3,3-3h144c1.65,0,3,1.35,3,3V28z"
				/>
		</g>
		<g>
			<path style="fill:none;stroke:#51514E;stroke-width:2;stroke-miterlimit:10;" d="M151,28c0,1.65-1.35,3-3,3H4c-1.65,0-3-1.35-3-3
				V4c0-1.65,1.35-3,3-3h144c1.65,0,3,1.35,3,3V28z"/>
		</g>
		<g>
			<path style="fill:#6D6767;" d="M146.667,9c0,2.75-2.25,5-5,5H10.333c-2.75,0-5-2.25-5-5v0c0-2.75,2.25-5,5-5h131.333
				C144.417,4,146.667,6.25,146.667,9L146.667,9z"/>
		</g>
	</g>
</g>
<g id="Layer_1">
</g>
</svg>
