<?xml version="1.0" encoding="iso-8859-1"?>
<!-- Generator: Adobe Illustrator 17.0.0, SVG Export Plug-In . SVG Version: 6.00 Build 0)  -->
<!DOCTYPE svg PUBLIC "-//W3C//DTD SVG 1.1//EN" "http://www.w3.org/Graphics/SVG/1.1/DTD/svg11.dtd">
<svg version="1.1" xmlns="http://www.w3.org/2000/svg" xmlns:xlink="http://www.w3.org/1999/xlink" x="0px" y="0px"
	 width="28.055px" height="20px" viewBox="0 0 28.055 20" style="enable-background:new 0 0 28.055 20;" xml:space="preserve">
<g id="hws_x5F_elbow_x5F_SW">
	<path style="fill:#F16479;" d="M18.083,0L0.008,0v8.052l18.074-0.01c1.099-0.086,2.024,0.846,1.93,1.945L20.008,20h8.046V9.993
		C28.055,4.458,23.617,0,18.083,0"/>
	<path style="fill:#B22B32;" d="M20,10v10h2.044V10c-0.002-2.375-1.649-4.034-3.99-4H0l0,2.052h18.055
		C19.121,8.047,20.007,9.018,20,10z"/>
	<path style="fill:#B22B32;" d="M18.055,0L0,0l0,2.047h18.055c4.07-0.002,7.954,3.703,7.954,7.953v10h2.046V10V9.993
		C28.055,4.458,23.589,0,18.055,0z"/>
</g>
<g id="Layer_1">
</g>
</svg>
