<?xml version="1.0" encoding="iso-8859-1"?>
<!-- Generator: Adobe Illustrator 17.0.0, SVG Export Plug-In . SVG Version: 6.00 Build 0)  -->
<!DOCTYPE svg PUBLIC "-//W3C//DTD SVG 1.1//EN" "http://www.w3.org/Graphics/SVG/1.1/DTD/svg11.dtd">
<svg version="1.1" xmlns="http://www.w3.org/2000/svg" xmlns:xlink="http://www.w3.org/1999/xlink" x="0px" y="0px"
	 width="28.052px" height="28.055px" viewBox="0 0 28.052 28.055" style="enable-background:new 0 0 28.052 28.055;"
	 xml:space="preserve">
<g id="hws_x5F_elbow_x5F_NW">
	<path style="fill:#F16479;" d="M28.052,18.083l0-18.074l-8.052,0l0.01,18.074c0.086,1.099-0.846,2.024-1.945,1.93L0,20.008l0,8.046
		h18.059C23.593,28.055,28.052,23.617,28.052,18.083"/>
	<path style="fill:#B22B32;" d="M18.052,20H0l0,2.044h18.052c2.375-0.002,4.034-1.649,4-3.99V0L20,0v18.055
		C20.005,19.121,19.034,20.007,18.052,20z"/>
	<path style="fill:#B22B32;" d="M28.052,18.055V0l-2.047,0v18.055c0.002,4.07-3.703,7.954-7.953,7.954H0l0,2.046h18.052h0.007
		C23.593,28.055,28.052,23.589,28.052,18.055z"/>
</g>
<g id="Layer_1">
</g>
</svg>
