<?xml version="1.0" encoding="iso-8859-1"?>
<!-- Generator: Adobe Illustrator 17.0.0, SVG Export Plug-In . SVG Version: 6.00 Build 0)  -->
<!DOCTYPE svg PUBLIC "-//W3C//DTD SVG 1.1//EN" "http://www.w3.org/Graphics/SVG/1.1/DTD/svg11.dtd">
<svg version="1.1" xmlns="http://www.w3.org/2000/svg" xmlns:xlink="http://www.w3.org/1999/xlink" x="0px" y="0px"
	 width="48.275px" height="48.275px" viewBox="0 0 48.275 48.275" style="enable-background:new 0 0 48.275 48.275;"
	 xml:space="preserve">
<g id="tstat_x5F_round01">
	<g id="Layer_1_1_">
	</g>
	<g>
		<circle style="fill:#D8D4CE;" cx="24.137" cy="24.137" r="23.437"/>
		<circle style="fill:none;stroke:#51514E;stroke-width:1.4;stroke-miterlimit:10;" cx="24.137" cy="24.137" r="23.437"/>
		<g>
			<path style="fill:#E5E1DF;" d="M24.138,45.45c-11.752,0-21.312-9.561-21.312-21.313c0-11.751,9.561-21.312,21.312-21.312
				S45.45,12.386,45.45,24.137C45.45,35.89,35.89,45.45,24.138,45.45z"/>
			<path style="fill:#C4BCB8;" d="M24.137,2.95c11.683,0,21.188,9.505,21.188,21.187S35.82,45.325,24.137,45.325
				S2.95,35.82,2.95,24.137S12.455,2.95,24.137,2.95 M24.137,2.7C12.298,2.7,2.7,12.298,2.7,24.137
				c0,11.84,9.598,21.437,21.438,21.437s21.438-9.598,21.438-21.437C45.575,12.298,35.977,2.7,24.137,2.7L24.137,2.7z"/>
		</g>
		<g>
			<path style="fill:#EFECEA;" d="M24.138,38.77c-8.068,0-14.632-6.564-14.632-14.632S16.069,9.505,24.138,9.505
				S38.77,16.069,38.77,24.137S32.206,38.77,24.138,38.77z"/>
			<path style="fill:#C4BCB8;" d="M24.137,9.63c7.999,0,14.507,6.508,14.507,14.507s-6.508,14.507-14.507,14.507
				S9.63,32.137,9.63,24.137S16.138,9.63,24.137,9.63 M24.137,9.38c-8.15,0-14.757,6.607-14.757,14.757s6.607,14.757,14.757,14.757
				s14.757-6.607,14.757-14.757S32.288,9.38,24.137,9.38L24.137,9.38z"/>
		</g>
		<g>
			<path style="fill:#EFECEA;" d="M24.137,8.26c8.755,0,15.878,7.123,15.878,15.878s-7.123,15.878-15.878,15.878
				S8.26,32.893,8.26,24.137S15.382,8.26,24.137,8.26 M24.137,8.01C15.23,8.01,8.01,15.23,8.01,24.137s7.221,16.128,16.128,16.128
				s16.128-7.221,16.128-16.128S33.045,8.01,24.137,8.01L24.137,8.01z"/>
		</g>
		<g>
			<path style="fill:#F2F2F2;" d="M24.138,38.103c-7.701,0-13.965-6.265-13.965-13.965s6.265-13.965,13.965-13.965
				c7.7,0,13.965,6.265,13.965,13.965S31.838,38.103,24.138,38.103z"/>
			<path style="fill:#C6C6C5;" d="M24.137,10.297c7.632,0,13.84,6.209,13.84,13.84s-6.209,13.84-13.84,13.84
				s-13.84-6.209-13.84-13.84S16.506,10.297,24.137,10.297 M24.137,10.047c-7.782,0-14.09,6.308-14.09,14.09
				s6.309,14.09,14.09,14.09c7.782,0,14.09-6.308,14.09-14.09S31.919,10.047,24.137,10.047L24.137,10.047z"/>
		</g>
		<g>
			<path style="fill:#42482C;" d="M33.104,28.68c-0.212,0.206-0.642,0.375-0.955,0.375H16.126c-0.313,0-0.716-0.188-0.895-0.418
				c0,0-1.384-1.776-1.384-5.01s1.384-5.01,1.384-5.01c0.179-0.23,0.582-0.418,0.895-0.418h16.023c0.313,0,0.743,0.169,0.955,0.375
				c0,0,1.325,1.29,1.325,5.053S33.104,28.68,33.104,28.68z"/>
			<path style="fill:#9FB83B;" d="M32.559,28.373c-0.199,0.194-0.603,0.352-0.897,0.352h-15.05c-0.294,0-0.673-0.177-0.841-0.392
				c0,0-1.3-1.669-1.3-4.706s1.3-4.706,1.3-4.706c0.168-0.216,0.547-0.392,0.841-0.392h15.05c0.294,0,0.698,0.159,0.897,0.352
				c0,0,1.244,1.212,1.244,4.746S32.559,28.373,32.559,28.373z"/>
		</g>
		
			<line style="fill:#F2F2F2;stroke:#C6C6C5;stroke-width:0.25;stroke-miterlimit:10;" x1="36.949" y1="29.227" x2="11.199" y2="29.227"/>
		
			<line style="fill:#F2F2F2;stroke:#C6C6C5;stroke-width:0.25;stroke-miterlimit:10;" x1="11.761" y1="18.2" x2="36.636" y2="18.2"/>
	</g>
</g>
<g id="Layer_1">
</g>
</svg>
