<?xml version="1.0" encoding="iso-8859-1"?>
<!-- Generator: Adobe Illustrator 17.0.0, SVG Export Plug-In . SVG Version: 6.00 Build 0)  -->
<!DOCTYPE svg PUBLIC "-//W3C//DTD SVG 1.1//EN" "http://www.w3.org/Graphics/SVG/1.1/DTD/svg11.dtd">
<svg version="1.1" xmlns="http://www.w3.org/2000/svg" xmlns:xlink="http://www.w3.org/1999/xlink" x="0px" y="0px"
	 width="73.622px" height="48.775px" viewBox="0 0 73.622 48.775" style="enable-background:new 0 0 73.622 48.775;"
	 xml:space="preserve">
<g id="tstat_x5F_rect01">
	<g>
		<path style="fill:#D8D4CE;" d="M68.274,44.249c-0.743,0.811-2.251,1.475-3.351,1.475c0,0-10.423,2.578-28.111,2.578
			S8.7,45.724,8.7,45.724c-1.1,0-2.514-0.739-3.142-1.642c0,0-4.858-6.983-4.858-19.694S5.558,4.693,5.558,4.693
			C6.186,3.79,7.6,3.051,8.7,3.051c0,0,10.424-2.125,28.111-2.125s28.111,2.125,28.111,2.125c1.1,0,2.608,0.664,3.351,1.475
			c0,0,4.649,5.073,4.649,19.862S68.274,44.249,68.274,44.249z"/>
		<path style="fill:#E0DCDA;" d="M52.131,35.58c-0.472,0.503-1.429,0.914-2.127,0.914c0,0-6.615,1.598-17.84,1.598
			s-17.84-1.598-17.84-1.598c-0.698,0-1.595-0.458-1.994-1.018c0,0-3.083-4.33-3.083-12.212s3.083-12.212,3.083-12.212
			c0.399-0.56,1.296-1.018,1.994-1.018c0,0,6.615-1.318,17.84-1.318s17.84,1.318,17.84,1.318c0.698,0,1.655,0.411,2.127,0.914
			c0,0,2.95,3.145,2.95,12.315S52.131,35.58,52.131,35.58z"/>
		<g>
			<g>
				<g>
					<path style="fill:#42482C;" d="M50.727,33.521c0,0.55-0.45,1-1,1H14.602c-0.55,0-1-0.45-1-1V13.073c0-0.55,0.45-1,1-1h35.125
						c0.55,0,1,0.45,1,1V33.521z"/>
				</g>
				<g>
					<path style="fill:#9FB83B;" d="M49.977,33.067c0,0.55-0.45,1-1,1H15.352c-0.55,0-1-0.45-1-1V13.526c0-0.55,0.45-1,1-1h33.625
						c0.55,0,1,0.45,1,1V33.067z"/>
				</g>
			</g>
		</g>
		<path style="fill:none;stroke:#F4EFED;stroke-width:0.25;stroke-miterlimit:10;" d="M52.131,35.58
			c-0.472,0.503-1.429,0.914-2.127,0.914c0,0-6.615,1.598-17.84,1.598s-17.84-1.598-17.84-1.598c-0.698,0-1.595-0.458-1.994-1.018
			c0,0-3.083-4.33-3.083-12.212s3.083-12.212,3.083-12.212c0.399-0.56,1.296-1.018,1.994-1.018c0,0,6.615-1.318,17.84-1.318
			s17.84,1.318,17.84,1.318c0.698,0,1.655,0.411,2.127,0.914c0,0,2.95,3.145,2.95,12.315S52.131,35.58,52.131,35.58z"/>
		<g>
			<ellipse style="fill:#C4BDB7;" cx="24.82" cy="41.535" rx="3.012" ry="2.176"/>
			<g>
				<path style="fill:#8C8581;" d="M24.82,39.36c1.663,0,3.012,0.974,3.012,2.176c0,1.201-1.348,2.175-3.012,2.175
					c-1.664,0-3.012-0.974-3.012-2.175C21.808,40.334,23.156,39.36,24.82,39.36 M24.82,39.11c-1.799,0-3.262,1.088-3.262,2.426
					c0,1.337,1.463,2.425,3.262,2.425s3.262-1.088,3.262-2.425C28.082,40.198,26.618,39.11,24.82,39.11L24.82,39.11z"/>
			</g>
			<g>
				<path style="fill:#D6D4CE;" d="M24.82,39.672c1.454,0,2.638,0.836,2.638,1.864c0,1.028-1.183,1.863-2.638,1.863
					c-1.455,0-2.638-0.836-2.638-1.863C22.182,40.508,23.365,39.672,24.82,39.672 M24.82,39.522c-1.54,0-2.788,0.901-2.788,2.014
					c0,1.112,1.248,2.013,2.788,2.013c1.54,0,2.788-0.901,2.788-2.013C27.607,40.423,26.359,39.522,24.82,39.522L24.82,39.522z"/>
			</g>
		</g>
		<g>
			<ellipse style="fill:#C4BDB7;" cx="40.236" cy="41.535" rx="3.012" ry="2.176"/>
			<g>
				<path style="fill:#8C8581;" d="M40.236,39.36c1.664,0,3.012,0.974,3.012,2.176c0,1.201-1.348,2.175-3.012,2.175
					c-1.663,0-3.012-0.974-3.012-2.175C37.225,40.334,38.573,39.36,40.236,39.36 M40.236,39.11c-1.799,0-3.262,1.088-3.262,2.426
					c0,1.337,1.463,2.425,3.262,2.425s3.262-1.088,3.262-2.425C43.498,40.198,42.035,39.11,40.236,39.11L40.236,39.11z"/>
			</g>
			<g>
				<path style="fill:#D6D4CE;" d="M40.236,39.672c1.454,0,2.638,0.836,2.638,1.864c0,1.028-1.183,1.863-2.638,1.863
					s-2.638-0.836-2.638-1.863C37.599,40.508,38.782,39.672,40.236,39.672 M40.236,39.522c-1.54,0-2.788,0.901-2.788,2.014
					c0,1.112,1.248,2.013,2.788,2.013s2.788-0.901,2.788-2.013C43.024,40.423,41.776,39.522,40.236,39.522L40.236,39.522z"/>
			</g>
		</g>
		<g>
			<ellipse style="fill:#C4BDB7;" cx="62.299" cy="30.353" rx="3.012" ry="2.983"/>
			<g>
				<path style="fill:#8C8581;" d="M62.299,27.37c1.664,0,3.012,1.336,3.012,2.983c0,1.647-1.348,2.983-3.012,2.983
					c-1.663,0-3.012-1.336-3.012-2.983C59.287,28.705,60.635,27.37,62.299,27.37 M62.299,27.12c-1.799,0-3.262,1.45-3.262,3.233
					s1.463,3.233,3.262,3.233s3.262-1.45,3.262-3.233S64.097,27.12,62.299,27.12L62.299,27.12z"/>
			</g>
			<g>
				<path style="fill:#D6D4CE;" d="M62.299,27.742c1.454,0,2.638,1.171,2.638,2.611c0,1.44-1.183,2.611-2.638,2.611
					s-2.638-1.171-2.638-2.611C59.661,28.913,60.844,27.742,62.299,27.742 M62.299,27.592c-1.54,0-2.788,1.236-2.788,2.761
					s1.248,2.761,2.788,2.761s2.788-1.236,2.788-2.761S63.838,27.592,62.299,27.592L62.299,27.592z"/>
			</g>
		</g>
		<g>
			<ellipse style="fill:#C4BDB7;" cx="62.299" cy="18.728" rx="3.012" ry="2.983"/>
			<g>
				<path style="fill:#8C8581;" d="M62.299,15.745c1.664,0,3.012,1.336,3.012,2.983c0,1.647-1.348,2.983-3.012,2.983
					c-1.663,0-3.012-1.336-3.012-2.983C59.287,17.08,60.635,15.745,62.299,15.745 M62.299,15.495c-1.799,0-3.262,1.45-3.262,3.233
					s1.463,3.233,3.262,3.233s3.262-1.45,3.262-3.233S64.097,15.495,62.299,15.495L62.299,15.495z"/>
			</g>
			<g>
				<path style="fill:#D6D4CE;" d="M62.299,16.117c1.454,0,2.638,1.171,2.638,2.611c0,1.44-1.183,2.611-2.638,2.611
					s-2.638-1.171-2.638-2.611C59.661,17.288,60.844,16.117,62.299,16.117 M62.299,15.967c-1.54,0-2.788,1.236-2.788,2.761
					s1.248,2.761,2.788,2.761s2.788-1.236,2.788-2.761S63.838,15.967,62.299,15.967L62.299,15.967z"/>
			</g>
		</g>
		<g>
			<path style="fill:#847F77;" d="M62.116,17.421c0.1-0.1,0.265-0.1,0.365,0l1.635,1.635c0.1,0.1,0.066,0.182-0.076,0.182h-3.484
				c-0.142,0-0.176-0.082-0.076-0.182L62.116,17.421z"/>
		</g>
		<g>
			<path style="fill:#847F77;" d="M62.481,31.681c-0.1,0.1-0.265,0.1-0.365,0l-1.635-1.635c-0.1-0.1-0.066-0.182,0.076-0.182h3.484
				c0.142,0,0.176,0.082,0.076,0.182L62.481,31.681z"/>
		</g>
		<path style="fill:none;stroke:#51514E;stroke-width:1.4;stroke-miterlimit:10;" d="M68.274,44.023
			c-0.743,0.811-2.251,1.475-3.351,1.475c0,0-10.423,2.578-28.111,2.578S8.7,45.497,8.7,45.497c-1.1,0-2.514-0.739-3.142-1.642
			c0,0-4.858-6.983-4.858-19.694S5.558,4.467,5.558,4.467C6.186,3.564,7.6,2.825,8.7,2.825c0,0,10.424-2.125,28.111-2.125
			s28.111,2.125,28.111,2.125c1.1,0,2.608,0.664,3.351,1.475c0,0,4.649,5.073,4.649,19.862S68.274,44.023,68.274,44.023z"/>
	</g>
</g>
<g id="Layer_1">
</g>
</svg>
