<?xml version="1.0" encoding="iso-8859-1"?>
<!-- Generator: Adobe Illustrator 17.0.0, SVG Export Plug-In . SVG Version: 6.00 Build 0)  -->
<!DOCTYPE svg PUBLIC "-//W3C//DTD SVG 1.1//EN" "http://www.w3.org/Graphics/SVG/1.1/DTD/svg11.dtd">
<svg version="1.1" xmlns="http://www.w3.org/2000/svg" xmlns:xlink="http://www.w3.org/1999/xlink" x="0px" y="0px" width="200px"
	 height="330.004px" viewBox="0 0 200 330.004" style="enable-background:new 0 0 200 330.004;" xml:space="preserve">
<g id="Damper_x5F_3Way_x5F_2">
	<g>
		<g>
			<g>
				<g>
					<polygon style="fill:#E7E9EA;" points="0,70.04 80,70.061 80,20.061 0,20.04 					"/>
					<g>
						<polyline style="fill:#E7E9EA;" points="80,20 0,20 0,0 80,0 						"/>
						<polygon style="fill:#6A7276;" points="80,21.583 0,21.576 0,19.953 80,19.953 						"/>
						<g>
							<polyline style="fill:#DDDFE1;" points="80,88.494 0,88.494 0,68.494 80,68.494 							"/>
							<rect y="88.433" style="fill:#6A7276;" width="80" height="1.567"/>
						</g>
					</g>
				</g>
				<line style="fill:none;stroke:#ABAAA9;stroke-width:0.6;stroke-miterlimit:10;" x1="0" y1="68.422" x2="80" y2="68.422"/>
			</g>
			<g>
				
					<line style="fill:none;stroke:#FFFFFF;stroke-width:0.2;stroke-miterlimit:10;" x1="45.595" y1="21.697" x2="47.558" y2="22.991"/>
				<polyline style="fill:#CDCEC6;" points="60,84.417 60,88.352 58.089,88.352 56.608,87.779 49.922,87.779 48.933,88.352 
					46.769,88.352 46.769,84.435 				"/>
				<polyline style="fill:#CDCEC6;" points="46.769,25.697 46.769,23.211 59.845,23.211 59.845,25.683 				"/>
				<polygon style="fill:#AEAFA7;" points="20,21.697 20,70.257 46.768,88.352 46.769,84.435 50.047,83.312 56.833,83.312 
					60,84.417 35.049,67.646 35.049,21.698 40.882,21.697 46.769,25.697 46.768,23.211 44.395,21.697 				"/>
				<polygon style="fill:#B4B5B0;" points="44.395,21.697 46.769,23.211 48.842,23.211 50.047,23.738 56.833,23.753 58.158,23.212 
					60,23.211 57.686,21.697 				"/>
				
					<line style="fill:none;stroke:#FFFFFF;stroke-width:0.2;stroke-miterlimit:10;" x1="44.395" y1="21.697" x2="46.692" y2="23.211"/>
				
					<line style="fill:none;stroke:#999999;stroke-width:0.25;stroke-miterlimit:10;" x1="50.047" y1="84.312" x2="50.047" y2="87.674"/>
				<polyline style="fill:none;stroke:#999999;stroke-width:0.25;stroke-miterlimit:10;" points="46.373,21.697 50.047,23.738 
					50.047,25.453 				"/>
				
					<line style="fill:none;stroke:#DCDBDB;stroke-width:0.25;stroke-miterlimit:10;" x1="58.158" y1="84.312" x2="58.158" y2="88.231"/>
				<polyline style="fill:none;stroke:#DCDBDB;stroke-width:0.25;stroke-miterlimit:10;" points="55.824,21.697 58.158,23.212 
					58.158,25.646 				"/>
				
					<line style="fill:none;stroke:#999999;stroke-width:0.25;stroke-miterlimit:10;" x1="56.833" y1="84.312" x2="56.833" y2="87.704"/>
				<polyline style="fill:none;stroke:#999999;stroke-width:0.25;stroke-miterlimit:10;" points="53.731,21.697 56.833,23.753 
					56.833,25.531 				"/>
				
					<line style="fill:none;stroke:#DCDBDB;stroke-width:0.25;stroke-miterlimit:10;" x1="48.842" y1="84.312" x2="48.842" y2="88.306"/>
				<polyline style="fill:none;stroke:#DCDBDB;stroke-width:0.25;stroke-miterlimit:10;" points="46.117,21.697 48.842,23.211 
					48.842,25.687 				"/>
				<polyline style="fill:none;stroke:#F7F8F9;stroke-width:0.2;stroke-miterlimit:10;" points="59.845,84.313 59.845,88.352 
					57.934,88.352 56.608,87.779 49.922,87.779 48.778,88.352 46.692,88.352 46.692,84.435 				"/>
				<polyline style="fill:none;stroke:#F7F8F9;stroke-width:0.2;stroke-miterlimit:10;" points="46.692,25.688 46.692,23.211 
					48.842,23.211 50.047,23.738 56.833,23.753 58.158,23.211 59.845,23.211 59.845,25.683 				"/>
				<polygon style="fill:#9F9E9B;" points="40.882,21.697 35.049,21.698 35.049,67.646 45.028,83.119 21.74,67.542 21.74,21.697 
									"/>
				<path style="fill:none;stroke:#000000;stroke-width:0.4;stroke-miterlimit:10;" d="M45.028,83.119"/>
				<path style="fill:none;stroke:#000000;stroke-width:0.4;stroke-miterlimit:10;" d="M21.74,21.697"/>
				<polygon style="fill:#8E8D8B;" points="60,84.417 58.158,84.419 56.778,84.308 49.984,84.312 48.842,84.432 46.769,84.435 
					22.193,67.513 35.049,67.646 				"/>
				
					<line style="fill:none;stroke:#969289;stroke-width:0.2;stroke-miterlimit:10;" x1="22.005" y1="67.497" x2="28.79" y2="67.513"/>
				<polyline style="fill:none;stroke:#514D47;stroke-width:0.4;stroke-miterlimit:10;" points="59.845,25.687 58.234,25.687 
					56.833,25.453 50.047,25.453 48.842,25.687 46.692,25.687 40.882,21.697 				"/>
				<polyline style="fill:none;stroke:#E2DED7;stroke-width:0.4;stroke-miterlimit:10;" points="21.74,21.697 21.74,67.542 
					46.692,84.312 48.842,84.312 50.031,84.187 56.818,84.187 58.158,84.312 59.845,84.312 				"/>
				<path style="fill:none;stroke:#4F4C4B;stroke-width:2;stroke-miterlimit:10;" d="M60,84.417v2.151c0,1.1-0.43,2-0.955,2
					c-0.526,0-1.254-0.129-1.618-0.286c-0.364-0.157-1.563-0.286-2.663-0.286h-3.73c-1.1,0-2.257,0.129-2.572,0.286
					c-0.315,0.157-1.059,0.286-1.654,0.286c-0.595,0-1.828-0.504-2.739-1.12L20.615,71.593c-0.911-0.616-1.657-2.02-1.657-3.12
					V21.583"/>
				<path style="fill:none;stroke:#4F4C4B;stroke-width:2;stroke-miterlimit:10;" d="M57.686,21.481c0,0,0.521,0.341,1.157,0.757
					C59.479,22.654,60,23.895,60,24.995v0.688"/>
			</g>
			<g>
				<g>
					<polygon style="fill:#8E8D8B;" points="54.198,71.072 44.889,80.532 20.312,63.61 20,62.828 28.814,53.382 53.885,70.291 					
						"/>
					<polygon style="fill:#EFECEA;stroke:#111111;stroke-width:0.125;stroke-linejoin:round;stroke-miterlimit:10;" points="
						53.885,70.291 44.576,79.75 20,62.828 28.814,53.382 					"/>
					<g>
						<path style="fill:#101010;" d="M28.814,53.382l25.071,16.909l0.312,0.782l-9.309,9.459L20.312,63.609L20,62.828L28.814,53.382
							 M28.77,52.99l-0.175,0.187l-8.814,9.446l-0.13,0.139l0.071,0.177l0.312,0.782l0.034,0.084l0.075,0.051l24.576,16.922
							l0.208,0.143l0.177-0.179l9.309-9.459l0.137-0.14l-0.073-0.182l-0.312-0.782l-0.034-0.086l-0.077-0.052L28.982,53.133
							L28.77,52.99L28.77,52.99z"/>
					</g>
					
						<line style="fill:#EFECEA;stroke:#111111;stroke-width:0.125;stroke-miterlimit:10;" x1="44.576" y1="79.75" x2="44.889" y2="80.532"/>
				</g>
				<g>
					<polygon style="fill:#8E8D8B;" points="54.198,56.516 44.889,65.976 20.312,49.053 20,48.272 28.814,38.826 53.885,55.735 
											"/>
					<polygon style="fill:#EFECEA;stroke:#111111;stroke-width:0.125;stroke-linejoin:round;stroke-miterlimit:10;" points="
						53.885,55.735 44.576,65.194 20,48.272 28.814,38.826 					"/>
					<g>
						<path style="fill:#101010;" d="M28.814,38.826l25.071,16.909l0.312,0.782l-9.309,9.459L20.312,49.053L20,48.272L28.814,38.826
							 M28.77,38.434l-0.175,0.187l-8.814,9.446l-0.13,0.139l0.071,0.177l0.312,0.782l0.034,0.084l0.075,0.051l24.576,16.922
							l0.208,0.143l0.177-0.179l9.309-9.459l0.137-0.14l-0.073-0.182l-0.312-0.782l-0.034-0.086l-0.077-0.052L28.982,38.577
							L28.77,38.434L28.77,38.434z"/>
					</g>
					
						<line style="fill:#EFECEA;stroke:#111111;stroke-width:0.125;stroke-miterlimit:10;" x1="44.576" y1="65.194" x2="44.889" y2="65.976"/>
				</g>
				<g>
					<polygon style="fill:#8E8D8B;" points="54.198,41.954 44.889,51.413 20.312,34.491 20,33.709 28.814,24.263 53.885,41.172 
											"/>
					<polygon style="fill:#EFECEA;stroke:#111111;stroke-width:0.125;stroke-linejoin:round;stroke-miterlimit:10;" points="
						53.885,41.172 44.576,50.632 20,33.709 28.814,24.263 					"/>
					<g>
						<path style="fill:#101010;" d="M28.814,24.263l25.071,16.909l0.312,0.782l-9.309,9.459L20.312,34.491L20,33.709L28.814,24.263
							 M28.77,23.871l-0.175,0.187l-8.814,9.446l-0.13,0.139l0.071,0.177l0.312,0.782l0.034,0.084l0.075,0.051L44.719,51.66
							l0.208,0.143l0.177-0.179l9.309-9.459l0.137-0.14l-0.073-0.182l-0.312-0.782l-0.034-0.086l-0.077-0.052L28.982,24.015
							L28.77,23.871L28.77,23.871z"/>
					</g>
					
						<line style="fill:#EFECEA;stroke:#111111;stroke-width:0.125;stroke-miterlimit:10;" x1="44.576" y1="50.632" x2="44.889" y2="51.413"/>
				</g>
				<g>
					<polygon style="fill:#8E8D8B;" points="54.198,27.26 44.889,36.72 22.902,21.581 31.583,21.655 40.882,21.697 46.769,25.697 
						48.842,25.687 50.047,25.453 52.47,25.524 53.885,26.479 					"/>
					<polygon style="fill:#EFECEA;stroke:#111111;stroke-width:0.125;stroke-linejoin:round;stroke-miterlimit:10;" points="
						53.885,26.479 44.576,35.938 23.708,21.583 40.882,21.697 46.958,25.646 48.842,25.687 50.047,25.453 52.47,25.524 					"/>
					<g>
						<path style="fill:#101010;" d="M22.902,21.581l17.98,0.117l6.076,3.948l1.884,0.042l1.205-0.234l2.423,0.071l1.415,0.954
							l0.312,0.782l-9.309,9.46L22.902,21.581 M21.928,21.274l0.804,0.553l21.987,15.139l0.208,0.143l0.177-0.179l9.309-9.46
							l0.137-0.14l-0.073-0.182l-0.312-0.782l-0.034-0.086l-0.077-0.052l-1.415-0.954l-0.072-0.049l-0.087-0.003l-2.423-0.071
							l-0.033-0.001l-0.033,0.006l-1.173,0.228l-1.767-0.039l-6.005-3.902l-0.073-0.048l-0.088-0.001l-17.98-0.117L21.928,21.274
							L21.928,21.274z"/>
					</g>
					
						<line style="fill:#EFECEA;stroke:#111111;stroke-width:0.125;stroke-miterlimit:10;" x1="44.576" y1="35.938" x2="44.889" y2="36.72"/>
				</g>
			</g>
		</g>
		<g>
			<polygon style="fill:#E7E9EA;" points="170.047,193.001 170.078,123.036 130,123 130,193.001 			"/>
			<polygon style="fill:#DDDFE1;" points="198.493,123.002 198.493,193.001 168.493,193.001 168.493,123.037 			"/>
			<rect x="198.492" y="123.003" style="fill:#6A7276;" width="1.507" height="69.936"/>
			
				<line style="fill:none;stroke:#ABAAA9;stroke-width:0.6;stroke-miterlimit:10;" x1="168.493" y1="193.001" x2="168.493" y2="123.037"/>
			<polygon style="fill:#B4B5B0;" points="131.172,154.915 168.151,154.868 195.158,174.109 195.138,160.957 168.386,143.379 
				131.28,143.379 			"/>
			<polygon style="fill:#A3A09C;" points="195.158,174.109 195.138,160.957 168.399,143.605 168.399,154.868 			"/>
			
				<line style="fill:none;stroke:#969289;stroke-width:0.2;stroke-miterlimit:10;" x1="168.384" y1="143.631" x2="168.399" y2="154.868"/>
			<polygon style="fill:#AEAFA7;" points="131.28,141.639 168.835,141.639 168.386,143.379 131.28,143.379 			"/>
			<polygon style="fill:#AEAFA7;" points="168.833,141.639 197.932,161.033 195.252,161.034 192.7,159.292 168.384,143.379 			"/>
			<polyline style="fill:#CDCEC6;" points="195.033,174.265 197.934,174.265 197.934,172.354 197.362,171.029 197.362,164.342 
				197.934,163.198 197.934,161.034 195.138,160.957 195.158,174.109 			"/>
			<path style="fill:#CDCEC6;" d="M140.253,161.076"/>
			<path style="fill:#CDCEC6;" d="M191.252,161.365"/>
			
				<line style="fill:none;stroke:#999999;stroke-width:0.25;stroke-miterlimit:10;" x1="195.143" y1="164.312" x2="196.94" y2="164.312"/>
			
				<line style="fill:none;stroke:#DCDBDB;stroke-width:0.25;stroke-miterlimit:10;" x1="195.155" y1="172.423" x2="197.497" y2="172.423"/>
			<path style="fill:none;stroke:#DCDBDB;stroke-width:0.25;stroke-miterlimit:10;" d="M139.97,172.423"/>
			<path style="fill:none;stroke:#DCDBDB;stroke-width:0.25;stroke-miterlimit:10;" d="M192.702,172.423"/>
			
				<line style="fill:none;stroke:#999999;stroke-width:0.25;stroke-miterlimit:10;" x1="195.155" y1="171.098" x2="196.97" y2="171.098"/>
			
				<line style="fill:none;stroke:#DCDBDB;stroke-width:0.25;stroke-miterlimit:10;" x1="195.141" y1="163.107" x2="197.573" y2="163.107"/>
			<path style="fill:none;stroke:#000000;stroke-width:0.4;stroke-miterlimit:10;" d="M192.702,159.292"/>
			<path style="fill:none;stroke:#000000;stroke-width:0.4;stroke-miterlimit:10;" d="M131.28,143.379"/>
			<polyline style="fill:none;stroke:#F7F8F9;stroke-width:0.2;stroke-miterlimit:10;" points="197.934,174.109 197.934,172.198 
				197.362,170.873 197.362,164.186 197.934,163.042 197.934,160.957 195.138,160.957 195.158,174.109 			"/>
			<path style="fill:none;stroke:#4F4C4B;stroke-width:2;stroke-miterlimit:10;" d="M195.158,174.846h0.884c1.1,0,2-0.43,2-0.955
				c0-0.526-0.129-1.254-0.286-1.618s-0.286-1.563-0.286-2.663v-3.73c0-1.1,0.129-2.257,0.286-2.572s0.286-1.059,0.286-1.654
				s-0.037-0.949-0.653-1.86l-26.721-17.629c-1.046-0.589-4.025-1.032-5.125-1.032l-34.268-0.136"/>
			<polyline style="fill:none;stroke:#E2DED7;stroke-width:0.4;stroke-miterlimit:10;" points="131.28,143.379 168.386,143.379 
				195.138,160.957 			"/>
			<polyline style="fill:none;stroke:#4F4C4B;stroke-miterlimit:10;" points="131.283,155.334 168.151,155.334 196.042,174.846 			
				"/>
			<g>
				<g>
					<polygon style="fill:#8E8D8B;" points="183.575,174.762 193.034,165.454 162.112,143.877 161.331,143.565 151.885,152.379 
						182.793,174.45 					"/>
					<polygon style="fill:#EFECEA;stroke:#111111;stroke-width:0.125;stroke-linejoin:round;stroke-miterlimit:10;" points="
						182.793,174.45 192.253,165.141 161.331,143.565 151.885,152.379 					"/>
					<g>
						<path style="fill:#101010;" d="M161.331,143.565l0.781,0.312l30.922,21.576l-9.459,9.309l-0.781-0.312l-30.909-22.071
							L161.331,143.565 M161.265,143.216l-0.139,0.13l-9.446,8.814l-0.268,0.25l0.299,0.213l30.909,22.071l0.029,0.021l0.033,0.013
							l0.782,0.312l0.182,0.073l0.14-0.138l9.459-9.309l0.257-0.253l-0.296-0.207l-30.922-21.576l-0.028-0.02l-0.032-0.013
							l-0.782-0.312L161.265,143.216L161.265,143.216z"/>
					</g>
					
						<line style="fill:#EFECEA;stroke:#111111;stroke-width:0.125;stroke-miterlimit:10;" x1="192.253" y1="165.141" x2="193.034" y2="165.454"/>
				</g>
				<g>
					<polygon style="fill:#8E8D8B;" points="169.019,174.762 178.478,165.454 147.556,143.877 146.774,143.565 137.328,152.379 
						168.237,174.45 					"/>
					<polygon style="fill:#EFECEA;stroke:#111111;stroke-width:0.125;stroke-linejoin:round;stroke-miterlimit:10;" points="
						168.237,174.45 177.697,165.141 146.774,143.565 137.328,152.379 					"/>
					<g>
						<path style="fill:#101010;" d="M146.774,143.565l0.781,0.312l30.922,21.576l-9.459,9.309l-0.781-0.312l-30.909-22.071
							L146.774,143.565 M146.709,143.216l-0.139,0.13l-9.446,8.814l-0.268,0.25l0.299,0.213l30.909,22.071l0.029,0.021l0.033,0.013
							l0.782,0.312l0.182,0.073l0.14-0.138l9.459-9.309l0.257-0.253l-0.296-0.207l-30.922-21.576l-0.028-0.02l-0.032-0.013
							l-0.782-0.312L146.709,143.216L146.709,143.216z"/>
					</g>
					
						<line style="fill:#EFECEA;stroke:#111111;stroke-width:0.125;stroke-miterlimit:10;" x1="177.697" y1="165.141" x2="178.478" y2="165.454"/>
				</g>
				<g>
					<polygon style="fill:#8E8D8B;" points="154.456,174.762 163.916,165.454 132.993,143.877 132.212,143.565 122.766,152.379 
						153.675,174.45 					"/>
					<polygon style="fill:#EFECEA;stroke:#111111;stroke-width:0.125;stroke-linejoin:round;stroke-miterlimit:10;" points="
						153.675,174.45 163.134,165.141 132.212,143.565 122.766,152.379 					"/>
					<g>
						<path style="fill:#101010;" d="M132.212,143.565l0.781,0.312l30.922,21.576l-9.459,9.309l-0.781-0.312l-30.909-22.071
							L132.212,143.565 M132.146,143.216l-0.139,0.13l-9.446,8.814l-0.268,0.25l0.299,0.213l30.909,22.071l0.029,0.021l0.033,0.013
							l0.782,0.312l0.182,0.073l0.14-0.138l9.459-9.309l0.257-0.253l-0.296-0.207l-30.922-21.576l-0.028-0.02l-0.032-0.013
							l-0.782-0.312L132.146,143.216L132.146,143.216z"/>
					</g>
					
						<line style="fill:#EFECEA;stroke:#111111;stroke-width:0.125;stroke-miterlimit:10;" x1="163.134" y1="165.141" x2="163.916" y2="165.454"/>
				</g>
				<g>
					<polygon style="fill:#8E8D8B;" points="139.763,174.762 149.222,165.454 118.3,143.877 117.519,143.565 108.073,152.379 
						138.981,174.45 					"/>
					<polygon style="fill:#EFECEA;stroke:#111111;stroke-width:0.125;stroke-linejoin:round;stroke-miterlimit:10;" points="
						138.981,174.45 148.441,165.141 117.519,143.565 108.073,152.379 					"/>
					<g>
						<path style="fill:#101010;" d="M117.519,143.565l0.781,0.312l30.922,21.576l-9.459,9.309l-0.782-0.312l-30.909-22.071
							L117.519,143.565 M117.453,143.216l-0.139,0.13l-9.446,8.814l-0.268,0.25l0.299,0.213l30.909,22.071l0.029,0.021l0.034,0.013
							l0.782,0.312l0.182,0.073l0.14-0.138l9.459-9.309l0.257-0.253l-0.296-0.207l-30.922-21.576l-0.028-0.02l-0.032-0.013
							l-0.781-0.312L117.453,143.216L117.453,143.216z"/>
					</g>
					
						<line style="fill:#EFECEA;stroke:#111111;stroke-width:0.125;stroke-miterlimit:10;" x1="148.441" y1="165.141" x2="149.222" y2="165.454"/>
				</g>
			</g>
			<polygon style="fill:#E7E9EA;" points="130,123.026 130,193.001 100,193.001 100,123.002 			"/>
			<polygon style="fill:#B4B5B0;" points="131.28,159.941 132.794,161.034 132.794,163.107 133.32,164.312 133.336,171.098 
				132.794,172.423 132.794,174.265 131.28,173.232 			"/>
			<polyline style="fill:#CDCEC6;" points="136.346,174.265 136.408,161.055 132.794,161.034 132.794,174.265 137.408,174.265 			
				"/>
			<polyline style="fill:none;stroke:#999999;stroke-width:0.25;stroke-miterlimit:10;" points="131.28,163.232 133.32,164.312 
				136.345,164.312 			"/>
			<polyline style="fill:none;stroke:#DCDBDB;stroke-width:0.25;stroke-miterlimit:10;" points="131.28,171.37 132.794,172.423 
				136.345,172.423 			"/>
			<polyline style="fill:none;stroke:#999999;stroke-width:0.25;stroke-miterlimit:10;" points="131.28,169.826 133.336,171.098 
				136.345,171.098 			"/>
			<polyline style="fill:none;stroke:#DCDBDB;stroke-width:0.25;stroke-miterlimit:10;" points="131.28,162.201 132.794,163.107 
				136.345,163.107 			"/>
			<path style="fill:none;stroke:#4F4C4B;stroke-width:2;stroke-miterlimit:10;" d="M131.172,173.525c0,0,0.628,0.429,1.175,0.877
				c0.588,0.482,1.022,0.443,2.122,0.443h1.877"/>
			<polygon style="fill:#AEAFA7;" points="136.533,160.957 132.793,161.033 131.28,159.941 131.28,157.295 			"/>
			
				<line style="fill:none;stroke:#FFFFFF;stroke-width:0.2;stroke-miterlimit:10;" x1="131.28" y1="159.941" x2="132.794" y2="160.957"/>
			<polyline style="fill:none;stroke:#F7F8F9;stroke-width:0.2;stroke-miterlimit:10;" points="136.346,174.109 136.344,160.993 
				132.794,160.957 132.794,163.107 133.32,164.312 133.336,171.098 132.794,172.422 132.794,174.109 			"/>
			<polyline style="fill:none;stroke:#514D47;stroke-miterlimit:10;" points="136.533,175.709 136.533,160.957 131.28,157.295 			
				"/>
			<rect x="130" y="123.003" style="fill:#6A7276;" width="1.507" height="70.001"/>
		</g>
		<g>
			<g>
				<g>
					<polygon style="fill:#E7E9EA;" points="0,310.045 80,310.066 80,260.066 0,260.045 					"/>
					<g>
						<polyline style="fill:#E7E9EA;" points="80,260.004 0,260.004 0,240.004 80,240.004 						"/>
						<polygon style="fill:#6A7276;" points="80,261.587 0,261.58 0,259.958 80,259.958 						"/>
						<g>
							<polyline style="fill:#DDDFE1;" points="80,328.499 0,328.499 0,308.499 80,308.499 							"/>
							<rect y="328.437" style="fill:#6A7276;" width="80" height="1.567"/>
						</g>
					</g>
				</g>
				<line style="fill:none;stroke:#ABAAA9;stroke-width:0.6;stroke-miterlimit:10;" x1="0" y1="308.426" x2="80" y2="308.426"/>
			</g>
			<g>
				
					<line style="fill:none;stroke:#FFFFFF;stroke-width:0.2;stroke-miterlimit:10;" x1="45.595" y1="261.702" x2="47.558" y2="262.996"/>
				<polyline style="fill:#CDCEC6;" points="60,324.421 60,328.356 58.089,328.356 56.608,327.784 49.922,327.784 48.933,328.356 
					46.769,328.356 46.769,324.44 				"/>
				<polyline style="fill:#CDCEC6;" points="46.769,265.701 46.769,263.215 59.845,263.215 59.845,265.688 				"/>
				<polygon style="fill:#AEAFA7;" points="20,261.702 20,310.262 46.768,328.356 46.769,324.44 50.047,323.317 56.833,323.317 
					60,324.421 35.049,307.65 35.049,261.702 40.882,261.702 46.769,265.701 46.768,263.215 44.395,261.702 				"/>
				<polygon style="fill:#B4B5B0;" points="44.395,261.702 46.769,263.215 48.842,263.216 50.047,263.742 56.833,263.758 
					58.158,263.216 60,263.215 57.686,261.702 				"/>
				
					<line style="fill:none;stroke:#FFFFFF;stroke-width:0.2;stroke-miterlimit:10;" x1="44.395" y1="261.702" x2="46.692" y2="263.215"/>
				
					<line style="fill:none;stroke:#999999;stroke-width:0.25;stroke-miterlimit:10;" x1="50.047" y1="324.317" x2="50.047" y2="327.678"/>
				<polyline style="fill:none;stroke:#999999;stroke-width:0.25;stroke-miterlimit:10;" points="46.373,261.702 50.047,263.742 
					50.047,265.458 				"/>
				
					<line style="fill:none;stroke:#DCDBDB;stroke-width:0.25;stroke-miterlimit:10;" x1="58.158" y1="324.317" x2="58.158" y2="328.236"/>
				<polyline style="fill:none;stroke:#DCDBDB;stroke-width:0.25;stroke-miterlimit:10;" points="55.824,261.702 58.158,263.216 
					58.158,265.65 				"/>
				
					<line style="fill:none;stroke:#999999;stroke-width:0.25;stroke-miterlimit:10;" x1="56.833" y1="324.317" x2="56.833" y2="327.709"/>
				<polyline style="fill:none;stroke:#999999;stroke-width:0.25;stroke-miterlimit:10;" points="53.731,261.702 56.833,263.758 
					56.833,265.536 				"/>
				
					<line style="fill:none;stroke:#DCDBDB;stroke-width:0.25;stroke-miterlimit:10;" x1="48.842" y1="324.317" x2="48.842" y2="328.311"/>
				<polyline style="fill:none;stroke:#DCDBDB;stroke-width:0.25;stroke-miterlimit:10;" points="46.117,261.702 48.842,263.216 
					48.842,265.692 				"/>
				<polyline style="fill:none;stroke:#F7F8F9;stroke-width:0.2;stroke-miterlimit:10;" points="59.845,324.317 59.845,328.356 
					57.934,328.356 56.608,327.784 49.922,327.784 48.778,328.356 46.692,328.356 46.692,324.439 				"/>
				<polyline style="fill:none;stroke:#F7F8F9;stroke-width:0.2;stroke-miterlimit:10;" points="46.692,265.692 46.692,263.215 
					48.843,263.215 50.047,263.742 56.833,263.758 58.158,263.215 59.845,263.215 59.845,265.687 				"/>
				<polygon style="fill:#9F9E9B;" points="40.882,261.702 35.049,261.702 35.049,307.65 45.028,323.124 21.74,307.546 
					21.74,261.702 				"/>
				<path style="fill:none;stroke:#000000;stroke-width:0.4;stroke-miterlimit:10;" d="M45.028,323.124"/>
				<path style="fill:none;stroke:#000000;stroke-width:0.4;stroke-miterlimit:10;" d="M21.74,261.702"/>
				<polygon style="fill:#8E8D8B;" points="60,324.421 58.158,324.424 56.778,324.312 49.984,324.317 48.842,324.437 46.769,324.44 
					22.193,307.517 35.049,307.65 				"/>
				
					<line style="fill:none;stroke:#969289;stroke-width:0.2;stroke-miterlimit:10;" x1="22.005" y1="307.502" x2="28.79" y2="307.517"/>
				<polyline style="fill:none;stroke:#514D47;stroke-width:0.4;stroke-miterlimit:10;" points="59.845,265.692 58.234,265.692 
					56.833,265.458 50.047,265.458 48.842,265.692 46.692,265.692 40.882,261.702 				"/>
				<polyline style="fill:none;stroke:#E2DED7;stroke-width:0.4;stroke-miterlimit:10;" points="21.74,261.702 21.74,307.546 
					46.692,324.317 48.842,324.317 50.031,324.192 56.818,324.192 58.158,324.317 59.845,324.317 				"/>
				<path style="fill:none;stroke:#4F4C4B;stroke-width:2;stroke-miterlimit:10;" d="M60,324.421v2.151c0,1.1-0.43,2-0.955,2
					c-0.526,0-1.254-0.129-1.618-0.286c-0.364-0.157-1.563-0.286-2.663-0.286h-3.73c-1.1,0-2.257,0.129-2.572,0.286
					c-0.315,0.157-1.059,0.286-1.654,0.286c-0.595,0-1.828-0.504-2.739-1.12l-23.454-15.855c-0.911-0.616-1.657-2.02-1.657-3.12
					v-46.891"/>
				<path style="fill:none;stroke:#4F4C4B;stroke-width:2;stroke-miterlimit:10;" d="M57.686,261.486c0,0,0.521,0.341,1.157,0.757
					c0.636,0.416,1.157,1.657,1.157,2.757v0.688"/>
			</g>
			<g>
				<g>
					<polygon style="fill:#8E8D8B;" points="54.198,311.077 44.889,320.536 20.313,303.614 20,302.832 28.814,293.386 
						53.885,310.295 					"/>
					<polygon style="fill:#EFECEA;stroke:#111111;stroke-width:0.125;stroke-linejoin:round;stroke-miterlimit:10;" points="
						53.885,310.295 44.576,319.755 20,302.832 28.814,293.386 					"/>
					<g>
						<path style="fill:#101010;" d="M28.814,293.386l25.071,16.909l0.312,0.782l-9.309,9.459l-24.576-16.922L20,302.832
							L28.814,293.386 M28.77,292.995l-0.175,0.187l-8.814,9.446l-0.13,0.139l0.071,0.177l0.312,0.782l0.034,0.084l0.075,0.051
							l24.576,16.922l0.208,0.143l0.177-0.179l9.309-9.459l0.137-0.14l-0.073-0.182l-0.312-0.782l-0.034-0.086l-0.077-0.052
							l-25.071-16.909L28.77,292.995L28.77,292.995z"/>
					</g>
					
						<line style="fill:#EFECEA;stroke:#111111;stroke-width:0.125;stroke-miterlimit:10;" x1="44.576" y1="319.755" x2="44.889" y2="320.536"/>
				</g>
				<g>
					<polygon style="fill:#8E8D8B;" points="54.198,296.521 44.889,305.98 20.313,289.058 20,288.276 28.814,278.83 53.885,295.739 
											"/>
					<polygon style="fill:#EFECEA;stroke:#111111;stroke-width:0.125;stroke-linejoin:round;stroke-miterlimit:10;" points="
						53.885,295.739 44.576,305.199 20,288.276 28.814,278.83 					"/>
					<g>
						<path style="fill:#101010;" d="M28.814,278.83l25.071,16.909l0.312,0.782l-9.309,9.459l-24.576-16.922L20,288.276
							L28.814,278.83 M28.77,278.438l-0.175,0.187l-8.814,9.446l-0.13,0.139l0.071,0.177l0.312,0.782l0.034,0.084l0.075,0.051
							l24.576,16.922l0.208,0.143l0.177-0.179l9.309-9.459l0.137-0.14l-0.073-0.182l-0.312-0.782l-0.034-0.086l-0.077-0.052
							l-25.071-16.909L28.77,278.438L28.77,278.438z"/>
					</g>
					
						<line style="fill:#EFECEA;stroke:#111111;stroke-width:0.125;stroke-miterlimit:10;" x1="44.576" y1="305.199" x2="44.889" y2="305.98"/>
				</g>
				<g>
					<polygon style="fill:#8E8D8B;" points="54.198,281.958 44.889,291.418 20.313,274.495 20,273.714 28.814,264.268 
						53.885,281.177 					"/>
					<polygon style="fill:#EFECEA;stroke:#111111;stroke-width:0.125;stroke-linejoin:round;stroke-miterlimit:10;" points="
						53.885,281.177 44.576,290.636 20,273.714 28.814,264.268 					"/>
					<g>
						<path style="fill:#101010;" d="M28.814,264.268l25.071,16.909l0.312,0.782l-9.309,9.459l-24.576-16.922L20,273.714
							L28.814,264.268 M28.77,263.876l-0.175,0.187l-8.814,9.446l-0.13,0.139l0.071,0.177l0.312,0.782l0.034,0.084l0.075,0.051
							l24.576,16.922l0.208,0.143l0.177-0.179l9.309-9.459l0.137-0.14l-0.073-0.182l-0.312-0.782l-0.034-0.086l-0.077-0.052
							l-25.071-16.909L28.77,263.876L28.77,263.876z"/>
					</g>
					
						<line style="fill:#EFECEA;stroke:#111111;stroke-width:0.125;stroke-miterlimit:10;" x1="44.576" y1="290.636" x2="44.889" y2="291.418"/>
				</g>
				<g>
					<polygon style="fill:#8E8D8B;" points="54.198,267.265 44.889,276.724 22.902,261.585 31.583,261.66 40.882,261.702 
						46.769,265.701 48.842,265.692 50.047,265.458 52.47,265.529 53.885,266.483 					"/>
					<polygon style="fill:#EFECEA;stroke:#111111;stroke-width:0.125;stroke-linejoin:round;stroke-miterlimit:10;" points="
						53.885,266.483 44.576,275.943 23.708,261.587 40.882,261.702 46.958,265.65 48.842,265.692 50.047,265.458 52.47,265.529 
											"/>
					<g>
						<path style="fill:#101010;" d="M22.902,261.585l17.98,0.117l6.076,3.948l1.884,0.042l1.205-0.234l2.423,0.071l1.415,0.954
							l0.312,0.782l-9.309,9.46L22.902,261.585 M21.928,261.279l0.804,0.553l21.987,15.139l0.208,0.143l0.177-0.179l9.309-9.46
							l0.137-0.14l-0.073-0.182l-0.312-0.782l-0.034-0.086l-0.077-0.052l-1.415-0.954l-0.072-0.049l-0.087-0.003l-2.423-0.071
							l-0.033-0.001l-0.033,0.006l-1.173,0.228l-1.767-0.039l-6.005-3.902l-0.073-0.048l-0.088-0.001l-17.98-0.117L21.928,261.279
							L21.928,261.279z"/>
					</g>
					
						<line style="fill:#EFECEA;stroke:#111111;stroke-width:0.125;stroke-miterlimit:10;" x1="44.576" y1="275.943" x2="44.889" y2="276.724"/>
				</g>
			</g>
		</g>
		<g>
			<path style="fill:#7C7974;stroke:#615B55;stroke-width:0.25;stroke-miterlimit:10;" d="M147.16,163.728
				c0.551,0,1.001,0.369,1.001,0.82v5.478c0,0.451-0.45,0.82-1.001,0.82h-10.983c-0.55,0-1.001-0.369-1.001-0.82v-5.478
				c0-0.451,0.45-0.82,1.001-0.82H147.16z"/>
			
				<ellipse style="fill:#AFAFA3;stroke:#61605B;stroke-width:0.125;stroke-miterlimit:10;" cx="137.99" cy="167.203" rx="0.731" ry="0.712"/>
			
				<ellipse style="fill:none;stroke:#61605B;stroke-width:0.125;stroke-miterlimit:10;" cx="137.99" cy="167.203" rx="1.232" ry="1.2"/>
		</g>
		<g>
			<path style="fill:#7C7974;stroke:#615B55;stroke-width:0.25;stroke-miterlimit:10;" d="M56.833,277.104c0,0.55-0.378,1-0.841,1
				h-5.618c-0.463,0-0.841-0.45-0.841-1v-10.973c0-0.55,0.378-1,0.841-1h5.618c0.463,0,0.841,0.45,0.841,1V277.104z"/>
			<circle style="fill:#AFAFA3;stroke:#61605B;stroke-width:0.125;stroke-miterlimit:10;" cx="53.268" cy="267.942" r="0.73"/>
			<circle style="fill:none;stroke:#61605B;stroke-width:0.125;stroke-miterlimit:10;" cx="53.268" cy="267.942" r="1.23"/>
		</g>
		<circle style="fill:none;stroke:#404242;stroke-width:1.5;stroke-miterlimit:10;" cx="53.268" cy="267.942" r="2.031"/>
		<g>
			<path style="fill:#7C7974;stroke:#615B55;stroke-width:0.25;stroke-miterlimit:10;" d="M56.833,37.099c0,0.55-0.378,1-0.841,1
				h-5.618c-0.463,0-0.841-0.45-0.841-1V26.126c0-0.55,0.378-1,0.841-1h5.618c0.463,0,0.841,0.45,0.841,1V37.099z"/>
			<circle style="fill:#AFAFA3;stroke:#61605B;stroke-width:0.125;stroke-miterlimit:10;" cx="53.268" cy="27.937" r="0.73"/>
			<circle style="fill:none;stroke:#61605B;stroke-width:0.125;stroke-miterlimit:10;" cx="53.268" cy="27.937" r="1.23"/>
		</g>
		<g>
			<circle style="fill:none;stroke:#404242;stroke-width:1.5;stroke-miterlimit:10;" cx="53.235" cy="27.965" r="1.997"/>
			<polyline style="fill:none;stroke:#404242;stroke-width:2;stroke-miterlimit:10;" points="135.932,167.173 53.235,167.111 
				53.235,265.531 			"/>
			
				<line style="fill:none;stroke:#404242;stroke-width:2;stroke-miterlimit:10;" x1="53.235" y1="30.215" x2="53.235" y2="167.111"/>
			<g>
				
					<line style="fill:none;stroke:#404242;stroke-width:2;stroke-miterlimit:10;" x1="53.235" y1="167.111" x2="53.235" y2="265.531"/>
			</g>
		</g>
		<circle style="fill:none;stroke:#404242;stroke-width:1.5;stroke-miterlimit:10;" cx="137.99" cy="167.111" r="1.997"/>
	</g>
</g>
<g id="Layer_1">
</g>
</svg>
