<?xml version="1.0" encoding="iso-8859-1"?>
<!-- Generator: Adobe Illustrator 17.0.0, SVG Export Plug-In . SVG Version: 6.00 Build 0)  -->
<!DOCTYPE svg PUBLIC "-//W3C//DTD SVG 1.1//EN" "http://www.w3.org/Graphics/SVG/1.1/DTD/svg11.dtd">
<svg version="1.1" xmlns="http://www.w3.org/2000/svg" xmlns:xlink="http://www.w3.org/1999/xlink" x="0px" y="0px" width="80px"
	 height="120px" viewBox="0 0 80 120" style="enable-background:new 0 0 80 120;" xml:space="preserve">
<g id="Coils_x5F_Cooling_x5F_2Way_x5F_Top_x5F_3">
	<g>
		<g>
			<polygon style="fill:#E7E9EA;" points="0,100.04 80,100.061 80,50.061 0,50.04 			"/>
			<g>
				<polyline style="fill:#E7E9EA;" points="80,50 0,50 0,30 80,30 				"/>
				<polygon style="fill:#6A7276;" points="80,51.583 0,51.576 0,49.953 80,49.953 				"/>
				<g>
					<polyline style="fill:#DDDFE1;" points="80,118.494 0,118.494 0,98.494 80,98.494 					"/>
					<rect y="118.433" style="fill:#6A7276;" width="80" height="1.567"/>
				</g>
			</g>
		</g>
		<line style="fill:none;stroke:#ABAAA9;stroke-width:0.6;stroke-miterlimit:10;" x1="0" y1="98.422" x2="80" y2="98.422"/>
	</g>
	<g>
		<path style="fill:#327589;" d="M28.054,35.08c0,1.287-1.803,2.33-4.027,2.33S20,36.367,20,35.08V0l8.051,0v35.08H28.054z"/>
		<g>
			<path style="fill:#5898AE;" d="M22.045,0.012h3.965L26.011,37.1c0,0-0.966,0.31-1.985,0.31c-1.018,0-1.982-0.31-1.982-0.31
				L22.045,0.012z"/>
		</g>
		<g>
			<rect x="26.012" y="9.516" style="fill:#66A7AA;" width="2.043" height="0"/>
		</g>
	</g>
	<path style="fill:#5898AE;" d="M48.042,45.08c0,1.287-1.803,2.33-4.027,2.33s-4.027-1.043-4.027-2.33V0l8.051,0v45.08H48.042z"/>
	<g>
		<path style="fill:#84B9D6;" d="M42.033,0.012h3.965L45.999,47.1c0,0-0.966,0.31-1.985,0.31s-1.982-0.309-1.982-0.309L42.033,0.012
			z"/>
	</g>
	<g>
		
			<line style="fill:none;stroke:#FFFFFF;stroke-width:0.2;stroke-miterlimit:10;" x1="37.262" y1="51.442" x2="39.558" y2="52.956"/>
		<polygon style="fill:#CDCEC6;" points="58.044,118.316 56.133,118.316 54.807,117.744 42.077,117.744 40.933,118.316 
			38.769,118.316 38.769,53.176 58.044,53.176 		"/>
		<polygon style="fill:#AEAFA7;" points="12,51.662 12,100.222 38.768,118.316 38.768,53.176 36.395,51.662 		"/>
		<polygon style="fill:#B4B5B0;" points="36.395,51.662 38.769,53.176 40.843,53.176 42.047,53.702 54.877,53.718 56.202,53.176 
			58.044,53.176 55.73,51.662 		"/>
		
			<line style="fill:none;stroke:#FFFFFF;stroke-width:0.2;stroke-miterlimit:10;" x1="36.395" y1="51.662" x2="38.692" y2="53.176"/>
		<polyline style="fill:none;stroke:#999999;stroke-width:0.25;stroke-miterlimit:10;" points="38.373,51.662 42.047,53.702 
			42.047,117.322 		"/>
		<polyline style="fill:none;stroke:#DCDBDB;stroke-width:0.25;stroke-miterlimit:10;" points="53.868,51.662 56.202,53.176 
			56.202,117.88 		"/>
		<polyline style="fill:none;stroke:#999999;stroke-width:0.25;stroke-miterlimit:10;" points="51.775,51.662 54.877,53.718 
			54.877,117.353 		"/>
		<polyline style="fill:none;stroke:#DCDBDB;stroke-width:0.25;stroke-miterlimit:10;" points="38.117,51.662 40.843,53.176 
			40.843,117.955 		"/>
		<polygon style="fill:none;stroke:#F7F8F9;stroke-width:0.2;stroke-miterlimit:10;" points="57.888,118.316 55.977,118.316 
			54.652,117.744 41.922,117.744 40.778,118.316 38.692,118.316 38.692,53.176 40.843,53.176 42.047,53.702 54.877,53.718 
			56.201,53.176 57.888,53.176 		"/>
		<g>
			<path style="fill:#9B9A9A;" d="M43.76,95.116c-0.009-0.96,0.762-1.746,1.722-1.756l0,0c0.96-0.009,1.746,0.762,1.756,1.722
				l0.067,6.955c0.009,0.96-0.762,1.746-1.722,1.756l0,0c-0.96,0.009-1.746-0.762-1.756-1.722L43.76,95.116z"/>
			<path style="fill:#9B9A9A;" d="M43.793,81.022c0-0.96,0.779-1.739,1.739-1.739l0,0c0.96,0,1.739,0.779,1.739,1.739v6.955
				c0,0.96-0.779,1.739-1.739,1.739l0,0c-0.96,0-1.739-0.779-1.739-1.739V81.022z"/>
			<path style="fill:#9B9A9A;" d="M43.793,66.946c0-0.96,0.779-1.739,1.739-1.739l0,0c0.96,0,1.739,0.779,1.739,1.739v6.955
				c0,0.96-0.779,1.739-1.739,1.739l0,0c-0.96,0-1.739-0.779-1.739-1.739V66.946z"/>
			<path style="fill:#9B9A9A;" d="M49.575,102.137c0-0.96,0.779-1.739,1.739-1.739l0,0c0.96,0,1.739,0.779,1.739,1.739v6.955
				c0,0.96-0.779,1.739-1.739,1.739l0,0c-0.96,0-1.739-0.779-1.739-1.739V102.137z"/>
			<path style="fill:#9B9A9A;" d="M49.575,88.061c0-0.96,0.779-1.739,1.739-1.739l0,0c0.96,0,1.739,0.779,1.739,1.739v6.955
				c0,0.96-0.779,1.739-1.739,1.739l0,0c-0.96,0-1.739-0.779-1.739-1.739V88.061z"/>
			<path style="fill:#9B9A9A;" d="M49.575,73.984c0-0.96,0.779-1.739,1.739-1.739l0,0c0.96,0,1.739,0.779,1.739,1.739v6.955
				c0,0.96-0.779,1.739-1.739,1.739l0,0c-0.96,0-1.739-0.779-1.739-1.739V73.984z"/>
			<path style="fill:#9B9A9A;" d="M49.575,59.908c0-0.96,0.779-1.739,1.739-1.739l0,0c0.96,0,1.739,0.779,1.739,1.739v6.955
				c0,0.96-0.779,1.739-1.739,1.739l0,0c-0.96,0-1.739-0.779-1.739-1.739V59.908z"/>
		</g>
		<polygon style="fill:#B5B4AE;" points="32.882,51.662 37.028,54.501 37.028,113.084 13.741,97.506 13.741,51.662 		"/>
		<g>
			<linearGradient id="SVGID_1_" gradientUnits="userSpaceOnUse" x1="43.7597" y1="98.5592" x2="47.3044" y2="98.5592">
				<stop  offset="0.2766" style="stop-color:#828386"/>
				<stop  offset="0.5584" style="stop-color:#ADAFB2"/>
				<stop  offset="0.835" style="stop-color:#828386"/>
			</linearGradient>
			<path style="fill:url(#SVGID_1_);" d="M43.76,95.098c-0.009-0.96,0.762-1.746,1.722-1.756l0,0
				c0.96-0.009,1.746,0.762,1.756,1.722l0.067,6.955c0.009,0.96-0.762,1.746-1.722,1.756l0,0c-0.96,0.009-1.746-0.762-1.756-1.722
				L43.76,95.098z"/>
			<linearGradient id="SVGID_2_" gradientUnits="userSpaceOnUse" x1="43.7932" y1="84.4828" x2="47.2709" y2="84.4828">
				<stop  offset="0.2766" style="stop-color:#828386"/>
				<stop  offset="0.5584" style="stop-color:#ADAFB2"/>
				<stop  offset="0.835" style="stop-color:#828386"/>
			</linearGradient>
			<path style="fill:url(#SVGID_2_);" d="M43.793,81.005c0-0.96,0.779-1.739,1.739-1.739l0,0c0.96,0,1.739,0.779,1.739,1.739v6.955
				c0,0.96-0.779,1.739-1.739,1.739l0,0c-0.96,0-1.739-0.779-1.739-1.739V81.005z"/>
			<linearGradient id="SVGID_3_" gradientUnits="userSpaceOnUse" x1="43.7932" y1="70.4063" x2="47.2709" y2="70.4063">
				<stop  offset="0.2766" style="stop-color:#828386"/>
				<stop  offset="0.5584" style="stop-color:#ADAFB2"/>
				<stop  offset="0.835" style="stop-color:#828386"/>
			</linearGradient>
			<path style="fill:url(#SVGID_3_);" d="M43.793,66.929c0-0.96,0.779-1.739,1.739-1.739l0,0c0.96,0,1.739,0.779,1.739,1.739v6.955
				c0,0.96-0.779,1.739-1.739,1.739l0,0c-0.96,0-1.739-0.779-1.739-1.739V66.929z"/>
			<linearGradient id="SVGID_4_" gradientUnits="userSpaceOnUse" x1="49.5754" y1="105.5974" x2="53.0532" y2="105.5974">
				<stop  offset="0.2766" style="stop-color:#828386"/>
				<stop  offset="0.5584" style="stop-color:#ADAFB2"/>
				<stop  offset="0.835" style="stop-color:#828386"/>
			</linearGradient>
			<path style="fill:url(#SVGID_4_);" d="M49.575,102.12c0-0.96,0.779-1.739,1.739-1.739l0,0c0.96,0,1.739,0.779,1.739,1.739v6.955
				c0,0.96-0.779,1.739-1.739,1.739l0,0c-0.96,0-1.739-0.779-1.739-1.739V102.12z"/>
			<linearGradient id="SVGID_5_" gradientUnits="userSpaceOnUse" x1="49.5754" y1="91.521" x2="53.0532" y2="91.521">
				<stop  offset="0.2766" style="stop-color:#828386"/>
				<stop  offset="0.5584" style="stop-color:#ADAFB2"/>
				<stop  offset="0.835" style="stop-color:#828386"/>
			</linearGradient>
			<path style="fill:url(#SVGID_5_);" d="M49.575,88.043c0-0.96,0.779-1.739,1.739-1.739l0,0c0.96,0,1.739,0.779,1.739,1.739v6.955
				c0,0.96-0.779,1.739-1.739,1.739l0,0c-0.96,0-1.739-0.779-1.739-1.739V88.043z"/>
			<linearGradient id="SVGID_6_" gradientUnits="userSpaceOnUse" x1="49.5754" y1="77.4445" x2="53.0532" y2="77.4445">
				<stop  offset="0.2766" style="stop-color:#828386"/>
				<stop  offset="0.5584" style="stop-color:#ADAFB2"/>
				<stop  offset="0.835" style="stop-color:#828386"/>
			</linearGradient>
			<path style="fill:url(#SVGID_6_);" d="M49.575,73.967c0-0.96,0.779-1.739,1.739-1.739l0,0c0.96,0,1.739,0.779,1.739,1.739v6.955
				c0,0.96-0.779,1.739-1.739,1.739l0,0c-0.96,0-1.739-0.779-1.739-1.739V73.967z"/>
			<linearGradient id="SVGID_7_" gradientUnits="userSpaceOnUse" x1="49.5754" y1="63.3681" x2="53.0532" y2="63.3681">
				<stop  offset="0.2766" style="stop-color:#828386"/>
				<stop  offset="0.5584" style="stop-color:#ADAFB2"/>
				<stop  offset="0.835" style="stop-color:#828386"/>
			</linearGradient>
			<path style="fill:url(#SVGID_7_);" d="M49.575,59.89c0-0.96,0.779-1.739,1.739-1.739l0,0c0.96,0,1.739,0.779,1.739,1.739v6.955
				c0,0.96-0.779,1.739-1.739,1.739l0,0c-0.96,0-1.739-0.779-1.739-1.739V59.89z"/>
		</g>
		<g>
			<path style="fill:#AEADA8;stroke:#666766;stroke-width:0.25;stroke-miterlimit:10;" d="M43.76,95.098
				c-0.009-0.96,0.762-1.746,1.722-1.756l0,0c0.96-0.009,1.746,0.762,1.756,1.722l0.067,6.955c0.009,0.96-0.762,1.746-1.722,1.756
				l0,0c-0.96,0.009-1.746-0.762-1.756-1.722L43.76,95.098z"/>
			<path style="fill:#AEADA8;stroke:#666766;stroke-width:0.25;stroke-miterlimit:10;" d="M43.793,81.005
				c0-0.96,0.779-1.739,1.739-1.739l0,0c0.96,0,1.739,0.779,1.739,1.739v6.955c0,0.96-0.779,1.739-1.739,1.739l0,0
				c-0.96,0-1.739-0.779-1.739-1.739V81.005z"/>
			<path style="fill:#AEADA8;stroke:#666766;stroke-width:0.25;stroke-miterlimit:10;" d="M43.793,66.929
				c0-0.96,0.779-1.739,1.739-1.739l0,0c0.96,0,1.739,0.779,1.739,1.739v6.955c0,0.96-0.779,1.739-1.739,1.739l0,0
				c-0.96,0-1.739-0.779-1.739-1.739V66.929z"/>
			<path style="fill:#AEADA8;stroke:#666766;stroke-width:0.25;stroke-miterlimit:10;" d="M49.575,102.12
				c0-0.96,0.779-1.739,1.739-1.739l0,0c0.96,0,1.739,0.779,1.739,1.739v6.955c0,0.96-0.779,1.739-1.739,1.739l0,0
				c-0.96,0-1.739-0.779-1.739-1.739V102.12z"/>
			<path style="fill:#AEADA8;stroke:#666766;stroke-width:0.25;stroke-miterlimit:10;" d="M49.575,88.043
				c0-0.96,0.779-1.739,1.739-1.739l0,0c0.96,0,1.739,0.779,1.739,1.739v6.955c0,0.96-0.779,1.739-1.739,1.739l0,0
				c-0.96,0-1.739-0.779-1.739-1.739V88.043z"/>
			<path style="fill:#AEADA8;stroke:#666766;stroke-width:0.25;stroke-miterlimit:10;" d="M49.575,73.967
				c0-0.96,0.779-1.739,1.739-1.739l0,0c0.96,0,1.739,0.779,1.739,1.739v6.955c0,0.96-0.779,1.739-1.739,1.739l0,0
				c-0.96,0-1.739-0.779-1.739-1.739V73.967z"/>
			<path style="fill:#AEADA8;stroke:#666766;stroke-width:0.25;stroke-miterlimit:10;" d="M49.575,59.89
				c0-0.96,0.779-1.739,1.739-1.739l0,0c0.96,0,1.739,0.779,1.739,1.739v6.955c0,0.96-0.779,1.739-1.739,1.739l0,0
				c-0.96,0-1.739-0.779-1.739-1.739V59.89z"/>
		</g>
		<path style="fill:none;stroke:#4F4C4B;stroke-width:2;stroke-miterlimit:10;" d="M55.729,51.662c0,0,0.521,0.341,1.157,0.757
			c0.636,0.416,1.157,1.657,1.157,2.757v61.141c0,1.1-0.43,2-0.955,2c-0.526,0-1.254-0.129-1.618-0.286
			c-0.364-0.157-1.563-0.286-2.663-0.286h-8.73c-1.1,0-2.257,0.129-2.572,0.286c-0.315,0.157-1.059,0.286-1.654,0.286
			c-0.595,0-1.828-0.504-2.739-1.12l-23.454-15.854c-0.911-0.616-1.657-2.02-1.657-3.12v-46.56"/>
		<polygon style="fill:#84B9D6;" points="37.028,112.844 13.741,97.283 13.741,82.776 37.028,98.337 		"/>
		<polygon style="fill:#84B9D6;" points="37.028,98.337 13.741,82.776 13.741,68.269 37.028,83.83 		"/>
		<polygon style="fill:#84B9D6;" points="37.028,83.894 13.741,68.334 13.741,53.827 37.028,69.388 		"/>
		<g>
			<polygon style="fill:#5898AE;" points="37.028,109.84 13.741,94.263 13.741,91.02 37.028,106.597 			"/>
			<g>
				<polygon style="fill:#5898AE;" points="37.028,103.354 13.741,87.776 13.741,84.533 37.028,100.111 				"/>
			</g>
			<polygon style="fill:#5898AE;" points="37.028,96.867 13.741,81.29 13.741,78.047 37.028,93.624 			"/>
			<polygon style="fill:#5898AE;" points="37.028,90.381 13.741,74.803 13.741,71.56 37.028,87.138 			"/>
			<g>
				<polygon style="fill:#5898AE;" points="37.028,83.894 13.741,68.317 13.741,65.074 37.028,80.651 				"/>
			</g>
			<polygon style="fill:#5898AE;" points="37.028,77.408 13.741,61.83 13.741,58.587 37.028,74.165 			"/>
			<polygon style="fill:#A3A19F;" points="37.028,70.921 13.741,55.344 13.741,52.101 37.028,67.678 			"/>
			<g>
				<polygon style="fill:#A3A19F;" points="37.029,64.435 17.934,51.662 22.782,51.662 37.029,61.192 				"/>
			</g>
			<polygon style="fill:#A3A19F;" points="37.029,57.948 27.631,51.662 32.479,51.662 37.029,54.705 			"/>
		</g>
		<polyline style="fill:none;stroke:#000000;stroke-width:0.4;stroke-miterlimit:10;" points="13.741,51.662 13.741,97.506 
			37.028,113.084 37.028,54.501 32.882,51.662 		"/>
	</g>
</g>
<g id="Layer_1">
</g>
</svg>
