<?xml version="1.0" encoding="iso-8859-1"?>
<!-- Generator: Adobe Illustrator 17.0.0, SVG Export Plug-In . SVG Version: 6.00 Build 0)  -->
<!DOCTYPE svg PUBLIC "-//W3C//DTD SVG 1.1//EN" "http://www.w3.org/Graphics/SVG/1.1/DTD/svg11.dtd">
<svg version="1.1" xmlns="http://www.w3.org/2000/svg" xmlns:xlink="http://www.w3.org/1999/xlink" x="0px" y="0px" width="80px"
	 height="120.012px" viewBox="0 0 80 120.012" style="enable-background:new 0 0 80 120.012;" xml:space="preserve">
<g id="Coils_x5F_Heating_x5F_2Way_x5F_Top_x5F_4">
	<g>
		<g>
			<g>
				<polygon style="fill:#E7E9EA;" points="0,100.053 80,100.074 80,50.074 0,50.053 				"/>
				<g>
					<polyline style="fill:#E7E9EA;" points="80,50.012 0,50.012 0,30.012 80,30.012 					"/>
					<polygon style="fill:#6A7276;" points="80,51.595 0,51.588 0,49.966 80,49.966 					"/>
					<g>
						<polyline style="fill:#DDDFE1;" points="80,118.507 0,118.507 0,98.507 80,98.507 						"/>
						<rect y="118.445" style="fill:#6A7276;" width="80" height="1.567"/>
					</g>
				</g>
			</g>
			<line style="fill:none;stroke:#ABAAA9;stroke-width:0.6;stroke-miterlimit:10;" x1="0" y1="98.434" x2="80" y2="98.434"/>
		</g>
		<g>
			
				<line style="fill:none;stroke:#FFFFFF;stroke-width:0.2;stroke-miterlimit:10;" x1="37.262" y1="50.985" x2="39.558" y2="52.498"/>
			<polygon style="fill:#CDCEC6;" points="58.043,117.859 56.132,117.859 54.807,117.287 42.077,117.287 40.933,117.859 
				38.769,117.859 38.769,52.718 58.043,52.718 			"/>
			<polygon style="fill:#AEAFA7;" points="12,51.205 12,99.764 38.768,117.859 38.768,52.718 36.395,51.205 			"/>
			<polygon style="fill:#B4B5B0;" points="36.395,51.205 38.769,52.718 40.842,52.718 42.047,53.245 54.876,53.26 56.202,52.719 
				58.043,52.718 55.73,51.205 			"/>
			
				<line style="fill:none;stroke:#FFFFFF;stroke-width:0.2;stroke-miterlimit:10;" x1="36.395" y1="51.205" x2="38.692" y2="52.718"/>
			<polyline style="fill:none;stroke:#999999;stroke-width:0.25;stroke-miterlimit:10;" points="38.373,51.205 42.047,53.245 
				42.047,116.865 			"/>
			<polyline style="fill:none;stroke:#DCDBDB;stroke-width:0.25;stroke-miterlimit:10;" points="53.868,51.205 56.202,52.719 
				56.202,117.422 			"/>
			<polyline style="fill:none;stroke:#999999;stroke-width:0.25;stroke-miterlimit:10;" points="51.775,51.205 54.876,53.26 
				54.876,116.895 			"/>
			<polyline style="fill:none;stroke:#DCDBDB;stroke-width:0.25;stroke-miterlimit:10;" points="38.117,51.205 40.842,52.718 
				40.842,117.497 			"/>
			<polygon style="fill:none;stroke:#F7F8F9;stroke-width:0.2;stroke-miterlimit:10;" points="57.888,117.859 55.977,117.859 
				54.652,117.287 41.922,117.287 40.778,117.859 38.692,117.859 38.692,52.718 40.843,52.718 42.047,53.245 54.876,53.26 
				56.201,52.718 57.888,52.718 			"/>
			<g>
				<path style="fill:#9B9A9A;" d="M43.76,94.658c-0.009-0.96,0.762-1.746,1.722-1.756l0,0c0.96-0.009,1.746,0.762,1.756,1.722
					l0.067,6.955c0.009,0.96-0.762,1.746-1.722,1.756l0,0c-0.96,0.009-1.746-0.762-1.756-1.722L43.76,94.658z"/>
				<path style="fill:#9B9A9A;" d="M43.793,80.565c0-0.96,0.779-1.739,1.739-1.739l0,0c0.96,0,1.739,0.779,1.739,1.739v6.955
					c0,0.96-0.779,1.739-1.739,1.739l0,0c-0.96,0-1.739-0.779-1.739-1.739V80.565z"/>
				<path style="fill:#9B9A9A;" d="M43.793,66.489c0-0.96,0.779-1.739,1.739-1.739l0,0c0.96,0,1.739,0.779,1.739,1.739v6.955
					c0,0.96-0.779,1.739-1.739,1.739l0,0c-0.96,0-1.739-0.779-1.739-1.739V66.489z"/>
				<path style="fill:#9B9A9A;" d="M49.575,101.68c0-0.96,0.779-1.739,1.739-1.739l0,0c0.96,0,1.739,0.779,1.739,1.739v6.955
					c0,0.96-0.779,1.739-1.739,1.739l0,0c-0.96,0-1.739-0.779-1.739-1.739V101.68z"/>
				<path style="fill:#9B9A9A;" d="M49.575,87.603c0-0.96,0.779-1.739,1.739-1.739l0,0c0.96,0,1.739,0.779,1.739,1.739v6.955
					c0,0.96-0.779,1.739-1.739,1.739l0,0c-0.96,0-1.739-0.779-1.739-1.739V87.603z"/>
				<path style="fill:#9B9A9A;" d="M49.575,73.527c0-0.96,0.779-1.739,1.739-1.739l0,0c0.96,0,1.739,0.779,1.739,1.739v6.955
					c0,0.96-0.779,1.739-1.739,1.739l0,0c-0.96,0-1.739-0.779-1.739-1.739V73.527z"/>
				<path style="fill:#9B9A9A;" d="M49.575,59.45c0-0.96,0.779-1.739,1.739-1.739l0,0c0.96,0,1.739,0.779,1.739,1.739v6.955
					c0,0.96-0.779,1.739-1.739,1.739l0,0c-0.96,0-1.739-0.779-1.739-1.739V59.45z"/>
			</g>
			<polygon style="fill:#B5B4AE;" points="32.882,51.205 37.028,54.043 37.028,112.626 13.74,97.049 13.74,51.205 			"/>
			<g>
				<linearGradient id="SVGID_1_" gradientUnits="userSpaceOnUse" x1="43.7596" y1="98.1017" x2="47.3043" y2="98.1017">
					<stop  offset="0.2766" style="stop-color:#828386"/>
					<stop  offset="0.5584" style="stop-color:#ADAFB2"/>
					<stop  offset="0.835" style="stop-color:#828386"/>
				</linearGradient>
				<path style="fill:url(#SVGID_1_);" d="M43.76,94.641c-0.009-0.96,0.762-1.746,1.722-1.756l0,0
					c0.96-0.009,1.746,0.762,1.756,1.722l0.067,6.955c0.009,0.96-0.762,1.746-1.722,1.756l0,0c-0.96,0.009-1.746-0.762-1.756-1.722
					L43.76,94.641z"/>
				<linearGradient id="SVGID_2_" gradientUnits="userSpaceOnUse" x1="43.7931" y1="84.0253" x2="47.2708" y2="84.0253">
					<stop  offset="0.2766" style="stop-color:#828386"/>
					<stop  offset="0.5584" style="stop-color:#ADAFB2"/>
					<stop  offset="0.835" style="stop-color:#828386"/>
				</linearGradient>
				<path style="fill:url(#SVGID_2_);" d="M43.793,80.548c0-0.96,0.779-1.739,1.739-1.739l0,0c0.96,0,1.739,0.779,1.739,1.739v6.955
					c0,0.96-0.779,1.739-1.739,1.739l0,0c-0.96,0-1.739-0.779-1.739-1.739V80.548z"/>
				<linearGradient id="SVGID_3_" gradientUnits="userSpaceOnUse" x1="43.7931" y1="69.9488" x2="47.2708" y2="69.9488">
					<stop  offset="0.2766" style="stop-color:#828386"/>
					<stop  offset="0.5584" style="stop-color:#ADAFB2"/>
					<stop  offset="0.835" style="stop-color:#828386"/>
				</linearGradient>
				<path style="fill:url(#SVGID_3_);" d="M43.793,66.471c0-0.96,0.779-1.739,1.739-1.739l0,0c0.96,0,1.739,0.779,1.739,1.739v6.955
					c0,0.96-0.779,1.739-1.739,1.739l0,0c-0.96,0-1.739-0.779-1.739-1.739V66.471z"/>
				<linearGradient id="SVGID_4_" gradientUnits="userSpaceOnUse" x1="49.5753" y1="105.14" x2="53.0531" y2="105.14">
					<stop  offset="0.2766" style="stop-color:#828386"/>
					<stop  offset="0.5584" style="stop-color:#ADAFB2"/>
					<stop  offset="0.835" style="stop-color:#828386"/>
				</linearGradient>
				<path style="fill:url(#SVGID_4_);" d="M49.575,101.662c0-0.96,0.779-1.739,1.739-1.739l0,0c0.96,0,1.739,0.779,1.739,1.739
					v6.955c0,0.96-0.779,1.739-1.739,1.739l0,0c-0.96,0-1.739-0.779-1.739-1.739V101.662z"/>
				<linearGradient id="SVGID_5_" gradientUnits="userSpaceOnUse" x1="49.5753" y1="91.0635" x2="53.0531" y2="91.0635">
					<stop  offset="0.2766" style="stop-color:#828386"/>
					<stop  offset="0.5584" style="stop-color:#ADAFB2"/>
					<stop  offset="0.835" style="stop-color:#828386"/>
				</linearGradient>
				<path style="fill:url(#SVGID_5_);" d="M49.575,87.586c0-0.96,0.779-1.739,1.739-1.739l0,0c0.96,0,1.739,0.779,1.739,1.739v6.955
					c0,0.96-0.779,1.739-1.739,1.739l0,0c-0.96,0-1.739-0.779-1.739-1.739V87.586z"/>
				<linearGradient id="SVGID_6_" gradientUnits="userSpaceOnUse" x1="49.5753" y1="76.9871" x2="53.0531" y2="76.9871">
					<stop  offset="0.2766" style="stop-color:#828386"/>
					<stop  offset="0.5584" style="stop-color:#ADAFB2"/>
					<stop  offset="0.835" style="stop-color:#828386"/>
				</linearGradient>
				<path style="fill:url(#SVGID_6_);" d="M49.575,73.509c0-0.96,0.779-1.739,1.739-1.739l0,0c0.96,0,1.739,0.779,1.739,1.739v6.955
					c0,0.96-0.779,1.739-1.739,1.739l0,0c-0.96,0-1.739-0.779-1.739-1.739V73.509z"/>
				<linearGradient id="SVGID_7_" gradientUnits="userSpaceOnUse" x1="49.5753" y1="62.9106" x2="53.0531" y2="62.9106">
					<stop  offset="0.2766" style="stop-color:#828386"/>
					<stop  offset="0.5584" style="stop-color:#ADAFB2"/>
					<stop  offset="0.835" style="stop-color:#828386"/>
				</linearGradient>
				<path style="fill:url(#SVGID_7_);" d="M49.575,59.433c0-0.96,0.779-1.739,1.739-1.739l0,0c0.96,0,1.739,0.779,1.739,1.739v6.955
					c0,0.96-0.779,1.739-1.739,1.739l0,0c-0.96,0-1.739-0.779-1.739-1.739V59.433z"/>
			</g>
			<g>
				<path style="fill:#AEADA8;stroke:#666766;stroke-width:0.25;stroke-miterlimit:10;" d="M43.76,94.641
					c-0.009-0.96,0.762-1.746,1.722-1.756l0,0c0.96-0.009,1.746,0.762,1.756,1.722l0.067,6.955c0.009,0.96-0.762,1.746-1.722,1.756
					l0,0c-0.96,0.009-1.746-0.762-1.756-1.722L43.76,94.641z"/>
				<path style="fill:#AEADA8;stroke:#666766;stroke-width:0.25;stroke-miterlimit:10;" d="M43.793,80.548
					c0-0.96,0.779-1.739,1.739-1.739l0,0c0.96,0,1.739,0.779,1.739,1.739v6.955c0,0.96-0.779,1.739-1.739,1.739l0,0
					c-0.96,0-1.739-0.779-1.739-1.739V80.548z"/>
				<path style="fill:#AEADA8;stroke:#666766;stroke-width:0.25;stroke-miterlimit:10;" d="M43.793,66.471
					c0-0.96,0.779-1.739,1.739-1.739l0,0c0.96,0,1.739,0.779,1.739,1.739v6.955c0,0.96-0.779,1.739-1.739,1.739l0,0
					c-0.96,0-1.739-0.779-1.739-1.739V66.471z"/>
				<path style="fill:#AEADA8;stroke:#666766;stroke-width:0.25;stroke-miterlimit:10;" d="M49.575,101.662
					c0-0.96,0.779-1.739,1.739-1.739l0,0c0.96,0,1.739,0.779,1.739,1.739v6.955c0,0.96-0.779,1.739-1.739,1.739l0,0
					c-0.96,0-1.739-0.779-1.739-1.739V101.662z"/>
				<path style="fill:#AEADA8;stroke:#666766;stroke-width:0.25;stroke-miterlimit:10;" d="M49.575,87.586
					c0-0.96,0.779-1.739,1.739-1.739l0,0c0.96,0,1.739,0.779,1.739,1.739v6.955c0,0.96-0.779,1.739-1.739,1.739l0,0
					c-0.96,0-1.739-0.779-1.739-1.739V87.586z"/>
				<path style="fill:#AEADA8;stroke:#666766;stroke-width:0.25;stroke-miterlimit:10;" d="M49.575,73.509
					c0-0.96,0.779-1.739,1.739-1.739l0,0c0.96,0,1.739,0.779,1.739,1.739v6.955c0,0.96-0.779,1.739-1.739,1.739l0,0
					c-0.96,0-1.739-0.779-1.739-1.739V73.509z"/>
				<path style="fill:#AEADA8;stroke:#666766;stroke-width:0.25;stroke-miterlimit:10;" d="M49.575,59.433
					c0-0.96,0.779-1.739,1.739-1.739l0,0c0.96,0,1.739,0.779,1.739,1.739v6.955c0,0.96-0.779,1.739-1.739,1.739l0,0
					c-0.96,0-1.739-0.779-1.739-1.739V59.433z"/>
			</g>
			<path style="fill:none;stroke:#4F4C4B;stroke-width:2;stroke-miterlimit:10;" d="M55.728,51.205c0,0,0.521,0.341,1.157,0.757
				s1.157,1.657,1.157,2.757v61.141c0,1.1-0.43,2-0.955,2c-0.526,0-1.254-0.129-1.618-0.286c-0.364-0.157-1.563-0.286-2.663-0.286
				h-8.73c-1.1,0-2.257,0.129-2.572,0.286c-0.315,0.157-1.059,0.286-1.654,0.286c-0.595,0-1.828-0.504-2.739-1.12l-23.454-15.855
				c-0.911-0.616-1.657-2.02-1.657-3.12v-46.56"/>
			<polygon style="fill:#F16479;" points="37.028,112.386 13.741,96.826 13.741,82.319 37.028,97.88 			"/>
			<polygon style="fill:#F16479;" points="37.028,97.88 13.741,82.319 13.741,67.812 37.028,83.373 			"/>
			<polygon style="fill:#F16479;" points="37.028,83.437 13.741,67.876 13.741,53.369 37.028,68.93 			"/>
			<polygon style="fill:#F16479;" points="37.028,68.93 13.741,53.369 13.741,51.205 32.396,51.328 37.028,54.423 			"/>
			<g>
				<polygon style="fill:#C4515F;" points="37.028,109.383 13.741,93.805 13.741,90.562 37.028,106.14 				"/>
				<g>
					<polygon style="fill:#C4515F;" points="37.028,102.896 13.741,87.319 13.741,84.076 37.028,99.653 					"/>
				</g>
				<polygon style="fill:#C4515F;" points="37.028,96.41 13.741,80.832 13.741,77.589 37.028,93.167 				"/>
				<polygon style="fill:#C4515F;" points="37.028,89.923 13.741,74.346 13.741,71.103 37.028,86.68 				"/>
				<g>
					<polygon style="fill:#C4515F;" points="37.028,83.437 13.741,67.859 13.741,64.616 37.028,80.194 					"/>
				</g>
				<polygon style="fill:#C4515F;" points="37.028,76.95 13.741,61.373 13.741,58.13 37.028,73.707 				"/>
				<polygon style="fill:#C4515F;" points="37.028,70.464 13.741,54.886 13.741,51.643 37.028,67.221 				"/>
				<g>
					<polygon style="fill:#C4515F;" points="37.028,63.977 17.934,51.205 22.782,51.204 37.029,60.734 					"/>
				</g>
				<polygon style="fill:#C4515F;" points="37.029,57.491 27.631,51.204 32.479,51.204 37.029,54.248 				"/>
			</g>
			<polyline style="fill:none;stroke:#000000;stroke-width:0.4;stroke-miterlimit:10;" points="13.74,51.205 13.74,97.049 
				37.028,112.626 37.028,54.043 32.882,51.205 			"/>
		</g>
	</g>
	<g>
		<path style="fill:#8F3F4D;" d="M28.054,34.884c0,1.287-1.803,2.33-4.027,2.33S20,36.171,20,34.884V0l8.051,0v34.884H28.054z"/>
		<g>
			<path style="fill:#C4515F;" d="M22.045,0.012h3.965l0.002,36.891c0,0-0.966,0.31-1.985,0.31c-1.018,0-1.982-0.31-1.982-0.31
				L22.045,0.012z"/>
		</g>
	</g>
	<path style="fill:#B22B32;" d="M48.042,44.884c0,1.287-1.803,2.33-4.027,2.33s-4.027-1.043-4.027-2.33V0l8.051,0v44.884H48.042z"/>
	<g>
		<path style="fill:#F16479;" d="M42.033,0.012h3.965l0.002,46.891c0,0-0.966,0.31-1.985,0.31s-1.982-0.309-1.982-0.309
			L42.033,0.012z"/>
	</g>
</g>
<g id="Layer_1">
</g>
</svg>
