<?xml version="1.0" encoding="iso-8859-1"?>
<!-- Generator: Adobe Illustrator 17.0.0, SVG Export Plug-In . SVG Version: 6.00 Build 0)  -->
<!DOCTYPE svg PUBLIC "-//W3C//DTD SVG 1.1//EN" "http://www.w3.org/Graphics/SVG/1.1/DTD/svg11.dtd">
<svg version="1.1" xmlns="http://www.w3.org/2000/svg" xmlns:xlink="http://www.w3.org/1999/xlink" x="0px" y="0px" width="24.75px"
	 height="67.099px" viewBox="0 0 24.75 67.099" style="enable-background:new 0 0 24.75 67.099;" xml:space="preserve">
<g id="sensor_x5F_duct_x5F_hum_x5F_top">
	<g>
		<path style="fill:#8C8C80;stroke:#4C4C4D;stroke-width:0.5;stroke-miterlimit:10;" d="M14.354,31.958V64.97
			c0,1.033-0.762,1.879-1.693,1.879s-1.693-0.845-1.693-1.879V31.958"/>
		<g>
			<g>
				<path style="fill:#B2B2A6;" d="M13.373,31.958v32.777c0,0.497-0.319,0.75-0.712,0.75s-0.712-0.253-0.712-0.75V31.958"/>
			</g>
		</g>
		<g>
			<rect x="4.25" y="3" style="fill:#B2B2A6;" width="20" height="20"/>
			<g>
				<polygon style="fill:#ABAB9C;" points="0.5,0.5 20.5,0.5 24.25,3 4.25,3 				"/>
			</g>
			<polygon style="fill:#8C8C80;" points="4.25,3 4.25,23 0.5,20.5 0.5,0.5 			"/>
			<g>
				<path style="fill:none;stroke:#E0E0DC;stroke-width:0.75;stroke-miterlimit:10;" d="M24.25,22c0,0.55-0.45,1-1,1h-18
					c-0.55,0-1-0.45-1-1V4c0-0.55,0.45-1,1-1h18c0.55,0,1,0.45,1,1V22z"/>
				<line style="fill:none;stroke:#E0E0DC;stroke-width:0.75;stroke-miterlimit:10;" x1="4.25" y1="3.176" x2="0.5" y2="0.5"/>
			</g>
			<path style="fill:none;stroke:#4C4C4D;stroke-miterlimit:10;" d="M1.332,21.055C0.874,20.75,0.5,20.05,0.5,19.5v-18
				c0-0.55,0.45-1,1-1h18c0.55,0,1.374,0.25,1.832,0.555l2.086,1.391C23.876,2.75,24.25,3.45,24.25,4v18c0,0.55-0.45,1-1,1h-18
				c-0.55,0-1.374-0.25-1.832-0.555L1.332,21.055z"/>
		</g>
	</g>
	<g>
		<g>
			<path style="fill:#5590CC;stroke:#5590CC;stroke-width:0.8;stroke-miterlimit:10;" d="M19.112,10.313"/>
			<path style="fill:#5590CC;stroke:#5590CC;stroke-width:0.8;stroke-miterlimit:10;" d="M7.634,10.313"/>
		</g>
	</g>
	<path style="fill:#FFFFFF;" d="M13.781,19.356c-2.718,0-4.922-2.204-4.922-4.922s3.322-6.723,4.922-8.8
		c1.702,2.23,4.922,6.081,4.922,8.8S16.499,19.356,13.781,19.356z"/>
</g>
<g id="Layer_1">
</g>
</svg>
