<?xml version="1.0" encoding="iso-8859-1"?>
<!-- Generator: Adobe Illustrator 17.0.0, SVG Export Plug-In . SVG Version: 6.00 Build 0)  -->
<!DOCTYPE svg PUBLIC "-//W3C//DTD SVG 1.1//EN" "http://www.w3.org/Graphics/SVG/1.1/DTD/svg11.dtd">
<svg version="1.1" xmlns="http://www.w3.org/2000/svg" xmlns:xlink="http://www.w3.org/1999/xlink" x="0px" y="0px" width="24.75px"
	 height="67.049px" viewBox="0 0 24.75 67.049" style="enable-background:new 0 0 24.75 67.049;" xml:space="preserve">
<g id="sensor_x5F_oatemp">
	<g>
		<path style="fill:#8C8C80;stroke:#4C4C4D;stroke-width:0.5;stroke-miterlimit:10;" d="M14.354,31.909V64.92
			c0,1.033-0.762,1.879-1.693,1.879c-0.931,0-1.693-0.845-1.693-1.879V31.909"/>
		<g>
			<g>
				<path style="fill:#B2B2A6;" d="M13.373,31.909v32.777c0,0.497-0.319,0.75-0.712,0.75s-0.712-0.253-0.712-0.75V31.909"/>
			</g>
		</g>
		<g>
			<g>
				<g>
					<rect x="4.25" y="3" style="fill:#B2B2A6;" width="20" height="20"/>
					<g>
						<polygon style="fill:#ABAB9C;" points="0.5,0.5 20.5,0.5 24.25,3 4.25,3 						"/>
					</g>
					<polygon style="fill:#8C8C80;" points="4.25,3 4.25,23 0.5,20.5 0.5,0.5 					"/>
					<g>
						<path style="fill:none;stroke:#E0E0DC;stroke-width:0.75;stroke-miterlimit:10;" d="M24.25,22c0,0.55-0.45,1-1,1h-18
							c-0.55,0-1-0.45-1-1V4c0-0.55,0.45-1,1-1h18c0.55,0,1,0.45,1,1V22z"/>
						<line style="fill:none;stroke:#E0E0DC;stroke-width:0.75;stroke-miterlimit:10;" x1="4.25" y1="3.176" x2="0.5" y2="0.5"/>
					</g>
					<path style="fill:none;stroke:#4C4C4D;stroke-miterlimit:10;" d="M1.332,21.055C0.874,20.75,0.5,20.05,0.5,19.5v-18
						c0-0.55,0.45-1,1-1h18c0.55,0,1.374,0.25,1.832,0.555l2.086,1.391C23.876,2.75,24.25,3.45,24.25,4v18c0,0.55-0.45,1-1,1h-18
						c-0.55,0-1.374-0.25-1.832-0.555L1.332,21.055z"/>
				</g>
			</g>
			<g>
				<g>
					<g>
						<path style="fill:#FFFFFF;" d="M11.896,20.069c-3.072,0-5.562-2.49-5.562-5.562s3.754-7.597,5.562-9.944
							c1.923,2.52,5.562,6.872,5.562,9.944S14.968,20.069,11.896,20.069z"/>
					</g>
				</g>
			</g>
			<g>
				<g>
					<path style="fill:#FFFFFF;" d="M17.264,21.937l-0.82-0.236c0.008-0.009,1.066-1.042,1.53-2.079
						c0.391-0.873,0.352-1.628,0.561-2.662c0.165-0.817,0.314-1.661,0.616-2.519c0.812-2.309,2.491-4.073,2.491-4.073
						c-0.018,0.026-1.391,2.236-2.005,4.265c-0.245,0.809-0.414,1.571-0.522,2.402c-0.119,0.913-0.135,1.95-0.557,2.893
						C18.059,21.044,17.299,21.898,17.264,21.937z"/>
				</g>
				<g>
					<path style="fill:#FFFFFF;" d="M20.145,18.935c-0.782,0.397-1.459,0.439-1.513,0.442l0.172-0.73
						c0.092-0.005,2.106-0.368,2.793-2.361c0.415-1.204,0.316-2.086,0.192-2.768c-0.103-0.568-0.264-1.486-0.176-2.009
						c0.12-0.711,0.391-1.422,0.7-1.775c-0.74,0.225-2.295,0.87-3.463,1.935c-1.542,1.405-1.943,2.687-1.875,4.24
						c0.052,1.195,1.104,2.257,1.117,2.267L17.8,19.075c-0.062-0.05-1.602-1.29-1.723-3.35c-0.102-1.739,0.755-3.33,2.59-4.671
						c1.343-0.982,3.322-1.48,4.114-1.621c-0.368,0.463-0.713,1.453-0.678,2.309c0.017,0.421,0.043,0.872,0.174,1.401
						c0.22,0.886,0.494,1.99-0.038,3.378C21.751,17.842,20.899,18.553,20.145,18.935z"/>
				</g>
			</g>
			<g>
				<g>
					<g>
						<path style="fill:#FFFFFF;" d="M11.896,20.122c-3.201,0-5.795-2.595-5.795-5.795s3.911-7.916,5.795-10.361
							c2.004,2.625,5.795,7.16,5.795,10.361S15.097,20.122,11.896,20.122z"/>
						<g>
							<path style="fill:#FFFFFF;" d="M13.294,13.812l0.001,0.148c0.835,0.483,1.397,1.387,1.397,2.421
								c0,1.544-1.252,2.795-2.795,2.795s-2.795-1.252-2.795-2.795c0-1.035,0.562-1.938,1.397-2.421l0-0.148H13.294z"/>
						</g>
						<g>
							<g>
								<path style="fill:#B2B2A6;" d="M11.896,7.398c0.329,0,0.597,0.268,0.597,0.598l0.001,5.965l0,0.461l0.399,0.231
									c0.615,0.356,0.997,1.018,0.997,1.728c0,1.1-0.895,1.995-1.995,1.995c-1.1,0-1.995-0.895-1.995-1.995
									c0-0.71,0.382-1.372,0.998-1.729l0.399-0.231V13.96l0-5.965C11.299,7.666,11.567,7.398,11.896,7.398 M11.896,6.598
									c-0.769,0-1.398,0.629-1.398,1.398l0,5.965c-0.835,0.483-1.397,1.387-1.397,2.421c0,1.544,1.251,2.795,2.795,2.795
									c1.544,0,2.795-1.252,2.795-2.795c0-1.034-0.562-1.937-1.396-2.421l-0.001-5.965C13.294,7.227,12.665,6.598,11.896,6.598
									L11.896,6.598z"/>
							</g>
						</g>
						<g>
							
								<line style="fill:none;stroke:#B2B2A6;stroke-width:0.4;stroke-miterlimit:10;" x1="11.827" y1="11.594" x2="13.224" y2="11.594"/>
							
								<line style="fill:none;stroke:#B2B2A6;stroke-width:0.4;stroke-miterlimit:10;" x1="11.827" y1="10.197" x2="13.224" y2="10.197"/>
							
								<line style="fill:none;stroke:#B2B2A6;stroke-width:0.4;stroke-miterlimit:10;" x1="11.827" y1="8.799" x2="13.224" y2="8.799"/>
						</g>
					</g>
				</g>
			</g>
		</g>
	</g>
</g>
<g id="Layer_1">
</g>
</svg>
