<?xml version="1.0" encoding="iso-8859-1"?>
<!-- Generator: Adobe Illustrator 17.0.0, SVG Export Plug-In . SVG Version: 6.00 Build 0)  -->
<!DOCTYPE svg PUBLIC "-//W3C//DTD SVG 1.1//EN" "http://www.w3.org/Graphics/SVG/1.1/DTD/svg11.dtd">
<svg version="1.1" xmlns="http://www.w3.org/2000/svg" xmlns:xlink="http://www.w3.org/1999/xlink" x="0px" y="0px" width="24.75px"
	 height="67.099px" viewBox="0 0 24.75 67.099" style="enable-background:new 0 0 24.75 67.099;" xml:space="preserve">
<g id="sensor_x5F_duct_x5F_temphum_x5F_top">
	<g>
		<path style="fill:#8C8C80;stroke:#4C4C4D;stroke-width:0.5;stroke-miterlimit:10;" d="M14.354,31.958V64.97
			c0,1.033-0.762,1.879-1.693,1.879s-1.693-0.845-1.693-1.879V31.958"/>
		<g>
			<g>
				<path style="fill:#B2B2A6;" d="M13.373,31.958v32.777c0,0.497-0.319,0.75-0.712,0.75c-0.393,0-0.712-0.253-0.712-0.75V31.958"/>
			</g>
		</g>
		<g>
			<rect x="4.25" y="3" style="fill:#B2B2A6;" width="20" height="20"/>
			<g>
				<polygon style="fill:#ABAB9C;" points="0.5,0.5 20.5,0.5 24.25,3 4.25,3 				"/>
			</g>
			<polygon style="fill:#8C8C80;" points="4.25,3 4.25,23 0.5,20.5 0.5,0.5 			"/>
			<g>
				<path style="fill:none;stroke:#E0E0DC;stroke-width:0.75;stroke-miterlimit:10;" d="M24.25,22c0,0.55-0.45,1-1,1h-18
					c-0.55,0-1-0.45-1-1V4c0-0.55,0.45-1,1-1h18c0.55,0,1,0.45,1,1V22z"/>
				<line style="fill:none;stroke:#E0E0DC;stroke-width:0.75;stroke-miterlimit:10;" x1="4.25" y1="3.176" x2="0.5" y2="0.5"/>
			</g>
			<path style="fill:none;stroke:#4C4C4D;stroke-miterlimit:10;" d="M1.332,21.055C0.874,20.75,0.5,20.05,0.5,19.5v-18
				c0-0.55,0.45-1,1-1h18c0.55,0,1.374,0.25,1.832,0.555l2.086,1.391C23.876,2.75,24.25,3.45,24.25,4v18c0,0.55-0.45,1-1,1h-18
				c-0.55,0-1.374-0.25-1.832-0.555L1.332,21.055z"/>
		</g>
	</g>
	<g>
		<g>
			<g>
				<path style="fill:#FFFFFF;" d="M13.781,20.327c-3.201,0-5.795-2.595-5.795-5.795s3.911-7.916,5.795-10.361
					c2.004,2.625,5.795,7.16,5.795,10.361S16.982,20.327,13.781,20.327z"/>
				<g>
					<path style="fill:#FFFFFF;" d="M15.179,14.017l0.001,0.148c0.835,0.483,1.397,1.387,1.397,2.421
						c0,1.544-1.252,2.795-2.795,2.795s-2.795-1.252-2.795-2.795c0-1.035,0.562-1.938,1.397-2.421l0-0.148H15.179z"/>
				</g>
				<g>
					<g>
						<path style="fill:#B2B2A6;" d="M13.781,7.603c0.33,0,0.598,0.268,0.598,0.598l0.001,5.965v0.461l0.399,0.231
							c0.615,0.356,0.998,1.019,0.998,1.728c0,1.1-0.895,1.995-1.995,1.995c-1.1,0-1.995-0.895-1.995-1.995
							c0-0.71,0.382-1.373,0.998-1.729l0.399-0.231v-0.461l0-5.965C13.184,7.871,13.452,7.603,13.781,7.603 M13.781,6.803
							c-0.769,0-1.398,0.629-1.398,1.398l0,5.965c-0.835,0.483-1.397,1.387-1.397,2.421c0,1.544,1.251,2.795,2.795,2.795
							c1.544,0,2.795-1.252,2.795-2.795c0-1.034-0.562-1.937-1.397-2.421l-0.001-5.965C15.179,7.432,14.55,6.803,13.781,6.803
							L13.781,6.803z"/>
					</g>
				</g>
				<g>
					
						<line style="fill:none;stroke:#B2B2A6;stroke-width:0.4;stroke-miterlimit:10;" x1="13.711" y1="11.799" x2="15.109" y2="11.799"/>
					
						<line style="fill:none;stroke:#B2B2A6;stroke-width:0.4;stroke-miterlimit:10;" x1="13.711" y1="10.402" x2="15.109" y2="10.402"/>
					
						<line style="fill:none;stroke:#B2B2A6;stroke-width:0.4;stroke-miterlimit:10;" x1="13.711" y1="9.004" x2="15.109" y2="9.004"/>
				</g>
			</g>
		</g>
	</g>
</g>
<g id="Layer_1">
</g>
</svg>
