<?xml version="1.0" encoding="iso-8859-1"?>
<!-- Generator: Adobe Illustrator 17.0.0, SVG Export Plug-In . SVG Version: 6.00 Build 0)  -->
<!DOCTYPE svg PUBLIC "-//W3C//DTD SVG 1.1//EN" "http://www.w3.org/Graphics/SVG/1.1/DTD/svg11.dtd">
<svg version="1.1" id="Layer_1" xmlns="http://www.w3.org/2000/svg" xmlns:xlink="http://www.w3.org/1999/xlink" x="0px" y="0px"
	 width="24.75px" height="67.099px" viewBox="0 0 24.75 67.099" style="enable-background:new 0 0 24.75 67.099;"
	 xml:space="preserve">
<g id="sensor_x5F_duct_x5F_pressurealrm_x5F_top">
	<g>
		<g>
			<path style="fill:#8C8C80;stroke:#4C4C4D;stroke-width:0.5;stroke-miterlimit:10;" d="M14.354,31.958V64.97
				c0,1.033-0.762,1.879-1.693,1.879s-1.693-0.845-1.693-1.879V31.958"/>
			<g>
				<g>
					<path style="fill:#B2B2A6;" d="M13.373,31.958v32.777c0,0.497-0.319,0.75-0.712,0.75s-0.712-0.253-0.712-0.75V31.958"/>
				</g>
			</g>
			<g>
				<rect x="4.25" y="3" style="fill:#B2B2A6;" width="20" height="20"/>
				<g>
					<polygon style="fill:#ABAB9C;" points="0.5,0.5 20.5,0.5 24.25,3 4.25,3 					"/>
				</g>
				<polygon style="fill:#8C8C80;" points="4.25,3 4.25,23 0.5,20.5 0.5,0.5 				"/>
				<g>
					<path style="fill:none;stroke:#E0E0DC;stroke-width:0.75;stroke-miterlimit:10;" d="M24.25,22c0,0.55-0.45,1-1,1h-18
						c-0.55,0-1-0.45-1-1V4c0-0.55,0.45-1,1-1h18c0.55,0,1,0.45,1,1V22z"/>
					<line style="fill:none;stroke:#E0E0DC;stroke-width:0.75;stroke-miterlimit:10;" x1="4.25" y1="3.176" x2="0.5" y2="0.5"/>
				</g>
				<path style="fill:none;stroke:#4C4C4D;stroke-miterlimit:10;" d="M1.332,21.055C0.874,20.75,0.5,20.05,0.5,19.5v-18
					c0-0.55,0.45-1,1-1h18c0.55,0,1.374,0.25,1.832,0.555l2.086,1.391C23.876,2.75,24.25,3.45,24.25,4v18c0,0.55-0.45,1-1,1h-18
					c-0.55,0-1.374-0.25-1.832-0.555L1.332,21.055z"/>
			</g>
		</g>
	</g>
	<g>
		<g>
			<path style="fill:none;stroke:#FFFFFF;stroke-width:1.5;stroke-miterlimit:10;" d="M9.401,12.911"/>
			<path style="fill:none;stroke:#FFFFFF;stroke-width:1.5;stroke-miterlimit:10;" d="M7.137,12.911"/>
		</g>
	</g>
</g>
<g id="Layer_1_1_">
</g>
<g>
	<g>
		<g>
			
				<line style="fill:none;stroke:#FFFFFF;stroke-width:1.5;stroke-miterlimit:10;" x1="20.71" y1="12.841" x2="22.501" y2="12.841"/>
		</g>
		<g>
			
				<line style="fill:none;stroke:#FFFFFF;stroke-width:1.5;stroke-miterlimit:10;" x1="11.138" y1="12.841" x2="12.93" y2="12.841"/>
		</g>
		<g>
			<line style="fill:none;stroke:#FFFFFF;stroke-width:1.5;stroke-miterlimit:10;" x1="16.827" y1="9.045" x2="16.827" y2="7.254"/>
		</g>
	</g>
	<g>
		<g>
			<path style="fill:#FFFFFF;" d="M16.851,13.975c-0.368,0.385-1.054,0.326-1.439-0.042l0,0c-0.385-0.368-0.475-1.051-0.107-1.436
				l3.205-2.896c0.398-0.359,0.899-0.62,1.283-0.252l0,0c0.385,0.368,0.218,0.803-0.122,1.218L16.851,13.975z"/>
		</g>
	</g>
	<g>
		<g>
			<circle style="fill:none;stroke:#FFFFFF;stroke-width:1.2;stroke-miterlimit:10;" cx="16.766" cy="12.911" r="5.635"/>
		</g>
	</g>
</g>
<g>
	<g>
		<path style="fill:#FFFFFF;" d="M8.684,6.47h4.894v1.492l1.547-0.443V4.922H7.137v0.001V20.9h7.988v-2.598l-1.547-0.744v1.795
			H8.684V6.47"/>
	</g>
</g>
</svg>
