<?xml version="1.0" encoding="iso-8859-1"?>
<!-- Generator: Adobe Illustrator 17.0.0, SVG Export Plug-In . SVG Version: 6.00 Build 0)  -->
<!DOCTYPE svg PUBLIC "-//W3C//DTD SVG 1.1//EN" "http://www.w3.org/Graphics/SVG/1.1/DTD/svg11.dtd">
<svg version="1.1" xmlns="http://www.w3.org/2000/svg" xmlns:xlink="http://www.w3.org/1999/xlink" x="0px" y="0px" width="80px"
	 height="90px" viewBox="0 0 80 90" style="enable-background:new 0 0 80 90;" xml:space="preserve">
<g id="Filter_x5F_Single_x5F_DP_x5F_3">
	<g>
		<polygon style="fill:#E7E9EA;" points="0,70.04 80,70.061 80,20.061 0,20.04 		"/>
		<g>
			<polyline style="fill:#E7E9EA;" points="80,20 0,20 0,0 80,0 			"/>
			<polygon style="fill:#6A7276;" points="80,21.583 0,21.576 0,19.953 80,19.953 			"/>
			<g>
				<polyline style="fill:#DDDFE1;" points="80,88.494 0,88.494 0,68.494 80,68.494 				"/>
				<rect y="88.433" style="fill:#6A7276;" width="80" height="1.567"/>
			</g>
		</g>
	</g>
	<line style="fill:none;stroke:#ABAAA9;stroke-width:0.6;stroke-miterlimit:10;" x1="0" y1="68.422" x2="80" y2="68.422"/>
	<line style="fill:none;stroke:#FFFFFF;stroke-width:0.2;stroke-miterlimit:10;" x1="48.38" y1="21.307" x2="50.343" y2="22.6"/>
	<polygon style="fill:#CDCEC6;" points="58.946,87.961 57.035,87.961 55.71,87.389 52.783,87.389 51.639,87.961 49.475,87.961 
		49.555,22.82 58.946,22.82 	"/>
	<polygon style="fill:#AEAFA7;" points="22.785,21.307 22.785,69.866 49.553,87.961 49.553,22.82 47.18,21.307 	"/>
	<polygon style="fill:#B4B5B0;" points="52.166,21.306 47.18,21.307 48.348,22.294 49.553,22.82 51.627,22.82 52.832,23.347 
		55.779,23.362 57.104,22.821 58.946,22.82 56.633,21.307 	"/>
	<line style="fill:none;stroke:#FFFFFF;stroke-width:0.2;stroke-miterlimit:10;" x1="47.18" y1="21.307" x2="49.477" y2="22.82"/>
	<polyline style="fill:none;stroke:#999999;stroke-width:0.25;stroke-miterlimit:10;" points="49.555,21.306 52.832,23.347 
		52.832,86.967 	"/>
	<polyline style="fill:none;stroke:#DCDBDB;stroke-width:0.25;stroke-miterlimit:10;" points="54.77,21.307 57.104,22.821 
		57.104,87.524 	"/>
	<polyline style="fill:none;stroke:#999999;stroke-width:0.25;stroke-miterlimit:10;" points="52.677,21.307 55.779,23.362 
		55.779,86.997 	"/>
	<polyline style="fill:none;stroke:#DCDBDB;stroke-width:0.25;stroke-miterlimit:10;" points="49.309,21.306 51.627,22.82 
		51.627,87.599 	"/>
	<polygon style="fill:none;stroke:#F7F8F9;stroke-width:0.2;stroke-miterlimit:10;" points="58.791,87.961 56.88,87.961 
		55.555,87.389 52.783,87.389 51.639,87.961 49.553,87.961 49.553,22.82 51.703,22.82 52.908,23.347 55.779,23.362 57.104,22.82 
		58.791,22.82 	"/>
	<polygon style="fill:#969490;" points="43.667,21.307 47.812,24.145 47.812,82.728 24.525,67.151 24.525,21.307 	"/>
	<path style="fill:none;stroke:#4F4C4B;stroke-width:2;stroke-miterlimit:10;" d="M57.686,21.333c0,0,0.521,0.341,1.157,0.757
		C59.479,22.506,60,23.746,60,24.846v61.141c0,1.1-0.43,2-0.955,2s-1.254-0.129-1.618-0.286c-0.364-0.157-1.563-0.286-2.663-0.286
		h-0.73c-1.1,0-2.257,0.129-2.572,0.286s-1.059,0.286-1.654,0.286s-1.828-0.504-2.739-1.12L23.615,71.013
		c-0.911-0.616-1.657-2.02-1.657-3.12v-46.56"/>
	<polygon style="fill:#9D9793;" points="43.667,21.307 47.568,24.081 47.52,81.321 26.525,67.151 26.525,21.307 	"/>
	<g>
		<g>
			
				<line style="fill:none;stroke:#726A65;stroke-width:0.25;stroke-miterlimit:10;" x1="27.341" y1="67.818" x2="27.341" y2="21.637"/>
			
				<line style="fill:none;stroke:#726A65;stroke-width:0.25;stroke-miterlimit:10;" x1="29.462" y1="69.264" x2="29.462" y2="21.637"/>
			
				<line style="fill:none;stroke:#726A65;stroke-width:0.25;stroke-miterlimit:10;" x1="31.582" y1="70.71" x2="31.582" y2="21.637"/>
			
				<line style="fill:none;stroke:#726A65;stroke-width:0.25;stroke-miterlimit:10;" x1="33.702" y1="72.156" x2="33.702" y2="21.637"/>
			
				<line style="fill:none;stroke:#726A65;stroke-width:0.25;stroke-miterlimit:10;" x1="35.823" y1="73.602" x2="35.823" y2="21.569"/>
			
				<line style="fill:none;stroke:#726A65;stroke-width:0.25;stroke-miterlimit:10;" x1="37.943" y1="75.048" x2="37.943" y2="21.637"/>
			
				<line style="fill:none;stroke:#726A65;stroke-width:0.25;stroke-miterlimit:10;" x1="40.063" y1="76.495" x2="40.063" y2="21.543"/>
			
				<line style="fill:none;stroke:#726A65;stroke-width:0.25;stroke-miterlimit:10;" x1="42.184" y1="77.941" x2="42.184" y2="21.637"/>
			
				<line style="fill:none;stroke:#726A65;stroke-width:0.25;stroke-miterlimit:10;" x1="44.304" y1="79.387" x2="44.304" y2="22.144"/>
			
				<line style="fill:none;stroke:#726A65;stroke-width:0.25;stroke-miterlimit:10;" x1="46.425" y1="80.833" x2="46.425" y2="23.593"/>
		</g>
		<g>
			<g>
				<polygon style="fill:#847D79;" points="47.484,76.392 26.485,62.412 26.561,60.784 47.849,74.948 				"/>
			</g>
			<g>
				<polygon style="fill:#847D79;" points="47.404,79.55 26.485,65.646 26.561,64.019 47.849,78.183 				"/>
			</g>
			<g>
				<g>
					<polygon style="fill:#847D79;" points="47.489,69.93 26.485,55.943 26.561,54.315 47.849,68.479 					"/>
				</g>
				<g>
					<polygon style="fill:#847D79;" points="47.487,73.151 26.485,59.178 26.561,57.55 47.849,71.714 					"/>
				</g>
			</g>
			<g>
				<polygon style="fill:#847D79;" points="47.649,63.592 26.485,49.474 26.563,47.847 47.85,62.074 				"/>
			</g>
			<g>
				<polygon style="fill:#847D79;" points="47.492,66.751 26.485,52.71 26.563,51.081 47.85,65.308 				"/>
			</g>
			<g>
				<polygon style="fill:#847D79;" points="47.527,56.882 26.485,43.001 26.56,41.376 47.848,55.454 				"/>
			</g>
			<g>
				<polygon style="fill:#847D79;" points="47.497,60.123 26.485,46.236 26.56,44.61 47.848,58.689 				"/>
			</g>
			<g>
				<g>
					<polygon style="fill:#847D79;" points="47.649,50.711 26.485,36.538 26.564,34.909 47.852,49.198 					"/>
				</g>
				<g>
					<polygon style="fill:#847D79;" points="47.527,53.869 26.485,39.772 26.564,38.144 47.852,52.433 					"/>
				</g>
			</g>
			<g>
				<polygon style="fill:#847D79;" points="47.649,44.145 26.485,30.066 26.562,28.438 47.849,42.603 				"/>
			</g>
			<g>
				<polygon style="fill:#847D79;" points="47.649,47.346 26.485,33.299 26.562,31.673 47.849,45.837 				"/>
			</g>
			<g>
				<polygon style="fill:#847D79;" points="47.649,37.704 26.485,23.599 26.563,21.97 47.85,36.197 				"/>
			</g>
			<g>
				<polygon style="fill:#847D79;" points="47.649,40.967 26.485,26.833 26.563,25.205 47.85,39.431 				"/>
			</g>
			<g>
				<g>
					<polygon style="fill:#847D79;" points="47.649,34.483 28.274,21.535 30.755,21.532 47.85,32.93 					"/>
				</g>
				<g>
					<polygon style="fill:#847D79;" points="47.649,31.242 33.066,21.535 35.603,21.532 47.849,29.695 					"/>
				</g>
			</g>
			<g>
				<polygon style="fill:#847D79;" points="47.649,28.125 37.961,21.526 40.457,21.535 47.855,26.558 				"/>
			</g>
			<g>
				<polygon style="fill:#847D79;" points="47.404,24.856 42.545,21.532 43.626,21.532 47.649,24.363 				"/>
			</g>
		</g>
	</g>
	<g>
		<polyline style="fill:none;stroke:#5F5C59;stroke-width:0.5;stroke-miterlimit:10;" points="24.525,21.401 24.525,67.245 
			47.812,83.177 47.812,24.239 43.667,21.401 		"/>
	</g>
	<polygon style="fill:none;stroke:#5F5C59;stroke-width:0.25;stroke-miterlimit:10;" points="43.79,21.401 47.691,24.175 
		47.643,81.415 26.648,67.245 26.648,21.401 	"/>
</g>
<g id="Layer_1">
</g>
</svg>
