<?xml version="1.0" encoding="iso-8859-1"?>
<!-- Generator: Adobe Illustrator 17.0.0, SVG Export Plug-In . SVG Version: 6.00 Build 0)  -->
<!DOCTYPE svg PUBLIC "-//W3C//DTD SVG 1.1//EN" "http://www.w3.org/Graphics/SVG/1.1/DTD/svg11.dtd">
<svg version="1.1" xmlns="http://www.w3.org/2000/svg" xmlns:xlink="http://www.w3.org/1999/xlink" x="0px" y="0px" width="80px"
	 height="90px" viewBox="0 0 80 90" style="enable-background:new 0 0 80 90;" xml:space="preserve">
<g id="Filter_x5F_Single_x5F_DP_x5F_1">
	<g>
		<g>
			<polygon style="fill:#E7E9EA;" points="0,70.04 80,70.061 80,20.061 0,20.04 			"/>
			<g>
				<polyline style="fill:#E7E9EA;" points="80,20 0,20 0,0 80,0 				"/>
				<polygon style="fill:#6A7276;" points="80,21.583 0,21.576 0,19.953 80,19.953 				"/>
				<g>
					<polyline style="fill:#DDDFE1;" points="80,88.494 0,88.494 0,68.494 80,68.494 					"/>
					<rect y="88.433" style="fill:#6A7276;" width="80" height="1.567"/>
				</g>
			</g>
		</g>
		<line style="fill:none;stroke:#ABAAA9;stroke-width:0.6;stroke-miterlimit:10;" x1="0" y1="68.422" x2="80" y2="68.422"/>
	</g>
	<line style="fill:none;stroke:#FFFFFF;stroke-width:0.2;stroke-miterlimit:10;" x1="48.38" y1="21.307" x2="50.343" y2="22.6"/>
	<polygon style="fill:#CDCEC6;" points="58.946,87.961 57.035,87.961 55.71,87.389 52.783,87.389 51.639,87.961 49.475,87.961 
		49.555,22.82 58.946,22.82 	"/>
	<polygon style="fill:#AEAFA7;" points="22.785,21.307 22.785,69.866 49.553,87.961 49.553,22.82 47.18,21.307 	"/>
	<polygon style="fill:#B4B5B0;" points="52.166,21.306 47.18,21.307 48.348,22.294 49.553,22.82 51.627,22.82 52.832,23.347 
		55.779,23.362 57.104,22.821 58.946,22.82 56.633,21.307 	"/>
	<line style="fill:none;stroke:#FFFFFF;stroke-width:0.2;stroke-miterlimit:10;" x1="47.18" y1="21.307" x2="49.477" y2="22.82"/>
	<polyline style="fill:none;stroke:#999999;stroke-width:0.25;stroke-miterlimit:10;" points="49.555,21.306 52.832,23.347 
		52.832,86.967 	"/>
	<polyline style="fill:none;stroke:#DCDBDB;stroke-width:0.25;stroke-miterlimit:10;" points="54.77,21.307 57.104,22.821 
		57.104,87.524 	"/>
	<polyline style="fill:none;stroke:#999999;stroke-width:0.25;stroke-miterlimit:10;" points="52.677,21.307 55.779,23.362 
		55.779,86.997 	"/>
	<polyline style="fill:none;stroke:#DCDBDB;stroke-width:0.25;stroke-miterlimit:10;" points="49.309,21.306 51.627,22.82 
		51.627,87.599 	"/>
	<polygon style="fill:none;stroke:#F7F8F9;stroke-width:0.2;stroke-miterlimit:10;" points="58.791,87.961 56.88,87.961 
		55.555,87.389 52.783,87.389 51.639,87.961 49.553,87.961 49.553,22.82 51.703,22.82 52.908,23.347 55.779,23.362 57.104,22.82 
		58.791,22.82 	"/>
	<polygon style="fill:#969490;" points="43.667,21.307 47.812,24.145 47.812,82.728 24.525,67.151 24.525,21.307 	"/>
	<path style="fill:none;stroke:#4F4C4B;stroke-width:2;stroke-miterlimit:10;" d="M57.686,21.333c0,0,0.521,0.341,1.157,0.757
		C59.479,22.506,60,23.746,60,24.846v61.141c0,1.1-0.43,2-0.955,2s-1.254-0.129-1.618-0.286c-0.364-0.157-1.563-0.286-2.663-0.286
		h-0.73c-1.1,0-2.257,0.129-2.572,0.286s-1.059,0.286-1.654,0.286s-1.828-0.504-2.739-1.12L23.615,71.013
		c-0.911-0.616-1.657-2.02-1.657-3.12v-46.56"/>
	<polygon style="fill:#E0DEDC;" points="43.667,21.307 47.568,24.074 47.52,81.161 26.525,67.028 26.525,21.307 	"/>
	<g>
		
			<line style="fill:none;stroke:#A39D9A;stroke-width:0.25;stroke-miterlimit:10;" x1="27.505" y1="67.819" x2="27.505" y2="21.514"/>
		
			<line style="fill:none;stroke:#A39D9A;stroke-width:0.25;stroke-miterlimit:10;" x1="29.625" y1="69.269" x2="29.625" y2="21.514"/>
		
			<line style="fill:none;stroke:#A39D9A;stroke-width:0.25;stroke-miterlimit:10;" x1="31.746" y1="70.719" x2="31.746" y2="21.514"/>
		
			<line style="fill:none;stroke:#A39D9A;stroke-width:0.25;stroke-miterlimit:10;" x1="33.866" y1="72.169" x2="33.866" y2="21.514"/>
		
			<line style="fill:none;stroke:#A39D9A;stroke-width:0.25;stroke-miterlimit:10;" x1="35.986" y1="73.619" x2="35.986" y2="21.447"/>
		
			<line style="fill:none;stroke:#A39D9A;stroke-width:0.25;stroke-miterlimit:10;" x1="38.107" y1="75.069" x2="38.107" y2="21.514"/>
		
			<line style="fill:none;stroke:#A39D9A;stroke-width:0.25;stroke-miterlimit:10;" x1="40.227" y1="76.519" x2="40.227" y2="21.42"/>
		
			<line style="fill:none;stroke:#A39D9A;stroke-width:0.25;stroke-miterlimit:10;" x1="42.347" y1="77.969" x2="42.347" y2="21.514"/>
		
			<line style="fill:none;stroke:#A39D9A;stroke-width:0.25;stroke-miterlimit:10;" x1="44.468" y1="79.419" x2="44.468" y2="22.023"/>
		
			<line style="fill:none;stroke:#A39D9A;stroke-width:0.25;stroke-miterlimit:10;" x1="46.588" y1="80.869" x2="46.588" y2="23.476"/>
	</g>
	<g>
		<g>
			<polygon style="fill:#B7B3B0;" points="47.648,76.416 26.648,62.399 26.725,60.766 48.013,74.969 			"/>
		</g>
		<g>
			<polygon style="fill:#B7B3B0;" points="47.568,79.583 26.648,65.641 26.725,64.01 48.013,78.212 			"/>
		</g>
		<g>
			<g>
				<polygon style="fill:#B7B3B0;" points="47.653,69.937 26.648,55.912 26.725,54.28 48.013,68.482 				"/>
			</g>
			<g>
				<polygon style="fill:#B7B3B0;" points="47.65,73.166 26.648,59.156 26.725,57.523 48.013,71.725 				"/>
			</g>
		</g>
		<g>
			<polygon style="fill:#B7B3B0;" points="47.812,63.582 26.648,49.426 26.726,47.794 48.014,62.059 			"/>
		</g>
		<g>
			<polygon style="fill:#B7B3B0;" points="47.656,66.749 26.648,52.671 26.726,51.037 48.014,65.302 			"/>
		</g>
		<g>
			<polygon style="fill:#B7B3B0;" points="47.691,56.854 26.648,42.935 26.724,41.306 48.011,55.422 			"/>
		</g>
		<g>
			<polygon style="fill:#B7B3B0;" points="47.661,60.103 26.648,46.179 26.724,44.549 48.011,58.665 			"/>
		</g>
		<g>
			<g>
				<polygon style="fill:#B7B3B0;" points="47.812,50.666 26.648,36.455 26.728,34.822 48.015,49.15 				"/>
			</g>
			<g>
				<polygon style="fill:#B7B3B0;" points="47.691,53.833 26.648,39.698 26.728,38.065 48.015,52.393 				"/>
			</g>
		</g>
		<g>
			<polygon style="fill:#B7B3B0;" points="47.812,44.083 26.648,29.966 26.725,28.334 48.013,42.536 			"/>
		</g>
		<g>
			<polygon style="fill:#B7B3B0;" points="47.812,47.292 26.648,33.208 26.725,31.577 48.013,45.78 			"/>
		</g>
		<g>
			<polygon style="fill:#B7B3B0;" points="47.812,37.624 26.648,23.481 26.727,21.848 48.014,36.113 			"/>
		</g>
		<g>
			<polygon style="fill:#B7B3B0;" points="47.812,40.896 26.648,26.724 26.727,25.092 48.014,39.356 			"/>
		</g>
		<g>
			<g>
				<polygon style="fill:#B7B3B0;" points="47.812,34.395 28.438,21.412 30.919,21.409 48.013,32.838 				"/>
			</g>
			<g>
				<polygon style="fill:#B7B3B0;" points="47.812,31.145 33.229,21.412 35.767,21.409 48.013,29.594 				"/>
			</g>
		</g>
		<g>
			<polygon style="fill:#B7B3B0;" points="47.812,28.02 38.125,21.403 40.621,21.412 48.018,26.449 			"/>
		</g>
		<g>
			<polygon style="fill:#B7B3B0;" points="47.568,24.742 42.708,21.409 43.79,21.409 47.812,24.248 			"/>
		</g>
	</g>
	<g>
		<polyline style="fill:none;stroke:#5F5C59;stroke-width:0.5;stroke-miterlimit:10;" points="24.525,21.129 24.525,66.973 
			47.812,82.906 47.812,23.968 43.667,21.129 		"/>
	</g>
	<polygon style="fill:none;stroke:#5F5C59;stroke-width:0.25;stroke-miterlimit:10;" points="43.79,21.129 47.691,23.904 
		47.643,81.143 26.648,66.973 26.648,21.129 	"/>
</g>
<g id="Layer_1">
</g>
</svg>
