<?xml version="1.0" encoding="iso-8859-1"?>
<!-- Generator: Adobe Illustrator 17.0.0, SVG Export Plug-In . SVG Version: 6.00 Build 0)  -->
<!DOCTYPE svg PUBLIC "-//W3C//DTD SVG 1.1//EN" "http://www.w3.org/Graphics/SVG/1.1/DTD/svg11.dtd">
<svg version="1.1" xmlns="http://www.w3.org/2000/svg" xmlns:xlink="http://www.w3.org/1999/xlink" x="0px" y="0px" width="80px"
	 height="90px" viewBox="0 0 80 90" style="enable-background:new 0 0 80 90;" xml:space="preserve">
<g id="Filter_x5F_Single_x5F_DP_x5F_4">
	<g>
		<polygon style="fill:#E7E9EA;" points="0,70.04 80,70.061 80,20.061 0,20.04 		"/>
		<g>
			<polyline style="fill:#E7E9EA;" points="80,20 0,20 0,0 80,0 			"/>
			<polygon style="fill:#6A7276;" points="80,21.583 0,21.576 0,19.953 80,19.953 			"/>
			<g>
				<polyline style="fill:#DDDFE1;" points="80,88.494 0,88.494 0,68.494 80,68.494 				"/>
				<rect y="88.433" style="fill:#6A7276;" width="80" height="1.567"/>
			</g>
		</g>
	</g>
	<line style="fill:none;stroke:#ABAAA9;stroke-width:0.6;stroke-miterlimit:10;" x1="0" y1="68.422" x2="80" y2="68.422"/>
	<line style="fill:none;stroke:#FFFFFF;stroke-width:0.2;stroke-miterlimit:10;" x1="48.38" y1="21.307" x2="50.343" y2="22.6"/>
	<polygon style="fill:#CDCEC6;" points="58.946,87.961 57.035,87.961 55.71,87.389 52.783,87.389 51.639,87.961 49.475,87.961 
		49.555,22.82 58.946,22.82 	"/>
	<polygon style="fill:#AEAFA7;" points="22.785,21.307 22.785,69.866 49.553,87.961 49.553,22.82 47.18,21.307 	"/>
	<polygon style="fill:#B4B5B0;" points="52.166,21.306 47.18,21.307 48.348,22.294 49.553,22.82 51.627,22.82 52.832,23.347 
		55.779,23.362 57.104,22.821 58.946,22.82 56.633,21.307 	"/>
	<line style="fill:none;stroke:#FFFFFF;stroke-width:0.2;stroke-miterlimit:10;" x1="47.18" y1="21.307" x2="49.477" y2="22.82"/>
	<polyline style="fill:none;stroke:#999999;stroke-width:0.25;stroke-miterlimit:10;" points="49.555,21.306 52.832,23.347 
		52.832,86.967 	"/>
	<polyline style="fill:none;stroke:#DCDBDB;stroke-width:0.25;stroke-miterlimit:10;" points="54.77,21.307 57.104,22.821 
		57.104,87.524 	"/>
	<polyline style="fill:none;stroke:#999999;stroke-width:0.25;stroke-miterlimit:10;" points="52.677,21.307 55.779,23.362 
		55.779,86.997 	"/>
	<polyline style="fill:none;stroke:#DCDBDB;stroke-width:0.25;stroke-miterlimit:10;" points="49.309,21.306 51.627,22.82 
		51.627,87.599 	"/>
	<polygon style="fill:none;stroke:#F7F8F9;stroke-width:0.2;stroke-miterlimit:10;" points="58.791,87.961 56.88,87.961 
		55.555,87.389 52.783,87.389 51.639,87.961 49.553,87.961 49.553,22.82 51.703,22.82 52.908,23.347 55.779,23.362 57.104,22.82 
		58.791,22.82 	"/>
	<polygon style="fill:#969490;" points="43.667,21.307 47.812,24.145 47.812,82.728 24.525,67.151 24.525,21.307 	"/>
	<path style="fill:none;stroke:#4F4C4B;stroke-width:2;stroke-miterlimit:10;" d="M57.686,21.333c0,0,0.521,0.341,1.157,0.757
		C59.479,22.506,60,23.746,60,24.846v61.141c0,1.1-0.43,2-0.955,2s-1.254-0.129-1.618-0.286c-0.364-0.157-1.563-0.286-2.663-0.286
		h-0.73c-1.1,0-2.257,0.129-2.572,0.286s-1.059,0.286-1.654,0.286s-1.828-0.504-2.739-1.12L23.615,71.013
		c-0.911-0.616-1.657-2.02-1.657-3.12v-46.56"/>
	<polygon style="fill:#847D79;" points="43.667,21.307 47.568,24.081 47.52,81.321 26.525,67.151 26.525,21.307 	"/>
	<g>
		<g>
			<line style="fill:none;stroke:#615753;stroke-width:0.25;stroke-miterlimit:10;" x1="27.5" y1="67.709" x2="27.5" y2="21.528"/>
			
				<line style="fill:none;stroke:#615753;stroke-width:0.25;stroke-miterlimit:10;" x1="29.62" y1="69.155" x2="29.62" y2="21.528"/>
			
				<line style="fill:none;stroke:#615753;stroke-width:0.25;stroke-miterlimit:10;" x1="31.741" y1="70.601" x2="31.741" y2="21.528"/>
			
				<line style="fill:none;stroke:#615753;stroke-width:0.25;stroke-miterlimit:10;" x1="33.861" y1="72.047" x2="33.861" y2="21.528"/>
			
				<line style="fill:none;stroke:#615753;stroke-width:0.25;stroke-miterlimit:10;" x1="35.981" y1="73.493" x2="35.981" y2="21.46"/>
			
				<line style="fill:none;stroke:#615753;stroke-width:0.25;stroke-miterlimit:10;" x1="38.102" y1="74.939" x2="38.102" y2="21.528"/>
			
				<line style="fill:none;stroke:#615753;stroke-width:0.25;stroke-miterlimit:10;" x1="40.222" y1="76.386" x2="40.222" y2="21.434"/>
			
				<line style="fill:none;stroke:#615753;stroke-width:0.25;stroke-miterlimit:10;" x1="42.343" y1="77.832" x2="42.343" y2="21.528"/>
			
				<line style="fill:none;stroke:#615753;stroke-width:0.25;stroke-miterlimit:10;" x1="44.463" y1="79.278" x2="44.463" y2="22.035"/>
			
				<line style="fill:none;stroke:#615753;stroke-width:0.25;stroke-miterlimit:10;" x1="46.583" y1="80.724" x2="46.583" y2="23.484"/>
		</g>
		<g>
			<g>
				<polygon style="fill:#726965;" points="47.643,76.283 26.643,62.303 26.72,60.675 48.008,74.839 				"/>
			</g>
			<g>
				<polygon style="fill:#726965;" points="47.563,79.441 26.643,65.537 26.72,63.91 48.008,78.074 				"/>
			</g>
			<g>
				<g>
					<polygon style="fill:#726965;" points="47.648,69.821 26.643,55.834 26.72,54.206 48.008,68.37 					"/>
				</g>
				<g>
					<polygon style="fill:#726965;" points="47.645,73.042 26.643,59.069 26.72,57.441 48.008,71.605 					"/>
				</g>
			</g>
			<g>
				<polygon style="fill:#726965;" points="47.807,63.483 26.643,49.365 26.721,47.738 48.009,61.965 				"/>
			</g>
			<g>
				<polygon style="fill:#726965;" points="47.651,66.642 26.643,52.601 26.721,50.972 48.009,65.199 				"/>
			</g>
			<g>
				<polygon style="fill:#726965;" points="47.686,56.773 26.643,42.892 26.719,41.267 48.006,55.345 				"/>
			</g>
			<g>
				<polygon style="fill:#726965;" points="47.656,60.014 26.643,46.127 26.719,44.501 48.006,58.58 				"/>
			</g>
			<g>
				<g>
					<polygon style="fill:#726965;" points="47.807,50.602 26.643,36.429 26.723,34.8 48.01,49.089 					"/>
				</g>
				<g>
					<polygon style="fill:#726965;" points="47.686,53.76 26.643,39.663 26.723,38.035 48.01,52.324 					"/>
				</g>
			</g>
			<g>
				<polygon style="fill:#726965;" points="47.807,44.036 26.643,29.957 26.72,28.329 48.008,42.494 				"/>
			</g>
			<g>
				<polygon style="fill:#726965;" points="47.807,47.237 26.643,33.19 26.72,31.564 48.008,45.728 				"/>
			</g>
			<g>
				<polygon style="fill:#726965;" points="47.807,37.595 26.643,23.49 26.722,21.861 48.009,36.088 				"/>
			</g>
			<g>
				<polygon style="fill:#726965;" points="47.807,40.858 26.643,26.724 26.722,25.096 48.009,39.322 				"/>
			</g>
			<g>
				<g>
					<polygon style="fill:#726965;" points="47.807,34.374 28.433,21.426 30.914,21.423 48.008,32.821 					"/>
				</g>
				<g>
					<polygon style="fill:#726965;" points="47.807,31.133 33.224,21.426 35.762,21.423 48.008,29.586 					"/>
				</g>
			</g>
			<g>
				<polygon style="fill:#726965;" points="47.807,28.016 38.12,21.417 40.616,21.426 48.013,26.45 				"/>
			</g>
			<g>
				<polygon style="fill:#726965;" points="47.563,24.747 42.703,21.423 43.785,21.423 47.807,24.254 				"/>
			</g>
		</g>
	</g>
	<g>
		<polyline style="fill:none;stroke:#5F5C59;stroke-width:0.5;stroke-miterlimit:10;" points="24.525,21.307 24.525,67.151 
			47.812,83.083 47.812,24.145 43.667,21.307 		"/>
	</g>
	<polygon style="fill:none;stroke:#5F5C59;stroke-width:0.25;stroke-miterlimit:10;" points="43.79,21.307 47.691,24.081 
		47.643,81.321 26.648,67.151 26.648,21.307 	"/>
</g>
<g id="Layer_1">
</g>
</svg>
