<?xml version="1.0" encoding="iso-8859-1"?>
<!-- Generator: Adobe Illustrator 17.0.0, SVG Export Plug-In . SVG Version: 6.00 Build 0)  -->
<!DOCTYPE svg PUBLIC "-//W3C//DTD SVG 1.1//EN" "http://www.w3.org/Graphics/SVG/1.1/DTD/svg11.dtd">
<svg version="1.1" xmlns="http://www.w3.org/2000/svg" xmlns:xlink="http://www.w3.org/1999/xlink" x="0px" y="0px" width="32px"
	 height="32px" viewBox="0 0 32 32" style="enable-background:new 0 0 32 32;" xml:space="preserve">
<g id="LED_x5F_FIRE_x5F_GREEN">
	<g>
		<g>
			<path style="fill:#28B34B;" d="M31,28c0,1.65-1.35,3-3,3H4c-1.65,0-3-1.35-3-3V4c0-1.65,1.35-3,3-3h24c1.65,0,3,1.35,3,3V28z"/>
		</g>
		<g>
			<path style="fill:none;stroke:#51514E;stroke-width:2;stroke-miterlimit:10;" d="M31,28c0,1.65-1.35,3-3,3H4c-1.65,0-3-1.35-3-3
				V4c0-1.65,1.35-3,3-3h24c1.65,0,3,1.35,3,3V28z"/>
		</g>
		<g>
			<path style="fill:#81C782;" d="M26,20.444c0,2.75-2.25,5-5,5H11c-2.75,0-5-2.25-5-5v-8.889c0-2.75,2.25-5,5-5h10
				c2.75,0,5,2.25,5,5V20.444z"/>
		</g>
	</g>
</g>
<g id="Layer_1">
</g>
</svg>
