<?xml version="1.0" encoding="iso-8859-1"?>
<!-- Generator: Adobe Illustrator 17.0.0, SVG Export Plug-In . SVG Version: 6.00 Build 0)  -->
<!DOCTYPE svg PUBLIC "-//W3C//DTD SVG 1.1//EN" "http://www.w3.org/Graphics/SVG/1.1/DTD/svg11.dtd">
<svg version="1.1" xmlns="http://www.w3.org/2000/svg" xmlns:xlink="http://www.w3.org/1999/xlink" x="0px" y="0px" width="30px"
	 height="20px" viewBox="0 0 30 20" style="enable-background:new 0 0 30 20;" xml:space="preserve">
<g id="valve_x5F_strainer_x5F_right">
	<g>
		<g>
			<polygon style="fill:#D5CFC9;" points="0.3,17.964 0.3,9.962 0.3,9.96 29.7,9.974 29.7,17.974 0.3,17.959 			"/>
			<g>
				<rect x="0.3" y="11.991" style="fill:#E8E3DE;" width="29.4" height="3.941"/>
			</g>
			<rect x="28.434" y="8.301" style="fill:#D5CFC9;" width="1.267" height="11.322"/>
			<polygon style="fill:#D5CFC9;" points="0.3,8.312 1.566,8.312 1.566,9.874 1.566,17.96 1.566,19.634 0.3,19.634 			"/>
			
				<line style="fill:none;stroke:#51514E;stroke-width:0.15;stroke-miterlimit:10;" x1="28.434" y1="8.75" x2="28.434" y2="18.765"/>
			<line style="fill:none;stroke:#51514E;stroke-width:0.15;stroke-miterlimit:10;" x1="1.566" y1="9.425" x2="1.566" y2="19.44"/>
			<g>
				<path style="fill:#D5CFC9;" d="M18.588,12.705l4.535-3.811l0.588,0.115l1.537-1.899l-5.142-6.128l-2.151,1.266l-0.041,0.573
					L9.431,9.939c0,0-0.117,1.951,2.404,3.309S18.588,12.705,18.588,12.705z"/>
				<g>
					<path style="fill:#E8E3DE;" d="M14.234,13.757l9.427-7.908l-2.534-3.018l-10.925,9.166c0,0,0.518,0.736,1.633,1.25
						C12.951,13.762,14.234,13.757,14.234,13.757z"/>
				</g>
				<polygon style="fill:#D5CFC9;" points="25.798,7.763 23.959,9.306 23.105,8.289 18.689,3.026 17.774,1.936 19.614,0.393 				"/>
				
					<line style="fill:none;stroke:#51514E;stroke-width:0.2;stroke-miterlimit:10;" x1="23.997" y1="9.275" x2="17.904" y2="2.014"/>
				
					<line style="fill:none;stroke:#51514E;stroke-width:0.125;stroke-miterlimit:10;" x1="24.787" y1="8.426" x2="18.694" y2="1.165"/>
			</g>
			<g>
				<path style="fill:#51514E;" d="M30,8.089V20l-2.059,0l0-1.649L2.065,18.337l0,1.663L0,20L0,8.089l2.065,0v1.662l7.256-0.004
					l8.231-6.953l-0.087-0.983L19.641,0l6.592,7.79L24.035,9.64l-0.883-0.324l-0.547,0.431l5.316,0.005V8.089H30z M29.4,19.4V8.689
					h-0.88v1.663l-7.645-0.006l2.169-1.708l0.87,0.32l1.473-1.24l-5.81-6.901L18.09,2.069l0.087,0.983l-8.636,7.296l-8.076,0.004
					V8.689H0.6V19.4h0.865l0-1.663l27.076,0.015l0,1.648H29.4z"/>
			</g>
			<g>
				
					<line style="fill:none;stroke:#51514E;stroke-width:0.4;stroke-miterlimit:10;" x1="22.048" y1="9.693" x2="19.402" y2="11.835"/>
			</g>
		</g>
	</g>
</g>
<g id="Layer_1">
</g>
</svg>
