<?xml version="1.0" encoding="iso-8859-1"?>
<!-- Generator: Adobe Illustrator 17.0.0, SVG Export Plug-In . SVG Version: 6.00 Build 0)  -->
<!DOCTYPE svg PUBLIC "-//W3C//DTD SVG 1.1//EN" "http://www.w3.org/Graphics/SVG/1.1/DTD/svg11.dtd">
<svg version="1.1" xmlns="http://www.w3.org/2000/svg" xmlns:xlink="http://www.w3.org/1999/xlink" x="0px" y="0px" width="130px"
	 height="90px" viewBox="0 0 130 90" style="enable-background:new 0 0 130 90;" xml:space="preserve">
<g id="Fans_x5F_Horz_x5F_Left_x5F_Off">
	<g>
		<g>
			<g>
				<polygon style="fill:#E7E9EA;" points="0,70.04 130,70.061 130,20.061 0,20.04 				"/>
				<g>
					<polyline style="fill:#E7E9EA;" points="130,20 0,20 0,0 130,0 					"/>
					<polygon style="fill:#6A7276;" points="130,21.629 0,21.623 0,20 130,20.062 					"/>
					<g>
						<polyline style="fill:#DDDFE1;" points="130,88.494 0,88.494 0,68.494 130,68.494 						"/>
						<rect y="88.433" style="fill:#6A7276;" width="130" height="1.567"/>
					</g>
				</g>
			</g>
			<line style="fill:none;stroke:#ABAAA9;stroke-width:0.6;stroke-miterlimit:10;" x1="0" y1="68.433" x2="130" y2="68.433"/>
		</g>
		<g>
			<path style="fill:#B4B5B0;" d="M84.899,21.919l8.338,1.788l23.115,31.825c0,18.105-14.677,32.781-32.781,32.781
				c-6.632,0-12.858-1.958-18.05-5.338c-2.196-1.429-21.907-14.856-21.907-14.856c-5.291-5.822-8.516-13.555-8.516-22.041
				c0-5.99,1.595-11.608,4.383-16.452c1.651-2.868,3.721-5.465,6.125-7.707L84.899,21.919z"/>
			<g>
				<path style="fill:none;stroke:#E8E8E2;stroke-width:0.2;stroke-miterlimit:10;" d="M49.719,71.755
					c-7.053-6.002-11.527-14.944-11.527-24.931c0-9.67,4.148-18.264,10.814-24.248"/>
				<path style="fill:none;stroke:#E8E8E2;stroke-width:0.2;stroke-miterlimit:10;" d="M58.29,78.75
					c-6.732-5.993-10.971-14.725-10.971-24.447c0-16.005,11.49-29.326,26.672-32.164"/>
			</g>
			<g>
				<path style="fill:none;stroke:#B5B5B6;stroke-width:0.2;stroke-miterlimit:10;" d="M49.539,71.755
					c-7.053-6.002-11.527-14.944-11.527-24.931c0-9.759,4.157-18.422,10.928-24.413"/>
				<path style="fill:none;stroke:#B5B5B6;stroke-width:0.2;stroke-miterlimit:10;" d="M58.11,78.75
					c-6.732-5.993-10.971-14.725-10.971-24.447c0-16.005,11.49-29.326,26.672-32.164"/>
			</g>
			<g>
				<path style="fill:#CDCEC6;" d="M50.87,55.43c0,18.072,14.65,32.722,32.722,32.722s32.722-14.65,32.722-32.722
					s-14.65-32.722-32.722-32.722h-38.42v33.916h1.449l-0.018-1.194H50.87z"/>
				<circle style="fill:#B4B5B0;" cx="83.593" cy="55.43" r="27.35"/>
				<circle style="fill:#848484;" cx="83.593" cy="55.43" r="22.303"/>
				<path style="fill:none;stroke:#E8E8E2;stroke-width:0.8;stroke-miterlimit:10;" d="M50.87,55.43
					c0,18.072,14.65,32.722,32.722,32.722s32.722-14.65,32.722-32.722s-14.65-32.722-32.722-32.722h-38.42v34.163h1.385l0.046-1.441
					H50.87z"/>
				<circle style="fill:none;stroke:#526C7C;stroke-width:0.1;stroke-miterlimit:10;" cx="83.593" cy="55.43" r="27.35"/>
				<g>
					<g>
						<g>
							<path style="fill:#A9A8A8;" d="M84.343,77.747c0.002-3.475-0.856-7.044-2.257-9.92l-0.746,0.36
								c1.291,3.012,1.315,6.219,1.313,9.53L84.343,77.747z"/>
						</g>
						<g>
							<path style="fill:#A9A8A8;" d="M73.083,75.2c1.74-3.008,2.782-6.528,3.007-9.719l-0.826-0.061
								c-0.388,3.254-1.971,6.044-3.629,8.909L73.083,75.2z"/>
						</g>
						<g>
							<path style="fill:#A9A8A8;" d="M64.61,67.372c3.01-1.736,5.671-4.264,7.461-6.916l-0.685-0.466
								c-1.962,2.624-4.728,4.25-7.595,5.904L64.61,67.372z"/>
						</g>
					</g>
					<g>
						<g>
							<path style="fill:#A9A8A8;" d="M61.182,56.342c3.475,0.002,7.044-0.855,9.92-2.256l-0.36-0.746
								c-3.012,1.29-6.219,1.315-9.53,1.312L61.182,56.342z"/>
						</g>
						<g>
							<path style="fill:#A9A8A8;" d="M63.73,45.082c3.008,1.74,6.527,2.782,9.719,3.008l0.061-0.826
								c-3.254-0.389-6.043-1.972-8.909-3.63L63.73,45.082z"/>
						</g>
						<g>
							<path style="fill:#A9A8A8;" d="M71.56,36.61c1.736,3.01,4.263,5.672,6.915,7.462l0.466-0.685
								c-2.624-1.963-4.249-4.728-5.903-7.596L71.56,36.61z"/>
						</g>
					</g>
					<g>
						<g>
							<path style="fill:#A9A8A8;" d="M82.585,33.143c-0.002,3.475,0.855,7.044,2.256,9.92l0.746-0.36
								c-1.291-3.012-1.315-6.219-1.313-9.53L82.585,33.143z"/>
						</g>
						<g>
							<path style="fill:#A9A8A8;" d="M93.846,35.69c-1.74,3.008-2.782,6.528-3.007,9.719l0.826,0.061
								c0.389-3.254,1.971-6.043,3.629-8.909L93.846,35.69z"/>
						</g>
						<g>
							<path style="fill:#A9A8A8;" d="M102.319,43.519c-3.01,1.736-5.672,4.264-7.461,6.916l0.685,0.466
								c1.962-2.624,4.728-4.25,7.596-5.904L102.319,43.519z"/>
						</g>
					</g>
					<g>
						<g>
							<path style="fill:#A9A8A8;" d="M105.745,54.574c-3.475,0-7.043,0.859-9.919,2.262l0.361,0.746
								c3.011-1.292,6.219-1.319,9.529-1.318L105.745,54.574z"/>
						</g>
						<g>
							<path style="fill:#A9A8A8;" d="M103.205,65.836c-3.009-1.738-6.529-2.778-9.721-3.002l-0.061,0.827
								c3.254,0.387,6.045,1.968,8.911,3.624L103.205,65.836z"/>
						</g>
						<g>
							<path style="fill:#A9A8A8;" d="M95.38,74.313c-1.738-3.009-4.267-5.669-6.92-7.458l-0.466,0.686
								c2.625,1.961,4.252,4.725,5.908,7.592L95.38,74.313z"/>
						</g>
					</g>
				</g>
				<g>
					<path style="fill:none;stroke:#4F4C4B;stroke-width:0.25;stroke-miterlimit:10;" d="M85.024,77.71
						c-0.104-3.473-1.07-7.014-2.558-9.846"/>
					<path style="fill:none;stroke:#4F4C4B;stroke-width:0.25;stroke-miterlimit:10;" d="M73.691,75.508
						c1.647-3.06,2.581-6.61,2.709-9.806"/>
					<path style="fill:none;stroke:#4F4C4B;stroke-width:0.25;stroke-miterlimit:10;" d="M64.983,67.942
						c2.956-1.827,5.539-4.435,7.247-7.14"/>
					<path style="fill:none;stroke:#4F4C4B;stroke-width:0.25;stroke-miterlimit:10;" d="M61.22,57.022
						c3.473-0.104,7.015-1.07,9.847-2.557"/>
					<path style="fill:none;stroke:#4F4C4B;stroke-width:0.25;stroke-miterlimit:10;" d="M63.423,45.689
						c3.06,1.647,6.609,2.582,9.806,2.71"/>
					<path style="fill:none;stroke:#4F4C4B;stroke-width:0.25;stroke-miterlimit:10;" d="M70.99,36.982
						c1.827,2.956,4.435,5.539,7.14,7.247"/>
					<path style="fill:none;stroke:#4F4C4B;stroke-width:0.25;stroke-miterlimit:10;" d="M81.905,33.18
						c0.104,3.473,1.07,7.014,2.558,9.847"/>
					<path style="fill:none;stroke:#4F4C4B;stroke-width:0.25;stroke-miterlimit:10;" d="M93.238,35.382
						c-1.647,3.06-2.581,6.609-2.709,9.806"/>
					<path style="fill:none;stroke:#4F4C4B;stroke-width:0.25;stroke-miterlimit:10;" d="M101.946,42.949
						c-2.956,1.827-5.539,4.435-7.247,7.14"/>
					<path style="fill:none;stroke:#4F4C4B;stroke-width:0.25;stroke-miterlimit:10;" d="M105.708,53.894
						c-3.473,0.106-7.014,1.074-9.845,2.564"/>
					<path style="fill:none;stroke:#4F4C4B;stroke-width:0.25;stroke-miterlimit:10;" d="M103.513,65.228
						c-3.061-1.645-6.611-2.577-9.808-2.703"/>
					<path style="fill:none;stroke:#4F4C4B;stroke-width:0.25;stroke-miterlimit:10;" d="M95.951,73.941
						c-1.829-2.955-4.438-5.536-7.144-7.243"/>
				</g>
				<circle style="fill:none;stroke:#4F4C4B;stroke-width:0.75;stroke-miterlimit:10;" cx="83.593" cy="55.43" r="22.303"/>
				<rect x="45.478" y="23.05" style="fill:#CCCCCC;" width="0.657" height="33.45"/>
				
					<line style="fill:none;stroke:#E5E5DF;stroke-width:0.35;stroke-miterlimit:10;" x1="46.311" y1="23.05" x2="46.311" y2="55.744"/>
				<circle style="fill:none;stroke:#757576;stroke-width:0.15;stroke-miterlimit:10;" cx="83.745" cy="55.43" r="6.669"/>
				<path style="fill:none;stroke:#B5B5B6;stroke-width:0.2;stroke-miterlimit:10;" d="M46.478,54.546h5.724
					c0,18.405,14.102,32.608,31.498,32.608s31.498-14.203,31.498-31.724S101.096,23.707,83.7,23.707H46.52"/>
				<circle style="fill:#757576;" cx="83.745" cy="55.43" r="4.873"/>
			</g>
			
				<line style="fill:none;stroke:#6A7276;stroke-width:0.25;stroke-miterlimit:10;" x1="44.728" y1="57.324" x2="17.025" y2="38.855"/>
			<polygon style="fill:#B4B5B0;" points="44.728,57.324 17.025,38.855 17.025,21.919 43.641,21.919 44.802,22.355 			"/>
			<polygon style="fill:#9B9A99;" points="43.311,54.324 18.461,37.756 18.431,21.919 41.264,21.919 43.311,23.062 			"/>
			
				<line style="fill:none;stroke:#6A7276;stroke-width:0.25;stroke-miterlimit:10;" x1="18.461" y1="37.756" x2="43.311" y2="37.756"/>
			<polyline style="fill:none;stroke:#6A7276;stroke-width:0.25;stroke-miterlimit:10;" points="43.311,54.324 43.311,23.062 
				40.264,21.919 			"/>
			<polyline style="fill:none;stroke:#E5E5DF;stroke-width:0.35;stroke-miterlimit:10;" points="43.311,54.324 18.461,37.756 
				18.431,21.919 			"/>
			<polyline style="fill:none;stroke:#6A7276;stroke-width:0.25;stroke-miterlimit:10;" points="44.723,57.324 17.025,38.855 
				17.025,21.919 			"/>
			<path style="fill:none;stroke:#4F4C4B;stroke-width:1.6;stroke-miterlimit:10;" d="M116.645,55.846
				c0,18.105-14.677,32.781-32.781,32.781c-6.632,0-12.858-1.958-18.05-5.338c-2.196-1.429-21.907-14.856-21.907-14.856
				c-4.028-4.432-6.858-9.971-7.98-16.107c-4.49-2.951-19.49-13.201-19.49-13.201l0-17.207"/>
			<path style="fill:none;stroke:#4F4C4B;stroke-width:1.6;stroke-miterlimit:10;" d="M94.964,23.772
				c-1.709-0.618-3.462-1.092-5.238-1.421"/>
			<path style="fill:none;stroke:#4F4C4B;stroke-width:1.6;stroke-miterlimit:10;" d="M108.928,33.513
				c-3.865-4.577-8.709-7.839-13.965-9.741"/>
			<path style="fill:none;stroke:#4F4C4B;stroke-width:1.6;stroke-miterlimit:10;" d="M116.645,55.846
				c0.286-7.862-2.24-15.85-7.716-22.334"/>
			<g>
				<polyline style="fill:none;stroke:#4F4C4B;stroke-width:0.75;stroke-miterlimit:10;" points="35.734,51.596 44.635,57.527 
					47.139,57.527 47.139,55.744 50.353,55.744 				"/>
			</g>
		</g>
	</g>
</g>
<g id="Layer_1">
</g>
</svg>
