<?xml version="1.0" encoding="iso-8859-1"?>
<!-- Generator: Adobe Illustrator 17.0.0, SVG Export Plug-In . SVG Version: 6.00 Build 0)  -->
<!DOCTYPE svg PUBLIC "-//W3C//DTD SVG 1.1//EN" "http://www.w3.org/Graphics/SVG/1.1/DTD/svg11.dtd">
<svg version="1.1" xmlns="http://www.w3.org/2000/svg" xmlns:xlink="http://www.w3.org/1999/xlink" x="0px" y="0px" width="80px"
	 height="120px" viewBox="0 0 80 120" style="enable-background:new 0 0 80 120;" xml:space="preserve">
<g id="Coils_x5F_Heating_x5F_2Way_x5F_Bottom_x5F_0">
	<g>
		<g>
			<path style="fill:#8F3F4D;" d="M28.054,117.67c0,1.287-1.803,2.33-4.027,2.33S20,118.957,20,117.67V48.59h8.051v69.08H28.054z"/>
			<g>
				<path style="fill:#C4515F;" d="M22.045,48.602h3.965l0.002,71.088c0,0-0.966,0.31-1.985,0.31c-1.018,0-1.982-0.31-1.982-0.31
					L22.045,48.602z"/>
			</g>
		</g>
		<g>
			<path style="fill:#B22B32;" d="M48.054,117.67c0,1.287-1.803,2.33-4.027,2.33S40,118.957,40,117.67V48.59h8.051v69.08H48.054z"/>
			<g>
				<path style="fill:#F16479;" d="M42.045,48.602h3.965l0.002,71.088c0,0-0.966,0.31-1.985,0.31s-1.982-0.309-1.982-0.309
					L42.045,48.602z"/>
			</g>
		</g>
		<g>
			<g>
				<polygon style="fill:#E7E9EA;" points="0,70.04 80,70.061 80,20.061 0,20.04 				"/>
				<g>
					<polyline style="fill:#E7E9EA;" points="80,20 0,20 0,0 80,0 					"/>
					<polygon style="fill:#6A7276;" points="80,21.583 0,21.576 0,19.953 80,19.953 					"/>
					<g>
						<polyline style="fill:#DDDFE1;" points="80,88.494 0,88.494 0,68.494 80,68.494 						"/>
						<rect y="88.433" style="fill:#6A7276;" width="80" height="1.567"/>
					</g>
				</g>
			</g>
			<line style="fill:none;stroke:#ABAAA9;stroke-width:0.6;stroke-miterlimit:10;" x1="0" y1="68.422" x2="80" y2="68.422"/>
		</g>
		<g>
			
				<line style="fill:none;stroke:#FFFFFF;stroke-width:0.2;stroke-miterlimit:10;" x1="37.218" y1="20.973" x2="39.515" y2="22.486"/>
			<polygon style="fill:#CDCEC6;" points="58,87.846 56.089,87.846 54.764,87.274 42.034,87.274 40.89,87.846 38.726,87.846 
				38.726,22.706 58,22.706 			"/>
			<polygon style="fill:#AEAFA7;" points="11.957,21.192 11.957,69.752 38.725,87.846 38.725,22.706 36.352,21.192 			"/>
			<polygon style="fill:#B4B5B0;" points="36.352,21.192 38.726,22.706 40.799,22.706 42.004,23.232 54.833,23.248 56.158,22.706 
				58,22.706 55.686,21.192 			"/>
			
				<line style="fill:none;stroke:#FFFFFF;stroke-width:0.2;stroke-miterlimit:10;" x1="36.352" y1="21.192" x2="38.648" y2="22.706"/>
			<polyline style="fill:none;stroke:#999999;stroke-width:0.25;stroke-miterlimit:10;" points="38.33,21.192 42.004,23.232 
				42.004,86.853 			"/>
			<polyline style="fill:none;stroke:#DCDBDB;stroke-width:0.25;stroke-miterlimit:10;" points="53.824,21.192 56.158,22.706 
				56.158,87.41 			"/>
			<polyline style="fill:none;stroke:#999999;stroke-width:0.25;stroke-miterlimit:10;" points="51.731,21.192 54.833,23.248 
				54.833,86.883 			"/>
			<polyline style="fill:none;stroke:#DCDBDB;stroke-width:0.25;stroke-miterlimit:10;" points="38.074,21.192 40.799,22.706 
				40.799,87.485 			"/>
			<polygon style="fill:none;stroke:#F7F8F9;stroke-width:0.2;stroke-miterlimit:10;" points="57.845,87.846 55.934,87.846 
				54.608,87.274 41.878,87.274 40.734,87.846 38.648,87.846 38.648,22.706 40.799,22.706 42.004,23.232 54.833,23.248 
				56.158,22.706 57.845,22.706 			"/>
			<g>
				<path style="fill:#9B9A9A;" d="M43.716,64.646c-0.009-0.96,0.762-1.746,1.722-1.756l0,0c0.96-0.009,1.746,0.762,1.756,1.722
					l0.067,6.955c0.009,0.96-0.762,1.746-1.722,1.756l0,0c-0.96,0.009-1.746-0.762-1.756-1.722L43.716,64.646z"/>
				<path style="fill:#9B9A9A;" d="M43.75,50.553c0-0.96,0.779-1.739,1.739-1.739l0,0c0.96,0,1.739,0.779,1.739,1.739v6.955
					c0,0.96-0.779,1.739-1.739,1.739l0,0c-0.96,0-1.739-0.779-1.739-1.739V50.553z"/>
				<path style="fill:#9B9A9A;" d="M43.75,36.476c0-0.96,0.779-1.739,1.739-1.739l0,0c0.96,0,1.739,0.779,1.739,1.739v6.955
					c0,0.96-0.779,1.739-1.739,1.739l0,0c-0.96,0-1.739-0.779-1.739-1.739V36.476z"/>
				<path style="fill:#9B9A9A;" d="M49.532,71.667c0-0.96,0.779-1.739,1.739-1.739l0,0c0.96,0,1.739,0.779,1.739,1.739v6.955
					c0,0.96-0.779,1.739-1.739,1.739l0,0c-0.96,0-1.739-0.779-1.739-1.739V71.667z"/>
				<path style="fill:#9B9A9A;" d="M49.532,57.591c0-0.96,0.779-1.739,1.739-1.739l0,0c0.96,0,1.739,0.779,1.739,1.739v6.955
					c0,0.96-0.779,1.739-1.739,1.739l0,0c-0.96,0-1.739-0.779-1.739-1.739V57.591z"/>
				<path style="fill:#9B9A9A;" d="M49.532,43.514c0-0.96,0.779-1.739,1.739-1.739l0,0c0.96,0,1.739,0.779,1.739,1.739v6.955
					c0,0.96-0.779,1.739-1.739,1.739l0,0c-0.96,0-1.739-0.779-1.739-1.739V43.514z"/>
				<path style="fill:#9B9A9A;" d="M49.532,29.438c0-0.96,0.779-1.739,1.739-1.739l0,0c0.96,0,1.739,0.779,1.739,1.739v6.955
					c0,0.96-0.779,1.739-1.739,1.739l0,0c-0.96,0-1.739-0.779-1.739-1.739V29.438z"/>
			</g>
			<polygon style="fill:#B5B4AE;" points="32.838,21.192 36.984,24.031 36.984,82.614 13.697,67.036 13.697,21.192 			"/>
			<g>
				<linearGradient id="SVGID_1_" gradientUnits="userSpaceOnUse" x1="43.7162" y1="68.0894" x2="47.2609" y2="68.0894">
					<stop  offset="0.2766" style="stop-color:#828386"/>
					<stop  offset="0.5584" style="stop-color:#ADAFB2"/>
					<stop  offset="0.835" style="stop-color:#828386"/>
				</linearGradient>
				<path style="fill:url(#SVGID_1_);" d="M43.716,64.629c-0.009-0.96,0.762-1.746,1.722-1.756l0,0
					c0.96-0.009,1.746,0.762,1.756,1.722l0.067,6.955c0.009,0.96-0.762,1.746-1.722,1.756l0,0c-0.96,0.009-1.746-0.762-1.756-1.722
					L43.716,64.629z"/>
				<linearGradient id="SVGID_2_" gradientUnits="userSpaceOnUse" x1="43.7497" y1="54.0129" x2="47.2274" y2="54.0129">
					<stop  offset="0.2766" style="stop-color:#828386"/>
					<stop  offset="0.5584" style="stop-color:#ADAFB2"/>
					<stop  offset="0.835" style="stop-color:#828386"/>
				</linearGradient>
				<path style="fill:url(#SVGID_2_);" d="M43.75,50.535c0-0.96,0.779-1.739,1.739-1.739l0,0c0.96,0,1.739,0.779,1.739,1.739v6.955
					c0,0.96-0.779,1.739-1.739,1.739l0,0c-0.96,0-1.739-0.779-1.739-1.739V50.535z"/>
				<linearGradient id="SVGID_3_" gradientUnits="userSpaceOnUse" x1="43.7497" y1="39.9365" x2="47.2274" y2="39.9365">
					<stop  offset="0.2766" style="stop-color:#828386"/>
					<stop  offset="0.5584" style="stop-color:#ADAFB2"/>
					<stop  offset="0.835" style="stop-color:#828386"/>
				</linearGradient>
				<path style="fill:url(#SVGID_3_);" d="M43.75,36.459c0-0.96,0.779-1.739,1.739-1.739l0,0c0.96,0,1.739,0.779,1.739,1.739v6.955
					c0,0.96-0.779,1.739-1.739,1.739l0,0c-0.96,0-1.739-0.779-1.739-1.739V36.459z"/>
				<linearGradient id="SVGID_4_" gradientUnits="userSpaceOnUse" x1="49.5319" y1="75.1276" x2="53.0097" y2="75.1276">
					<stop  offset="0.2766" style="stop-color:#828386"/>
					<stop  offset="0.5584" style="stop-color:#ADAFB2"/>
					<stop  offset="0.835" style="stop-color:#828386"/>
				</linearGradient>
				<path style="fill:url(#SVGID_4_);" d="M49.532,71.65c0-0.96,0.779-1.739,1.739-1.739l0,0c0.96,0,1.739,0.779,1.739,1.739v6.955
					c0,0.96-0.779,1.739-1.739,1.739l0,0c-0.96,0-1.739-0.779-1.739-1.739V71.65z"/>
				<linearGradient id="SVGID_5_" gradientUnits="userSpaceOnUse" x1="49.5319" y1="61.0511" x2="53.0097" y2="61.0511">
					<stop  offset="0.2766" style="stop-color:#828386"/>
					<stop  offset="0.5584" style="stop-color:#ADAFB2"/>
					<stop  offset="0.835" style="stop-color:#828386"/>
				</linearGradient>
				<path style="fill:url(#SVGID_5_);" d="M49.532,57.573c0-0.96,0.779-1.739,1.739-1.739l0,0c0.96,0,1.739,0.779,1.739,1.739v6.955
					c0,0.96-0.779,1.739-1.739,1.739l0,0c-0.96,0-1.739-0.779-1.739-1.739V57.573z"/>
				<linearGradient id="SVGID_6_" gradientUnits="userSpaceOnUse" x1="49.5319" y1="46.9747" x2="53.0097" y2="46.9747">
					<stop  offset="0.2766" style="stop-color:#828386"/>
					<stop  offset="0.5584" style="stop-color:#ADAFB2"/>
					<stop  offset="0.835" style="stop-color:#828386"/>
				</linearGradient>
				<path style="fill:url(#SVGID_6_);" d="M49.532,43.497c0-0.96,0.779-1.739,1.739-1.739l0,0c0.96,0,1.739,0.779,1.739,1.739v6.955
					c0,0.96-0.779,1.739-1.739,1.739l0,0c-0.96,0-1.739-0.779-1.739-1.739V43.497z"/>
				<linearGradient id="SVGID_7_" gradientUnits="userSpaceOnUse" x1="49.5319" y1="32.8982" x2="53.0097" y2="32.8982">
					<stop  offset="0.2766" style="stop-color:#828386"/>
					<stop  offset="0.5584" style="stop-color:#ADAFB2"/>
					<stop  offset="0.835" style="stop-color:#828386"/>
				</linearGradient>
				<path style="fill:url(#SVGID_7_);" d="M49.532,29.42c0-0.96,0.779-1.739,1.739-1.739l0,0c0.96,0,1.739,0.779,1.739,1.739v6.955
					c0,0.96-0.779,1.739-1.739,1.739l0,0c-0.96,0-1.739-0.779-1.739-1.739V29.42z"/>
			</g>
			<g>
				<path style="fill:#AEADA8;stroke:#666766;stroke-width:0.25;stroke-miterlimit:10;" d="M43.716,64.629
					c-0.009-0.96,0.762-1.746,1.722-1.756l0,0c0.96-0.009,1.746,0.762,1.756,1.722l0.067,6.955c0.009,0.96-0.762,1.746-1.722,1.756
					l0,0c-0.96,0.009-1.746-0.762-1.756-1.722L43.716,64.629z"/>
				<path style="fill:#AEADA8;stroke:#666766;stroke-width:0.25;stroke-miterlimit:10;" d="M43.75,50.535
					c0-0.96,0.779-1.739,1.739-1.739l0,0c0.96,0,1.739,0.779,1.739,1.739v6.955c0,0.96-0.779,1.739-1.739,1.739l0,0
					c-0.96,0-1.739-0.779-1.739-1.739V50.535z"/>
				<path style="fill:#AEADA8;stroke:#666766;stroke-width:0.25;stroke-miterlimit:10;" d="M43.75,36.459
					c0-0.96,0.779-1.739,1.739-1.739l0,0c0.96,0,1.739,0.779,1.739,1.739v6.955c0,0.96-0.779,1.739-1.739,1.739l0,0
					c-0.96,0-1.739-0.779-1.739-1.739V36.459z"/>
				<path style="fill:#AEADA8;stroke:#666766;stroke-width:0.25;stroke-miterlimit:10;" d="M49.532,71.65
					c0-0.96,0.779-1.739,1.739-1.739l0,0c0.96,0,1.739,0.779,1.739,1.739v6.955c0,0.96-0.779,1.739-1.739,1.739l0,0
					c-0.96,0-1.739-0.779-1.739-1.739V71.65z"/>
				<path style="fill:#AEADA8;stroke:#666766;stroke-width:0.25;stroke-miterlimit:10;" d="M49.532,57.573
					c0-0.96,0.779-1.739,1.739-1.739l0,0c0.96,0,1.739,0.779,1.739,1.739v6.955c0,0.96-0.779,1.739-1.739,1.739l0,0
					c-0.96,0-1.739-0.779-1.739-1.739V57.573z"/>
				<path style="fill:#AEADA8;stroke:#666766;stroke-width:0.25;stroke-miterlimit:10;" d="M49.532,43.497
					c0-0.96,0.779-1.739,1.739-1.739l0,0c0.96,0,1.739,0.779,1.739,1.739v6.955c0,0.96-0.779,1.739-1.739,1.739l0,0
					c-0.96,0-1.739-0.779-1.739-1.739V43.497z"/>
				<path style="fill:#AEADA8;stroke:#666766;stroke-width:0.25;stroke-miterlimit:10;" d="M49.532,29.42
					c0-0.96,0.779-1.739,1.739-1.739l0,0c0.96,0,1.739,0.779,1.739,1.739v6.955c0,0.96-0.779,1.739-1.739,1.739l0,0
					c-0.96,0-1.739-0.779-1.739-1.739V29.42z"/>
			</g>
			<path style="fill:none;stroke:#4F4C4B;stroke-width:2;stroke-miterlimit:10;" d="M55.685,21.192c0,0,0.521,0.341,1.157,0.757
				c0.636,0.416,1.157,1.657,1.157,2.757v61.141c0,1.1-0.43,2-0.955,2c-0.526,0-1.254-0.129-1.618-0.286
				c-0.364-0.157-1.563-0.286-2.663-0.286h-8.73c-1.1,0-2.257,0.129-2.572,0.286c-0.315,0.157-1.059,0.286-1.654,0.286
				c-0.595,0-1.828-0.504-2.739-1.12L13.614,70.872c-0.911-0.616-1.657-2.02-1.657-3.12v-46.56"/>
			<polygon style="fill:#B5B4AE;" points="36.984,82.374 13.697,66.813 13.697,52.307 36.984,67.867 			"/>
			<g>
				<polygon style="fill:#A3A19F;" points="36.984,79.371 13.697,63.793 13.697,60.55 36.984,76.127 				"/>
				<g>
					<polygon style="fill:#A3A19F;" points="36.984,72.884 13.697,57.307 13.697,54.063 36.984,69.641 					"/>
				</g>
				<polygon style="fill:#A3A19F;" points="36.984,66.398 13.697,50.82 13.697,47.577 36.985,63.154 				"/>
				<polygon style="fill:#A3A19F;" points="36.985,59.911 13.697,44.334 13.698,41.09 36.985,56.668 				"/>
				<g>
					<polygon style="fill:#A3A19F;" points="36.985,53.425 13.698,37.847 13.698,34.604 36.985,50.181 					"/>
				</g>
				<polygon style="fill:#A3A19F;" points="36.985,46.938 13.698,31.361 13.698,28.117 36.985,43.695 				"/>
				<polygon style="fill:#A3A19F;" points="36.985,40.452 13.698,24.874 13.698,21.631 36.985,37.208 				"/>
				<g>
					<polygon style="fill:#A3A19F;" points="36.985,33.965 17.891,21.192 22.739,21.192 36.985,30.722 					"/>
				</g>
				<polygon style="fill:#A3A19F;" points="36.985,27.479 27.587,21.192 32.436,21.192 36.985,24.235 				"/>
			</g>
			<polyline style="fill:none;stroke:#000000;stroke-width:0.4;stroke-miterlimit:10;" points="13.697,21.192 13.697,67.036 
				36.984,82.614 36.984,24.031 32.838,21.192 			"/>
		</g>
	</g>
</g>
<g id="Layer_1">
</g>
</svg>
