<?xml version="1.0" encoding="iso-8859-1"?>
<!-- Generator: Adobe Illustrator 17.0.0, SVG Export Plug-In . SVG Version: 6.00 Build 0)  -->
<!DOCTYPE svg PUBLIC "-//W3C//DTD SVG 1.1//EN" "http://www.w3.org/Graphics/SVG/1.1/DTD/svg11.dtd">
<svg version="1.1" id="Layer_1" xmlns="http://www.w3.org/2000/svg" xmlns:xlink="http://www.w3.org/1999/xlink" x="0px" y="0px"
	 width="80px" height="120px" viewBox="0 -0.044 80 120" style="enable-background:new 0 -0.044 80 120;" xml:space="preserve">
<g id="Coils_x5F_Heating_x5F_2Way_x5F_Bottom_x5F_2">
	<g>
		<path style="fill:#8F3F4D;" d="M28.054,117.624c0,1.288-1.803,2.332-4.027,2.332S20,118.912,20,117.624v-67.87h8.051v67.87H28.054
			z"/>
		<g>
			<path style="fill:#C4515F;" d="M22.045,49.765h3.965l0.002,69.88c0,0-0.966,0.31-1.985,0.31s-1.982-0.31-1.982-0.31V49.765z"/>
		</g>
	</g>
	<g>
		<path style="fill:#B22B32;" d="M48.054,117.624c0,1.288-1.803,2.332-4.027,2.332S40,118.912,40,117.624v-67.87h8.051v67.87H48.054
			z"/>
		<g>
			<path style="fill:#F16479;" d="M42.045,49.765h3.965l0.002,69.88c0,0-0.966,0.31-1.985,0.31s-1.982-0.309-1.982-0.309V49.765z"/>
		</g>
	</g>
	<g>
		<g>
			<polygon style="fill:#E7E9EA;" points="0,70.047 80,70.068 80,20.031 0,20.01 			"/>
			<g>
				<polyline style="fill:#E7E9EA;" points="80,19.97 0,19.97 0,-0.044 80,-0.044 				"/>
				<polygon style="fill:#6A7276;" points="80,21.555 0,21.548 0,19.923 80,19.923 				"/>
				<g>
					<polyline style="fill:#DDDFE1;" points="80,88.515 0,88.515 0,68.5 80,68.5 					"/>
					<rect y="88.454" style="fill:#6A7276;" width="80" height="1.568"/>
				</g>
			</g>
		</g>
		<line style="fill:none;stroke:#ABAAA9;stroke-width:0.6;stroke-miterlimit:10;" x1="0" y1="68.428" x2="80" y2="68.428"/>
	</g>
	<g>
		
			<line style="fill:none;stroke:#FFFFFF;stroke-width:0.2;stroke-miterlimit:10;" x1="37.218" y1="20.944" x2="39.515" y2="22.458"/>
		<polygon style="fill:#CDCEC6;" points="58,87.867 56.089,87.867 54.764,87.294 42.034,87.294 40.89,87.867 38.726,87.867 
			38.726,22.678 58,22.678 		"/>
		<polygon style="fill:#AEAFA7;" points="11.957,21.163 11.957,69.759 38.725,87.867 38.725,22.678 36.352,21.163 		"/>
		<polygon style="fill:#B4B5B0;" points="36.352,21.163 38.726,22.678 40.799,22.678 42.004,23.205 54.833,23.221 56.158,22.678 
			58,22.678 55.686,21.163 		"/>
		
			<line style="fill:none;stroke:#FFFFFF;stroke-width:0.2;stroke-miterlimit:10;" x1="36.352" y1="21.163" x2="38.648" y2="22.678"/>
		<polyline style="fill:none;stroke:#999999;stroke-width:0.25;stroke-miterlimit:10;" points="38.33,21.163 42.004,23.205 
			42.004,86.873 		"/>
		<polyline style="fill:none;stroke:#DCDBDB;stroke-width:0.25;stroke-miterlimit:10;" points="53.824,21.163 56.158,22.678 
			56.158,87.43 		"/>
		<polyline style="fill:none;stroke:#999999;stroke-width:0.25;stroke-miterlimit:10;" points="51.731,21.163 54.833,23.221 
			54.833,86.903 		"/>
		<polyline style="fill:none;stroke:#DCDBDB;stroke-width:0.25;stroke-miterlimit:10;" points="38.074,21.163 40.799,22.678 
			40.799,87.505 		"/>
		<polygon style="fill:none;stroke:#F7F8F9;stroke-width:0.2;stroke-miterlimit:10;" points="57.845,87.867 55.934,87.867 
			54.609,87.294 41.878,87.294 40.734,87.867 38.648,87.867 38.648,22.678 40.799,22.678 42.004,23.205 54.833,23.221 
			56.158,22.678 57.845,22.678 		"/>
		<g>
			<path style="fill:#9B9A9A;" d="M43.716,64.649c-0.009-0.961,0.762-1.747,1.722-1.757l0,0c0.96-0.009,1.746,0.763,1.756,1.723
				l0.067,6.96c0.009,0.961-0.762,1.747-1.722,1.757l0,0c-0.96,0.009-1.746-0.763-1.756-1.723L43.716,64.649z"/>
			<path style="fill:#9B9A9A;" d="M43.75,50.546c0-0.961,0.779-1.74,1.739-1.74l0,0c0.96,0,1.739,0.78,1.739,1.74v6.96
				c0,0.961-0.779,1.74-1.739,1.74l0,0c-0.96,0-1.739-0.78-1.739-1.74V50.546z"/>
			<path style="fill:#9B9A9A;" d="M43.75,36.459c0-0.961,0.779-1.74,1.739-1.74l0,0c0.96,0,1.739,0.78,1.739,1.74v6.96
				c0,0.961-0.779,1.74-1.739,1.74l0,0c-0.96,0-1.739-0.78-1.739-1.74V36.459z"/>
			<path style="fill:#9B9A9A;" d="M49.532,71.676c0-0.961,0.779-1.74,1.739-1.74l0,0c0.96,0,1.739,0.78,1.739,1.74v6.96
				c0,0.961-0.779,1.74-1.739,1.74l0,0c-0.96,0-1.739-0.78-1.739-1.74V71.676z"/>
			<path style="fill:#9B9A9A;" d="M49.532,57.589c0-0.961,0.779-1.74,1.739-1.74l0,0c0.96,0,1.739,0.78,1.739,1.74v6.96
				c0,0.961-0.779,1.74-1.739,1.74l0,0c-0.96,0-1.739-0.78-1.739-1.74V57.589z"/>
			<path style="fill:#9B9A9A;" d="M49.532,43.502c0-0.961,0.779-1.74,1.739-1.74l0,0c0.96,0,1.739,0.78,1.739,1.74v6.96
				c0,0.961-0.779,1.74-1.739,1.74l0,0c-0.96,0-1.739-0.78-1.739-1.74V43.502z"/>
			<path style="fill:#9B9A9A;" d="M49.532,29.415c0-0.961,0.779-1.74,1.739-1.74l0,0c0.96,0,1.739,0.78,1.739,1.74v6.96
				c0,0.961-0.779,1.74-1.739,1.74l0,0c-0.96,0-1.739-0.78-1.739-1.74V29.415z"/>
		</g>
		<polygon style="fill:#B5B4AE;" points="32.838,21.163 36.984,24.004 36.984,82.631 13.697,67.041 13.697,21.163 		"/>
		<g>
			
				<linearGradient id="SVGID_1_" gradientUnits="userSpaceOnUse" x1="370.2097" y1="-191.478" x2="373.7549" y2="-191.478" gradientTransform="matrix(1 0 0 -1 -326.4938 -123.3825)">
				<stop  offset="0.2766" style="stop-color:#828386"/>
				<stop  offset="0.5584" style="stop-color:#ADAFB2"/>
				<stop  offset="0.835" style="stop-color:#828386"/>
			</linearGradient>
			<path style="fill:url(#SVGID_1_);" d="M43.716,64.632c-0.009-0.961,0.762-1.747,1.722-1.757l0,0
				c0.96-0.009,1.746,0.763,1.756,1.723l0.067,6.96c0.009,0.961-0.762,1.747-1.722,1.757l0,0c-0.96,0.009-1.746-0.763-1.756-1.723
				L43.716,64.632z"/>
			
				<linearGradient id="SVGID_2_" gradientUnits="userSpaceOnUse" x1="370.2438" y1="-177.3906" x2="373.7218" y2="-177.3906" gradientTransform="matrix(1 0 0 -1 -326.4938 -123.3825)">
				<stop  offset="0.2766" style="stop-color:#828386"/>
				<stop  offset="0.5584" style="stop-color:#ADAFB2"/>
				<stop  offset="0.835" style="stop-color:#828386"/>
			</linearGradient>
			<path style="fill:url(#SVGID_2_);" d="M43.75,50.528c0-0.961,0.779-1.74,1.739-1.74l0,0c0.96,0,1.739,0.78,1.739,1.74v6.96
				c0,0.961-0.779,1.74-1.739,1.74l0,0c-0.96,0-1.739-0.78-1.739-1.74V50.528z"/>
			
				<linearGradient id="SVGID_3_" gradientUnits="userSpaceOnUse" x1="370.2438" y1="-163.3042" x2="373.7218" y2="-163.3042" gradientTransform="matrix(1 0 0 -1 -326.4938 -123.3825)">
				<stop  offset="0.2766" style="stop-color:#828386"/>
				<stop  offset="0.5584" style="stop-color:#ADAFB2"/>
				<stop  offset="0.835" style="stop-color:#828386"/>
			</linearGradient>
			<path style="fill:url(#SVGID_3_);" d="M43.75,36.442c0-0.961,0.779-1.74,1.739-1.74l0,0c0.96,0,1.739,0.78,1.739,1.74v6.96
				c0,0.961-0.779,1.74-1.739,1.74l0,0c-0.96,0-1.739-0.78-1.739-1.74V36.442z"/>
			
				<linearGradient id="SVGID_4_" gradientUnits="userSpaceOnUse" x1="376.0258" y1="-198.5213" x2="379.5038" y2="-198.5213" gradientTransform="matrix(1 0 0 -1 -326.4938 -123.3825)">
				<stop  offset="0.2766" style="stop-color:#828386"/>
				<stop  offset="0.5584" style="stop-color:#ADAFB2"/>
				<stop  offset="0.835" style="stop-color:#828386"/>
			</linearGradient>
			<path style="fill:url(#SVGID_4_);" d="M49.532,71.659c0-0.961,0.779-1.74,1.739-1.74l0,0c0.96,0,1.739,0.78,1.739,1.74v6.96
				c0,0.961-0.779,1.74-1.739,1.74l0,0c-0.96,0-1.739-0.78-1.739-1.74V71.659z"/>
			
				<linearGradient id="SVGID_5_" gradientUnits="userSpaceOnUse" x1="376.0258" y1="-184.4338" x2="379.5038" y2="-184.4338" gradientTransform="matrix(1 0 0 -1 -326.4938 -123.3825)">
				<stop  offset="0.2766" style="stop-color:#828386"/>
				<stop  offset="0.5584" style="stop-color:#ADAFB2"/>
				<stop  offset="0.835" style="stop-color:#828386"/>
			</linearGradient>
			<path style="fill:url(#SVGID_5_);" d="M49.532,57.571c0-0.961,0.779-1.74,1.739-1.74l0,0c0.96,0,1.739,0.78,1.739,1.74v6.96
				c0,0.961-0.779,1.74-1.739,1.74l0,0c-0.96,0-1.739-0.78-1.739-1.74V57.571z"/>
			
				<linearGradient id="SVGID_6_" gradientUnits="userSpaceOnUse" x1="376.0258" y1="-170.3474" x2="379.5038" y2="-170.3474" gradientTransform="matrix(1 0 0 -1 -326.4938 -123.3825)">
				<stop  offset="0.2766" style="stop-color:#828386"/>
				<stop  offset="0.5584" style="stop-color:#ADAFB2"/>
				<stop  offset="0.835" style="stop-color:#828386"/>
			</linearGradient>
			<path style="fill:url(#SVGID_6_);" d="M49.532,43.485c0-0.961,0.779-1.74,1.739-1.74l0,0c0.96,0,1.739,0.78,1.739,1.74v6.96
				c0,0.961-0.779,1.74-1.739,1.74l0,0c-0.96,0-1.739-0.78-1.739-1.74V43.485z"/>
			
				<linearGradient id="SVGID_7_" gradientUnits="userSpaceOnUse" x1="376.0258" y1="-156.2599" x2="379.5038" y2="-156.2599" gradientTransform="matrix(1 0 0 -1 -326.4938 -123.3825)">
				<stop  offset="0.2766" style="stop-color:#828386"/>
				<stop  offset="0.5584" style="stop-color:#ADAFB2"/>
				<stop  offset="0.835" style="stop-color:#828386"/>
			</linearGradient>
			<path style="fill:url(#SVGID_7_);" d="M49.532,29.397c0-0.961,0.779-1.74,1.739-1.74l0,0c0.96,0,1.739,0.78,1.739,1.74v6.96
				c0,0.961-0.779,1.74-1.739,1.74l0,0c-0.96,0-1.739-0.78-1.739-1.74V29.397z"/>
		</g>
		<g>
			<path style="fill:#AEADA8;stroke:#666766;stroke-width:0.25;stroke-miterlimit:10;" d="M43.716,64.632
				c-0.009-0.961,0.762-1.747,1.722-1.757l0,0c0.96-0.009,1.746,0.763,1.756,1.723l0.067,6.96c0.009,0.961-0.762,1.747-1.722,1.757
				l0,0c-0.96,0.009-1.746-0.763-1.756-1.723L43.716,64.632z"/>
			<path style="fill:#AEADA8;stroke:#666766;stroke-width:0.25;stroke-miterlimit:10;" d="M43.75,50.528
				c0-0.961,0.779-1.74,1.739-1.74l0,0c0.96,0,1.739,0.78,1.739,1.74v6.96c0,0.961-0.779,1.74-1.739,1.74l0,0
				c-0.96,0-1.739-0.78-1.739-1.74V50.528z"/>
			<path style="fill:#AEADA8;stroke:#666766;stroke-width:0.25;stroke-miterlimit:10;" d="M43.75,36.442
				c0-0.961,0.779-1.74,1.739-1.74l0,0c0.96,0,1.739,0.78,1.739,1.74v6.96c0,0.961-0.779,1.74-1.739,1.74l0,0
				c-0.96,0-1.739-0.78-1.739-1.74V36.442z"/>
			<path style="fill:#AEADA8;stroke:#666766;stroke-width:0.25;stroke-miterlimit:10;" d="M49.532,71.659
				c0-0.961,0.779-1.74,1.739-1.74l0,0c0.96,0,1.739,0.78,1.739,1.74v6.96c0,0.961-0.779,1.74-1.739,1.74l0,0
				c-0.96,0-1.739-0.78-1.739-1.74V71.659z"/>
			<path style="fill:#AEADA8;stroke:#666766;stroke-width:0.25;stroke-miterlimit:10;" d="M49.532,57.571
				c0-0.961,0.779-1.74,1.739-1.74l0,0c0.96,0,1.739,0.78,1.739,1.74v6.96c0,0.961-0.779,1.74-1.739,1.74l0,0
				c-0.96,0-1.739-0.78-1.739-1.74V57.571z"/>
			<path style="fill:#AEADA8;stroke:#666766;stroke-width:0.25;stroke-miterlimit:10;" d="M49.532,43.485
				c0-0.961,0.779-1.74,1.739-1.74l0,0c0.96,0,1.739,0.78,1.739,1.74v6.96c0,0.961-0.779,1.74-1.739,1.74l0,0
				c-0.96,0-1.739-0.78-1.739-1.74V43.485z"/>
			<path style="fill:#AEADA8;stroke:#666766;stroke-width:0.25;stroke-miterlimit:10;" d="M49.532,29.397
				c0-0.961,0.779-1.74,1.739-1.74l0,0c0.96,0,1.739,0.78,1.739,1.74v6.96c0,0.961-0.779,1.74-1.739,1.74l0,0
				c-0.96,0-1.739-0.78-1.739-1.74V29.397z"/>
		</g>
		<path style="fill:none;stroke:#4F4C4B;stroke-width:2;stroke-miterlimit:10;" d="M55.685,21.163c0,0,0.521,0.341,1.157,0.758
			s1.157,1.658,1.157,2.759v61.186c0,1.101-0.43,2.001-0.955,2.001s-1.254-0.129-1.618-0.286c-0.364-0.157-1.563-0.286-2.663-0.286
			h-8.73c-1.1,0-2.257,0.129-2.572,0.286s-1.059,0.286-1.654,0.286s-1.828-0.504-2.739-1.121L13.614,70.88
			c-0.911-0.616-1.657-2.021-1.657-3.122V21.163"/>
		<polygon style="fill:#F16479;" points="36.984,82.391 13.697,66.818 13.697,52.301 36.984,67.873 		"/>
		<polygon style="fill:#F16479;" points="36.984,67.873 13.697,52.301 13.697,37.784 36.984,53.355 		"/>
		<g>
			<polygon style="fill:#C4515F;" points="36.984,79.385 13.697,63.796 13.697,60.55 36.984,76.139 			"/>
			<g>
				<polygon style="fill:#C4515F;" points="36.984,72.894 13.697,57.305 13.697,54.059 36.984,69.648 				"/>
			</g>
			<polygon style="fill:#C4515F;" points="36.984,66.403 13.697,50.813 13.697,47.568 36.985,63.156 			"/>
			<polygon style="fill:#C4515F;" points="36.985,59.911 13.697,44.322 13.698,41.076 36.985,56.666 			"/>
			<g>
				<polygon style="fill:#A3A19F;" points="36.985,53.42 13.698,37.831 13.698,34.585 36.985,50.174 				"/>
			</g>
			<polygon style="fill:#A3A19F;" points="36.985,46.928 13.698,31.34 13.698,28.093 36.985,43.683 			"/>
			<polygon style="fill:#A3A19F;" points="36.985,40.438 13.698,24.848 13.698,21.603 36.985,37.191 			"/>
			<g>
				<polygon style="fill:#A3A19F;" points="36.985,33.946 17.891,21.163 22.739,21.163 36.985,30.7 				"/>
			</g>
			<polygon style="fill:#A3A19F;" points="36.985,27.455 27.587,21.163 32.436,21.163 36.985,24.208 			"/>
		</g>
		<polyline style="fill:none;stroke:#000000;stroke-width:0.4;stroke-miterlimit:10;" points="13.697,21.163 13.697,67.041 
			36.984,82.631 36.984,24.004 32.838,21.163 		"/>
	</g>
</g>
<g id="Layer_1_1_">
</g>
<g id="Layer_1_2_">
</g>
</svg>
