<?xml version="1.0" encoding="iso-8859-1"?>
<!-- Generator: Adobe Illustrator 17.0.0, SVG Export Plug-In . SVG Version: 6.00 Build 0)  -->
<!DOCTYPE svg PUBLIC "-//W3C//DTD SVG 1.1//EN" "http://www.w3.org/Graphics/SVG/1.1/DTD/svg11.dtd">
<svg version="1.1" id="Layer_1" xmlns="http://www.w3.org/2000/svg" xmlns:xlink="http://www.w3.org/1999/xlink" x="0px" y="0px"
	 width="80px" height="119.767px" viewBox="0 0 80 119.767" style="enable-background:new 0 0 80 119.767;" xml:space="preserve">
<g id="Coils_x5F_Heating_x5F_2Way_x5F_Bottom_x5F_4">
	<g>
		<path style="fill:#8F3F4D;" d="M28.054,117.549c0,1.29-1.803,2.335-4.027,2.335S20,118.838,20,117.549V48.335h8.051v69.214H28.054
			z"/>
		<g>
			<path style="fill:#C4515F;" d="M22.045,48.347h3.965l0.002,71.226c0,0-0.966,0.311-1.985,0.311s-1.982-0.311-1.982-0.311V48.347z
				"/>
		</g>
	</g>
	<g>
		<path style="fill:#B22B32;" d="M48.054,117.549c0,1.29-1.803,2.335-4.027,2.335S40,118.838,40,117.549V48.335h8.051v69.214H48.054
			z"/>
		<g>
			<path style="fill:#F16479;" d="M42.045,48.347h3.965l0.002,71.226c0,0-0.966,0.311-1.985,0.311s-1.982-0.31-1.982-0.31V48.347z"
				/>
		</g>
	</g>
	<g>
		<g>
			<polygon style="fill:#E7E9EA;" points="0,70.06 80,70.081 80,19.984 0,19.962 			"/>
			<g>
				<polyline style="fill:#E7E9EA;" points="80,19.922 0,19.922 0,-0.117 80,-0.117 				"/>
				<polygon style="fill:#6A7276;" points="80,21.508 0,21.501 0,19.875 80,19.875 				"/>
				<g>
					<polyline style="fill:#DDDFE1;" points="80,88.55 0,88.55 0,68.511 80,68.511 					"/>
					<rect y="88.489" style="fill:#6A7276;" width="80" height="1.57"/>
				</g>
			</g>
		</g>
		<line style="fill:none;stroke:#ABAAA9;stroke-width:0.6;stroke-miterlimit:10;" x1="0" y1="68.439" x2="80" y2="68.439"/>
	</g>
	<g>
		
			<line style="fill:none;stroke:#FFFFFF;stroke-width:0.2;stroke-miterlimit:10;" x1="37.262" y1="20.897" x2="39.558" y2="22.413"/>
		<polygon style="fill:#CDCEC6;" points="58.043,87.9 56.132,87.9 54.807,87.327 42.077,87.327 40.933,87.9 38.769,87.9 
			38.769,22.634 58.043,22.634 		"/>
		<polygon style="fill:#AEAFA7;" points="12,21.117 12,69.771 38.768,87.9 38.768,22.634 36.395,21.117 		"/>
		<polygon style="fill:#B4B5B0;" points="36.395,21.117 38.769,22.634 40.842,22.634 42.047,23.161 54.876,23.177 56.202,22.634 
			58.043,22.634 55.73,21.117 		"/>
		
			<line style="fill:none;stroke:#FFFFFF;stroke-width:0.2;stroke-miterlimit:10;" x1="36.395" y1="21.117" x2="38.692" y2="22.634"/>
		<polyline style="fill:none;stroke:#999999;stroke-width:0.25;stroke-miterlimit:10;" points="38.373,21.117 42.047,23.161 
			42.047,86.905 		"/>
		<polyline style="fill:none;stroke:#DCDBDB;stroke-width:0.25;stroke-miterlimit:10;" points="53.868,21.117 56.202,22.634 
			56.202,87.464 		"/>
		<polyline style="fill:none;stroke:#999999;stroke-width:0.25;stroke-miterlimit:10;" points="51.775,21.117 54.876,23.177 
			54.876,86.936 		"/>
		<polyline style="fill:none;stroke:#DCDBDB;stroke-width:0.25;stroke-miterlimit:10;" points="38.117,21.117 40.842,22.634 
			40.842,87.539 		"/>
		<polygon style="fill:none;stroke:#F7F8F9;stroke-width:0.2;stroke-miterlimit:10;" points="57.888,87.9 55.977,87.9 
			54.652,87.327 41.922,87.327 40.778,87.9 38.692,87.9 38.692,22.634 40.843,22.634 42.047,23.161 54.876,23.177 56.201,22.634 
			57.888,22.634 		"/>
		<g>
			<path style="fill:#9B9A9A;" d="M43.76,64.655c-0.009-0.962,0.762-1.749,1.722-1.759l0,0c0.96-0.009,1.746,0.763,1.756,1.725
				l0.067,6.969c0.009,0.962-0.762,1.749-1.722,1.759l0,0c-0.96,0.009-1.746-0.763-1.756-1.725L43.76,64.655z"/>
			<path style="fill:#9B9A9A;" d="M43.793,50.535c0-0.962,0.779-1.742,1.739-1.742l0,0c0.96,0,1.739,0.781,1.739,1.742v6.969
				c0,0.962-0.779,1.742-1.739,1.742l0,0c-0.96,0-1.739-0.781-1.739-1.742V50.535z"/>
			<path style="fill:#9B9A9A;" d="M43.793,36.43c0-0.962,0.779-1.742,1.739-1.742l0,0c0.96,0,1.739,0.781,1.739,1.742v6.969
				c0,0.962-0.779,1.742-1.739,1.742l0,0c-0.96,0-1.739-0.781-1.739-1.742V36.43z"/>
			<path style="fill:#9B9A9A;" d="M49.575,71.69c0-0.962,0.779-1.742,1.739-1.742l0,0c0.96,0,1.739,0.781,1.739,1.742v6.969
				c0,0.962-0.779,1.742-1.739,1.742l0,0c-0.96,0-1.739-0.781-1.739-1.742V71.69z"/>
			<path style="fill:#9B9A9A;" d="M49.575,57.587c0-0.962,0.779-1.742,1.739-1.742l0,0c0.96,0,1.739,0.781,1.739,1.742v6.969
				c0,0.962-0.779,1.742-1.739,1.742l0,0c-0.96,0-1.739-0.781-1.739-1.742V57.587z"/>
			<path style="fill:#9B9A9A;" d="M49.575,43.482c0-0.962,0.779-1.742,1.739-1.742l0,0c0.96,0,1.739,0.781,1.739,1.742v6.969
				c0,0.962-0.779,1.742-1.739,1.742l0,0c-0.96,0-1.739-0.781-1.739-1.742V43.482z"/>
			<path style="fill:#9B9A9A;" d="M49.575,29.379c0-0.962,0.779-1.742,1.739-1.742l0,0c0.96,0,1.739,0.781,1.739,1.742v6.969
				c0,0.962-0.779,1.742-1.739,1.742l0,0c-0.96,0-1.739-0.781-1.739-1.742V29.379z"/>
		</g>
		<polygon style="fill:#B5B4AE;" points="32.882,21.117 37.028,23.961 37.028,82.658 13.74,67.05 13.74,21.117 		"/>
		<g>
			
				<linearGradient id="SVGID_1_" gradientUnits="userSpaceOnUse" x1="370.2538" y1="-192.892" x2="373.7989" y2="-192.892" gradientTransform="matrix(1 0 0 -1 -326.4938 -124.7865)">
				<stop  offset="0.2766" style="stop-color:#828386"/>
				<stop  offset="0.5584" style="stop-color:#ADAFB2"/>
				<stop  offset="0.835" style="stop-color:#828386"/>
			</linearGradient>
			<path style="fill:url(#SVGID_1_);" d="M43.76,64.638c-0.009-0.962,0.762-1.749,1.722-1.759l0,0
				c0.96-0.009,1.746,0.763,1.756,1.725l0.067,6.969c0.009,0.962-0.762,1.749-1.722,1.759l0,0c-0.96,0.009-1.746-0.763-1.756-1.725
				L43.76,64.638z"/>
			
				<linearGradient id="SVGID_2_" gradientUnits="userSpaceOnUse" x1="370.2868" y1="-178.7876" x2="373.7648" y2="-178.7876" gradientTransform="matrix(1 0 0 -1 -326.4938 -124.7865)">
				<stop  offset="0.2766" style="stop-color:#828386"/>
				<stop  offset="0.5584" style="stop-color:#ADAFB2"/>
				<stop  offset="0.835" style="stop-color:#828386"/>
			</linearGradient>
			<path style="fill:url(#SVGID_2_);" d="M43.793,50.517c0-0.962,0.779-1.742,1.739-1.742l0,0c0.96,0,1.739,0.781,1.739,1.742v6.969
				c0,0.962-0.779,1.742-1.739,1.742l0,0c-0.96,0-1.739-0.781-1.739-1.742V50.517z"/>
			
				<linearGradient id="SVGID_3_" gradientUnits="userSpaceOnUse" x1="370.2868" y1="-164.6842" x2="373.7648" y2="-164.6842" gradientTransform="matrix(1 0 0 -1 -326.4938 -124.7865)">
				<stop  offset="0.2766" style="stop-color:#828386"/>
				<stop  offset="0.5584" style="stop-color:#ADAFB2"/>
				<stop  offset="0.835" style="stop-color:#828386"/>
			</linearGradient>
			<path style="fill:url(#SVGID_3_);" d="M43.793,36.413c0-0.962,0.779-1.742,1.739-1.742l0,0c0.96,0,1.739,0.781,1.739,1.742v6.969
				c0,0.962-0.779,1.742-1.739,1.742l0,0c-0.96,0-1.739-0.781-1.739-1.742V36.413z"/>
			
				<linearGradient id="SVGID_4_" gradientUnits="userSpaceOnUse" x1="376.0688" y1="-199.9437" x2="379.5468" y2="-199.9437" gradientTransform="matrix(1 0 0 -1 -326.4938 -124.7865)">
				<stop  offset="0.2766" style="stop-color:#828386"/>
				<stop  offset="0.5584" style="stop-color:#ADAFB2"/>
				<stop  offset="0.835" style="stop-color:#828386"/>
			</linearGradient>
			<path style="fill:url(#SVGID_4_);" d="M49.575,71.673c0-0.962,0.779-1.742,1.739-1.742l0,0c0.96,0,1.739,0.781,1.739,1.742v6.969
				c0,0.962-0.779,1.742-1.739,1.742l0,0c-0.96,0-1.739-0.781-1.739-1.742V71.673z"/>
			
				<linearGradient id="SVGID_5_" gradientUnits="userSpaceOnUse" x1="376.0688" y1="-185.8393" x2="379.5468" y2="-185.8393" gradientTransform="matrix(1 0 0 -1 -326.4938 -124.7865)">
				<stop  offset="0.2766" style="stop-color:#828386"/>
				<stop  offset="0.5584" style="stop-color:#ADAFB2"/>
				<stop  offset="0.835" style="stop-color:#828386"/>
			</linearGradient>
			<path style="fill:url(#SVGID_5_);" d="M49.575,57.569c0-0.962,0.779-1.742,1.739-1.742l0,0c0.96,0,1.739,0.781,1.739,1.742v6.969
				c0,0.962-0.779,1.742-1.739,1.742l0,0c-0.96,0-1.739-0.781-1.739-1.742V57.569z"/>
			
				<linearGradient id="SVGID_6_" gradientUnits="userSpaceOnUse" x1="376.0688" y1="-171.7359" x2="379.5468" y2="-171.7359" gradientTransform="matrix(1 0 0 -1 -326.4938 -124.7865)">
				<stop  offset="0.2766" style="stop-color:#828386"/>
				<stop  offset="0.5584" style="stop-color:#ADAFB2"/>
				<stop  offset="0.835" style="stop-color:#828386"/>
			</linearGradient>
			<path style="fill:url(#SVGID_6_);" d="M49.575,43.465c0-0.962,0.779-1.742,1.739-1.742l0,0c0.96,0,1.739,0.781,1.739,1.742v6.969
				c0,0.962-0.779,1.742-1.739,1.742l0,0c-0.96,0-1.739-0.781-1.739-1.742V43.465z"/>
			
				<linearGradient id="SVGID_7_" gradientUnits="userSpaceOnUse" x1="376.0688" y1="-157.6315" x2="379.5468" y2="-157.6315" gradientTransform="matrix(1 0 0 -1 -326.4938 -124.7865)">
				<stop  offset="0.2766" style="stop-color:#828386"/>
				<stop  offset="0.5584" style="stop-color:#ADAFB2"/>
				<stop  offset="0.835" style="stop-color:#828386"/>
			</linearGradient>
			<path style="fill:url(#SVGID_7_);" d="M49.575,29.361c0-0.962,0.779-1.742,1.739-1.742l0,0c0.96,0,1.739,0.781,1.739,1.742v6.969
				c0,0.962-0.779,1.742-1.739,1.742l0,0c-0.96,0-1.739-0.781-1.739-1.742V29.361z"/>
		</g>
		<g>
			<path style="fill:#AEADA8;stroke:#666766;stroke-width:0.25;stroke-miterlimit:10;" d="M43.76,64.638
				c-0.009-0.962,0.762-1.749,1.722-1.759l0,0c0.96-0.009,1.746,0.763,1.756,1.725l0.067,6.969c0.009,0.962-0.762,1.749-1.722,1.759
				l0,0c-0.96,0.009-1.746-0.763-1.756-1.725L43.76,64.638z"/>
			<path style="fill:#AEADA8;stroke:#666766;stroke-width:0.25;stroke-miterlimit:10;" d="M43.793,50.517
				c0-0.962,0.779-1.742,1.739-1.742l0,0c0.96,0,1.739,0.781,1.739,1.742v6.969c0,0.962-0.779,1.742-1.739,1.742l0,0
				c-0.96,0-1.739-0.781-1.739-1.742V50.517z"/>
			<path style="fill:#AEADA8;stroke:#666766;stroke-width:0.25;stroke-miterlimit:10;" d="M43.793,36.413
				c0-0.962,0.779-1.742,1.739-1.742l0,0c0.96,0,1.739,0.781,1.739,1.742v6.969c0,0.962-0.779,1.742-1.739,1.742l0,0
				c-0.96,0-1.739-0.781-1.739-1.742V36.413z"/>
			<path style="fill:#AEADA8;stroke:#666766;stroke-width:0.25;stroke-miterlimit:10;" d="M49.575,71.673
				c0-0.962,0.779-1.742,1.739-1.742l0,0c0.96,0,1.739,0.781,1.739,1.742v6.969c0,0.962-0.779,1.742-1.739,1.742l0,0
				c-0.96,0-1.739-0.781-1.739-1.742V71.673z"/>
			<path style="fill:#AEADA8;stroke:#666766;stroke-width:0.25;stroke-miterlimit:10;" d="M49.575,57.569
				c0-0.962,0.779-1.742,1.739-1.742l0,0c0.96,0,1.739,0.781,1.739,1.742v6.969c0,0.962-0.779,1.742-1.739,1.742l0,0
				c-0.96,0-1.739-0.781-1.739-1.742V57.569z"/>
			<path style="fill:#AEADA8;stroke:#666766;stroke-width:0.25;stroke-miterlimit:10;" d="M49.575,43.465
				c0-0.962,0.779-1.742,1.739-1.742l0,0c0.96,0,1.739,0.781,1.739,1.742v6.969c0,0.962-0.779,1.742-1.739,1.742l0,0
				c-0.96,0-1.739-0.781-1.739-1.742V43.465z"/>
			<path style="fill:#AEADA8;stroke:#666766;stroke-width:0.25;stroke-miterlimit:10;" d="M49.575,29.362
				c0-0.962,0.779-1.742,1.739-1.742l0,0c0.96,0,1.739,0.781,1.739,1.742v6.969c0,0.962-0.779,1.742-1.739,1.742l0,0
				c-0.96,0-1.739-0.781-1.739-1.742V29.362z"/>
		</g>
		<path style="fill:none;stroke:#4F4C4B;stroke-width:2;stroke-miterlimit:10;" d="M55.729,21.117c0,0,0.521,0.342,1.157,0.758
			c0.636,0.417,1.157,1.66,1.157,2.762v61.26c0,1.102-0.43,2.004-0.955,2.004c-0.526,0-1.254-0.129-1.618-0.287
			c-0.364-0.157-1.563-0.287-2.663-0.287h-8.73c-1.1,0-2.257,0.129-2.572,0.287c-0.315,0.157-1.059,0.287-1.654,0.287
			c-0.595,0-1.828-0.505-2.739-1.122L13.657,70.893C12.746,70.276,12,68.869,12,67.767V21.117"/>
		<polygon style="fill:#F16479;" points="37.028,82.418 13.741,66.826 13.741,52.292 37.028,67.883 		"/>
		<polygon style="fill:#F16479;" points="37.028,67.883 13.741,52.292 13.741,37.757 37.028,53.347 		"/>
		<polygon style="fill:#F16479;" points="37.028,53.412 13.741,37.821 13.741,23.286 37.028,38.877 		"/>
		<polygon style="fill:#F16479;" points="37.028,38.877 13.741,23.286 13.741,21.118 32.396,21.241 37.028,24.342 		"/>
		<g>
			<polygon style="fill:#C4515F;" points="37.028,79.409 13.741,63.801 13.741,60.551 37.028,76.159 			"/>
			<g>
				<polygon style="fill:#C4515F;" points="37.028,72.909 13.741,57.302 13.741,54.052 37.028,69.66 				"/>
			</g>
			<polygon style="fill:#C4515F;" points="37.028,66.411 13.741,50.802 13.741,47.553 37.028,63.16 			"/>
			<polygon style="fill:#C4515F;" points="37.028,59.911 13.741,44.304 13.741,41.053 37.028,56.662 			"/>
			<g>
				<polygon style="fill:#C4515F;" points="37.028,53.412 13.741,37.804 13.741,34.555 37.028,50.162 				"/>
			</g>
			<polygon style="fill:#C4515F;" points="37.028,46.913 13.741,31.306 13.741,28.055 37.028,43.664 			"/>
			<polygon style="fill:#C4515F;" points="37.028,40.414 13.741,24.806 13.741,21.557 37.028,37.164 			"/>
			<g>
				<polygon style="fill:#C4515F;" points="37.028,33.915 17.934,21.117 22.782,21.117 37.029,30.665 				"/>
			</g>
			<polygon style="fill:#C4515F;" points="37.029,27.416 27.631,21.117 32.479,21.117 37.029,24.166 			"/>
		</g>
		<polyline style="fill:none;stroke:#000000;stroke-width:0.4;stroke-miterlimit:10;" points="13.74,21.117 13.74,67.05 
			37.028,82.658 37.028,23.961 32.882,21.117 		"/>
	</g>
</g>
<g id="Layer_1_1_">
</g>
</svg>
