<?xml version="1.0" encoding="iso-8859-1"?>
<!-- Generator: Adobe Illustrator 17.0.0, SVG Export Plug-In . SVG Version: 6.00 Build 0)  -->
<!DOCTYPE svg PUBLIC "-//W3C//DTD SVG 1.1//EN" "http://www.w3.org/Graphics/SVG/1.1/DTD/svg11.dtd">
<svg version="1.1" id="Layer_1" xmlns="http://www.w3.org/2000/svg" xmlns:xlink="http://www.w3.org/1999/xlink" x="0px" y="0px"
	 width="24.75px" height="23.5px" viewBox="0 0 24.75 23.5" style="enable-background:new 0 0 24.75 23.5;" xml:space="preserve">
<g id="sensor_x5F_watermtr_x5F_horz">
	<g>
		<g>
			<g>
				<g>
					<rect x="4.25" y="3" style="fill:#B2B2A6;" width="20" height="20"/>
					<g>
						<polygon style="fill:#ABAB9C;" points="0.5,0.5 20.5,0.5 24.25,3 4.25,3 						"/>
					</g>
					<polygon style="fill:#8C8C80;" points="4.25,3 4.25,23 0.5,20.5 0.5,0.5 					"/>
					<g>
						<path style="fill:none;stroke:#E0E0DC;stroke-width:0.75;stroke-miterlimit:10;" d="M24.25,22c0,0.55-0.45,1-1,1h-18
							c-0.55,0-1-0.45-1-1V4c0-0.55,0.45-1,1-1h18c0.55,0,1,0.45,1,1V22z"/>
						<line style="fill:none;stroke:#E0E0DC;stroke-width:0.75;stroke-miterlimit:10;" x1="4.25" y1="3.176" x2="0.5" y2="0.5"/>
					</g>
					<path style="fill:none;stroke:#4C4C4D;stroke-miterlimit:10;" d="M1.332,21.055C0.874,20.75,0.5,20.05,0.5,19.5v-18
						c0-0.55,0.45-1,1-1h18c0.55,0,1.374,0.25,1.832,0.555l2.086,1.391C23.876,2.75,24.25,3.45,24.25,4v18c0,0.55-0.45,1-1,1h-18
						c-0.55,0-1.374-0.25-1.832-0.555L1.332,21.055z"/>
				</g>
			</g>
		</g>
		<g>
			<g>
				<g>
					<path style="fill:#5590CC;stroke:#5590CC;stroke-width:0.8;stroke-miterlimit:10;" d="M19.155,10.53"/>
					<path style="fill:#5590CC;stroke:#5590CC;stroke-width:0.8;stroke-miterlimit:10;" d="M7.677,10.53"/>
				</g>
			</g>
			<circle style="fill:#B2B2A6;" cx="13.826" cy="12.725" r="7.478"/>
			<g>
				<line style="fill:none;stroke:#FFFFFF;stroke-miterlimit:10;" x1="19.058" y1="12.632" x2="21.435" y2="12.632"/>
				<line style="fill:none;stroke:#FFFFFF;stroke-miterlimit:10;" x1="6.358" y1="12.632" x2="8.735" y2="12.632"/>
				<line style="fill:none;stroke:#FFFFFF;stroke-miterlimit:10;" x1="13.906" y1="7.596" x2="13.906" y2="5.219"/>
			</g>
			<circle style="fill:none;stroke:#FFFFFF;stroke-width:0.75;stroke-miterlimit:10;" cx="13.826" cy="12.725" r="7.478"/>
		</g>
	</g>
</g>
<g id="Layer_1_1_">
</g>
<g>
	<g>
		<g>
			<path style="fill:#FFFFFF;" d="M13.826,18.667c-2.064,0-3.737-1.674-3.737-3.737s2.522-5.105,3.737-6.682
				c1.292,1.693,3.737,4.618,3.737,6.682S15.89,18.667,13.826,18.667z"/>
		</g>
	</g>
</g>
</svg>
