<?xml version="1.0"?>
<svg xmlns="http://www.w3.org/2000/svg" height="512px" viewBox="0 -17 512.00003 512" width="512px" class=""><g><path d="m59.734375 59.734375h17.066406c4.710938 0 8.53125-3.820313 8.53125-8.535156 0-4.710938-3.820312-8.53125-8.53125-8.53125h-17.066406c-4.714844 0-8.535156 3.820312-8.535156 8.53125 0 4.714843 3.820312 8.535156 8.535156 8.535156zm0 0" data-original="#000000" class="active-path" data-old_color="#000000" fill="#FFFFFF"/><path d="m110.933594 59.734375h17.066406c4.710938 0 8.535156-3.820313 8.535156-8.535156 0-4.710938-3.824218-8.53125-8.535156-8.53125h-17.066406c-4.714844 0-8.535156 3.820312-8.535156 8.53125 0 4.714843 3.820312 8.535156 8.535156 8.535156zm0 0" data-original="#000000" class="active-path" data-old_color="#000000" fill="#FFFFFF"/><path d="m162.132812 59.734375h34.132813c4.714844 0 8.535156-3.820313 8.535156-8.535156 0-4.710938-3.820312-8.53125-8.535156-8.53125h-34.132813c-4.710937 0-8.53125 3.820312-8.53125 8.53125 0 4.714843 3.820313 8.535156 8.53125 8.535156zm0 0" data-original="#000000" class="active-path" data-old_color="#000000" fill="#FFFFFF"/><path d="m230.398438 59.734375h187.734374c4.714844 0 8.535157-3.820313 8.535157-8.535156 0-4.710938-3.820313-8.53125-8.535157-8.53125h-187.734374c-4.710938 0-8.53125 3.820312-8.53125 8.53125 0 4.714843 3.820312 8.535156 8.53125 8.535156zm0 0" data-original="#000000" class="active-path" data-old_color="#000000" fill="#FFFFFF"/><path d="m486.398438 170.667969h-17.066407v-128c-.027343-23.554688-19.113281-42.6406252-42.664062-42.667969h-384c-23.554688.0273438-42.6406252 19.113281-42.667969 42.667969v315.730469c.0273438 23.554687 19.113281 42.640624 42.667969 42.667968h162.132812v51.199219c0 14.140625 11.460938 25.601563 25.597657 25.601563h256c14.140624 0 25.601562-11.460938 25.601562-25.601563v-256c0-14.136719-11.460938-25.597656-25.601562-25.597656zm-443.730469 213.332031c-14.140625 0-25.601563-11.460938-25.601563-25.601562v-315.730469c0-14.140625 11.460938-25.601563 25.601563-25.601563h384c14.136719 0 25.597656 11.460938 25.597656 25.601563v128h-25.597656v-68.269531c0-9.425782-7.640625-17.066407-17.066407-17.066407h-349.867187c-9.207031-.195312-16.839844 7.09375-17.066406 16.300781v240.46875c.226562 9.207032 7.859375 16.492188 17.066406 16.296876h145.066406v25.601562zm187.730469-213.332031c-10.808594.042969-20.425782 6.875-24.027344 17.066406h-69.835938v-34.132813h273.066406v17.066407zm-170.664063 170.597656v-34.066406h59.730469v34.132812zm349.867187-238.867187v34.136718h-273.066406v-34.136718zm-290.136718 34.136718h-59.730469v-34.136718h59.730469zm-59.730469 119.464844h59.730469v34.132812h-59.730469zm76.800781 0h68.265625v34.132812h-68.265625zm68.265625-17.066406h-68.265625v-34.132813h68.265625zm-85.335937 0h-59.730469v-34.132813h59.730469zm-59.730469-51.199219v-34.132813h59.730469v34.132813zm76.800781 119.464844h68.265625v34.132812h-68.265625zm358.398438 145.066406c0 4.714844-3.820313 8.535156-8.535156 8.535156h-256c-4.710938 0-8.53125-3.820312-8.53125-8.535156v-256c0-4.710937 3.820312-8.53125 8.53125-8.53125h256c4.714843 0 8.535156 3.820313 8.535156 8.53125zm0 0" data-original="#000000" class="active-path" data-old_color="#000000" fill="#FFFFFF"/><path d="m419.710938 221.867188h-131.140626c-5.980468-.003907-11.421874 3.464843-13.941406 8.890624-2.6875 5.546876-1.902344 12.152344 2.011719 16.914063.289063.355469.605469.683594.949219.988281l77.867187 69.230469c1.820313 1.621094 2.859375 3.941406 2.859375 6.375 0 2.4375-1.039062 4.757813-2.859375 6.375l-77.867187 69.230469c-.34375.304687-.660156.636718-.949219.992187-3.914063 4.761719-4.699219 11.363281-2.011719 16.910157 2.519532 5.429687 7.960938 8.898437 13.941406 8.894531h131.140626c8.625-.085938 15.550781-7.132813 15.488281-15.753907v-21.667968c0-4.710938-3.820313-8.53125-8.53125-8.53125-4.714844 0-8.535157 3.820312-8.535157 8.53125v20.355468h-125.796874l74.453124-66.203124c5.464844-4.859376 8.589844-11.820313 8.589844-19.132813 0-7.308594-3.125-14.273437-8.589844-19.128906l-74.453124-66.203125h125.796874v20.351562c0 4.714844 3.820313 8.535156 8.535157 8.535156 4.710937 0 8.53125-3.820312 8.53125-8.535156v-21.664062c.0625-8.625-6.863281-15.671875-15.488281-15.753906zm0 0" data-original="#000000" class="active-path" data-old_color="#000000" fill="#FFFFFF"/></g> </svg>
