<?xml version="1.0"?>
<svg xmlns="http://www.w3.org/2000/svg" xmlns:xlink="http://www.w3.org/1999/xlink" version="1.1" id="Capa_1" x="0px" y="0px" viewBox="0 0 512 512" style="enable-background:new 0 0 512 512;" xml:space="preserve" width="512px" height="512px" class=""><g><g>
	<g>
		<path d="M510.85,410.074l-8.277-17.746V291.066c0-78.67-61.487-146.249-146.248-146.249h-11.312v-14.189    c0-7.802-6.347-14.149-14.149-14.149h-5.033V16.023c0-4.182-3.39-7.572-7.572-7.572c-4.182,0-7.572,3.39-7.572,7.572v100.456    h-5.033c-7.802,0-14.149,6.347-14.149,14.149v14.189H76.464v-14.189c0-7.802-6.347-14.149-14.149-14.149h-5.033V16.023    c0-4.182-3.39-7.572-7.572-7.572c-4.182,0-7.572,3.39-7.572,7.572v100.456h-5.033c-7.802,0-14.149,6.347-14.149,14.149v14.189    H7.572c-4.182,0-7.572,3.39-7.572,7.572s3.39,7.572,7.572,7.572h22.956h11.61V286.51H7.572C3.39,286.51,0,289.9,0,294.082    s3.39,7.572,7.572,7.572h64.349c4.182,0,7.572-3.39,7.572-7.572s-3.39-7.572-7.572-7.572H57.282V159.961h11.61H199.66V286.51    h-97.452c-4.182,0-7.572,3.39-7.572,7.572c0,4.182,3.39,7.572,7.572,7.572h246.545v90.177l-10.608,16.924    c-2.353,3.754-2.482,8.496-0.336,12.373s6.232,6.285,10.664,6.285h151.332c4.186,0,8.029-2.108,10.278-5.638    C512.333,418.244,512.62,413.87,510.85,410.074z M61.32,144.817H38.1v-13.194h23.22V144.817z M306.649,131.623h23.22v13.194    h-23.22V131.623z M348.752,286.51H214.804V159.961h84.272h38.364h11.312V286.51z M487.342,286.51h-92.511l86.385-35.34    C484.804,262.375,486.92,274.23,487.342,286.51z M475.772,237.036l-86.582,35.42l67.243-65.946    C464.202,215.695,470.739,225.953,475.772,237.036z M363.897,160.185c31.671,1.813,60.363,14.917,82.109,35.342l-70.439,69.08    l26.224-69.34c1.48-3.911-0.492-8.281-4.403-9.761c-3.912-1.476-8.282,0.492-9.761,4.404l-23.73,62.747V160.185z M353.815,412.269    l6.7-10.69h23.869c4.182,0,7.572-3.39,7.572-7.572c0-4.182-3.39-7.572-7.572-7.572h-20.487v-84.781H487.43v84.781h-71.746    c-4.182,0-7.572,3.39-7.572,7.572c0,4.182,3.39,7.572,7.572,7.572h74.495l4.986,10.69H353.815z" data-original="#000000" class="active-path" data-old_color="#000000" fill="#FFFFFF"/>
	</g>
</g><g>
	<g>
		<path d="M384.384,440.954c-4.182,0-7.572,3.39-7.572,7.572v47.45c0,4.182,3.39,7.572,7.572,7.572s7.572-3.39,7.572-7.572v-47.45    C391.956,444.344,388.567,440.954,384.384,440.954z" data-original="#000000" class="active-path" data-old_color="#000000" fill="#FFFFFF"/>
	</g>
</g><g>
	<g>
		<path d="M427.166,440.954c-4.182,0-7.572,3.39-7.572,7.572v47.45c0,4.182,3.39,7.572,7.572,7.572s7.572-3.39,7.572-7.572v-47.45    C434.738,444.344,431.349,440.954,427.166,440.954z" data-original="#000000" class="active-path" data-old_color="#000000" fill="#FFFFFF"/>
	</g>
</g><g>
	<g>
		<path d="M468.182,440.954c-4.182,0-7.572,3.39-7.572,7.572v47.45c0,4.182,3.39,7.572,7.572,7.572c4.182,0,7.572-3.39,7.572-7.572    v-47.45C475.754,444.344,472.364,440.954,468.182,440.954z" data-original="#000000" class="active-path" data-old_color="#000000" fill="#FFFFFF"/>
	</g>
</g></g> </svg>
