<svg height="472pt" viewBox="0 0 472 472" width="472pt" xmlns="http://www.w3.org/2000/svg"><path d="m276.320312 176c-1.398437 4.484375-3.21875 8.824219-5.441406 12.960938l19.042969 19.039062h-179.84375l19.042969-19.039062c-2.222656-4.136719-4.042969-8.476563-5.441406-12.960938h-35.679688v-48h35.679688c1.398437-4.484375 3.21875-8.824219 5.441406-12.960938l-25.28125-25.277343 33.921875-33.921875 25.277343 25.28125c4.136719-2.222656 8.476563-4.042969 12.960938-5.441406v-35.679688h48v35.679688c4.484375 1.398437 8.824219 3.21875 12.960938 5.441406l25.277343-25.28125 33.921875 33.921875-25.28125 25.277343c2.222656 4.136719 4.042969 8.476563 5.441406 12.960938h35.679688v48zm0 0" fill="#ed1c24"/><path d="m352 208h-304c-8.835938 0-16 7.164062-16 16v16c0 8.835938 7.164062 16 16 16h304c8.835938 0 16-7.164062 16-16v-16c0-8.835938-7.164062-16-16-16zm0 0" fill="#57a4ff"/><path d="m64 256h-16c-8.824219-.027344-15.972656-7.175781-16-16v-16c.027344-8.824219 7.175781-15.972656 16-16h16c-8.824219.027344-15.972656 7.175781-16 16v16c.027344 8.824219 7.175781 15.972656 16 16zm0 0" fill="#2488ff"/><path d="m176 384v88l48-32v-56l128-128h-304zm0 0" fill="#006df0"/><path d="m192 376v85.359375l-16 10.640625v-88l-128-128h24zm0 0" fill="#005ece"/><path d="m232 152c0 17.671875-14.328125 32-32 32s-32-14.328125-32-32 14.328125-32 32-32 32 14.328125 32 32zm0 0" fill="#f1f2f2"/><path d="m445.199219 96c-.488281 1.605469-1.128907 3.160156-1.917969 4.640625l18.957031 18.960937-22.636719 22.636719-18.960937-18.957031c-1.480469.789062-3.035156 1.429688-4.640625 1.917969v26.800781h-32v-26.800781c-1.605469-.488281-3.160156-1.128907-4.640625-1.917969l-18.960937 18.957031-22.636719-22.636719 18.957031-18.960937c-.789062-1.480469-1.429688-3.035156-1.917969-4.640625h-26.800781v-32h26.800781c.488281-1.605469 1.128907-3.160156 1.917969-4.640625l-18.957031-18.960937 22.636719-22.636719 18.960937 18.957031c1.480469-.789062 3.035156-1.429688 4.640625-1.917969v-26.800781h32v26.800781c1.605469.488281 3.160156 1.128907 4.640625 1.917969l18.960937-18.957031 22.636719 22.636719-18.957031 18.960937c.789062 1.480469 1.429688 3.035156 1.917969 4.640625h26.800781v32zm0 0" fill="#7ed63e"/><path d="m416 80c0 8.835938-7.164062 16-16 16s-16-7.164062-16-16 7.164062-16 16-16 16 7.164062 16 16zm0 0" fill="#f1f2f2"/><path d="m48 72c6.367188.007812 12.472656-2.523438 16.96875-7.03125 9.375-9.371094 9.375-24.570312.003906-33.945312-9.375-9.371094-24.570312-9.371094-33.945312 0-9.371094 9.375-9.371094 24.574218.003906 33.945312 4.496094 4.507812 10.601562 7.039062 16.96875 7.03125zm0 0" fill="#f1f2f2"/><path d="m40 78.863281v17.136719h16v-17.136719c2.863281-.742187 5.609375-1.886719 8.152344-3.398437l12.136718 12.136718 11.3125-11.3125-12.136718-12.136718c1.511718-2.542969 2.65625-5.289063 3.398437-8.152344h17.136719v-16h-17.136719c-.742187-2.863281-1.886719-5.609375-3.398437-8.152344l12.136718-12.136718-11.3125-11.3125-12.136718 12.136718c-2.542969-1.511718-5.289063-2.65625-8.152344-3.398437v-17.136719h-16v17.136719c-2.863281.742187-5.609375 1.886719-8.152344 3.398437l-12.136718-12.136718-11.3125 11.3125 12.136718 12.136718c-1.511718 2.542969-2.65625 5.289063-3.398437 8.152344h-17.136719v16h17.136719c.742187 2.863281 1.886719 5.609375 3.398437 8.152344l-12.136718 12.136718 11.3125 11.3125 12.136718-12.136718c2.542969 1.511718 5.289063 2.65625 8.152344 3.398437zm8-46.863281c8.835938 0 16 7.164062 16 16s-7.164062 16-16 16-16-7.164062-16-16 7.164062-16 16-16zm0 0" fill="#ffcd00"/></svg>