<?xml version="1.0"?>
<svg xmlns="http://www.w3.org/2000/svg" xmlns:xlink="http://www.w3.org/1999/xlink" version="1.1" id="Capa_1" x="0px" y="0px" viewBox="0 0 60 60" style="enable-background:new 0 0 60 60;" xml:space="preserve" width="512px" height="512px"><g><g>
	<path d="M53,20v-7h-7V6H0v34h7v7h7v7h46V20H53z M2,38V8h42v5H7v25H2z M9,45v-5v-6v-6v-6v-6v-1h1h6h6h6h6h6h6h5v5h-2h-6h-6h-6h-6h-6   h-5v5v6v6v6v2H9z M58,52H16v-5V22h37h5V52z" data-original="#000000" class="active-path" data-old_color="#000000" fill="#FFFFFF"/>
	<circle cx="34" cy="16" r="1" data-original="#000000" class="active-path" data-old_color="#000000" fill="#FFFFFF"/>
	<circle cx="37" cy="19" r="1" data-original="#000000" class="active-path" data-old_color="#000000" fill="#FFFFFF"/>
	<circle cx="40" cy="16" r="1" data-original="#000000" class="active-path" data-old_color="#000000" fill="#FFFFFF"/>
	<circle cx="46" cy="16" r="1" data-original="#000000" class="active-path" data-old_color="#000000" fill="#FFFFFF"/>
	<circle cx="43" cy="19" r="1" data-original="#000000" class="active-path" data-old_color="#000000" fill="#FFFFFF"/>
	<circle cx="49" cy="19" r="1" data-original="#000000" class="active-path" data-old_color="#000000" fill="#FFFFFF"/>
	<circle cx="28" cy="16" r="1" data-original="#000000" class="active-path" data-old_color="#000000" fill="#FFFFFF"/>
	<circle cx="31" cy="19" r="1" data-original="#000000" class="active-path" data-old_color="#000000" fill="#FFFFFF"/>
	<circle cx="10" cy="16" r="1" data-original="#000000" class="active-path" data-old_color="#000000" fill="#FFFFFF"/>
	<circle cx="10" cy="22" r="1" data-original="#000000" class="active-path" data-old_color="#000000" fill="#FFFFFF"/>
	<circle cx="13" cy="19" r="1" data-original="#000000" class="active-path" data-old_color="#000000" fill="#FFFFFF"/>
	<circle cx="13" cy="25" r="1" data-original="#000000" class="active-path" data-old_color="#000000" fill="#FFFFFF"/>
	<circle cx="16" cy="16" r="1" data-original="#000000" class="active-path" data-old_color="#000000" fill="#FFFFFF"/>
	<circle cx="22" cy="16" r="1" data-original="#000000" class="active-path" data-old_color="#000000" fill="#FFFFFF"/>
	<circle cx="19" cy="19" r="1" data-original="#000000" class="active-path" data-old_color="#000000" fill="#FFFFFF"/>
	<circle cx="25" cy="19" r="1" data-original="#000000" class="active-path" data-old_color="#000000" fill="#FFFFFF"/>
	<circle cx="10" cy="28" r="1" data-original="#000000" class="active-path" data-old_color="#000000" fill="#FFFFFF"/>
	<circle cx="10" cy="34" r="1" data-original="#000000" class="active-path" data-old_color="#000000" fill="#FFFFFF"/>
	<circle cx="13" cy="31" r="1" data-original="#000000" class="active-path" data-old_color="#000000" fill="#FFFFFF"/>
	<circle cx="13" cy="37" r="1" data-original="#000000" class="active-path" data-old_color="#000000" fill="#FFFFFF"/>
	<circle cx="10" cy="40" r="1" data-original="#000000" class="active-path" data-old_color="#000000" fill="#FFFFFF"/>
	<circle cx="13" cy="43" r="1" data-original="#000000" class="active-path" data-old_color="#000000" fill="#FFFFFF"/>
</g></g> </svg>
