<?xml version="1.0" encoding="iso-8859-1"?>
<!-- Generator: Adobe Illustrator 17.0.0, SVG Export Plug-In . SVG Version: 6.00 Build 0)  -->
<!DOCTYPE svg PUBLIC "-//W3C//DTD SVG 1.1//EN" "http://www.w3.org/Graphics/SVG/1.1/DTD/svg11.dtd">
<svg version="1.1" xmlns="http://www.w3.org/2000/svg" xmlns:xlink="http://www.w3.org/1999/xlink" x="0px" y="0px" width="80px"
	 height="120px" viewBox="0 0 80 120" style="enable-background:new 0 0 80 120;" xml:space="preserve">
<g id="Coils_x5F_Heating_x5F_3Way_x5F_Top_x5F_0">
	<g>
		<g>
			<g>
				<g>
					<polygon style="fill:#E7E9EA;" points="0,100.04 80,100.061 80,50.061 0,50.04 					"/>
					<g>
						<polyline style="fill:#E7E9EA;" points="80,50 0,50 0,30 80,30 						"/>
						<polygon style="fill:#6A7276;" points="80,51.583 0,51.576 0,49.953 80,49.953 						"/>
						<g>
							<polyline style="fill:#DDDFE1;" points="80,118.494 0,118.494 0,98.494 80,98.494 							"/>
							<rect y="118.433" style="fill:#6A7276;" width="80" height="1.567"/>
						</g>
					</g>
				</g>
				<line style="fill:none;stroke:#ABAAA9;stroke-width:0.6;stroke-miterlimit:10;" x1="0" y1="98.422" x2="80" y2="98.422"/>
			</g>
			<g>
				
					<line style="fill:none;stroke:#FFFFFF;stroke-width:0.2;stroke-miterlimit:10;" x1="37.218" y1="50.973" x2="39.515" y2="52.486"/>
				<polygon style="fill:#CDCEC6;" points="58,117.846 56.089,117.846 54.764,117.274 42.034,117.274 40.89,117.846 38.726,117.846 
					38.726,52.706 58,52.706 				"/>
				<polygon style="fill:#AEAFA7;" points="11.957,51.192 11.957,99.752 38.725,117.846 38.725,52.706 36.352,51.192 				"/>
				<polygon style="fill:#B4B5B0;" points="36.352,51.192 38.726,52.706 40.799,52.706 42.004,53.232 54.833,53.248 56.158,52.706 
					58,52.706 55.686,51.192 				"/>
				
					<line style="fill:none;stroke:#FFFFFF;stroke-width:0.2;stroke-miterlimit:10;" x1="36.352" y1="51.192" x2="38.648" y2="52.706"/>
				<polyline style="fill:none;stroke:#999999;stroke-width:0.25;stroke-miterlimit:10;" points="38.329,51.192 42.004,53.232 
					42.004,116.853 				"/>
				<polyline style="fill:none;stroke:#DCDBDB;stroke-width:0.25;stroke-miterlimit:10;" points="53.824,51.192 56.158,52.706 
					56.158,117.41 				"/>
				<polyline style="fill:none;stroke:#999999;stroke-width:0.25;stroke-miterlimit:10;" points="51.731,51.192 54.833,53.248 
					54.833,116.883 				"/>
				<polyline style="fill:none;stroke:#DCDBDB;stroke-width:0.25;stroke-miterlimit:10;" points="38.073,51.192 40.799,52.706 
					40.799,117.485 				"/>
				<polygon style="fill:none;stroke:#F7F8F9;stroke-width:0.2;stroke-miterlimit:10;" points="57.845,117.846 55.934,117.846 
					54.608,117.274 41.878,117.274 40.734,117.846 38.648,117.846 38.648,52.706 40.799,52.706 42.004,53.232 54.833,53.248 
					56.158,52.706 57.845,52.706 				"/>
				<g>
					<path style="fill:#9B9A9A;" d="M43.716,94.646c-0.009-0.96,0.762-1.746,1.722-1.756l0,0c0.96-0.009,1.746,0.762,1.756,1.722
						l0.067,6.955c0.009,0.96-0.762,1.746-1.722,1.756l0,0c-0.96,0.009-1.746-0.762-1.756-1.722L43.716,94.646z"/>
					<path style="fill:#9B9A9A;" d="M43.75,80.553c0-0.96,0.779-1.739,1.739-1.739l0,0c0.96,0,1.739,0.779,1.739,1.739v6.955
						c0,0.96-0.779,1.739-1.739,1.739l0,0c-0.96,0-1.739-0.779-1.739-1.739V80.553z"/>
					<path style="fill:#9B9A9A;" d="M43.75,66.476c0-0.96,0.779-1.739,1.739-1.739l0,0c0.96,0,1.739,0.779,1.739,1.739v6.955
						c0,0.96-0.779,1.739-1.739,1.739l0,0c-0.96,0-1.739-0.779-1.739-1.739V66.476z"/>
					<path style="fill:#9B9A9A;" d="M49.532,101.667c0-0.96,0.779-1.739,1.739-1.739l0,0c0.96,0,1.739,0.779,1.739,1.739v6.955
						c0,0.96-0.779,1.739-1.739,1.739l0,0c-0.96,0-1.739-0.779-1.739-1.739V101.667z"/>
					<path style="fill:#9B9A9A;" d="M49.532,87.591c0-0.96,0.779-1.739,1.739-1.739l0,0c0.96,0,1.739,0.779,1.739,1.739v6.955
						c0,0.96-0.779,1.739-1.739,1.739l0,0c-0.96,0-1.739-0.779-1.739-1.739V87.591z"/>
					<path style="fill:#9B9A9A;" d="M49.532,73.514c0-0.96,0.779-1.739,1.739-1.739l0,0c0.96,0,1.739,0.779,1.739,1.739v6.955
						c0,0.96-0.779,1.739-1.739,1.739l0,0c-0.96,0-1.739-0.779-1.739-1.739V73.514z"/>
					<path style="fill:#9B9A9A;" d="M49.532,59.438c0-0.96,0.779-1.739,1.739-1.739l0,0c0.96,0,1.739,0.779,1.739,1.739v6.955
						c0,0.96-0.779,1.739-1.739,1.739l0,0c-0.96,0-1.739-0.779-1.739-1.739V59.438z"/>
				</g>
				<polygon style="fill:#B5B4AE;" points="32.838,51.192 36.984,54.031 36.984,112.614 13.697,97.036 13.697,51.192 				"/>
				<g>
					<linearGradient id="SVGID_1_" gradientUnits="userSpaceOnUse" x1="43.7161" y1="98.0894" x2="47.2609" y2="98.0894">
						<stop  offset="0.2766" style="stop-color:#828386"/>
						<stop  offset="0.5584" style="stop-color:#ADAFB2"/>
						<stop  offset="0.835" style="stop-color:#828386"/>
					</linearGradient>
					<path style="fill:url(#SVGID_1_);" d="M43.716,94.629c-0.009-0.96,0.762-1.746,1.722-1.756l0,0
						c0.96-0.009,1.746,0.762,1.756,1.722l0.067,6.955c0.009,0.96-0.762,1.746-1.722,1.756l0,0c-0.96,0.009-1.746-0.762-1.756-1.722
						L43.716,94.629z"/>
					<linearGradient id="SVGID_2_" gradientUnits="userSpaceOnUse" x1="43.7496" y1="84.0129" x2="47.2274" y2="84.0129">
						<stop  offset="0.2766" style="stop-color:#828386"/>
						<stop  offset="0.5584" style="stop-color:#ADAFB2"/>
						<stop  offset="0.835" style="stop-color:#828386"/>
					</linearGradient>
					<path style="fill:url(#SVGID_2_);" d="M43.75,80.535c0-0.96,0.779-1.739,1.739-1.739l0,0c0.96,0,1.739,0.779,1.739,1.739v6.955
						c0,0.96-0.779,1.739-1.739,1.739l0,0c-0.96,0-1.739-0.779-1.739-1.739V80.535z"/>
					<linearGradient id="SVGID_3_" gradientUnits="userSpaceOnUse" x1="43.7496" y1="69.9365" x2="47.2274" y2="69.9365">
						<stop  offset="0.2766" style="stop-color:#828386"/>
						<stop  offset="0.5584" style="stop-color:#ADAFB2"/>
						<stop  offset="0.835" style="stop-color:#828386"/>
					</linearGradient>
					<path style="fill:url(#SVGID_3_);" d="M43.75,66.459c0-0.96,0.779-1.739,1.739-1.739l0,0c0.96,0,1.739,0.779,1.739,1.739v6.955
						c0,0.96-0.779,1.739-1.739,1.739l0,0c-0.96,0-1.739-0.779-1.739-1.739V66.459z"/>
					<linearGradient id="SVGID_4_" gradientUnits="userSpaceOnUse" x1="49.5319" y1="105.1276" x2="53.0096" y2="105.1276">
						<stop  offset="0.2766" style="stop-color:#828386"/>
						<stop  offset="0.5584" style="stop-color:#ADAFB2"/>
						<stop  offset="0.835" style="stop-color:#828386"/>
					</linearGradient>
					<path style="fill:url(#SVGID_4_);" d="M49.532,101.65c0-0.96,0.779-1.739,1.739-1.739l0,0c0.96,0,1.739,0.779,1.739,1.739
						v6.955c0,0.96-0.779,1.739-1.739,1.739l0,0c-0.96,0-1.739-0.779-1.739-1.739V101.65z"/>
					<linearGradient id="SVGID_5_" gradientUnits="userSpaceOnUse" x1="49.5319" y1="91.0511" x2="53.0096" y2="91.0511">
						<stop  offset="0.2766" style="stop-color:#828386"/>
						<stop  offset="0.5584" style="stop-color:#ADAFB2"/>
						<stop  offset="0.835" style="stop-color:#828386"/>
					</linearGradient>
					<path style="fill:url(#SVGID_5_);" d="M49.532,87.573c0-0.96,0.779-1.739,1.739-1.739l0,0c0.96,0,1.739,0.779,1.739,1.739
						v6.955c0,0.96-0.779,1.739-1.739,1.739l0,0c-0.96,0-1.739-0.779-1.739-1.739V87.573z"/>
					<linearGradient id="SVGID_6_" gradientUnits="userSpaceOnUse" x1="49.5319" y1="76.9747" x2="53.0096" y2="76.9747">
						<stop  offset="0.2766" style="stop-color:#828386"/>
						<stop  offset="0.5584" style="stop-color:#ADAFB2"/>
						<stop  offset="0.835" style="stop-color:#828386"/>
					</linearGradient>
					<path style="fill:url(#SVGID_6_);" d="M49.532,73.497c0-0.96,0.779-1.739,1.739-1.739l0,0c0.96,0,1.739,0.779,1.739,1.739
						v6.955c0,0.96-0.779,1.739-1.739,1.739l0,0c-0.96,0-1.739-0.779-1.739-1.739V73.497z"/>
					<linearGradient id="SVGID_7_" gradientUnits="userSpaceOnUse" x1="49.5319" y1="62.8982" x2="53.0096" y2="62.8982">
						<stop  offset="0.2766" style="stop-color:#828386"/>
						<stop  offset="0.5584" style="stop-color:#ADAFB2"/>
						<stop  offset="0.835" style="stop-color:#828386"/>
					</linearGradient>
					<path style="fill:url(#SVGID_7_);" d="M49.532,59.421c0-0.96,0.779-1.739,1.739-1.739l0,0c0.96,0,1.739,0.779,1.739,1.739
						v6.955c0,0.96-0.779,1.739-1.739,1.739l0,0c-0.96,0-1.739-0.779-1.739-1.739V59.421z"/>
				</g>
				<g>
					<path style="fill:#AEADA8;stroke:#666766;stroke-width:0.25;stroke-miterlimit:10;" d="M43.716,94.629
						c-0.009-0.96,0.762-1.746,1.722-1.756l0,0c0.96-0.009,1.746,0.762,1.756,1.722l0.067,6.955c0.009,0.96-0.762,1.746-1.722,1.756
						l0,0c-0.96,0.009-1.746-0.762-1.756-1.722L43.716,94.629z"/>
					<path style="fill:#AEADA8;stroke:#666766;stroke-width:0.25;stroke-miterlimit:10;" d="M43.75,80.535
						c0-0.96,0.779-1.739,1.739-1.739l0,0c0.96,0,1.739,0.779,1.739,1.739v6.955c0,0.96-0.779,1.739-1.739,1.739l0,0
						c-0.96,0-1.739-0.779-1.739-1.739V80.535z"/>
					<path style="fill:#AEADA8;stroke:#666766;stroke-width:0.25;stroke-miterlimit:10;" d="M43.75,66.459
						c0-0.96,0.779-1.739,1.739-1.739l0,0c0.96,0,1.739,0.779,1.739,1.739v6.955c0,0.96-0.779,1.739-1.739,1.739l0,0
						c-0.96,0-1.739-0.779-1.739-1.739V66.459z"/>
					<path style="fill:#AEADA8;stroke:#666766;stroke-width:0.25;stroke-miterlimit:10;" d="M49.532,101.65
						c0-0.96,0.779-1.739,1.739-1.739l0,0c0.96,0,1.739,0.779,1.739,1.739v6.955c0,0.96-0.779,1.739-1.739,1.739l0,0
						c-0.96,0-1.739-0.779-1.739-1.739V101.65z"/>
					<path style="fill:#AEADA8;stroke:#666766;stroke-width:0.25;stroke-miterlimit:10;" d="M49.532,87.573
						c0-0.96,0.779-1.739,1.739-1.739l0,0c0.96,0,1.739,0.779,1.739,1.739v6.955c0,0.96-0.779,1.739-1.739,1.739l0,0
						c-0.96,0-1.739-0.779-1.739-1.739V87.573z"/>
					<path style="fill:#AEADA8;stroke:#666766;stroke-width:0.25;stroke-miterlimit:10;" d="M49.532,73.497
						c0-0.96,0.779-1.739,1.739-1.739l0,0c0.96,0,1.739,0.779,1.739,1.739v6.955c0,0.96-0.779,1.739-1.739,1.739l0,0
						c-0.96,0-1.739-0.779-1.739-1.739V73.497z"/>
					<path style="fill:#AEADA8;stroke:#666766;stroke-width:0.25;stroke-miterlimit:10;" d="M49.532,59.421
						c0-0.96,0.779-1.739,1.739-1.739l0,0c0.96,0,1.739,0.779,1.739,1.739v6.955c0,0.96-0.779,1.739-1.739,1.739l0,0
						c-0.96,0-1.739-0.779-1.739-1.739V59.421z"/>
				</g>
				<path style="fill:none;stroke:#4F4C4B;stroke-width:2;stroke-miterlimit:10;" d="M55.685,51.192c0,0,0.521,0.341,1.157,0.757
					s1.157,1.657,1.157,2.757v61.141c0,1.1-0.43,2-0.955,2c-0.526,0-1.254-0.129-1.618-0.286c-0.364-0.157-1.563-0.286-2.663-0.286
					h-8.73c-1.1,0-2.257,0.129-2.572,0.286c-0.315,0.157-1.059,0.286-1.654,0.286s-1.828-0.504-2.739-1.12l-23.454-15.854
					c-0.911-0.616-1.657-2.02-1.657-3.12v-46.56"/>
				<polygon style="fill:#B5B4AE;" points="36.984,112.374 13.697,96.813 13.697,82.307 36.984,97.867 				"/>
				<g>
					<polygon style="fill:#A3A19F;" points="36.984,109.371 13.697,93.793 13.697,90.55 36.984,106.127 					"/>
					<g>
						<polygon style="fill:#A3A19F;" points="36.984,102.884 13.697,87.307 13.697,84.063 36.984,99.641 						"/>
					</g>
					<polygon style="fill:#A3A19F;" points="36.984,96.398 13.697,80.82 13.697,77.577 36.984,93.154 					"/>
					<polygon style="fill:#A3A19F;" points="36.985,89.911 13.697,74.334 13.697,71.09 36.985,86.668 					"/>
					<g>
						<polygon style="fill:#A3A19F;" points="36.985,83.425 13.698,67.847 13.698,64.604 36.985,80.181 						"/>
					</g>
					<polygon style="fill:#A3A19F;" points="36.985,76.938 13.698,61.361 13.698,58.117 36.985,73.695 					"/>
					<polygon style="fill:#A3A19F;" points="36.985,70.452 13.698,54.874 13.698,51.631 36.985,67.208 					"/>
					<g>
						<polygon style="fill:#A3A19F;" points="36.985,63.965 17.891,51.192 22.739,51.192 36.985,60.722 						"/>
					</g>
					<polygon style="fill:#A3A19F;" points="36.985,57.479 27.587,51.192 32.436,51.192 36.985,54.235 					"/>
				</g>
				<polyline style="fill:none;stroke:#000000;stroke-width:0.4;stroke-miterlimit:10;" points="13.697,51.192 13.697,97.036 
					36.984,112.614 36.984,54.031 32.838,51.192 				"/>
			</g>
		</g>
		<g>
			<path style="fill:#8F3F4D;" d="M28.054,34.884c0,1.287-1.803,2.33-4.027,2.33S20,36.171,20,34.884V0l8.051,0v34.884H28.054z"/>
			<g>
				<path style="fill:#C4515F;" d="M22.045,0.012h3.965l0.002,36.891c0,0-0.966,0.31-1.985,0.31c-1.018,0-1.982-0.31-1.982-0.31
					L22.045,0.012z"/>
			</g>
		</g>
		<path style="fill:#B22B32;" d="M48.042,44.884c0,1.287-1.803,2.33-4.027,2.33s-4.027-1.043-4.027-2.33V0l8.051,0v44.884H48.042z"
			/>
		<g>
			<path style="fill:#F16479;" d="M42.033,0.012h3.965l0.002,46.891c0,0-0.966,0.31-1.985,0.31s-1.982-0.309-1.982-0.309
				L42.033,0.012z"/>
		</g>
	</g>
</g>
<g id="Layer_1">
</g>
</svg>
