<?xml version="1.0" encoding="iso-8859-1"?>
<!-- Generator: Adobe Illustrator 17.0.0, SVG Export Plug-In . SVG Version: 6.00 Build 0)  -->
<!DOCTYPE svg PUBLIC "-//W3C//DTD SVG 1.1//EN" "http://www.w3.org/Graphics/SVG/1.1/DTD/svg11.dtd">
<svg version="1.1" xmlns="http://www.w3.org/2000/svg" xmlns:xlink="http://www.w3.org/1999/xlink" x="0px" y="0px" width="20px"
	 height="28.055px" viewBox="0 0 20 28.055" style="enable-background:new 0 0 20 28.055;" xml:space="preserve">
<g id="hwr_x5F_elbow_x5F_NE">
	<g>
		<path style="fill:#C4515F;" d="M0,18.083L0,0.008l8.052,0l-0.01,18.074c-0.086,1.099,0.846,2.024,1.945,1.93L20,20.008v8.046
			H9.993C4.458,28.055,0,23.617,0,18.083"/>
		<path style="fill:#8F3F4D;" d="M10,20h10v2.044H10c-2.375-0.002-4.034-1.649-4-3.99V0l2.052,0v18.055
			C8.047,19.121,9.018,20.007,10,20z"/>
		<path style="fill:#8F3F4D;" d="M0,18.055L0,0l2.047,0v18.055C2.044,22.125,5.75,26.009,10,26.009h10v2.046H10H9.993
			C4.458,28.055,0,23.589,0,18.055z"/>
	</g>
</g>
<g id="Layer_1">
</g>
</svg>
