<?xml version="1.0" encoding="iso-8859-1"?>
<!-- Generator: Adobe Illustrator 17.0.0, SVG Export Plug-In . SVG Version: 6.00 Build 0)  -->
<!DOCTYPE svg PUBLIC "-//W3C//DTD SVG 1.1//EN" "http://www.w3.org/Graphics/SVG/1.1/DTD/svg11.dtd">
<svg version="1.1" xmlns="http://www.w3.org/2000/svg" xmlns:xlink="http://www.w3.org/1999/xlink" x="0px" y="0px" width="30px"
	 height="20px" viewBox="0 0 30 20" style="enable-background:new 0 0 30 20;" xml:space="preserve">
<g id="hwr_x5F_elbow_x5F_SE">
	<g>
		<path style="fill:#C4515F;" d="M0,9.972l0,10.02h8.052l-0.01-10.02c-0.086-1.099,0.846-2.024,1.945-1.93L30,8.046V0L9.993,0
			C4.458,0,0,4.438,0,9.972"/>
		<path style="fill:#8F3F4D;" d="M10,8.055h20V6.01H10C7.625,6.012,5.966,7.659,6,10v10h2.052V10C8.047,8.934,9.018,8.048,10,8.055z
			"/>
		<path style="fill:#8F3F4D;" d="M0,10l0,10h2.047V10C2.044,5.93,5.75,2.046,10,2.046h20V0L10,0L9.993,0C4.458,0,0,4.466,0,10z"/>
	</g>
</g>
<g id="Layer_1">
</g>
</svg>
