<?xml version="1.0" encoding="iso-8859-1"?>
<!-- Generator: Adobe Illustrator 17.0.0, SVG Export Plug-In . SVG Version: 6.00 Build 0)  -->
<!DOCTYPE svg PUBLIC "-//W3C//DTD SVG 1.1//EN" "http://www.w3.org/Graphics/SVG/1.1/DTD/svg11.dtd">
<svg version="1.1" xmlns="http://www.w3.org/2000/svg" xmlns:xlink="http://www.w3.org/1999/xlink" x="0px" y="0px" width="80px"
	 height="90px" viewBox="0 0 80 90" style="enable-background:new 0 0 80 90;" xml:space="preserve">
<g id="Filter_x5F_Single_x5F_Hepa">
	<g>
		<g>
			<polygon style="fill:#E7E9EA;" points="0,70.04 80,70.061 80,20.061 0,20.04 			"/>
			<g>
				<polyline style="fill:#E7E9EA;" points="80,20 0,20 0,0 80,0 				"/>
				<polygon style="fill:#6A7276;" points="80,21.583 0,21.576 0,19.953 80,19.953 				"/>
				<g>
					<polyline style="fill:#DDDFE1;" points="80,88.494 0,88.494 0,68.494 80,68.494 					"/>
					<rect y="88.433" style="fill:#6A7276;" width="80" height="1.567"/>
				</g>
			</g>
		</g>
		<line style="fill:none;stroke:#ABAAA9;stroke-width:0.6;stroke-miterlimit:10;" x1="0" y1="68.422" x2="80" y2="68.422"/>
	</g>
	<line style="fill:none;stroke:#FFFFFF;stroke-width:0.2;stroke-miterlimit:10;" x1="46.62" y1="21.307" x2="48.583" y2="22.601"/>
	<polygon style="fill:#CDCEC6;" points="67.068,87.961 65.157,87.961 63.832,87.389 51.102,87.389 49.958,87.961 47.794,87.961 
		47.794,22.821 67.068,22.821 	"/>
	<polygon style="fill:#AEAFA7;" points="21.025,21.307 21.025,69.867 47.793,87.961 47.793,22.821 45.42,21.307 	"/>
	<polygon style="fill:#B4B5B0;" points="45.42,21.307 47.794,22.821 49.867,22.821 51.072,23.347 63.901,23.363 65.226,22.821 
		67.068,22.821 64.755,21.307 	"/>
	<line style="fill:none;stroke:#FFFFFF;stroke-width:0.2;stroke-miterlimit:10;" x1="45.42" y1="21.307" x2="47.717" y2="22.821"/>
	<polyline style="fill:none;stroke:#999999;stroke-width:0.25;stroke-miterlimit:10;" points="47.398,21.307 51.072,23.347 
		51.072,86.967 	"/>
	<polyline style="fill:none;stroke:#DCDBDB;stroke-width:0.25;stroke-miterlimit:10;" points="62.892,21.307 65.226,22.821 
		65.226,87.525 	"/>
	<polyline style="fill:none;stroke:#999999;stroke-width:0.25;stroke-miterlimit:10;" points="60.799,21.307 63.901,23.363 
		63.901,86.997 	"/>
	<polyline style="fill:none;stroke:#DCDBDB;stroke-width:0.25;stroke-miterlimit:10;" points="47.142,21.307 49.867,22.821 
		49.867,87.6 	"/>
	<polygon style="fill:none;stroke:#F7F8F9;stroke-width:0.2;stroke-miterlimit:10;" points="66.913,87.961 65.002,87.961 
		63.677,87.389 50.947,87.389 49.803,87.961 47.717,87.961 47.717,22.821 49.867,22.821 51.072,23.347 63.901,23.363 65.226,22.821 
		66.913,22.821 	"/>
	<polygon style="fill:#B2AFAD;" points="41.907,21.579 46.052,24.418 46.052,83 22.765,67.423 22.765,21.579 	"/>
	<path style="fill:none;stroke:#4F4C4B;stroke-width:2;stroke-miterlimit:10;" d="M64.753,21.307c0,0,0.521,0.341,1.157,0.757
		c0.636,0.416,1.157,1.657,1.157,2.757v61.141c0,1.1-0.43,2-0.955,2c-0.526,0-1.254-0.129-1.618-0.286
		c-0.364-0.157-1.563-0.286-2.663-0.286h-8.73c-1.1,0-2.257,0.129-2.572,0.286c-0.315,0.157-1.059,0.286-1.654,0.286
		s-1.828-0.504-2.739-1.12L22.682,70.987c-0.911-0.616-1.657-2.02-1.657-3.12v-46.56"/>
	<polyline style="fill:none;stroke:#605F5D;stroke-width:0.25;stroke-miterlimit:10;" points="22.765,21.307 22.765,67.151 
		46.052,82.729 46.052,24.146 41.907,21.307 	"/>
	<line style="fill:none;stroke:#939190;stroke-width:0.25;stroke-miterlimit:10;" x1="22.974" y1="67.164" x2="39.198" y2="67.18"/>
	<polygon style="fill:#F4F4F2;" points="42.905,21.307 46.046,23.581 45.999,80.821 25.764,67.151 25.764,21.307 	"/>
	<g>
		<polygon style="fill:#E0DEDC;" points="46,76.36 25.764,62.908 25.764,60.664 46,74.117 		"/>
		<g>
			<polygon style="fill:#E0DEDC;" points="46.052,69.958 25.764,56.421 25.764,54.178 46.052,67.715 			"/>
		</g>
		<polygon style="fill:#E0DEDC;" points="46,63.413 25.764,49.935 25.764,47.691 46,61.169 		"/>
		<polygon style="fill:#E0DEDC;" points="46,56.937 25.765,43.448 25.765,41.205 46,54.693 		"/>
		<g>
			<polygon style="fill:#E0DEDC;" points="46.052,50.549 25.765,36.962 25.765,34.718 46.052,48.305 			"/>
		</g>
		<polygon style="fill:#E0DEDC;" points="46.052,44.052 25.765,30.475 25.765,28.232 46.052,41.809 		"/>
		<polygon style="fill:#E0DEDC;" points="46.052,37.566 25.765,23.989 25.765,21.745 46.052,35.323 		"/>
		<g>
			<polygon style="fill:#E0DEDC;" points="46.052,31.11 31.448,21.307 34.806,21.307 46.052,28.867 			"/>
		</g>
		<polygon style="fill:#E0DEDC;" points="46.086,24.739 41.144,21.333 42.905,21.307 46.143,23.57 		"/>
	</g>
	<g>
		<polygon style="fill:#E0DEDC;" points="45.955,73.016 25.719,59.564 25.72,57.32 45.955,70.773 		"/>
		<g>
			<polygon style="fill:#E0DEDC;" points="46.008,66.614 25.72,53.077 25.72,50.834 46.008,64.371 			"/>
		</g>
		<polygon style="fill:#E0DEDC;" points="45.955,60.069 25.72,46.591 25.72,44.347 45.955,57.825 		"/>
		<polygon style="fill:#E0DEDC;" points="45.955,53.593 25.72,40.104 25.72,37.861 45.955,51.349 		"/>
		<g>
			<polygon style="fill:#E0DEDC;" points="46.008,47.205 25.72,33.618 25.72,31.374 46.008,44.961 			"/>
		</g>
		<polygon style="fill:#E0DEDC;" points="46.008,40.708 25.72,27.131 25.72,24.888 46.008,38.465 		"/>
		<polygon style="fill:#E0DEDC;" points="46.008,34.222 26.709,21.307 30.062,21.307 46.008,31.979 		"/>
		<g>
			<polygon style="fill:#E0DEDC;" points="46.008,27.766 36.385,21.307 39.737,21.307 46.008,25.523 			"/>
		</g>
	</g>
	<polygon style="fill:#E0DEDC;" points="45.955,79.561 25.719,66.109 25.72,63.866 45.955,77.318 	"/>
</g>
<g id="Layer_1">
</g>
</svg>
