<?xml version="1.0" encoding="iso-8859-1"?>
<!-- Generator: Adobe Illustrator 17.0.0, SVG Export Plug-In . SVG Version: 6.00 Build 0)  -->
<!DOCTYPE svg PUBLIC "-//W3C//DTD SVG 1.1//EN" "http://www.w3.org/Graphics/SVG/1.1/DTD/svg11.dtd">
<svg version="1.1" xmlns="http://www.w3.org/2000/svg" xmlns:xlink="http://www.w3.org/1999/xlink" x="0px" y="0px" width="120px"
	 height="89.907px" viewBox="0 0 120 89.907" style="enable-background:new 0 0 120 89.907;" xml:space="preserve">
<g id="Duct_x5F_Horz_x5F_End_x5F_Left">
	<g>
		<polygon style="fill:#E7E9EA;" points="0,1.939 0,68.039 0.998,70 120,70 120,20 30,20 1.517,1.041 		"/>
		<path style="fill:#E7E9EA;" d="M120,20.062L30,20L1.517,1.041L0.004,1.83c0,0,0.14-1.798,1.64-1.799S120,0,120,0V20.062"/>
		<polygon style="fill:#DDDFE1;" points="120,88.433 30,88.433 0,68.433 120,68.433 		"/>
		<path style="fill:#6A7276;" d="M1.664,71.017C0.749,70.407,0,69.007,0,67.907V1.939c0-1.1,0.749-1.501,1.665-0.892l26.67,17.752
			c0.916,0.61,2.565,1.109,3.665,1.11l88,0.06v1.568L32,21.53c-1.1,0-2.748-0.5-3.663-1.112L2.913,3.421
			C1.998,2.81,1.25,3.21,1.25,4.31v62.863c0,1.1,0.749,2.499,1.664,3.109l25.422,16.949C29.251,87.841,30.9,88.34,32,88.34h88v1.567
			H32c-1.1,0-2.749-0.499-3.664-1.109L1.664,71.017z"/>
		<line style="fill:none;stroke:#ABAAA9;stroke-width:0.6;stroke-miterlimit:10;" x1="1.494" y1="68.372" x2="120" y2="68.372"/>
	</g>
</g>
<g id="Layer_1">
</g>
</svg>
