<?xml version="1.0" encoding="iso-8859-1"?>
<!-- Generator: Adobe Illustrator 17.0.0, SVG Export Plug-In . SVG Version: 6.00 Build 0)  -->
<!DOCTYPE svg PUBLIC "-//W3C//DTD SVG 1.1//EN" "http://www.w3.org/Graphics/SVG/1.1/DTD/svg11.dtd">
<svg version="1.1" xmlns="http://www.w3.org/2000/svg" xmlns:xlink="http://www.w3.org/1999/xlink" x="0px" y="0px" width="150px"
	 height="120px" viewBox="0 0 150 120" style="enable-background:new 0 0 150 120;" xml:space="preserve">
<g id="Duct_x5F_Connector_x5F_T_x5F_Down">
	<g>
		<polygon style="fill:#E7E9EA;" points="100.078,120 100,69.87 30,69.87 60.078,89.969 60,120 		"/>
		<polygon style="fill:#E7E9EA;" points="0,70.061 150,70.061 150,20.061 0,20.03 		"/>
		<rect x="30" y="89.97" style="fill:#E7E9EA;" width="30" height="30.03"/>
		<polyline style="fill:#E7E9EA;" points="150,20 0,20 0,0 150,0 150,20 		"/>
		<path style="fill:#DDDFE1;" d="M0,68.463L0,68.463v20h31.508l28-0.029l2,1.536c0,0-0.59-1.973-1.871-2.754
			S31.508,68.463,31.508,68.463H0z"/>
		<path style="fill:#DDDFE1;" d="M130,89.375V120H98.493c0,0,0-47.27,0-49.457s1.738-2.11,1.738-2.11"/>
		<rect y="20" style="fill:#6A7276;" width="150" height="1.629"/>
		<path style="fill:#DDDFE1;" d="M99.115,68.847L130,89.375h20V68.433c0,0-49.02,0-49.77,0S99.115,68.847,99.115,68.847z"/>
		<path style="fill:#6A7276;" d="M130,91.97c0-1.1,0.9-2,2-2l18,0v-1.51l-19.507-0.024c-1.1-0.002-2,0.897-2,1.997V120H130V91.97z"
			/>
		<path style="fill:none;stroke:#EFEFED;stroke-width:0.5;stroke-miterlimit:10;" d="M101.378,65.543"/>
		<path style="fill:none;stroke:#EFEFED;stroke-width:0.5;stroke-miterlimit:10;" d="M131.378,85.543"/>
		<path style="fill:none;stroke:#6A7276;stroke-width:0.2;stroke-miterlimit:10;" d="M98.578,68.611"/>
		<path style="fill:none;stroke:#6A7276;stroke-width:0.2;stroke-miterlimit:10;" d="M128.578,88.611"/>
		<g>
			<path style="fill:none;stroke:#939292;stroke-width:0.6;stroke-miterlimit:10;" d="M30.246,68.433c0,0,1.125,0,2.436,0.934
				c5.398,3.843,25.47,16.921,26.697,17.711c1.786,1.157,2.128,2.892,2.128,2.892"/>
		</g>
		<line style="fill:none;stroke:#ABAAA9;stroke-width:0.6;stroke-miterlimit:10;" x1="100.231" y1="68.433" x2="150" y2="68.433"/>
		<path style="fill:none;stroke:#ABAAA9;stroke-width:0.6;stroke-miterlimit:10;" d="M98.578,120c0,0,0-47.91,0-49.785
			c0.059-1.766,1.653-1.782,1.653-1.782"/>
		<g>
			
				<line style="fill:none;stroke:#E6E7E8;stroke-width:0.6;stroke-linecap:round;stroke-linejoin:round;stroke-miterlimit:10;" x1="99.404" y1="69.09" x2="128.633" y2="88.452"/>
		</g>
		<line style="fill:none;stroke:#ABAAA9;stroke-width:0.6;stroke-miterlimit:10;" x1="0" y1="68.433" x2="30.246" y2="68.433"/>
		<path style="fill:#6A7276;" d="M60,91.97c0-1.1-0.9-2-2-2l-58,0l0-1.508l59.508-0.028c1.1-0.001,2,0.899,2,1.999V120H60L60,91.97z
			"/>
	</g>
</g>
<g id="Layer_1">
</g>
</svg>
