<?xml version="1.0" encoding="iso-8859-1"?>
<!-- Generator: Adobe Illustrator 17.0.0, SVG Export Plug-In . SVG Version: 6.00 Build 0)  -->
<!DOCTYPE svg PUBLIC "-//W3C//DTD SVG 1.1//EN" "http://www.w3.org/Graphics/SVG/1.1/DTD/svg11.dtd">
<svg version="1.1" xmlns="http://www.w3.org/2000/svg" xmlns:xlink="http://www.w3.org/1999/xlink" x="0px" y="0px"
	 width="360.001px" height="171.787px" viewBox="0 0 360.001 171.787" style="enable-background:new 0 0 360.001 171.787;"
	 xml:space="preserve">
<g id="Duct_x5F_Horz_x5F_Bypass">
	<g>
		<polygon style="fill:#E7E9EA;" points="270,108.744 230,150.25 230.769,21.787 250,21.849 270,41.826 		"/>
		<polygon style="fill:#E7E9EA;" points="270,41.826 250,21.849 259.958,21.787 300,61.733 		"/>
		<polygon style="fill:#DDDFE1;" points="300,128.652 260,170.875 230,150.967 270,108.744 		"/>
		<polygon style="fill:#DDDFE1;" points="260,170.875 100,170.875 79.297,150.934 230,150.967 		"/>
		<polygon style="fill:#DDDFE1;" points="70.042,151.873 49.149,130.155 60,130.157 100.042,171.78 		"/>
		<polygon style="fill:#E7E9EA;" points="81.271,150.723 60,128.652 60,61.74 100,21.78 230.769,21.787 230,150.25 		"/>
		<polygon style="fill:#E7E9EA;" points="100,20.157 60,60.157 30,40.25 70,0.157 		"/>
		<g>
			<g>
				<polygon style="fill:#E7E9EA;" points="0,108.727 30,108.738 60,128.652 60,60.219 0,60.198 				"/>
				<g>
					<polyline style="fill:#E7E9EA;" points="60,60.157 0,60.157 0,40.157 30,40.25 					"/>
					<polygon style="fill:#6A7276;" points="60,61.74 0,61.733 0,60.111 60,60.173 					"/>
					<g>
						<polyline style="fill:#DDDFE1;" points="60,128.652 0,128.652 0,108.652 30,108.652 						"/>
						<rect y="128.59" style="fill:#6A7276;" width="60" height="1.567"/>
					</g>
				</g>
			</g>
			<line style="fill:none;stroke:#ABAAA9;stroke-width:0.6;stroke-miterlimit:10;" x1="0" y1="108.579" x2="30" y2="108.579"/>
		</g>
		<g>
			<g>
				<polygon style="fill:#E7E9EA;" points="300,108.646 360,108.667 360,60.219 300,60.198 				"/>
				<g>
					<polyline style="fill:#E7E9EA;" points="360,60.157 300,60.157 279.86,40.157 360,40.157 					"/>
					<polygon style="fill:#6A7276;" points="360,61.74 300,61.733 300,60.111 360,60.173 					"/>
					<g>
						<rect x="300" y="128.59" style="fill:#6A7276;" width="60" height="1.567"/>
						<polyline style="fill:#DDDFE1;" points="360,128.652 300,128.652 270,108.652 360,108.652 						"/>
					</g>
				</g>
			</g>
			<line style="fill:none;stroke:#ABAAA9;stroke-width:0.6;stroke-miterlimit:10;" x1="270" y1="108.744" x2="360" y2="108.579"/>
		</g>
		<line style="fill:none;stroke:#ABAAA9;stroke-width:0.6;stroke-miterlimit:10;" x1="60" y1="60.157" x2="30" y2="40.25"/>
		<line style="fill:none;stroke:#F7F6F5;stroke-width:0.6;stroke-miterlimit:10;" x1="300" y1="128.652" x2="270" y2="108.744"/>
		<line style="fill:none;stroke:#ABAAA9;stroke-width:0.4;stroke-miterlimit:10;" x1="60" y1="128.652" x2="30" y2="108.744"/>
		<polygon style="fill:#E7E9EA;" points="260,20.157 100,20.157 70,0.157 230,0.25 		"/>
		<polygon style="fill:#6A7276;" points="259.958,21.787 100,21.78 100,20.157 259.958,20.22 		"/>
		<polygon style="fill:#6A7276;" points="260,171.787 100.042,171.78 100.042,170.157 260,170.22 		"/>
		<polygon style="fill:#6A7276;" points="100.042,171.78 60,130.157 60,128.652 100,170.157 		"/>
		<polygon style="fill:#6A7276;" points="100,21.78 60,61.74 60,60.234 99.958,20.157 		"/>
		<line style="fill:none;stroke:#F7F6F5;stroke-width:0.6;stroke-miterlimit:10;" x1="100" y1="20.157" x2="70" y2="0.25"/>
		<g>
			<polygon style="fill:#DDDFE1;" points="259.958,98.528 100,98.528 70,78.62 229.958,78.62 			"/>
			<polygon style="fill:#6A7276;" points="259.958,100.157 100,100.151 100,98.528 259.958,98.59 			"/>
			<polygon style="fill:#6A7276;" points="100,100.095 70,80.243 70,78.62 100,98.528 			"/>
			<line style="fill:none;stroke:#ABAAA9;stroke-width:0.6;stroke-miterlimit:10;" x1="230.769" y1="78.62" x2="70" y2="78.62"/>
		</g>
		<polyline style="fill:none;stroke:#ABAAA9;stroke-width:0.6;stroke-miterlimit:10;" points="270,108.744 230,150.967 
			81.604,150.755 		"/>
		<polygon style="fill:#6A7276;" points="300,61.733 260,21.78 260,20.157 300,60.166 		"/>
		<polygon style="fill:#6A7276;" points="300,130.157 260,171.787 260,170.164 300,128.59 		"/>
		<g>
			
				<line style="fill:none;stroke:#ABAAA9;stroke-width:0.4;stroke-miterlimit:10;" x1="259.774" y1="98.405" x2="229.774" y2="78.498"/>
		</g>
		<line style="fill:none;stroke:#ABAAA9;stroke-width:0.6;stroke-miterlimit:10;" x1="260" y1="170.22" x2="230.769" y2="150.823"/>
		<line style="fill:none;stroke:#ABAAA9;stroke-width:0.4;stroke-miterlimit:10;" x1="270" y1="41.826" x2="250" y2="21.849"/>
		<polygon style="fill:#E7E9EA;" points="300,108.646 270,108.744 270,41.826 300,61.733 		"/>
		<line style="fill:none;stroke:#ABAAA9;stroke-width:0.4;stroke-miterlimit:10;" x1="300" y1="61.733" x2="270" y2="41.826"/>
	</g>
</g>
<g id="Layer_1">
</g>
</svg>
