<?xml version="1.0" encoding="iso-8859-1"?>
<!-- Generator: Adobe Illustrator 17.0.0, SVG Export Plug-In . SVG Version: 6.00 Build 0)  -->
<!DOCTYPE svg PUBLIC "-//W3C//DTD SVG 1.1//EN" "http://www.w3.org/Graphics/SVG/1.1/DTD/svg11.dtd">
<svg version="1.1" xmlns="http://www.w3.org/2000/svg" xmlns:xlink="http://www.w3.org/1999/xlink" x="0px" y="0px" width="100px"
	 height="120.097px" viewBox="0 0 100 120.097" style="enable-background:new 0 0 100 120.097;" xml:space="preserve">
<g id="Duct_x5F_Vert_x5F_EndCap_x5F_Down">
	<g>
		<g>
			<g>
				<path style="fill:#E7E9EA;" d="M70.047,101.154L70.078,0.047L30,0v100.097c0,0,35.23,0,36.887,0S70.047,101.154,70.047,101.154z
					"/>
				<g>
					<g>
						<polygon style="fill:#DDDFE1;" points="98.493,0.003 98.493,120.097 68.493,100.097 68.493,0.048 						"/>
						<path style="fill:#E7E9EA;" d="M30,0.033l0,120.032L1.592,101.127c0,0-1.592-1.017-1.592-3.142C0,95.86,0,0.002,0,0.002
							L30,0.033z"/>
					</g>
					<rect x="30" y="0.004" style="fill:#6A7276;" width="1.507" height="120"/>
					<rect x="98.493" y="0.004" style="fill:#6A7276;" width="1.507" height="120"/>
				</g>
			</g>
			
				<line style="fill:none;stroke:#ABAAA9;stroke-width:0.6;stroke-miterlimit:10;" x1="68.493" y1="98.979" x2="68.493" y2="0.048"/>
		</g>
		<polygon style="fill:#E7E9EA;" points="98.493,119.192 31.508,119.192 31.508,99.284 68.493,99.284 		"/>
		
			<line style="fill:none;stroke:#ABAAA9;stroke-width:0.6;stroke-miterlimit:10;" x1="98.467" y1="118.886" x2="68.467" y2="98.979"/>
		
			<line style="fill:none;stroke:#ABAAA9;stroke-width:0.6;stroke-miterlimit:10;" x1="68.493" y1="98.979" x2="31.508" y2="98.979"/>
		<polygon style="fill:#6A7276;" points="98.493,118.625 31.508,118.625 31.508,120.004 100,120.004 		"/>
	</g>
</g>
<g id="Layer_1">
</g>
</svg>
