<?xml version="1.0" encoding="iso-8859-1"?>
<!-- Generator: Adobe Illustrator 17.0.0, SVG Export Plug-In . SVG Version: 6.00 Build 0)  -->
<!DOCTYPE svg PUBLIC "-//W3C//DTD SVG 1.1//EN" "http://www.w3.org/Graphics/SVG/1.1/DTD/svg11.dtd">
<svg version="1.1" xmlns="http://www.w3.org/2000/svg" xmlns:xlink="http://www.w3.org/1999/xlink" x="0px" y="0px" width="230px"
	 height="240.249px" viewBox="0 0 230 240.249" style="enable-background:new 0 0 230 240.249;" xml:space="preserve">
<g id="Duct_x5F_Horz_x5F_Bypass_x5F_Left">
	<g>
		<polyline style="fill:#E7E9EA;" points="230,170.249 0,170.249 0,150.249 230,150.249 		"/>
		<polygon style="fill:#E7E9EA;" points="210,88.744 150.136,150.205 82.592,150.249 210,21.825 		"/>
		<polygon style="fill:#DDDFE1;" points="210,88.744 129.063,171.832 99.063,151.792 180,68.703 		"/>
		<polygon style="fill:#E7E9EA;" points="210,20.249 61.144,170.246 31.283,150.25 180,0.249 		"/>
		<g>
			<g>
				<polygon style="fill:#E7E9EA;" points="210,68.667 230,68.687 230,20.311 210,20.29 				"/>
				<g>
					<polyline style="fill:#E7E9EA;" points="230,20.249 210,20.249 180,0.249 230,0.249 					"/>
					<polygon style="fill:#6A7276;" points="230,21.832 210,21.825 210,20.203 230,20.265 					"/>
					<g>
						<polyline style="fill:#DDDFE1;" points="230,88.744 210,88.744 180,68.703 230,68.744 						"/>
						<rect x="210" y="88.682" style="fill:#6A7276;" width="20" height="1.567"/>
					</g>
				</g>
			</g>
			<line style="fill:none;stroke:#ABAAA9;stroke-width:0.6;stroke-miterlimit:10;" x1="180" y1="68.671" x2="230" y2="68.671"/>
		</g>
		<polygon style="fill:#E7E9EA;" points="0,220.29 230,220.311 230,170.311 0,170.29 		"/>
		<g>
			<polyline style="fill:#DDDFE1;" points="230,238.744 0,238.744 0,218.744 230,218.744 			"/>
			<rect y="238.682" style="fill:#6A7276;" width="230" height="1.567"/>
		</g>
		<line style="fill:none;stroke:#ABAAA9;stroke-width:0.6;stroke-miterlimit:10;" x1="0" y1="218.671" x2="230" y2="218.671"/>
		<polygon style="fill:#6A7276;" points="210,21.825 61.182,171.83 61.144,170.246 210,20.258 		"/>
		<polygon style="fill:#6A7276;" points="61.182,171.83 0.03,171.825 0.03,170.203 61.144,170.246 		"/>
		<polygon style="fill:#6A7276;" points="230,171.832 129.063,171.832 130.582,170.3 230,170.265 		"/>
		<line style="fill:none;stroke:#ABAAA9;stroke-width:0.6;stroke-miterlimit:10;" x1="210" y1="20.29" x2="180" y2="0.249"/>
		<polygon style="fill:#6A7276;" points="210,90.249 132.16,170.301 130.582,170.3 210,88.682 		"/>
		
			<line style="fill:none;stroke:#ABAAA9;stroke-width:0.6;stroke-miterlimit:10;" x1="61.144" y1="170.246" x2="31.144" y2="150.205"/>
		
			<line style="fill:none;stroke:#ABAAA9;stroke-width:0.6;stroke-miterlimit:10;" x1="129.063" y1="171.832" x2="99.063" y2="151.792"/>
		<line style="fill:none;stroke:#ABAAA9;stroke-width:0.6;stroke-miterlimit:10;" x1="210" y1="88.744" x2="180" y2="68.703"/>
		<line style="fill:none;stroke:#ABAAA9;stroke-width:0.6;stroke-miterlimit:10;" x1="99.063" y1="151.792" x2="180" y2="68.703"/>
	</g>
</g>
<g id="Layer_1">
</g>
</svg>
