<?xml version="1.0" encoding="iso-8859-1"?>
<!-- Generator: Adobe Illustrator 17.0.0, SVG Export Plug-In . SVG Version: 6.00 Build 0)  -->
<!DOCTYPE svg PUBLIC "-//W3C//DTD SVG 1.1//EN" "http://www.w3.org/Graphics/SVG/1.1/DTD/svg11.dtd">
<svg version="1.1" xmlns="http://www.w3.org/2000/svg" xmlns:xlink="http://www.w3.org/1999/xlink" x="0px" y="0px" width="130px"
	 height="120.032px" viewBox="0 0 130 120.032" style="enable-background:new 0 0 130 120.032;" xml:space="preserve">
<g id="Duct_x5F_Connector_x5F_Corner_x5F_NE">
	<g>
		
			<line style="fill:none;stroke:#ABAAA9;stroke-width:0.6;stroke-miterlimit:10;" x1="94.993" y1="119.909" x2="94.993" y2="21.49"/>
		<g>
			<rect y="20.093" style="fill:#E7E9EA;" width="100" height="50"/>
			<polygon style="fill:#E7E9EA;" points="100,120 99.672,70.03 29.672,70.03 60,90 60,120.032 			"/>
			<g>
				<path style="fill:#E7E9EA;" d="M130,21.969l-2-2L0,20V0c0,0,94.971,0,97.762,0c2.791,0,4.493,1.503,4.493,1.503
					s22.306,14.743,24.99,16.66S130,21.969,130,21.969z"/>
				<polygon style="fill:#DDDFE1;" points="128.493,20.061 128.493,120.03 98.493,120.001 98.493,20.061 				"/>
			</g>
			<path style="fill:#DDDFE1;" d="M0,68.526v20.06h31.508h28.348l1.652,1.802c0,0-0.072-1.85-1.886-3.061
				c-1.52-1.015-20.269-13.536-26.308-17.569c-1.168-0.78-2.224-1.242-4.037-1.242C27.465,68.515,0,68.526,0,68.526z"/>
			<path style="fill:#6A7276;" d="M128.493,23.506c0-1.1-0.9-2-2-2L0,21.532l0-1.508l128-0.055c1.1,0,2,0.9,2,2v98.048l-1.507,0
				V23.506z"/>
			<path style="fill:#E7E9EA;" d="M60,120.029c0,0,0-26.03,0-28.029c0-2-2-2.03-2-2.03l-28,0.029v30L60,120.029z"/>
			<line style="fill:none;stroke:#ABAAA9;stroke-width:0.6;stroke-miterlimit:10;" x1="0" y1="68.433" x2="30" y2="68.433"/>
			<g>
				<path style="fill:none;stroke:#939292;stroke-width:0.6;stroke-miterlimit:10;" d="M30,68.433c0,0,1.125,0,2.436,0.934
					c5.398,3.843,25.47,16.921,26.697,17.711c1.786,1.157,2.128,2.892,2.128,2.892"/>
			</g>
			<path style="fill:#6A7276;" d="M60,92c0-1.1-0.9-2-2-2H0l0-1.508l59.507-0.028c1.1-0.001,2,0.899,2,1.999v29.553H60V92z"/>
		</g>
		
			<line style="fill:none;stroke:#ABAAA9;stroke-width:0.6;stroke-miterlimit:10;" x1="98.493" y1="120.001" x2="98.493" y2="21.512"/>
	</g>
</g>
<g id="Layer_1">
</g>
</svg>
