<?xml version="1.0" encoding="iso-8859-1"?>
<!-- Generator: Adobe Illustrator 17.0.0, SVG Export Plug-In . SVG Version: 6.00 Build 0)  -->
<!DOCTYPE svg PUBLIC "-//W3C//DTD SVG 1.1//EN" "http://www.w3.org/Graphics/SVG/1.1/DTD/svg11.dtd">
<svg version="1.1" xmlns="http://www.w3.org/2000/svg" xmlns:xlink="http://www.w3.org/1999/xlink" x="0px" y="0px"
	 width="280.125px" height="240.157px" viewBox="0 0 280.125 240.157" style="enable-background:new 0 0 280.125 240.157;"
	 xml:space="preserve">
<g id="Duct_x5F_Horz_x5F_Dual_x5F_Split_x5F_Left">
	<g>
		<polygon style="fill:#E7E9EA;" points="160.125,238.652 21.43,138.579 71.163,106.968 160.125,171.78 		"/>
		<polygon style="fill:#E7E9EA;" points="160.125,20.157 50.125,90.157 19.9,70.158 130.125,0.25 		"/>
		<polygon style="fill:#E7E9EA;" points="132.977,68.417 50.048,120.389 50.125,91.74 132.977,39.027 		"/>
		<polygon style="fill:#DDDFE1;" points="162.103,88.643 160.158,88.642 99.18,127.435 71.163,106.968 132.395,68.845 		"/>
		<g>
			<g>
				<g>
					<g>
						<polygon style="fill:#E7E9EA;" points="160.125,220.198 280.125,220.219 280.125,170.219 160.125,170.198 						"/>
						<g>
							<polyline style="fill:#E7E9EA;" points="280.125,170.157 159.161,170.138 132.013,150.138 280.125,150.157 							"/>
							<polygon style="fill:#6A7276;" points="280.125,171.787 159.125,171.739 159.125,170.116 280.125,170.22 							"/>
							<g>
								<polyline style="fill:#DDDFE1;" points="280.125,238.652 160.125,238.652 132.977,218.652 280.125,218.652 								"/>
								<rect x="160.125" y="238.59" style="fill:#6A7276;" width="120" height="1.567"/>
							</g>
						</g>
					</g>
					
						<line style="fill:none;stroke:#ABAAA9;stroke-width:0.6;stroke-miterlimit:10;" x1="132.977" y1="218.59" x2="280.125" y2="218.59"/>
				</g>
				<g>
					<g>
						<polygon style="fill:#E7E9EA;" points="160.125,70.198 280.125,70.219 280.125,20.219 160.125,20.198 131.977,39.027 
							131.977,68.417 						"/>
						<g>
							<polyline style="fill:#E7E9EA;" points="280.125,20.157 160.125,20.157 130.125,0.25 280.125,0.157 							"/>
							<polygon style="fill:#6A7276;" points="280.125,21.787 160.125,21.78 160.125,20.157 280.125,20.22 							"/>
							<g>
								<polyline style="fill:#DDDFE1;" points="280.125,88.652 162.103,88.643 132.103,68.643 280.125,68.652 								"/>
								<polygon style="fill:#6A7276;" points="280.125,90.157 160.117,90.122 160.144,88.606 280.125,88.59 								"/>
							</g>
						</g>
					</g>
					
						<line style="fill:none;stroke:#ABAAA9;stroke-width:0.6;stroke-miterlimit:10;" x1="132.875" y1="68.652" x2="280.125" y2="68.59"/>
				</g>
			</g>
			<g>
				<g>
					<polygon style="fill:#E7E9EA;" points="0,138.641 21.43,138.579 50.048,120.389 50.125,90.559 0.125,90.198 					"/>
					<g>
						<polyline style="fill:#E7E9EA;" points="50.125,90.157 0.125,90.157 0.125,70.157 19.9,70.158 						"/>
						<polygon style="fill:#6A7276;" points="50.125,91.74 0.125,91.733 0.125,90.111 50.125,90.173 						"/>
						<g>
							<polyline style="fill:#DDDFE1;" points="50.125,158.652 0.125,158.652 0.125,138.652 22.442,138.579 							"/>
							<rect x="0.125" y="158.59" style="fill:#6A7276;" width="50" height="1.567"/>
						</g>
					</g>
				</g>
				
					<line style="fill:none;stroke:#ABAAA9;stroke-width:0.6;stroke-miterlimit:10;" x1="71.163" y1="106.968" x2="132.875" y2="68.652"/>
				
					<line style="fill:none;stroke:#ABAAA9;stroke-width:0.6;stroke-miterlimit:10;" x1="0.125" y1="138.579" x2="21.43" y2="138.579"/>
			</g>
		</g>
		
			<line style="fill:none;stroke:#F9F9FA;stroke-width:0.6;stroke-miterlimit:10;" x1="160.125" y1="20.157" x2="130.125" y2="0.25"/>
		<path style="fill:none;stroke:#ABAAA9;stroke-width:0.6;stroke-miterlimit:10;" d="M20.125,71.833"/>
		<path style="fill:none;stroke:#ABAAA9;stroke-width:0.6;stroke-miterlimit:10;" d="M50.125,91.74"/>
		
			<line style="fill:none;stroke:#ABAAA9;stroke-width:0.35;stroke-miterlimit:10;" x1="99.18" y1="127.435" x2="71.163" y2="106.968"/>
		
			<line style="fill:none;stroke:#F9F9FA;stroke-width:0.6;stroke-miterlimit:10;" x1="161.644" y1="88.333" x2="132.977" y2="69.232"/>
		<polygon style="fill:#6A7276;" points="160.125,21.78 50.125,91.74 50.125,90.157 160.125,20.157 		"/>
		<polygon style="fill:#6A7276;" points="160.13,90.157 101.591,127.644 99.18,127.435 160.125,88.652 		"/>
		
			<line style="fill:none;stroke:#ABAAA9;stroke-width:0.6;stroke-miterlimit:10;" x1="49.125" y1="158.59" x2="21.442" y2="138.579"/>
		<line style="fill:none;stroke:#ABAAA9;stroke-width:0.6;stroke-miterlimit:10;" x1="49.789" y1="89.995" x2="19.9" y2="70.158"/>
		<polygon style="fill:#6A7276;" points="160.125,240.157 50.125,160.157 50.125,158.652 160.125,238.652 		"/>
		<polygon style="fill:#6A7276;" points="159.125,171.78 99.18,127.435 101.591,127.644 159.125,170.157 		"/>
	</g>
</g>
<g id="Layer_1">
</g>
</svg>
