<?xml version="1.0" encoding="iso-8859-1"?>
<!-- Generator: Adobe Illustrator 17.0.0, SVG Export Plug-In . SVG Version: 6.00 Build 0)  -->
<!DOCTYPE svg PUBLIC "-//W3C//DTD SVG 1.1//EN" "http://www.w3.org/Graphics/SVG/1.1/DTD/svg11.dtd">
<svg version="1.1" xmlns="http://www.w3.org/2000/svg" xmlns:xlink="http://www.w3.org/1999/xlink" x="0px" y="0px" width="140px"
	 height="160.004px" viewBox="0 0 140 160.004" style="enable-background:new 0 0 140 160.004;" xml:space="preserve">
<g id="Duct_x5F_Connector_x5F_T_x5F_Right">
	<polygon style="fill:#DDDFE1;" points="98.493,51.579 68.493,31.669 68.493,0.083 98.493,0.134 	"/>
	<polygon style="fill:#E7E9EA;" points="68.493,100.04 140,100.061 140,51.591 98.493,51.579 68.493,31.669 	"/>
	<polygon style="fill:#E7E9EA;" points="68.461,159.997 68.493,0.083 30,0 30,159.997 	"/>
	<polygon style="fill:#DDDFE1;" points="98.493,98.378 98.493,159.997 68.493,159.997 68.493,98.458 	"/>
	<polygon style="fill:#E7E9EA;" points="30,0.059 30,159.997 0,159.997 0,0.004 	"/>
	<rect x="30" y="0.008" style="fill:#6A7276;" width="1.507" height="159.997"/>
	<rect x="98.493" y="118.495" style="fill:#6A7276;" width="1.507" height="41.362"/>
	
		<line style="fill:none;stroke:#ABAAA9;stroke-width:0.6;stroke-miterlimit:10;" x1="68.493" y1="159.997" x2="68.493" y2="98.458"/>
	<polyline style="fill:#E7E9EA;" points="140,50 98.493,50 98.493,30 140,30 	"/>
	<polygon style="fill:#6A7276;" points="140,51.583 98.493,51.576 98.493,49.953 140,50.016 	"/>
	<g>
		<polyline style="fill:#DDDFE1;" points="140,118.494 98.493,118.494 98.493,98.494 140,98.494 		"/>
		<rect x="98.492" y="118.433" style="fill:#6A7276;" width="41.507" height="1.567"/>
	</g>
	<line style="fill:none;stroke:#ABAAA9;stroke-width:0.6;stroke-miterlimit:10;" x1="68.493" y1="98.422" x2="140" y2="98.422"/>
	<rect x="98.493" y="0.133" style="fill:#6A7276;" width="1.507" height="51.442"/>
	
		<line style="fill:none;stroke:#ABAAA9;stroke-width:0.6;stroke-miterlimit:10;" x1="98.493" y1="118.495" x2="68.493" y2="98.588"/>
	<line style="fill:none;stroke:#ABAAA9;stroke-width:0.6;stroke-miterlimit:10;" x1="98.493" y1="51.576" x2="68.493" y2="31.669"/>
	<line style="fill:none;stroke:#ABAAA9;stroke-width:0.6;stroke-miterlimit:10;" x1="68.493" y1="31.669" x2="68.493" y2="0.083"/>
</g>
<g id="Layer_1">
</g>
</svg>
