<?xml version="1.0" encoding="iso-8859-1"?>
<!-- Generator: Adobe Illustrator 17.0.0, SVG Export Plug-In . SVG Version: 6.00 Build 0)  -->
<!DOCTYPE svg PUBLIC "-//W3C//DTD SVG 1.1//EN" "http://www.w3.org/Graphics/SVG/1.1/DTD/svg11.dtd">
<svg version="1.1" xmlns="http://www.w3.org/2000/svg" xmlns:xlink="http://www.w3.org/1999/xlink" x="0px" y="0px"
	 width="130.19px" height="90px" viewBox="0 0 130.19 90" style="enable-background:new 0 0 130.19 90;" xml:space="preserve">
<g id="Duct_x5F_Horz_x5F_End_x5F_Right">
	<g>
		<g>
			<path style="fill:#E7E9EA;" d="M101.154,70.047L0.047,70.078L0,20h100.097c0,0,0,45.23,0,46.887
				C100.097,68.543,101.154,70.047,101.154,70.047z"/>
			<g>
				<g>
					<polygon style="fill:#DDDFE1;" points="0.003,88.493 130.19,88.493 100.097,68.493 0.048,68.493 					"/>
					<path style="fill:#E7E9EA;" d="M0.033,20l130.125,0L101.127,1.592c0,0-1.017-1.592-3.142-1.592C95.86,0,0.002,0,0.002,0
						L0.033,20z"/>
				</g>
				<rect x="0.005" y="20" style="fill:#6A7276;" width="130.093" height="1.507"/>
				<rect x="0.005" y="88.492" style="fill:#6A7276;" width="130.093" height="1.507"/>
			</g>
		</g>
		
			<line style="fill:none;stroke:#ABAAA9;stroke-width:0.6;stroke-miterlimit:10;" x1="100.097" y1="68.493" x2="0.048" y2="68.493"/>
	</g>
</g>
<g id="Layer_1">
</g>
</svg>
